<?xml version="1.0" encoding="UTF-8" standalone="no"?>
<!-- Created with Inkscape (http://www.inkscape.org/) -->

<svg
   xmlns:dc="http://purl.org/dc/elements/1.1/"
   xmlns:cc="http://creativecommons.org/ns#"
   xmlns:rdf="http://www.w3.org/1999/02/22-rdf-syntax-ns#"
   xmlns:svg="http://www.w3.org/2000/svg"
   xmlns="http://www.w3.org/2000/svg"
   xmlns:sodipodi="http://sodipodi.sourceforge.net/DTD/sodipodi-0.dtd"
   xmlns:inkscape="http://www.inkscape.org/namespaces/inkscape"
   width="141.9287"
   height="67.193123"
   id="svg2"
   version="1.1"
   inkscape:version="0.48.4 r9939"
   sodipodi:docname="Small Title.svg">
  <defs
     id="defs4" />
  <sodipodi:namedview
     id="base"
     pagecolor="#ffffff"
     bordercolor="#666666"
     borderopacity="1.0"
     inkscape:pageopacity="0.0"
     inkscape:pageshadow="2"
     inkscape:zoom="1"
     inkscape:cx="-5.0910674"
     inkscape:cy="-41.732806"
     inkscape:document-units="px"
     inkscape:current-layer="layer3"
     showgrid="false"
     showguides="true"
     inkscape:guide-bbox="true"
     inkscape:window-width="1366"
     inkscape:window-height="746"
     inkscape:window-x="-8"
     inkscape:window-y="-8"
     inkscape:window-maximized="1"
     fit-margin-top="0"
     fit-margin-left="10"
     fit-margin-right="10"
     fit-margin-bottom="0" />
  <metadata
     id="metadata7">
    <rdf:RDF>
      <cc:Work
         rdf:about="">
        <dc:format>image/svg+xml</dc:format>
        <dc:type
           rdf:resource="http://purl.org/dc/dcmitype/StillImage" />
        <dc:title />
      </cc:Work>
    </rdf:RDF>
  </metadata>
  <g
     inkscape:label="Layer 1"
     inkscape:groupmode="layer"
     id="layer1"
     style="display:none"
     sodipodi:insensitive="true"
     transform="translate(-213.90739,-195.09532)">
    <flowRoot
       xml:space="preserve"
       id="flowRoot2985"
       style="font-size:10px;font-style:normal;font-weight:normal;line-height:125%;letter-spacing:0px;word-spacing:0px;fill:#000000;fill-opacity:1;stroke:none;font-family:Sans"
       transform="matrix(6.5066636,0,0,7.1715792,-333.14239,-761.85417)"><flowRegion
         id="flowRegion2987"><rect
           id="rect2989"
           width="318.57144"
           height="52.857143"
           x="60"
           y="122.36218" /></flowRegion><flowPara
         id="flowPara2991"
         style="font-style:normal;font-variant:normal;font-weight:bold;font-stretch:normal;font-family:Rod;-inkscape-font-specification:Rod Bold">COURSE</flowPara></flowRoot>    <path
       id="path2995-1"
       style="fill:none;stroke:#000000;stroke-width:0.79214841px;stroke-linecap:butt;stroke-linejoin:miter;stroke-opacity:1"
       d="m 206.03075,306.72254 c 0.0821,0.0407 -33.94395,15.13814 -67.94047,52.65117 -16.91425,18.66382 -29.60152,33.72833 -39.026336,51.71033 -13.366897,25.50326 -14.097469,28.24931 12.049886,8.2675 7.13833,-5.45513 12.77322,-11.29263 25.27082,-20.27828 29.46939,-21.1882 54.37587,-46.4248 72.02493,-59.33446 17.55636,-12.84186 20.72017,-16.62396 8.99197,9.78041 -26.31383,59.24183 -100.91577,102.76832 -100.91577,102.76832 m 0.78662,-0.24007 -0.15784,-0.0947 -13.18599,22.90942 c 0,0 93.7263,-55.21147 126.78572,-130.35714 14.73475,-33.4928 4.48676,-31.85462 -17.57884,-15.57718 -22.18516,16.36564 -49.76557,49.50076 -82.33188,80.05932 -14.16533,13.29202 -24.15579,20.17753 -33.124067,27.09712 -32.850271,25.34606 -32.432416,18.86281 -15.638884,-13.48696 11.840889,-22.80938 27.780561,-41.91806 49.030811,-65.5923 42.71159,-47.58365 85.46023,-66.73412 85.35714,-66.78572 l -10.73626,16.58715"
       inkscape:connector-curvature="0"
       sodipodi:nodetypes="cssssssccccsssssscc" />
    <path
       style="fill:none;stroke:#000000;stroke-width:1px;stroke-linecap:butt;stroke-linejoin:miter;stroke-opacity:1"
       d="m 140.17411,386.81216 c 23.82406,-22.30043 23.82406,-22.85448 23.82406,-22.85448 2.07768,1.66215 2.63173,3.18578 2.63173,3.18578 l -24.37811,22.16191 z"
       id="path3052"
       inkscape:connector-curvature="0" />
    <path
       style="fill:none;stroke:#000000;stroke-width:1px;stroke-linecap:butt;stroke-linejoin:miter;stroke-opacity:1"
       d="m 245.93714,526.24155 18.90007,-1.20315 28.20752,-83.05545 c 0,0 70.48617,-38.05271 57.94949,-5.14394 -12.53667,32.90876 -38.56736,87.5109 -38.56736,87.5109 l 17.64121,-0.8786 c -5.269,1.31725 29.14705,-65.77112 31.62686,-97.56251 1.89667,-24.31544 -55.32999,1.18684 -55.32999,1.18684 l 101.86046,-121.44901 -22.72271,2.35063 -88.54025,121.44901 c 17.95144,-42.27089 31.84725,-87.24554 45.44544,-132.4186 l -12.53668,0.78354 c -30.94723,121.65693 -64.46841,168.37508 -83.93406,228.43034 z"
       id="path3073"
       inkscape:connector-curvature="0"
       sodipodi:nodetypes="cccsccsccccccc" />
    <path
       style="fill:none;stroke:#000000;stroke-width:0.87445831px;stroke-linecap:butt;stroke-linejoin:miter;stroke-opacity:1"
       d="M 644.25,404.59375 C 427.59373,406.36554 428.4375,406.375 428.4375,406.375 l 13.8125,14.59375 86.28125,-3.78125 c -42.82754,155.94792 -79.5,195.34375 -79.5,195.34375 L 473.75,613.9375 c 4.19753,-8.10921 -9.5439,28.32708 66.6875,-197.28125 L 644.25,412.125 l 0,-7.53125 z"
       id="path3096"
       inkscape:connector-curvature="0" />
    <path
       style="fill:none;stroke:#000000;stroke-width:1px;stroke-linecap:butt;stroke-linejoin:miter;stroke-opacity:1"
       d="m 228,711.36218 c -85.17207,-6 -118.3049,92.33227 -94,152 15.34366,37.66818 105,-38 105,-38 l 15,33 c -0.0564,-1.489 -64.68941,33.29528 -123,27 -19.71317,-2.12826 -41.818279,-94.60045 -10,-157 39.25359,-76.98111 111.44984,-41.15746 106,-47 z"
       id="path3103"
       inkscape:connector-curvature="0"
       sodipodi:nodetypes="csccsscc" />
    <path
       style="fill:none;stroke:#000000;stroke-width:1px;stroke-linecap:butt;stroke-linejoin:miter;stroke-opacity:1"
       d="m 491.6875,671.84375 c -6.139,41.22266 -11.69844,75.41057 -16.6875,103.96875 -33.06308,0.13017 -57.13944,1.19675 -74.4375,2.6875 7.63469,-56.48747 14.18972,-108.24715 12.09375,-105.65625 -5.3798,0.56092 -5.8659,-0.47807 -5.875,-0.84375 -7.14552,43.08445 -13.50342,78.50767 -19.15625,107.84375 -29.2673,3.52353 -31.9375,8.0625 -31.9375,8.0625 l 4.9375,12.71875 c 6.94264,-4.67228 15.46844,-8.08935 25.03125,-10.625 -25.1768,128.04309 -35.3125,128.4375 -35.3125,128.4375 L 381.25,917.03125 c -0.0317,-0.0219 9.51396,-66.42667 18.15625,-130 22.71016,-3.87524 49.28059,-4.16572 74.40625,-4.34375 C 449.80764,918.11467 439.25,917.71875 439.25,917.71875 L 470.21875,917.25 c -0.0328,-0.0219 8.81057,-69.67478 16.53125,-134.6875 11.71337,-0.11305 22.93779,-0.32753 32.96875,-1.03125 l -18.375,-5.65625 c -4.78517,-0.0491 -9.30472,-0.0478 -13.78125,-0.0625 6.56442,-55.57755 12.02127,-105.80352 10,-103.21875 -5.3213,0.64386 -5.85114,-0.37575 -5.875,-0.75 z"
       id="path3117"
       inkscape:connector-curvature="0" />
  </g>
  <g
     inkscape:groupmode="layer"
     id="layer2"
     inkscape:label="color"
     style="opacity:0.29861109;display:none"
     transform="translate(-213.90739,-195.09532)"
     sodipodi:insensitive="true">
    <g
       id="g3012">
      <g
         style="fill:#2a75a9;fill-opacity:1"
         transform="matrix(0.55589528,0,0,0.69870328,2.16269,153.00451)"
         id="g3151">
        <path
           inkscape:connector-curvature="0"
           id="path3044"
           d="m 479.32066,56.600753 c -14.81309,1.686354 -25.05031,14.475001 -34.19379,25.076946 -5.46436,9.027768 -13.12793,17.968528 -13.41499,28.939811 0.29928,3.31105 5.20005,1.13334 7.33182,1.29817 12.98767,-2.85436 24.16384,-12.844261 38.06781,-11.55692 -7.09638,15.12797 -16.05845,32.96484 -33.74556,37.33045 -3.61175,1.26625 -8.01584,0.27195 -11.36592,1.1082 -1.93911,3.83015 -6.73751,7.68434 -6.43535,11.90522 0.85655,2.61604 4.18052,-0.29294 6.08317,0.88655 20.64412,-1.62824 33.69382,-20.50547 41.84578,-37.52043 2.81441,-6.09845 6.54332,-13.43457 4.48233,-20.137543 -4.42294,-4.337839 -10.38782,2.328359 -14.40749,4.116165 -7.56306,3.943378 -16.45614,6.339428 -24.94099,6.142588 -3.58144,-3.50071 2.14115,-7.778499 3.38748,-11.247683 7.6099,-11.927047 18.10995,-24.063721 32.85539,-26.874344 3.60889,-0.635063 8.09908,3.996857 10.05323,-0.601593 2.83081,-2.672581 4.79572,-8.130881 -0.80042,-8.358982 -1.54063,-0.468164 -3.1956,-0.600491 -4.8025,-0.506605 z"
           style="fill:#2a75a9;fill-opacity:1;stroke:#000000;stroke-width:0.14151919;stroke-opacity:1" />
        <path
           inkscape:connector-curvature="0"
           id="path3077"
           d="m 510.83314,54.533472 c -3.16461,-0.500225 -6.08643,0.881981 -6.19351,4.572604 -8.01243,29.060588 -21.66782,55.819814 -34.69077,82.777584 -1.40539,4.15125 -4.55535,8.00945 -4.32028,12.58601 3.70548,-0.0452 8.58922,0.62189 11.33464,-1.26063 4.44162,-11.59074 8.88491,-23.18081 13.33214,-34.76929 8.25438,-2.98748 16.75741,-8.33517 25.73926,-6.94154 0.68973,4.26096 -3.34866,8.37967 -4.53119,12.42316 -4.85571,10.11432 -9.9801,19.94101 -15.17543,29.85966 3.66009,-0.41883 8.67108,0.90455 11.39498,-1.3222 5.1901,-14.19782 14.02537,-27.45374 15.71167,-42.77865 -0.62015,-5.83396 -7.85462,-5.04922 -11.95803,-4.5726 -3.6407,0.60194 -7.22106,1.64019 -10.72469,2.75458 15.41825,-16.744265 31.53861,-33.262419 46.94733,-49.995645 -5.05093,0.844389 -10.7819,-0.135675 -15.44355,2.093482 -11.90461,14.454 -23.80933,28.943401 -35.71322,43.412193 6.79578,-15.423507 12.1412,-31.531267 17.8298,-47.433882 -0.88672,-1.329599 -2.04054,-1.606967 -3.53915,-1.404836 z"
           style="fill:#2a75a9;fill-opacity:1;stroke:#000000;stroke-width:0.24996518;stroke-opacity:1" />
        <path
           inkscape:connector-curvature="0"
           id="path3094"
           d="m 585.88454,56.337899 c -12.07849,2.770402 -24.15686,5.707663 -36.16873,8.815689 -6.68347,29.843002 -13.35881,59.744722 -20.03913,89.561892 0.34766,4.07451 5.89195,-0.2047 8.40426,0 12.50515,-3.37925 25.05243,-6.55234 37.52653,-10.08295 -3.5809,-5.00683 -9.82971,-4.97858 -14.7016,-7.27294 -7.47439,2.21821 -14.80209,5.96389 -22.23967,8.65039 2.54752,-10.53704 5.24924,-21.16356 7.93605,-31.70892 4.15271,-1.97159 10.35407,-0.85178 11.77918,-7.10884 1.329,-2.52483 2.41771,-5.10115 3.5545,-7.795187 -4.17671,0.924937 -8.33088,1.988617 -12.50104,2.947747 2.19908,-10.369949 4.4741,-20.722786 6.81236,-31.047758 7.47212,-1.161848 15.36734,-0.696946 22.63764,-2.506962 2.98572,-3.327965 6.83861,-6.599692 8.70859,-10.716572 0.13754,-2.373117 0.26082,-2.16706 -1.70894,-1.735589 z"
           style="fill:#2a75a9;fill-opacity:1;stroke:#000000;stroke-width:0.18320894;stroke-opacity:1" />
        <path
           inkscape:connector-curvature="0"
           id="path3101"
           d="m 649.58437,56.804356 c -18.63914,0.557255 -37.32209,0.307365 -55.93804,1.129556 -3.18945,0.958385 0.9731,5.057565 1.66763,7.076123 2.22581,4.633171 8.07231,0.485684 11.84493,1.356353 3.36726,0.115676 8.12281,-1.292246 10.76244,-0.332736 -4.88785,29.507181 -10.13783,59.312168 -20.33472,86.893128 2.68186,0.77948 6.22677,2.3751 8.70147,0.63366 4.6623,-20.27809 8.08581,-41.19357 12.2463,-61.717645 1.76487,-8.898793 3.42854,-17.941384 5.27393,-26.745848 8.70925,-0.997567 17.58561,-0.850734 26.22168,-2.259111 1.57582,-1.094204 1.63828,-5.78963 0.32845,-6.047469 l -0.75044,0.01356 -0.0236,4.27e-4 z"
           style="fill:#2a75a9;fill-opacity:1;stroke:#000000;stroke-width:0.24270198;stroke-opacity:1" />
        <path
           inkscape:connector-curvature="0"
           id="path3105"
           d="m 671.08588,58.123495 c -12.15435,1.457121 -20.04582,15.49399 -24.80368,28.129938 -6.45353,18.447367 -9.85215,39.125817 -7.61795,59.207627 0.44426,4.53784 3.87818,7.04128 7.32321,6.96229 11.03443,2.34045 22.05288,-1.4849 32.58034,-5.27788 -2.47086,-3.60109 2.91388,-9.68459 -1.24699,-11.79098 -4.76669,1.97882 -9.07066,6.35026 -14.03425,8.16946 -5.57191,1.93762 -12.30857,5.01563 -17.68453,1.01067 -4.25094,-3.74474 -1.86762,-11.1185 -2.0273,-16.47367 1.84721,-18.73192 5.99879,-38.747766 16.90044,-52.672073 5.63493,-6.956016 14.22869,-7.082258 21.42548,-4.351437 -0.79464,-3.448471 3.2609,-4.875659 1.8138,-8.281769 -2.98141,-3.409218 -8.51417,-4.645879 -12.62857,-4.632176 z"
           style="fill:#2a75a9;fill-opacity:1;stroke:#000000;stroke-width:0.37745205;stroke-opacity:1" />
        <path
           inkscape:connector-curvature="0"
           id="path3141"
           d="m 709.81626,51.970302 c -5.52171,-1.12414 -3.28708,6.850988 -4.76479,10.470699 -1.72715,11.385723 -3.51779,22.759909 -5.4203,34.114679 -3.93934,0.99163 -8.94807,0.75673 -11.75201,4.1823 0.15263,2.89685 1.66683,8.45981 5.16599,5.73129 1.63507,-0.92221 3.6829,-2.01295 5.23944,-2.40095 -3.25514,17.12186 -5.8445,34.62179 -11.89892,50.83301 1.07701,3.58751 6.16285,0.75597 8.88561,1.31145 2.78085,0.37868 5.17065,-0.92022 4.73275,-4.22149 2.10648,-16.70086 4.1858,-33.40561 6.21316,-50.11738 8.11544,-1.29543 16.46532,-1.42681 24.70372,-1.52318 -3.16448,17.76595 -5.17913,36.04439 -11.3925,52.87504 -3.95603,5.50844 4.79066,2.25836 7.76863,2.98431 2.36122,0.0909 5.80134,0.46419 5.30817,-3.03264 2.00729,-17.65973 3.93482,-35.33074 5.80761,-53.00743 4.80994,-0.0785 9.66076,-0.005 14.34725,-1.34247 -4.30912,-2.14505 -8.84746,-4.46776 -13.73517,-4.07903 1.34836,-14.190131 3.00543,-28.355809 3.79492,-42.597491 -2.6554,-0.81716 -6.26306,-0.183781 -5.46643,3.767512 -1.76937,12.928606 -3.54139,25.858057 -5.5266,38.752529 -8.27186,0.1793 -16.54834,0.39624 -24.80164,1.03267 1.58472,-14.558397 3.56212,-29.147994 4.5539,-43.836694 -0.5876,0.03442 -1.17519,0.06884 -1.76279,0.103266 z"
           style="fill:#2a75a9;fill-opacity:1;stroke:#000000;stroke-width:0.1955723;stroke-opacity:1" />
      </g>
      <flowRoot
         transform="matrix(1.0970973,0,0,1.7791555,129.99611,-236.59938)"
         style="font-size:10px;font-style:normal;font-weight:normal;line-height:125%;letter-spacing:0px;word-spacing:0px;fill:#2a75a9;fill-opacity:1;stroke:none;font-family:Sans"
         id="flowRoot3143"
         xml:space="preserve"><flowRegion
           id="flowRegion3145"><rect
             style="fill:#2a75a9;fill-opacity:1"
             y="192.52034"
             x="82.024384"
             height="107.48023"
             width="438.40619"
             id="rect3147" /></flowRegion><flowPara
           style="font-size:48px;font-style:normal;font-variant:normal;font-weight:normal;font-stretch:normal;fill:#2a75a9;fill-opacity:1;font-family:Gungsuh;-inkscape-font-specification:Gungsuh"
           id="flowPara3149">COURSE</flowPara></flowRoot>    </g>
  </g>
  <g
     inkscape:groupmode="layer"
     id="layer3"
     inkscape:label="color2"
     transform="translate(-1.2637421,-77.288863)">
    <path
       style="fill:#2a75a9;fill-opacity:1;stroke:none"
       d="m 18.574569,108.04362 c -3.524956,-0.67733 -6.051741,-4.32339 -7.018219,-10.127048 -0.419147,-2.516961 -0.380604,-8.826534 0.06823,-11.170033 0.871307,-4.549311 2.678663,-7.551186 5.300653,-8.803967 0.939766,-0.449017 2.334457,-0.705158 3.388949,-0.622395 1.289863,0.101237 2.207128,0.398 3.283781,1.0624 0.522946,0.322709 0.980589,0.586744 1.016984,0.586744 0.0364,0 0.06617,-0.26312 0.06617,-0.584711 0,-0.874304 0.642539,-1.233068 1.766481,-0.98632 0.925145,0.203103 0.968049,0.353564 0.747523,2.621386 -0.226295,2.327152 -0.126194,4.694675 0.297464,7.035414 0.32088,1.772892 0.269806,2.171217 -0.336378,2.623412 -0.781078,0.58266 -1.609913,0.3957 -1.864709,-0.420622 -0.07775,-0.249086 -0.251604,-1.37611 -0.386349,-2.504497 -0.362311,-3.034062 -0.709091,-3.934923 -1.921531,-4.99171 -1.652645,-1.440481 -4.081502,-1.464673 -5.72635,-0.05704 -1.893632,1.620542 -2.891043,4.296686 -3.229015,8.663737 -0.29118,3.762441 0.202776,7.84932 1.260047,10.42535 1.14408,2.78754 2.579175,3.99285 4.761543,3.99914 2.508819,0.007 4.476278,-1.51711 5.298947,-4.10551 0.316192,-0.994857 0.558856,-1.365267 1.002339,-1.53001 0.739356,-0.274652 1.583071,0.413053 1.697453,1.38358 0.189406,1.60712 -1.895754,5.28961 -3.623294,6.3989 -1.617918,1.03891 -3.924125,1.474 -5.850727,1.1038 l 0,0 z"
       id="path3083"
       inkscape:connector-curvature="0" />
    <path
       style="fill:#2a75a9;fill-opacity:1;stroke:none"
       d="m 39.540076,108.06711 c -4.746818,-0.9958 -7.426743,-7.23039 -7.112577,-16.546744 0.159576,-4.732113 0.92904,-7.987422 2.495111,-10.555879 1.081346,-1.773477 2.086798,-2.653228 3.757036,-3.287336 0.752362,-0.285635 1.068609,-0.333528 2.213116,-0.335155 1.210842,-0.0017 1.426738,0.0348 2.315988,0.391714 2.773041,1.113017 4.788799,4.389746 5.660027,9.200697 0.765096,4.224883 0.545295,10.177148 -0.511781,13.859103 -1.009363,3.51577 -2.854274,6.00644 -5.123926,6.91741 -0.778109,0.31231 -1.168368,0.3903 -2.093953,0.41842 -0.625683,0.019 -1.345251,-0.009 -1.599041,-0.0622 l 0,0 z m 2.87634,-3.58475 c 2.43059,-0.9875 3.82744,-4.511634 4.109256,-10.367307 0.26841,-5.577103 -0.819122,-10.299331 -2.83924,-12.32841 -1.34657,-1.352541 -3.635194,-1.496148 -5.228675,-0.328086 -2.139979,1.568656 -3.266747,5.455442 -3.266747,11.268641 0,5.583939 1.008363,9.297322 3.00648,11.071612 1.168295,1.03742 2.726523,1.28989 4.218926,0.68355 l 0,0 z"
       id="path3085"
       inkscape:connector-curvature="0" />
    <path
       style="fill:#2a75a9;fill-opacity:1;stroke:none"
       d="m 60.950364,107.98117 c -2.188387,-0.47945 -3.844611,-1.99232 -4.723227,-4.3144 -0.689193,-1.82146 -0.757215,-2.95954 -0.757215,-12.668806 0,-10.266978 0.08259,-9.57401 -1.148802,-9.638632 -0.60806,-0.03191 -0.728226,-0.08386 -0.922352,-0.39874 -0.303113,-0.491666 -0.301638,-2.21047 0.0022,-2.583576 0.217823,-0.267466 0.27586,-0.272305 3.513921,-0.292992 l 3.29244,-0.02103 0.236982,0.407163 c 0.170761,0.293387 0.221671,0.654371 0.182189,1.291825 -0.07225,1.166536 -0.38249,1.532944 -1.378612,1.628218 -0.458166,0.04382 -0.780138,0.149816 -0.916476,0.301708 -0.178288,0.198629 -0.202902,1.662289 -0.162239,9.647438 0.04694,9.216474 0.05461,9.432634 0.36748,10.338804 0.765602,2.2175 1.767253,2.99763 3.964347,3.08763 1.072774,0.0439 1.260684,0.0164 1.997294,-0.29276 1.398777,-0.58707 2.195283,-1.78567 2.512414,-3.78074 0.230424,-1.449588 0.19388,-18.694043 -0.04038,-19.067926 -0.171825,-0.274204 -0.275181,-0.301708 -1.133768,-0.301708 -0.908856,0 -0.951895,-0.01374 -1.134283,-0.362049 -0.228157,-0.435718 -0.262143,-2.058146 -0.05335,-2.546508 l 0.149598,-0.349887 3.365949,0.02404 c 3.347057,0.02391 3.36698,0.0256 3.5488,0.301708 0.254339,0.386231 0.236618,2.059607 -0.02724,2.574521 -0.199855,0.389964 -0.260083,0.418514 -0.882934,0.418514 -0.496582,0 -0.705774,0.05686 -0.813618,0.221149 -0.09002,0.137141 -0.167289,3.930697 -0.203413,9.986529 -0.06316,10.590267 -0.06021,10.549527 -0.913539,12.588657 -0.887985,2.12195 -2.339664,3.36167 -4.464897,3.81298 -1.064874,0.22614 -2.393806,0.22186 -3.457239,-0.0111 l 0,-1e-5 z"
       id="path3087"
       inkscape:connector-curvature="0" />
    <path
       style="fill:#2a75a9;fill-opacity:1;stroke:none"
       d="m 89.534885,107.46044 c -0.109957,-0.0554 -0.224699,-0.33825 -0.254984,-0.62856 -0.387477,-3.71411 -0.691517,-5.23461 -1.420744,-7.105061 -0.572861,-1.469382 -1.333516,-2.653816 -2.137376,-3.328159 l -0.636203,-0.533701 -2.077847,0 -2.077841,0 0,4.028108 c 0,3.359513 0.03541,4.052053 0.213242,4.172393 0.119922,0.0811 0.589564,0.1361 1.073167,0.12558 0.472958,-0.0103 0.935103,-0.0143 1.026996,-0.009 0.538253,0.0318 0.77464,2.14731 0.318427,2.84973 l -0.237606,0.36584 -3.749744,-0.01 -3.74975,-0.01 -0.183608,-0.29581 c -0.236736,-0.38139 -0.230229,-2.12052 0.0097,-2.57875 0.181287,-0.3463 0.201389,-0.35155 1.24118,-0.32405 0.929892,0.0246 1.076216,-0.001 1.217578,-0.21682 0.113007,-0.17215 0.149006,-3.50264 0.121361,-11.227069 -0.04488,-12.53729 0.103066,-11.358908 -1.43747,-11.449759 -0.55286,-0.0326 -0.960367,-0.122493 -1.077655,-0.237709 -0.24753,-0.243169 -0.260799,-2.574567 -0.01605,-2.814833 0.142801,-0.140166 1.16467,-0.169001 5.920923,-0.167076 5.510496,0.0022 5.776209,0.01274 6.421963,0.254117 1.77344,0.662885 2.971563,2.146148 3.636494,4.501943 0.31658,1.121608 0.44446,5.261326 0.206581,6.687279 -0.38049,2.280842 -1.269801,3.902233 -2.744649,5.004055 l -0.922237,0.688977 0.582097,0.534787 c 1.165327,1.070617 2.166431,3.394711 2.706022,6.282118 0.43231,2.31331 0.52891,2.42902 1.82905,2.19085 0.49326,-0.0904 0.674494,-0.0776 0.842381,0.0593 0.541848,0.44177 0.659935,1.99689 0.209447,2.75823 l -0.214225,0.36205 -1.84805,0.008 c -1.016427,0.005 -2.015133,0.0431 -2.219339,0.0855 -0.204207,0.0424 -0.461252,0.0317 -0.571204,-0.0237 l 0,0 z M 86.996153,92.245579 c 1.246272,-0.518368 1.976511,-1.848276 2.253048,-4.103243 0.390271,-3.182445 -0.463739,-5.836433 -2.096611,-6.515602 -0.527199,-0.219281 -0.868954,-0.243751 -3.404365,-0.243751 l -2.818335,0 0,5.551424 0,5.551424 2.744324,0 c 2.447964,0 2.806701,-0.02594 3.321939,-0.240252 l 0,0 z"
       id="path3089"
       inkscape:connector-curvature="0" />
    <path
       style="fill:#2a75a9;fill-opacity:1;stroke:none"
       d="m 98.72482,108.22886 c -0.531124,-0.18207 -0.917926,-0.61324 -0.922195,-1.02797 -0.0018,-0.16139 0.03997,-1.30369 0.09257,-2.53847 0.06717,-1.57756 0.0357,-2.67192 -0.10583,-3.68083 -0.283577,-2.021377 -0.266371,-2.49934 0.104646,-2.906243 0.551854,-0.605231 1.777064,-0.493086 2.126469,0.194637 0.0897,0.17663 0.19287,0.94325 0.22918,1.703601 0.0363,0.760355 0.16133,1.668335 0.27782,2.017735 0.45905,1.3769 1.47324,2.30202 2.90192,2.64705 1.02478,0.24749 2.85514,0.24907 3.57321,0.003 1.29609,-0.44399 2.25776,-1.54579 2.65688,-3.04406 0.24555,-0.92183 0.25612,-3.34572 0.0174,-4.00153 -0.48264,-1.326095 -1.71721,-2.160855 -4.45604,-3.012987 -2.21227,-0.688301 -3.90771,-1.442339 -4.73384,-2.105344 -1.862002,-1.494326 -2.81263,-4.624994 -2.410978,-7.939945 0.221016,-1.824098 0.509241,-2.748535 1.237319,-3.968508 0.744729,-1.24786 1.869579,-2.213654 3.144949,-2.70024 2.12922,-0.812348 5.09941,-0.617857 6.73259,0.440855 0.36009,0.233435 0.72572,0.405131 0.8125,0.381548 0.0868,-0.02358 0.24275,-0.288159 0.3466,-0.587945 0.27777,-0.801799 1.01752,-1.034032 1.89854,-0.596015 0.75742,0.376566 0.89848,0.837989 0.6087,1.991201 -0.42294,1.68314 -0.5649,3.193568 -0.51789,5.510209 0.04,1.97367 0.0146,2.276208 -0.21549,2.5626 -0.48556,0.604313 -1.55149,0.583641 -2.01599,-0.0391 -0.20963,-0.281038 -0.28831,-0.715458 -0.35463,-1.957861 -0.1269,-2.377204 -0.70304,-3.621983 -2.0211,-4.366691 -0.77971,-0.440541 -2.10881,-0.626251 -3.20152,-0.447336 -2.37049,0.388134 -3.5701,1.79549 -3.72729,4.372781 -0.17414,2.855259 0.73859,4.583899 2.92108,5.5323 0.4909,0.213324 1.75693,0.650338 2.81338,0.971144 2.24322,0.681184 3.08525,1.058343 3.91294,1.752671 1.25462,1.05248 1.90715,2.544881 2.17464,4.973634 0.2732,2.480559 -0.12806,4.789689 -1.12829,6.492999 -1.31985,2.24759 -3.32221,3.31879 -6.20374,3.31879 -1.58424,0 -2.52,-0.23766 -3.58128,-0.90955 -0.47462,-0.30048 -0.96314,-0.53059 -1.0856,-0.51136 -0.13344,0.0209 -0.27455,0.25219 -0.35216,0.57708 -0.21189,0.88699 -0.721017,1.18206 -1.549503,0.89805 l 0,0 z"
       id="path3091"
       inkscape:connector-curvature="0" />
    <path
       style="fill:#2a75a9;fill-opacity:1;stroke:none"
       d="m 116.95055,107.00185 c -0.26183,-0.51076 -0.25152,-2.17398 0.0159,-2.56797 0.17305,-0.25493 0.31185,-0.30136 0.90203,-0.30171 0.59215,-3.6e-4 0.74491,-0.0519 1.01142,-0.34109 0.31358,-0.34032 0.31396,-0.35177 0.35405,-10.949753 0.0445,-11.743291 0.0738,-11.349258 -0.85608,-11.50088 -0.26359,-0.04298 -0.63575,-0.07815 -0.82701,-0.07815 -0.5288,0 -0.80068,-0.546367 -0.79275,-1.593058 0.004,-0.48452 0.0869,-1.033577 0.18503,-1.220126 l 0.17835,-0.33918 7.73809,-0.01539 c 7.03639,-0.014 7.76043,0.0028 7.98447,0.185481 0.22529,0.183677 0.23027,0.364407 0.0583,2.110811 -0.10348,1.050464 -0.17421,2.938927 -0.15717,4.196584 0.0171,1.257657 -0.0144,2.374051 -0.07,2.480877 -0.26613,0.512013 -1.54182,0.658949 -2.16263,0.249095 -0.32842,-0.216821 -0.3334,-0.260217 -0.30397,-2.647367 0.0165,-1.334813 -0.0146,-2.620456 -0.069,-2.856985 l -0.099,-0.430054 -4.05415,0 -4.05416,0 0,4.589273 0,4.589272 2.09886,-0.03348 2.09886,-0.03348 0.0893,-0.301708 c 0.0491,-0.16594 0.051,-0.844782 0.004,-1.508539 -0.0468,-0.663758 -0.0576,-1.276724 -0.0239,-1.362149 0.18972,-0.480896 1.67236,-0.624592 2.10089,-0.203617 0.13625,0.13384 0.17915,1.377794 0.17366,5.035327 -0.004,2.671667 -0.0121,4.925459 -0.0181,5.008428 -0.0199,0.279888 -0.5998,0.633587 -1.03866,0.633587 -0.24305,0 -0.61326,-0.12444 -0.837,-0.281344 -0.39602,-0.277726 -0.4008,-0.29888 -0.37185,-1.645023 0.0161,-0.750023 0.0343,-1.3973 0.0404,-1.438391 0.0732,-0.494016 0.0597,-0.497102 -2.17032,-0.497102 l -2.14633,0 0,5.129033 0,5.129038 4.20959,0 4.20958,0 0.10497,-0.57071 c 0.0577,-0.31389 0.0644,-1.44974 0.0149,-2.52411 -0.0849,-1.841833 -0.0729,-1.971232 0.21089,-2.265353 0.41069,-0.425677 1.40907,-0.442984 1.88192,-0.03262 0.30565,0.265254 0.32191,0.388276 0.32307,2.443833 5.9e-4,1.19049 0.071,2.65329 0.15622,3.25067 0.21498,1.50639 0.19824,2.32444 -0.0539,2.63404 l -0.21367,0.26235 -7.8131,0 -7.81311,0 -0.19908,-0.38834 0,0 z"
       id="path3093"
       inkscape:connector-curvature="0" />
    <path
       style="fill:#2a75a9;fill-opacity:1;stroke:none"
       d="m 106.20963,144.27094 c -0.20038,-0.23325 -0.16827,-0.41974 0.35039,-2.03517 0.7462,-2.32409 1.57756,-5.88379 2.40318,-10.28996 0.87246,-4.65604 0.95395,-5.11914 0.90808,-5.16032 -0.0705,-0.0633 -0.88201,0.26069 -1.50979,0.60271 -0.34031,0.1854 -0.74904,0.3371 -0.90827,0.3371 -0.37858,0 -0.76616,-0.66668 -0.87154,-1.49914 -0.0779,-0.61564 -0.0633,-0.64835 0.4188,-0.93794 0.59096,-0.35495 1.09136,-0.51463 2.22686,-0.71059 0.46154,-0.0796 0.90457,-0.17789 0.9845,-0.2183 0.0799,-0.0404 0.48876,-2.32725 0.90851,-5.08184 0.41976,-2.7546 0.85381,-5.49712 0.96458,-6.0945 0.11076,-0.59738 0.24738,-1.58972 0.3036,-2.20519 0.12112,-1.32582 0.33386,-1.62847 1.16046,-1.65083 l 0.54469,-0.0147 -0.0802,0.84923 c -0.0441,0.46707 -0.1463,1.60953 -0.22715,2.53879 -0.0809,0.92926 -0.38415,3.8534 -0.674,6.49809 -0.28984,2.6447 -0.49985,4.83066 -0.46669,4.8577 0.0332,0.027 0.88726,-0.002 1.89801,-0.0645 1.01074,-0.0625 2.85415,-0.15025 4.09647,-0.19494 2.148,-0.0773 2.26204,-0.0939 2.32584,-0.33906 0.0873,-0.33566 1.68879,-11.99543 1.77058,-12.89115 0.0758,-0.83074 0.25638,-1.13345 0.73426,-1.23124 0.63628,-0.1302 0.8298,0.0178 0.8298,0.63457 0,0.81912 -0.24506,3.79393 -0.74445,9.03709 -0.24185,2.53933 -0.43974,4.64374 -0.43974,4.67647 0,0.0327 0.18774,0.0595 0.4172,0.0595 0.67009,0 1.95051,0.35297 2.98387,0.82255 l 0.95869,0.43565 -0.65523,0.15466 c -0.36037,0.0851 -1.37589,0.19035 -2.2567,0.23397 -1.46846,0.0727 -1.60675,0.10034 -1.66505,0.33256 -0.089,0.35448 -1.86344,17.30747 -1.85885,17.75941 0.008,0.74116 -0.19173,0.81482 -2.33298,0.86243 -1.15764,0.0257 -1.9687,-0.004 -2.02219,-0.0749 -0.0491,-0.0648 0.11132,-0.66848 0.35655,-1.34149 0.53097,-1.4572 1.35656,-4.53784 1.77781,-6.63383 0.32358,-1.60993 1.78049,-10.27522 1.78049,-10.58978 0,-0.16587 -0.33087,-0.17892 -2.84944,-0.11232 -2.48349,0.0657 -5.16284,0.29864 -5.36916,0.46686 -0.0692,0.0564 -2.14301,16.93928 -2.14301,17.44651 0,0.15513 -0.16619,0.41755 -0.36932,0.58315 -0.29222,0.23825 -0.50077,0.296 -0.99915,0.27668 -0.34642,-0.0134 -1.03708,0.0177 -1.5348,0.0692 -0.82514,0.0854 -0.92442,0.071 -1.12556,-0.16316 l 0,0 z"
       id="path3095"
       inkscape:connector-curvature="0" />
    <path
       style="fill:#2a75a9;fill-opacity:1;stroke:none"
       d="m 93.000188,143.11018 c -2.055916,-0.29485 -2.541307,-0.86143 -2.750689,-3.21081 -0.474426,-5.32333 0.253108,-11.45677 2.069475,-17.4465 2.017951,-6.65449 5.446366,-10.94701 8.742056,-10.94543 1.21802,5.8e-4 2.35905,0.32538 3.15839,0.89902 0.80505,0.57776 0.87636,0.92562 0.39416,1.92302 -0.16283,0.33679 -0.29605,0.74041 -0.29605,0.89693 l 0,0.28459 -0.90133,-0.22871 c -1.67317,-0.42457 -3.18438,-0.27178 -4.534535,0.45844 -0.949283,0.51342 -1.569891,1.18892 -2.592582,2.82188 -1.404431,2.24249 -2.34002,4.50428 -3.144555,7.60197 -1.265271,4.87163 -2.013309,12.34763 -1.357507,13.56705 0.69842,1.29867 2.177585,1.78178 4.059929,1.32604 1.652588,-0.40013 3.204616,-1.1023 4.88714,-2.21108 0.91925,-0.60578 1.79904,-1.15713 1.95508,-1.22522 0.4729,-0.20635 0.65344,0.24343 0.50486,1.25778 -0.0688,0.46977 -0.12726,1.21609 -0.1299,1.65848 l -0.005,0.80435 -1.79996,0.6131 c -3.383931,1.15263 -5.860913,1.49905 -8.259189,1.1551 z"
       id="path3097"
       inkscape:connector-curvature="0" />
    <path
       style="fill:#2a75a9;fill-opacity:1;stroke:none"
       d="m 77.462467,143.46496 c -0.319528,-0.0954 -0.601127,-0.18994 -0.625776,-0.21004 -0.02463,-0.0201 0.21445,-0.79353 0.53132,-1.71875 1.451082,-4.23699 2.83447,-9.69867 4.063665,-16.0435 1.086703,-5.60931 2.050339,-11.38047 1.927338,-11.54273 -0.139906,-0.18456 -3.844438,-0.0241 -5.199778,0.22528 -0.833897,0.15341 -1.149731,0.16633 -1.439009,0.0589 -0.505227,-0.18767 -1.597382,-1.95268 -1.534615,-2.48004 l 0.04541,-0.38131 2.44238,-0.0846 c 3.617435,-0.12538 16.345086,-0.32499 16.428979,-0.25766 0.147834,0.11866 0.04245,1.48424 -0.127394,1.65111 -0.21445,0.21067 -1.633216,0.38542 -5.051832,0.62224 -3.530131,0.24454 -3.686289,0.26869 -3.774677,0.58381 -0.09106,0.32468 -1.120108,5.72317 -2.955801,15.50652 -1.86489,9.93891 -2.717248,14.05255 -2.935138,14.16547 -0.276163,0.14312 -1.153952,0.0968 -1.795052,-0.0946 l 0,0 z"
       id="path3099"
       inkscape:connector-curvature="0" />
    <path
       style="fill:#2a75a9;fill-opacity:1;stroke:none"
       d="m 54.480715,144.18459 c -0.06755,-0.14352 6.400027,-30.31488 6.519829,-30.41512 0.04743,-0.0397 6.89543,-1.77034 9.247285,-2.337 1.411305,-0.34005 2.660247,-0.64775 2.775433,-0.68379 0.370626,-0.11595 0.240508,0.61172 -0.243528,1.36193 -0.249129,0.38613 -0.88175,1.17157 -1.405828,1.74544 -0.937205,1.02624 -0.966691,1.04566 -1.793169,1.18098 -0.462158,0.0757 -1.844498,0.22153 -3.07187,0.32413 -1.227365,0.10261 -2.527973,0.22552 -2.890245,0.27314 l -0.658671,0.0866 -1.125666,5.2781 c -0.696116,3.264 -1.065126,5.27811 -0.967017,5.27811 0.08726,0 0.951193,-0.19014 1.919859,-0.42253 0.968665,-0.23239 1.791928,-0.39748 1.829473,-0.36687 0.03754,0.0306 -0.249028,0.79186 -0.636831,1.69168 -0.825162,1.91463 -1.107334,2.18558 -2.682711,2.57602 -0.559012,0.13855 -1.134261,0.32231 -1.278329,0.40835 -0.202789,0.12113 -0.551898,1.34803 -1.545924,5.43296 -0.70619,2.90207 -1.247221,5.30647 -1.20229,5.3431 0.04493,0.0366 1.698223,-0.58403 3.673983,-1.37924 l 3.592294,-1.44585 0.536352,0.2183 c 0.294998,0.12007 1.029661,0.37003 1.632582,0.55547 0.79595,0.24482 1.302775,0.49975 1.850289,0.9307 0.596,0.46911 0.70752,0.61364 0.53203,0.6895 -0.122119,0.0528 -2.986365,0.84616 -6.364993,1.76304 -3.378626,0.91689 -6.455053,1.76624 -6.836502,1.88745 -0.856,0.27201 -1.286105,0.27978 -1.405835,0.0254 l 0,0 z"
       id="path3102"
       inkscape:connector-curvature="0" />
    <path
       style="fill:#2a75a9;fill-opacity:1;stroke:none"
       d="m 33.414485,143.29158 c 0,-0.64107 0.579443,-2.04159 2.770389,-6.69607 4.096289,-8.70221 6.477041,-14.24446 8.05958,-18.76224 0.701835,-2.00357 1.75457,-5.44885 1.963768,-6.42681 0.05283,-0.24695 0.265846,-0.61353 0.473376,-0.81461 0.340044,-0.32948 0.461987,-0.3656 1.234181,-0.3656 1.409215,0 1.406717,-0.11081 0.08379,3.71758 -1.681935,4.86731 -2.784773,7.87931 -3.800535,10.37974 -0.493785,1.21552 -0.86092,2.2401 -0.815856,2.27684 0.08001,0.0652 1.772849,-2.00631 8.53809,-10.44816 2.715881,-3.38894 3.412872,-4.18063 3.796437,-4.3122 0.54443,-0.18677 3.015308,-0.44547 3.692987,-0.38667 0.459314,0.0399 0.425438,0.0794 -7.153182,8.3484 -4.188074,4.56959 -7.58985,8.32859 -7.5595,8.35334 0.03035,0.0248 0.72928,-0.14157 1.553179,-0.36959 3.173411,-0.87826 4.962284,-0.81194 5.609163,0.20794 0.601957,0.94905 -0.172926,4.04787 -2.166097,8.66239 -0.501724,1.16157 -1.321165,3.08284 -1.820978,4.26948 -0.684747,1.6257 -0.993052,2.20256 -1.250744,2.34022 -0.21778,0.11634 -0.852052,0.20445 -1.746323,0.24258 l -1.40433,0.0599 0.13854,-0.28815 c 0.0762,-0.15849 0.650944,-1.29285 1.277215,-2.5208 0.626271,-1.22795 1.734429,-3.48171 2.462573,-5.00835 0.728145,-1.52664 1.583246,-3.31878 1.900227,-3.98254 0.316981,-0.66376 0.621889,-1.48925 0.677574,-1.83441 0.09831,-0.60938 0.08962,-0.62997 -0.29934,-0.70956 -0.568863,-0.1164 -2.129158,0.035 -3.061202,0.29696 -0.436182,0.12261 -1.806489,0.63699 -3.045127,1.14306 l -2.25207,0.92012 -0.398378,1.05738 c -0.219107,0.58156 -1.208591,3.22554 -2.198853,5.87552 -1.408259,3.76856 -1.868567,4.85501 -2.113051,4.98736 -0.183769,0.0995 -0.896279,0.1976 -1.729041,0.23811 l -1.416464,0.0689 0,-0.52005 z"
       id="path3104"
       inkscape:connector-curvature="0" />
    <path
       style="fill:#2a75a9;fill-opacity:1;stroke:none"
       d="m 20.164375,142.54098 c -0.129752,-0.42828 0.263536,-1.29801 1.206278,-2.6676 0.971787,-1.41179 0.954676,-1.40322 2.806223,-1.40595 0.505304,-4.8e-4 1.271845,-0.10508 1.743016,-0.23724 4.220958,-1.184 7.075152,-4.15662 10.22815,-10.65255 1.094332,-2.25458 1.101923,-2.22231 -0.491037,-2.08761 -1.82883,0.15464 -2.861871,0.50878 -7.901493,2.70875 -1.965042,0.85781 -3.112062,1.20604 -4.258703,1.29293 -1.361383,0.10315 -1.442581,0.007 -1.216625,-1.44461 0.308106,-1.97901 1.283221,-4.06854 3.472968,-7.4421 1.528746,-2.3552 4.241616,-5.39897 6.271551,-7.03652 2.621778,-2.11497 5.177632,-2.98247 7.342716,-2.49223 0.84193,0.19064 1.048288,0.4226 0.969641,1.08991 -0.07151,0.6068 -1.02656,2.09898 -1.42275,2.22293 -0.119706,0.0375 -0.64783,-0.0486 -1.173608,-0.19127 -1.188492,-0.32246 -1.87115,-0.26249 -3.33214,0.29269 -3.224391,1.22528 -6.279525,4.16216 -9.144017,8.79007 -1.063243,1.71779 -1.323536,2.24191 -1.323536,2.66504 0,0.83491 0.219617,0.98134 1.422821,0.94868 2.677588,-0.0727 5.880551,-1.12912 8.41583,-2.7758 1.725392,-1.12066 2.458658,-1.31912 3.187379,-0.86268 0.355406,0.22261 0.369735,0.28343 0.361894,1.53602 -0.0087,1.3916 -0.312489,2.51767 -1.230862,4.56269 -3.301879,7.35255 -7.35787,11.7589 -12.003462,13.04031 -0.67412,0.18595 -1.546568,0.31222 -2.447475,0.35422 -1.362179,0.0635 -1.402177,0.0579 -1.482759,-0.20808 l 0,0 z"
       id="path3106"
       inkscape:connector-curvature="0" />
  </g>
</svg>
