<?xml version="1.0" standalone="yes"?>

<svg version="1.1" viewBox="0.0 0.0 960.0 720.0" fill="none" stroke="none" stroke-linecap="square" stroke-miterlimit="10" xmlns="http://www.w3.org/2000/svg" xmlns:xlink="http://www.w3.org/1999/xlink"><clipPath id="p.0"><path d="m0 0l960.0 0l0 720.0l-960.0 0l0 -720.0z" clip-rule="nonzero"></path></clipPath><g clip-path="url(#p.0)"><path fill="#000000" fill-opacity="0.0" d="m0 0l960.0 0l0 720.0l-960.0 0z" fill-rule="nonzero"></path><path fill="#cfe2f3" d="m251.23491 167.70998l476.57477 0l0 409.96063l-476.57477 0z" fill-rule="nonzero"></path><path fill="#d8e7f5" d="m182.90814 99.3832l613.22833 0l-68.32678 68.326775l-476.57477 0z" fill-rule="nonzero"></path><path fill="#a5b4c2" d="m182.90814 645.9974l68.32677 -68.32678l476.57477 0l68.32678 68.32678z" fill-rule="nonzero"></path><path fill="#e2edf7" d="m182.90814 99.3832l68.32677 68.326775l0 409.96063l-68.32677 68.32678z" fill-rule="nonzero"></path><path fill="#7c8791" d="m796.1365 99.3832l0 546.6142l-68.32678 -68.32678l0 -409.96063z" fill-rule="nonzero"></path><path fill="#000000" fill-opacity="0.0" d="m182.90814 99.3832l613.22833 0l0 546.6142l-613.22833 0zm68.32677 68.326775l476.57477 0l0 409.96063l-476.57477 0zm-68.32677 -68.326775l68.32677 68.326775m-68.32677 478.2874l68.32677 -68.32678m544.90155 -478.28738l-68.32678 68.326775m68.32678 478.2874l-68.32678 -68.32678" fill-rule="nonzero"></path><path stroke="#000000" stroke-width="2.0" stroke-linejoin="round" stroke-linecap="butt" d="m182.90814 99.3832l613.22833 0l0 546.6142l-613.22833 0zm68.32677 68.326775l476.57477 0l0 409.96063l-476.57477 0zm-68.32677 -68.326775l68.32677 68.326775m-68.32677 478.2874l68.32677 -68.32678m544.90155 -478.28738l-68.32678 68.326775m68.32678 478.2874l-68.32678 -68.32678" fill-rule="nonzero"></path><path fill="#00ff00" d="m416.20996 477.63254l191.64569 -275.84253l57.04724 34.29921l-191.64566 275.84253z" fill-rule="nonzero"></path><path fill="#00ff00" d="m314.30154 405.8137l119.52756 115.47244l54.614166 -42.685028l-119.52756 -115.47244z" fill-rule="nonzero"></path><path fill="#00ff00" d="m405.64304 480.48294l0 0c0 -22.187073 18.536133 -40.173218 41.40158 -40.173218l0 0c10.980377 0 21.511047 4.2325134 29.27533 11.766449c7.7643127 7.5339355 12.126251 17.752167 12.126251 28.406769l0 0c0 22.187073 -18.536133 40.17325 -41.40158 40.17325l0 0c-22.865448 0 -41.40158 -17.986176 -41.40158 -40.17325z" fill-rule="nonzero"></path><path fill="#00ff00" d="m309.57217 393.021l0 0c0 -20.012695 16.773468 -36.236206 37.46457 -36.236206l0 0c9.936218 0 19.465485 3.8177185 26.491455 10.613342c7.0259705 6.7955933 10.973114 16.01242 10.973114 25.622864l0 0c0 20.012726 -16.773468 36.236237 -37.46457 36.236237l0 0c-20.691101 0 -37.46457 -16.22351 -37.46457 -36.236237z" fill-rule="nonzero"></path><path fill="#00ff00" d="m599.45667 220.72179l0 0c0 -20.01271 15.673584 -36.23622 35.007874 -36.23622l0 0c9.284668 0 18.189087 3.8177338 24.754333 10.613342c6.5652466 6.7956085 10.25354 16.012436 10.25354 25.622879l0 0c0 20.01271 -15.673523 36.23622 -35.007874 36.23622l0 0c-19.33429 0 -35.007874 -16.22351 -35.007874 -36.23622z" fill-rule="nonzero"></path></g></svg>

