<?xml version="1.0" standalone="yes"?>

<svg version="1.1" viewBox="0.0 0.0 960.0 720.0" fill="none" stroke="none" stroke-linecap="square" stroke-miterlimit="10" xmlns="http://www.w3.org/2000/svg" xmlns:xlink="http://www.w3.org/1999/xlink"><clipPath id="p.0"><path d="m0 0l960.0 0l0 720.0l-960.0 0l0 -720.0z" clip-rule="nonzero"></path></clipPath><g clip-path="url(#p.0)"><path fill="#000000" fill-opacity="0.0" d="m0 0l960.0 0l0 720.0l-960.0 0z" fill-rule="nonzero"></path><path fill="#cccccc" d="m269.99606 162.15355l420.0079 0l0 395.69287l-420.0079 0z" fill-rule="nonzero"></path><path fill="#d6d6d6" d="m204.04724 96.20473l551.9055 0l-65.94879 65.94882l-420.0079 0z" fill-rule="nonzero"></path><path fill="#a3a3a3" d="m204.04724 623.7953l65.94882 -65.94885l420.0079 0l65.94879 65.94885z" fill-rule="nonzero"></path><path fill="#e0e0e0" d="m204.04724 96.20473l65.94882 65.94882l0 395.69287l-65.94882 65.94885z" fill-rule="nonzero"></path><path fill="#7a7a7a" d="m755.95276 96.20473l0 527.5906l-65.94879 -65.94885l0 -395.69287z" fill-rule="nonzero"></path><path fill="#000000" fill-opacity="0.0" d="m204.04724 96.20473l551.9055 0l0 527.5906l-551.9055 0zm65.94882 65.94882l420.0079 0l0 395.69287l-420.0079 0zm-65.94882 -65.94882l65.94882 65.94882m-65.94882 461.64172l65.94882 -65.94885m485.9567 -461.64172l-65.94879 65.94882m65.94879 461.64172l-65.94879 -65.94885" fill-rule="nonzero"></path><path fill="#ffff00" d="m289.16534 360.0l0 0c0 -103.9339 85.439575 -188.18898 190.83466 -188.18898l0 0c50.612488 0 99.15204 19.826996 134.94049 55.119278c35.78839 35.292297 55.894165 83.158875 55.894165 133.0697l0 0c0 103.93393 -85.439575 188.18896 -190.83466 188.18896l0 0c-105.39508 0 -190.83466 -84.255035 -190.83466 -188.18896zm79.212524 0l0 0c0 60.186066 49.974915 108.97647 111.62213 108.97647c61.647217 0 111.62213 -48.790405 111.62213 -108.97647c0 -60.186035 -49.974915 -108.97647 -111.62213 -108.97647l0 0c-61.647217 0 -111.62213 48.790436 -111.62213 108.97647z" fill-rule="nonzero"></path><path stroke="#999999" stroke-width="2.0" stroke-linejoin="round" stroke-linecap="butt" d="m289.16534 360.0l0 0c0 -103.9339 85.439575 -188.18898 190.83466 -188.18898l0 0c50.612488 0 99.15204 19.826996 134.94049 55.119278c35.78839 35.292297 55.894165 83.158875 55.894165 133.0697l0 0c0 103.93393 -85.439575 188.18896 -190.83466 188.18896l0 0c-105.39508 0 -190.83466 -84.255035 -190.83466 -188.18896zm79.212524 0l0 0c0 60.186066 49.974915 108.97647 111.62213 108.97647c61.647217 0 111.62213 -48.790405 111.62213 -108.97647c0 -60.186035 -49.974915 -108.97647 -111.62213 -108.97647l0 0c-61.647217 0 -111.62213 48.790436 -111.62213 108.97647z" fill-rule="nonzero"></path></g></svg>

