<?xml version="1.0" standalone="yes"?>

<svg version="1.1" viewBox="0.0 0.0 592.0 515.0" fill="none" stroke="none" stroke-linecap="square" stroke-miterlimit="10" xmlns="http://www.w3.org/2000/svg" xmlns:xlink="http://www.w3.org/1999/xlink"><clipPath id="p.0"><path d="m0 0l592.0 0l0 515.0l-592.0 0l0 -515.0z" clip-rule="nonzero"></path></clipPath><g clip-path="url(#p.0)"><path fill="#000000" fill-opacity="0.0" d="m0 0l592.1496 0l0 515.147l-592.1496 0z" fill-rule="nonzero"></path><path fill="#cfe2f3" d="m64.09843 64.09843l461.7559 0l0 384.59055l-461.7559 0z" fill-rule="nonzero"></path><path fill="#d8e7f5" d="m0 0l589.95276 0l-64.09845 64.09843l-461.7559 0z" fill-rule="nonzero"></path><path fill="#a5b4c2" d="m0 512.7874l64.09843 -64.09845l461.7559 0l64.09845 64.09845z" fill-rule="nonzero"></path><path fill="#e2edf7" d="m0 0l64.09843 64.09843l0 384.59055l-64.09843 64.09845z" fill-rule="nonzero"></path><path fill="#7c8791" d="m589.95276 0l0 512.7874l-64.09845 -64.09845l0 -384.59055z" fill-rule="nonzero"></path><path fill="#000000" fill-opacity="0.0" d="m0 0l589.95276 0l0 512.7874l-589.95276 0zm64.09843 64.09843l461.7559 0l0 384.59055l-461.7559 0zm-64.09843 -64.09843l64.09843 64.09843m-64.09843 448.689l64.09843 -64.09845m525.8543 -448.68896l-64.09845 64.09843m64.09845 448.689l-64.09845 -64.09845" fill-rule="nonzero"></path><path stroke="#000000" stroke-width="2.0" stroke-linejoin="round" stroke-linecap="butt" d="m0 0l589.95276 0l0 512.7874l-589.95276 0zm64.09843 64.09843l461.7559 0l0 384.59055l-461.7559 0zm-64.09843 -64.09843l64.09843 64.09843m-64.09843 448.689l64.09843 -64.09845m525.8543 -448.68896l-64.09845 64.09843m64.09845 448.689l-64.09845 -64.09845" fill-rule="nonzero"></path><path fill="#ffff00" d="m105.24016 256.3937l0 0c0 -103.933914 85.439575 -188.18898 190.83464 -188.18898l0 0c50.612488 0 99.15204 19.826996 134.94049 55.11927c35.78842 35.292274 55.894165 83.15888 55.894165 133.0697l0 0c0 103.9339 -85.439575 188.18896 -190.83466 188.18896l0 0c-105.395065 0 -190.83464 -84.255066 -190.83464 -188.18896zm79.21251 0l0 0c0 60.186035 49.97493 108.97647 111.62213 108.97647c61.647217 0 111.62213 -48.790436 111.62213 -108.97647c0 -60.18605 -49.974915 -108.97649 -111.62213 -108.97649l0 0c-61.6472 0 -111.62213 48.790436 -111.62213 108.97649z" fill-rule="nonzero"></path><path stroke="#999999" stroke-width="2.0" stroke-linejoin="round" stroke-linecap="butt" d="m105.24016 256.3937l0 0c0 -103.933914 85.439575 -188.18898 190.83464 -188.18898l0 0c50.612488 0 99.15204 19.826996 134.94049 55.11927c35.78842 35.292274 55.894165 83.15888 55.894165 133.0697l0 0c0 103.9339 -85.439575 188.18896 -190.83466 188.18896l0 0c-105.395065 0 -190.83464 -84.255066 -190.83464 -188.18896zm79.21251 0l0 0c0 60.186035 49.97493 108.97647 111.62213 108.97647c61.647217 0 111.62213 -48.790436 111.62213 -108.97647c0 -60.18605 -49.974915 -108.97649 -111.62213 -108.97649l0 0c-61.6472 0 -111.62213 48.790436 -111.62213 108.97649z" fill-rule="nonzero"></path></g></svg>

