<?xml version="1.0" standalone="yes"?>

<svg version="1.1" viewBox="0.0 0.0 592.0 515.0" fill="none" stroke="none" stroke-linecap="square" stroke-miterlimit="10" xmlns="http://www.w3.org/2000/svg" xmlns:xlink="http://www.w3.org/1999/xlink"><clipPath id="p.0"><path d="m0 0l592.0 0l0 515.0l-592.0 0l0 -515.0z" clip-rule="nonzero"></path></clipPath><g clip-path="url(#p.0)"><path fill="#000000" fill-opacity="0.0" d="m0 0l592.30444 0l0 515.44354l-592.30444 0z" fill-rule="nonzero"></path><path fill="#cfe2f3" d="m64.09843 64.09843l461.7559 0l0 384.59055l-461.7559 0z" fill-rule="nonzero"></path><path fill="#d8e7f5" d="m0 0l589.95276 0l-64.09845 64.09843l-461.7559 0z" fill-rule="nonzero"></path><path fill="#a5b4c2" d="m0 512.7874l64.09843 -64.09845l461.7559 0l64.09845 64.09845z" fill-rule="nonzero"></path><path fill="#e2edf7" d="m0 0l64.09843 64.09843l0 384.59055l-64.09843 64.09845z" fill-rule="nonzero"></path><path fill="#7c8791" d="m589.95276 0l0 512.7874l-64.09845 -64.09845l0 -384.59055z" fill-rule="nonzero"></path><path fill="#000000" fill-opacity="0.0" d="m0 0l589.95276 0l0 512.7874l-589.95276 0zm64.09843 64.09843l461.7559 0l0 384.59055l-461.7559 0zm-64.09843 -64.09843l64.09843 64.09843m-64.09843 448.689l64.09843 -64.09845m525.8543 -448.68896l-64.09845 64.09843m64.09845 448.689l-64.09845 -64.09845" fill-rule="nonzero"></path><path stroke="#000000" stroke-width="2.0" stroke-linejoin="round" stroke-linecap="butt" d="m0 0l589.95276 0l0 512.7874l-589.95276 0zm64.09843 64.09843l461.7559 0l0 384.59055l-461.7559 0zm-64.09843 -64.09843l64.09843 64.09843m-64.09843 448.689l64.09843 -64.09845m525.8543 -448.68896l-64.09845 64.09843m64.09845 448.689l-64.09845 -64.09845" fill-rule="nonzero"></path><path fill="#cc0000" d="m129.61493 132.81189l56.7874 -52.22048l274.80316 298.83466l-56.787384 52.22049z" fill-rule="nonzero"></path><path fill="#cc0000" d="m461.20547 132.81189l-56.787415 -52.22048l-274.80316 298.83466l56.7874 52.22049z" fill-rule="nonzero"></path><path fill="#cc0000" d="m121.502625 109.703415l0 0c0 -21.030312 17.753494 -38.078743 39.65355 -38.078743l0 0c10.516769 0 20.602798 4.011856 28.039291 11.1530075c7.4364777 7.141144 11.614243 16.826622 11.614243 26.925735l0 0c0 21.030304 -17.753494 38.078735 -39.653534 38.078735l0 0c-21.900055 0 -39.65355 -17.048431 -39.65355 -38.078735z" fill-rule="nonzero"></path><path fill="#cc0000" d="m389.13254 109.703415l0 0c0 -21.030312 17.75351 -38.078743 39.653564 -38.078743l0 0c10.516754 0 20.602783 4.011856 28.039276 11.1530075c7.436493 7.141144 11.614258 16.826622 11.614258 26.925735l0 0c0 21.030304 -17.75351 38.078735 -39.653534 38.078735l0 0c-21.900055 0 -39.653564 -17.048431 -39.653564 -38.078735z" fill-rule="nonzero"></path><path fill="#cc0000" d="m121.502625 403.08398l0 0c0 -21.030304 17.753494 -38.078735 39.65355 -38.078735l0 0c10.516769 0 20.602798 4.011841 28.039291 11.153015c7.4364777 7.141144 11.614243 16.82663 11.614243 26.92572l0 0c0 21.030304 -17.753494 38.078735 -39.653534 38.078735l0 0c-21.900055 0 -39.65355 -17.048431 -39.65355 -38.078735z" fill-rule="nonzero"></path><path fill="#cc0000" d="m389.14304 403.08398l0 0c0 -21.030304 17.75351 -38.078735 39.653564 -38.078735l0 0c10.516754 0 20.602783 4.011841 28.039276 11.153015c7.436493 7.141144 11.614258 16.82663 11.614258 26.92572l0 0c0 21.030304 -17.75351 38.078735 -39.653534 38.078735l0 0c-21.900055 0 -39.653564 -17.048431 -39.653564 -38.078735z" fill-rule="nonzero"></path></g></svg>

