<?xml version="1.0" standalone="yes"?>

<svg version="1.1" viewBox="0.0 0.0 960.0 720.0" fill="none" stroke="none" stroke-linecap="square" stroke-miterlimit="10" xmlns="http://www.w3.org/2000/svg" xmlns:xlink="http://www.w3.org/1999/xlink"><clipPath id="p.0"><path d="m0 0l960.0 0l0 720.0l-960.0 0l0 -720.0z" clip-rule="nonzero"></path></clipPath><g clip-path="url(#p.0)"><path fill="#000000" fill-opacity="0.0" d="m0 0l960.0 0l0 720.0l-960.0 0z" fill-rule="nonzero"></path><path fill="#cfe2f3" d="m221.63124 207.88583l461.75592 0l0 384.59055l-461.75592 0z" fill-rule="nonzero"></path><path fill="#d8e7f5" d="m157.5328 143.7874l589.95276 0l-64.09845 64.098434l-461.75592 0z" fill-rule="nonzero"></path><path fill="#a5b4c2" d="m157.5328 656.5748l64.098434 -64.09845l461.75592 0l64.09845 64.09845z" fill-rule="nonzero"></path><path fill="#e2edf7" d="m157.5328 143.7874l64.098434 64.098434l0 384.59055l-64.098434 64.09845z" fill-rule="nonzero"></path><path fill="#7c8791" d="m747.4856 143.7874l0 512.7874l-64.09845 -64.09845l0 -384.59055z" fill-rule="nonzero"></path><path fill="#000000" fill-opacity="0.0" d="m157.5328 143.7874l589.95276 0l0 512.7874l-589.95276 0zm64.098434 64.098434l461.75592 0l0 384.59055l-461.75592 0zm-64.098434 -64.098434l64.098434 64.098434m-64.098434 448.689l64.098434 -64.09845m525.8544 -448.68896l-64.09845 64.098434m64.09845 448.689l-64.09845 -64.09845" fill-rule="nonzero"></path><path stroke="#000000" stroke-width="2.0" stroke-linejoin="round" stroke-linecap="butt" d="m157.5328 143.7874l589.95276 0l0 512.7874l-589.95276 0zm64.098434 64.098434l461.75592 0l0 384.59055l-461.75592 0zm-64.098434 -64.098434l64.098434 64.098434m-64.098434 448.689l64.098434 -64.09845m525.8544 -448.68896l-64.09845 64.098434m64.09845 448.689l-64.09845 -64.09845" fill-rule="nonzero"></path><path fill="#cc0000" d="m287.14774 276.59927l56.787415 -52.22046l274.80313 298.83463l-56.787415 52.22052z" fill-rule="nonzero"></path><path fill="#cc0000" d="m618.7383 276.59927l-56.787415 -52.22046l-274.80316 298.83463l56.787415 52.22052z" fill-rule="nonzero"></path><path fill="#cc0000" d="m279.03543 253.49081l0 0c0 -21.030304 17.75351 -38.078735 39.653534 -38.078735l0 0c10.516785 0 20.602814 4.011856 28.039307 11.153c7.4364624 7.141144 11.614258 16.82663 11.614258 26.925735l0 0c0 21.030304 -17.75351 38.078735 -39.653564 38.078735l0 0c-21.900024 0 -39.653534 -17.048431 -39.653534 -38.078735z" fill-rule="nonzero"></path><path fill="#cc0000" d="m546.66534 253.49081l0 0c0 -21.030304 17.753479 -38.078735 39.653564 -38.078735l0 0c10.516785 0 20.602783 4.011856 28.039307 11.153c7.4364624 7.141144 11.614197 16.82663 11.614197 26.925735l0 0c0 21.030304 -17.753479 38.078735 -39.653503 38.078735l0 0c-21.900085 0 -39.653564 -17.048431 -39.653564 -38.078735z" fill-rule="nonzero"></path><path fill="#cc0000" d="m279.03543 546.8714l0 0c0 -21.030334 17.75351 -38.078735 39.653534 -38.078735l0 0c10.516785 0 20.602814 4.011841 28.039307 11.153015c7.4364624 7.1411133 11.614258 16.8266 11.614258 26.92572l0 0c0 21.030273 -17.75351 38.078735 -39.653564 38.078735l0 0c-21.900024 0 -39.653534 -17.048462 -39.653534 -38.078735z" fill-rule="nonzero"></path><path fill="#cc0000" d="m546.67584 546.8714l0 0c0 -21.030334 17.753479 -38.078735 39.653564 -38.078735l0 0c10.516785 0 20.602783 4.011841 28.039307 11.153015c7.4364624 7.1411133 11.614197 16.8266 11.614197 26.92572l0 0c0 21.030273 -17.753479 38.078735 -39.653503 38.078735l0 0c-21.900085 0 -39.653564 -17.048462 -39.653564 -38.078735z" fill-rule="nonzero"></path></g></svg>

