<?xml version="1.0" standalone="yes"?>

<svg version="1.1" viewBox="0.0 0.0 230.0 175.0" fill="none" stroke="none" stroke-linecap="square" stroke-miterlimit="10" xmlns="http://www.w3.org/2000/svg" xmlns:xlink="http://www.w3.org/1999/xlink"><clipPath id="p.0"><path d="m0 0l230.0 0l0 175.0l-230.0 0l0 -175.0z" clip-rule="nonzero"></path></clipPath><g clip-path="url(#p.0)"><path fill="#000000" fill-opacity="0.0" d="m0 0l230.82939 0l0 175.96326l-230.82939 0z" fill-rule="nonzero"></path><path fill="#cfe2f3" d="m34.879265 116.93635l0 0c0 -22.19683 50.53752 -41.530937 122.46456 -46.85119l0 19.303154l38.606308 -40.012985l-38.606308 -37.199615l0 19.30315c-71.92704 5.3202515 -122.46456 24.654358 -122.46456 46.851192z" fill-rule="nonzero"></path><path fill="#a5b4c2" d="m195.95013 126.58793l0 0c-64.04535 0 -122.00575 -11.368271 -147.62389 -28.954727l0 0c-21.732819 14.9192505 -16.896557 32.11573 12.862331 45.73507c29.758888 13.619354 80.42951 21.825958 134.76157 21.825958z" fill-rule="nonzero"></path><path fill="#000000" fill-opacity="0.0" d="m34.879265 116.93635l0 0c0 -22.19683 50.53752 -41.530937 122.46456 -46.85119l0 19.303154l38.606308 -40.012985l-38.606308 -37.199615l0 19.30315c-71.92704 5.3202515 -122.46456 24.654358 -122.46456 46.851192l0 38.606293l0 0c0 26.652092 72.113884 48.25788 161.07086 48.25788l0 -38.6063l0 0c-64.04535 0 -122.00575 -11.368271 -147.62389 -28.954727" fill-rule="nonzero"></path><path stroke="#000000" stroke-width="2.0" stroke-linejoin="round" stroke-linecap="butt" d="m34.879265 116.93635l0 0c0 -22.19683 50.53752 -41.530937 122.46456 -46.85119l0 19.303154l38.606308 -40.012985l-38.606308 -37.199615l0 19.30315c-71.92704 5.3202515 -122.46456 24.654358 -122.46456 46.851192l0 38.606293l0 0c0 26.652092 72.113884 48.25788 161.07086 48.25788l0 -38.6063l0 0c-64.04535 0 -122.00575 -11.368271 -147.62389 -28.954727" fill-rule="nonzero"></path></g></svg>

