<?xml version="1.0" standalone="yes"?>

<svg version="1.1" viewBox="0.0 0.0 206.0 174.0" fill="none" stroke="none" stroke-linecap="square" stroke-miterlimit="10" xmlns="http://www.w3.org/2000/svg" xmlns:xlink="http://www.w3.org/1999/xlink"><clipPath id="p.0"><path d="m0 0l206.0 0l0 174.0l-206.0 0l0 -174.0z" clip-rule="nonzero"></path></clipPath><g clip-path="url(#p.0)"><path fill="#000000" fill-opacity="0.0" d="m0 0l206.19685 0l0 174.11285l-206.19685 0z" fill-rule="nonzero"></path><path fill="#000000" fill-opacity="0.0" d="m40.877953 109.05643l31.110237 0l0 -106.22047l62.220474 0l0 106.22047l31.11023 0l-62.220467 62.220474z" fill-rule="nonzero"></path><path stroke="#000000" stroke-width="2.0" stroke-linejoin="round" stroke-linecap="butt" d="m40.877953 109.05643l31.110237 0l0 -106.22047l62.220474 0l0 106.22047l31.11023 0l-62.220467 62.220474z" fill-rule="nonzero"></path><path fill="#b6d7a8" d="m2.7362204 30.437008l200.72441 0l0 53.606297l-200.72441 0z" fill-rule="nonzero"></path><path stroke="#000000" stroke-width="2.0" stroke-linejoin="round" stroke-linecap="butt" d="m2.7362204 30.437008l200.72441 0l0 53.606297l-200.72441 0z" fill-rule="nonzero"></path><path fill="#000000" d="m16.449615 64.67078l5.09375 -0.4375q0.359375 3.046875 1.671875 5.015625q1.328125 1.96875 4.109375 3.1875q2.78125 1.203125 6.265625 1.203125q3.09375 0 5.453125 -0.921875q2.375 -0.921875 3.53125 -2.515625q1.15625 -1.609375 1.15625 -3.5q0 -1.921875 -1.125 -3.3437462q-1.109375 -1.4375 -3.671875 -2.421875q-1.640625 -0.640625 -7.265625 -1.984375q-5.625 -1.34375 -7.875 -2.546875q-2.921875 -1.53125 -4.359375 -3.796875q-1.421875 -2.265625 -1.421875 -5.078125q0 -3.09375 1.75 -5.78125q1.75 -2.6875 5.109375 -4.078125q3.375 -1.390625 7.5 -1.390625q4.53125 0 8.0 1.46875q3.46875 1.453125 5.328125 4.296875q1.859375 2.84375 2.0 6.421875l-5.171875 0.390625q-0.421875 -3.859375 -2.828125 -5.828125q-2.40625 -1.984375 -7.109375 -1.984375q-4.890625 0 -7.140625 1.796875q-2.234375 1.796875 -2.234375 4.328125q0 2.1875 1.578125 3.609375q1.5625 1.421875 8.140625 2.921875q6.59375 1.484375 9.03125 2.59375q3.5625 1.640625 5.265625 4.15625q1.703125 2.515625 1.703125 5.812496q0 3.25 -1.875 6.140625q-1.859375 2.875 -5.359375 4.484375q-3.484375 1.59375 -7.859375 1.59375q-5.53125 0 -9.28125 -1.609375q-3.734375 -1.625 -5.875 -4.859375q-2.125 -3.25 -2.234375 -7.34375zm58.79991 13.109375l0 -4.34375q-3.453125 5.015625 -9.375 5.015625q-2.609375 0 -4.890625 -1.0q-2.265625 -1.015625 -3.375 -2.53125q-1.09375 -1.515625 -1.53125 -3.703125q-0.3125 -1.484375 -0.3125 -4.6875l0 -18.312496l5.015625 0l0 16.390621q0 3.9375 0.3125 5.296875q0.46875 1.96875 2.0 3.109375q1.53125 1.125 3.78125 1.125q2.25 0 4.21875 -1.15625q1.984375 -1.15625 2.796875 -3.140625q0.828125 -2.0 0.828125 -5.78125l0 -15.843746l5.015625 0l0 29.562496l-4.484375 0zm17.133179 0l-4.640625 0l0 -40.79687l5.0 0l0 14.546875q3.171875 -3.96875 8.109375 -3.96875q2.71875 0 5.15625 1.09375q2.4375 1.09375 4.0 3.09375q1.578125 1.984375 2.46875 4.796875q0.890625 2.8125 0.890625 6.015625q0 7.593746 -3.765625 11.749996q-3.75 4.140625 -9.0 4.140625q-5.234375 0 -8.21875 -4.375l0 3.703125zm-0.046875 -14.999996q0 5.312496 1.4375 7.687496q2.375 3.859375 6.40625 3.859375q3.28125 0 5.671875 -2.84375q2.390625 -2.859375 2.390625 -8.515621q0 -5.78125 -2.296875 -8.53125q-2.28125 -2.765625 -5.546875 -2.765625q-3.28125 0 -5.671875 2.859375q-2.390625 2.84375 -2.390625 8.25zm27.305054 14.999996l0 -29.562496l4.484375 0l0 4.15625q1.390625 -2.171875 3.703125 -3.484375q2.3125 -1.328125 5.265625 -1.328125q3.28125 0 5.375 1.359375q2.109375 1.359375 2.96875 3.8125q3.515625 -5.171875 9.125 -5.171875q4.40625 0 6.765625 2.4375q2.375 2.421875 2.375 7.484375l0 20.296871l-4.984375 0l0 -18.624996q0 -3.0 -0.484375 -4.3125q-0.484375 -1.328125 -1.765625 -2.140625q-1.28125 -0.8125 -3.015625 -0.8125q-3.109375 0 -5.171875 2.078125q-2.0625 2.078125 -2.0625 6.640625l0 17.171871l-5.015625 0l0 -19.203121q0 -3.34375 -1.21875 -5.015625q-1.21875 -1.671875 -4.0 -1.671875q-2.125 0 -3.921875 1.125q-1.796875 1.109375 -2.609375 3.25q-0.796875 2.140625 -0.796875 6.1875l0 15.328121l-5.015625 0zm47.786026 -35.04687l0 -5.75l5.015625 0l0 5.75l-5.015625 0zm0 35.04687l0 -29.562496l5.015625 0l0 29.562496l-5.015625 0zm23.658356 -4.484375l0.71875 4.421875q-2.125 0.453125 -3.78125 0.453125q-2.734375 0 -4.234375 -0.859375q-1.5 -0.875 -2.125 -2.265625q-0.609375 -1.40625 -0.609375 -5.921875l0 -16.999996l-3.671875 0l0 -3.90625l3.671875 0l0 -7.3125l4.984375 -3.015625l0 10.328125l5.046875 0l0 3.90625l-5.046875 0l0 17.281246q0 2.140625 0.265625 2.75q0.265625 0.609375 0.859375 0.984375q0.609375 0.359375 1.71875 0.359375q0.828125 0 2.203125 -0.203125z" fill-rule="nonzero"></path></g></svg>

