<?xml version="1.0" standalone="yes"?>

<svg version="1.1" viewBox="0.0 0.0 230.0 175.0" fill="none" stroke="none" stroke-linecap="square" stroke-miterlimit="10" xmlns="http://www.w3.org/2000/svg" xmlns:xlink="http://www.w3.org/1999/xlink"><clipPath id="p.0"><path d="m0 0l230.0 0l0 175.0l-230.0 0l0 -175.0z" clip-rule="nonzero"></path></clipPath><g clip-path="url(#p.0)"><path fill="#000000" fill-opacity="0.0" d="m0 0l230.82939 0l0 175.96326l-230.82939 0z" fill-rule="nonzero"></path><path fill="#cfe2f3" d="m195.95128 116.935356l0 0c0 -22.196838 -50.53752 -41.530937 -122.46457 -46.85119l0 19.303146l-38.6063 -40.012985l38.6063 -37.19961l0 19.30315c71.92705 5.3202534 122.46457 24.654356 122.46457 46.85119z" fill-rule="nonzero"></path><path fill="#a5b4c2" d="m34.88041 126.58693l0 0c64.04535 0 122.005745 -11.368263 147.6239 -28.954727l0 0c21.732819 14.9192505 16.896545 32.115738 -12.862335 45.735077c-29.758896 13.619354 -80.42951 21.825943 -134.76157 21.825943z" fill-rule="nonzero"></path><path fill="#000000" fill-opacity="0.0" d="m195.95128 116.935356l0 0c0 -22.196838 -50.53752 -41.530937 -122.46457 -46.85119l0 19.303146l-38.6063 -40.012985l38.6063 -37.19961l0 19.30315c71.92705 5.3202534 122.46457 24.654356 122.46457 46.85119l0 38.6063l0 0c0 26.652092 -72.113884 48.257866 -161.07086 48.257866l0 -38.606293l0 0c64.04535 0 122.005745 -11.368263 147.6239 -28.954727" fill-rule="nonzero"></path><path stroke="#000000" stroke-width="2.0" stroke-linejoin="round" stroke-linecap="butt" d="m195.95128 116.935356l0 0c0 -22.196838 -50.53752 -41.530937 -122.46457 -46.85119l0 19.303146l-38.6063 -40.012985l38.6063 -37.19961l0 19.30315c71.92705 5.3202534 122.46457 24.654356 122.46457 46.85119l0 38.6063l0 0c0 26.652092 -72.113884 48.257866 -161.07086 48.257866l0 -38.606293l0 0c64.04535 0 122.005745 -11.368263 147.6239 -28.954727" fill-rule="nonzero"></path></g></svg>

