<?xml version="1.0" standalone="yes"?>

<svg version="1.1" viewBox="0.0 0.0 224.0 224.0" fill="none" stroke="none" stroke-linecap="square" stroke-miterlimit="10" xmlns="http://www.w3.org/2000/svg" xmlns:xlink="http://www.w3.org/1999/xlink"><clipPath id="p.0"><path d="m0 0l224.0 0l0 224.0l-224.0 0l0 -224.0z" clip-rule="nonzero"></path></clipPath><g clip-path="url(#p.0)"><path fill="#000000" fill-opacity="0.0" d="m0 0l224.70604 0l0 224.70604l-224.70604 0z" fill-rule="nonzero"></path><path fill="#e7be06" d="m90.58752 9.398046l0 0c11.2198715 -11.257557 29.441116 -11.287805 40.698296 -0.067560196l84.021545 83.74586l0 0c5.405884 5.3881454 8.450012 12.703171 8.462677 20.335838c0.012664795 7.63266 -3.007141 14.957756 -8.395111 20.363823l-81.25903 81.53198c-11.219864 11.257568 -29.441109 11.287811 -40.698296 0.06756592l-84.02154 -83.74585c-11.257181 -11.220245 -11.28743 -29.4421 -0.0675621 -40.69966z" fill-rule="nonzero"></path><path fill="#000000" fill-opacity="0.0" d="m91.52899 13.299591l0 0c10.805283 -10.845872 28.353264 -10.875014 39.19452 -0.06509209l80.645874 80.412865l0 0c5.2061462 5.1911087 8.137802 12.238617 8.150009 19.592163c0.012207031 7.3535385 -2.8960114 14.410751 -8.084885 19.619118l-78.25644 78.5504c-10.805283 10.845871 -28.353264 10.875015 -39.19451 0.065093994l-80.64588 -80.41287c-10.841248 -10.809914 -10.870402 -28.365402 -0.06511974 -39.21128z" fill-rule="nonzero"></path><path stroke="#000000" stroke-width="2.0" stroke-linejoin="round" stroke-linecap="butt" d="m91.52899 13.299591l0 0c10.805283 -10.845872 28.353264 -10.875014 39.19452 -0.06509209l80.645874 80.412865l0 0c5.2061462 5.1911087 8.137802 12.238617 8.150009 19.592163c0.012207031 7.3535385 -2.8960114 14.410751 -8.084885 19.619118l-78.25644 78.5504c-10.805283 10.845871 -28.353264 10.875015 -39.19451 0.065093994l-80.64588 -80.41287c-10.841248 -10.809914 -10.870402 -28.365402 -0.06511974 -39.21128z" fill-rule="nonzero"></path><path fill="#000000" fill-opacity="0.0" d="m42.069553 77.17191l140.56694 0l0 70.362206l-140.56694 0z" fill-rule="nonzero"></path><path fill="#000000" d="m76.03271 97.04176l3.03125 0.765625q-0.953125 3.734375 -3.4375 5.703125q-2.46875 1.953125 -6.046875 1.953125q-3.703125 0 -6.03125 -1.5q-2.3125 -1.515625 -3.53125 -4.375q-1.203125 -2.859375 -1.203125 -6.140625q0 -3.578125 1.359375 -6.234375q1.375 -2.671875 3.890625 -4.046875q2.53125 -1.390625 5.5625 -1.390625q3.4375 0 5.78125 1.75q2.34375 1.75 3.265625 4.921875l-2.984375 0.703125q-0.796875 -2.5 -2.3125 -3.640625q-1.515625 -1.140625 -3.8125 -1.140625q-2.640625 0 -4.421875 1.265625q-1.765625 1.265625 -2.484375 3.40625q-0.71875 2.125 -0.71875 4.390625q0 2.921875 0.84375 5.109375q0.859375 2.171875 2.65625 3.25q1.796875 1.078125 3.890625 1.078125q2.546875 0 4.3125 -1.46875q1.765625 -1.46875 2.390625 -4.359375zm5.359375 -0.265625q0 -4.609375 2.5625 -6.828125q2.140625 -1.84375 5.21875 -1.84375q3.421875 0 5.59375 2.25q2.171875 2.234375 2.171875 6.1875q0 3.203125 -0.96875 5.046875q-0.953125 1.828125 -2.796875 2.84375q-1.828125 1.015625 -4.0 1.015625q-3.484375 0 -5.640625 -2.234375q-2.140625 -2.234375 -2.140625 -6.4375zm2.890625 0q0 3.1875 1.390625 4.78125q1.390625 1.578125 3.5 1.578125q2.09375 0 3.484375 -1.59375q1.390625 -1.59375 1.390625 -4.859375q0 -3.078125 -1.40625 -4.65625q-1.390625 -1.59375 -3.46875 -1.59375q-2.109375 0 -3.5 1.578125q-1.390625 1.578125 -1.390625 4.765625zm15.953125 8.296875l0 -16.59375l2.515625 0l0 2.328125q0.78125 -1.21875 2.078125 -1.953125q1.296875 -0.75 2.953125 -0.75q1.84375 0 3.015625 0.765625q1.1875 0.765625 1.671875 2.140625q1.96875 -2.90625 5.125 -2.90625q2.46875 0 3.796875 1.375q1.328125 1.359375 1.328125 4.203125l0 11.390625l-2.796875 0l0 -10.453125q0 -1.6875 -0.28125 -2.421875q-0.265625 -0.75 -0.984375 -1.203125q-0.71875 -0.453125 -1.6875 -0.453125q-1.75 0 -2.90625 1.171875q-1.15625 1.15625 -1.15625 3.71875l0 9.640625l-2.8125 0l0 -10.78125q0 -1.875 -0.6875 -2.8125q-0.6875 -0.9375 -2.25 -0.9375q-1.1875 0 -2.203125 0.625q-1.0 0.625 -1.453125 1.828125q-0.453125 1.203125 -0.453125 3.46875l0 8.609375l-2.8125 0zm26.671875 -19.671875l0 -3.234375l2.8124924 0l0 3.234375l-2.8124924 0zm0 19.671875l0 -16.59375l2.8124924 0l0 16.59375l-2.8124924 0zm7.0937424 0l0 -16.59375l2.53125 0l0 2.359375q1.828125 -2.734375 5.28125 -2.734375q1.5 0 2.75 0.546875q1.265625 0.53125 1.890625 1.40625q0.625 0.875 0.875 2.078125q0.15625 0.78125 0.15625 2.734375l0 10.203125l-2.8125 0l0 -10.09375q0 -1.71875 -0.328125 -2.5625q-0.328125 -0.859375 -1.171875 -1.359375q-0.828125 -0.515625 -1.953125 -0.515625q-1.796875 0 -3.109375 1.140625q-1.296875 1.140625 -1.296875 4.328125l0 9.0625l-2.8125 0zm17.28125 1.375l2.734375 0.40625q0.171875 1.265625 0.953125 1.84375q1.046875 0.78125 2.859375 0.78125q1.953125 0 3.015625 -0.78125q1.0625 -0.78125 1.4375 -2.1875q0.21875 -0.859375 0.203125 -3.609375q-1.84375 2.171875 -4.59375 2.171875q-3.421875 0 -5.296875 -2.46875q-1.875 -2.46875 -1.875 -5.921875q0 -2.375 0.859375 -4.375q0.859375 -2.015625 2.484375 -3.109375q1.640625 -1.09375 3.84375 -1.09375q2.9375 0 4.84375 2.375l0 -2.0l2.59375 0l0 14.34375q0 3.875 -0.796875 5.484375q-0.78125 1.625 -2.5 2.5625q-1.703125 0.9375 -4.203125 0.9375q-2.96875 0 -4.796875 -1.34375q-1.828125 -1.328125 -1.765625 -4.015625zm2.328125 -9.96875q0 3.265625 1.296875 4.765625q1.296875 1.5 3.25 1.5q1.9375 0 3.25 -1.484375q1.3125 -1.5 1.3125 -4.6875q0 -3.046875 -1.359375 -4.59375q-1.34375 -1.546875 -3.25 -1.546875q-1.875 0 -3.1875 1.53125q-1.3125 1.515625 -1.3125 4.515625z" fill-rule="nonzero"></path><path fill="#000000" d="m71.97802 135.71364l2.859375 -0.25q0.203125 1.71875 0.9375 2.828125q0.75 1.09375 2.3125 1.78125q1.5625 0.671875 3.515625 0.671875q1.734375 0 3.0625 -0.515625q1.328125 -0.515625 1.96875 -1.40625q0.65625 -0.90625 0.65625 -1.96875q0 -1.078125 -0.625 -1.875q-0.625 -0.8125 -2.0625 -1.359375q-0.921875 -0.359375 -4.078125 -1.109375q-3.15625 -0.765625 -4.421875 -1.4375q-1.640625 -0.859375 -2.453125 -2.125q-0.796875 -1.28125 -0.796875 -2.859375q0 -1.734375 0.984375 -3.234375q0.984375 -1.515625 2.875 -2.296875q1.890625 -0.78125 4.203125 -0.78125q2.546875 0 4.484375 0.828125q1.953125 0.8125 3.0 2.40625q1.046875 1.59375 1.125 3.609375l-2.90625 0.21875q-0.234375 -2.171875 -1.59375 -3.28125q-1.34375 -1.109375 -3.984375 -1.109375q-2.75 0 -4.015625 1.015625q-1.25 1.0 -1.25 2.421875q0 1.234375 0.890625 2.03125q0.875 0.796875 4.5625 1.640625q3.703125 0.828125 5.078125 1.453125q2.0 0.921875 2.953125 2.34375q0.953125 1.40625 0.953125 3.25q0 1.828125 -1.046875 3.453125q-1.046875 1.609375 -3.015625 2.515625q-1.953125 0.890625 -4.40625 0.890625q-3.109375 0 -5.21875 -0.90625q-2.09375 -0.90625 -3.296875 -2.71875q-1.1875 -1.828125 -1.25 -4.125zm20.96875 -0.9375q0 -4.609375 2.5625 -6.828125q2.140625 -1.84375 5.21875 -1.84375q3.421875 0 5.59375 2.25q2.171875 2.234375 2.171875 6.1875q0 3.203125 -0.96875 5.046875q-0.953125 1.828125 -2.796875 2.84375q-1.828125 1.015625 -4.0 1.015625q-3.484375 0 -5.640625 -2.234375q-2.140625 -2.234375 -2.140625 -6.4375zm2.890625 0q0 3.1875 1.390625 4.78125q1.390625 1.578125 3.5 1.578125q2.09375 0 3.484375 -1.59375q1.390625 -1.59375 1.390625 -4.859375q0 -3.078125 -1.40625 -4.65625q-1.390625 -1.59375 -3.46875 -1.59375q-2.109375 0 -3.5 1.578125q-1.390625 1.578125 -1.390625 4.765625zm14.90625 0q0 -4.609375 2.5625 -6.828125q2.140625 -1.84375 5.21875 -1.84375q3.421875 0 5.59375 2.25q2.171875 2.234375 2.171875 6.1875q0 3.203125 -0.96875 5.046875q-0.953125 1.828125 -2.796875 2.84375q-1.828125 1.015625 -4.0 1.015625q-3.484375 0 -5.640625 -2.234375q-2.140625 -2.234375 -2.140625 -6.4375zm2.890625 0q0 3.1875 1.390625 4.78125q1.390625 1.578125 3.5 1.578125q2.09375 0 3.484375 -1.59375q1.390625 -1.59375 1.390625 -4.859375q0 -3.078125 -1.40625 -4.65625q-1.390625 -1.59375 -3.46875 -1.59375q-2.109375 0 -3.5 1.578125q-1.390625 1.578125 -1.390625 4.765625zm15.953117 8.296875l0 -16.59375l2.53125 0l0 2.359375q1.828125 -2.734375 5.28125 -2.734375q1.5 0 2.75 0.546875q1.265625 0.53125 1.890625 1.40625q0.625 0.875 0.875 2.078125q0.15625 0.78125 0.15625 2.734375l0 10.203125l-2.8125 0l0 -10.09375q0 -1.71875 -0.328125 -2.5625q-0.328125 -0.859375 -1.171875 -1.359375q-0.828125 -0.515625 -1.953125 -0.515625q-1.796875 0 -3.109375 1.140625q-1.296875 1.140625 -1.296875 4.328125l0 9.0625l-2.8125 0zm19.296875 -5.6875l-0.859375 -12.140625l0 -5.078125l3.484375 0l0 5.078125l-0.8125 12.140625l-1.8125 0zm-0.734375 5.6875l0 -3.203125l3.234375 0l0 3.203125l-3.234375 0z" fill-rule="nonzero"></path><path fill="#efefef" d="m108.085304 24.338583l0 0c0 -2.1569557 1.9107208 -3.9055119 4.2677155 -3.9055119l0 0c2.3569946 0 4.2677155 1.7485561 4.2677155 3.9055119l0 0c0 2.1569538 -1.9107208 3.9055119 -4.2677155 3.9055119l0 0c-2.3569946 0 -4.2677155 -1.748558 -4.2677155 -3.9055119z" fill-rule="nonzero"></path><path stroke="#000000" stroke-width="1.0" stroke-linejoin="round" stroke-linecap="butt" d="m108.085304 24.338583l0 0c0 -2.1569557 1.9107208 -3.9055119 4.2677155 -3.9055119l0 0c2.3569946 0 4.2677155 1.7485561 4.2677155 3.9055119l0 0c0 2.1569538 -1.9107208 3.9055119 -4.2677155 3.9055119l0 0c-2.3569946 0 -4.2677155 -1.748558 -4.2677155 -3.9055119z" fill-rule="nonzero"></path><path fill="#efefef" d="m108.085304 200.37007l0 0c0 -2.156952 1.9107208 -3.9055023 4.2677155 -3.9055023l0 0c2.3569946 0 4.2677155 1.7485504 4.2677155 3.9055023l0 0c0 2.1569672 -1.9107208 3.9055176 -4.2677155 3.9055176l0 0c-2.3569946 0 -4.2677155 -1.7485504 -4.2677155 -3.9055176z" fill-rule="nonzero"></path><path stroke="#000000" stroke-width="1.0" stroke-linejoin="round" stroke-linecap="butt" d="m108.085304 200.37007l0 0c0 -2.156952 1.9107208 -3.9055023 4.2677155 -3.9055023l0 0c2.3569946 0 4.2677155 1.7485504 4.2677155 3.9055023l0 0c0 2.1569672 -1.9107208 3.9055176 -4.2677155 3.9055176l0 0c-2.3569946 0 -4.2677155 -1.7485504 -4.2677155 -3.9055176z" fill-rule="nonzero"></path></g></svg>

