<?xml version="1.0" standalone="yes"?>

<svg version="1.1" viewBox="0.0 0.0 346.0 242.0" fill="none" stroke="none" stroke-linecap="square" stroke-miterlimit="10" xmlns="http://www.w3.org/2000/svg" xmlns:xlink="http://www.w3.org/1999/xlink"><clipPath id="p.0"><path d="m0 0l346.0 0l0 242.0l-346.0 0l0 -242.0z" clip-rule="nonzero"></path></clipPath><g clip-path="url(#p.0)"><path fill="#000000" fill-opacity="0.0" d="m0 0l346.03937 0l0 242.41733l-346.03937 0z" fill-rule="nonzero"></path><path fill="#ffe600" d="m58.61441 -98.17158l330.96063 329.03937l-27.653564 27.84253l-330.9606 -329.03937z" fill-rule="nonzero"></path><path stroke="#434343" stroke-width="2.0" stroke-linejoin="round" stroke-linecap="butt" stroke-dasharray="16.0,6.0" d="m58.61441 -98.17158l330.96063 329.03937l-27.653564 27.84253l-330.9606 -329.03937z" fill-rule="nonzero"></path><path fill="#000000" d="m66.5717 -74.78668l1.617775 1.6083832l-7.002907 7.050766q-1.8167915 1.8292084 -3.3169212 2.4970245q-1.4780388 0.6677475 -3.2466164 0.27548218q-1.7575645 -0.40334702 -3.51939 -2.1549454q-1.7175026 -1.7075348 -2.2198296 -3.3746948q-0.49132156 -1.6782532 0.15538788 -3.2606354q0.64670944 -1.5823822 2.5625992 -3.5113602l7.002907 -7.050766l1.6066971 1.597374l-6.9918976 7.039673q-1.5745506 1.5853119 -2.0241127 2.636612q-0.44956207 1.0512924 -0.14780045 2.1665268q0.32385254 1.1151581 1.3654327 2.1506958q1.783989 1.7736282 3.3302536 1.7245407q1.5572777 -0.060173035 3.836525 -2.3550034l6.9918976 -7.039673zm-8.009331 16.273514l8.77565 -8.835625l1.3518448 1.3439941l-1.2552414 1.2638168q2.4285355 -0.49393463 4.2568436 1.3237648q0.7978058 0.79317474 1.1763611 1.7423935q0.3896408 0.9602356 0.2596054 1.7563438q-0.1300354 0.79610443 -0.63570404 1.5712929q-0.3187561 0.49831772 -1.353775 1.5404129l-5.395317 5.43219l-1.4958878 -1.4872055l5.3402634 -5.3767586q0.90289307 -0.90906143 1.1770477 -1.5398521q0.27415466 -0.6307945 0.095184326 -1.337513q-0.16795349 -0.71780777 -0.76631165 -1.3126869q-0.95293427 -0.94740677 -2.2566147 -1.0317001q-1.3036804 -0.084293365 -2.9883347 1.6118813l-4.7897263 4.8224564l-1.4958878 -1.4872055zm15.194351 15.106148l1.1120987 -1.1196976q-2.1524277 0.48200607 -3.7812805 -1.137394q-1.0526657 -1.0465546 -1.3665543 -2.5043373q-0.3028717 -1.4688721 0.24459839 -2.9956818q0.558548 -1.5157967 1.9128876 -2.879387q1.3102951 -1.3192482 2.8104935 -1.964962q1.5112762 -0.63469696 2.9592133 -0.34088516q1.4590149 0.30482864 2.5449219 1.3844299q0.7978058 0.79317474 1.0769882 1.7537613q0.30126953 0.96051407 0.14955902 1.8893051l4.349289 -4.379013l1.4848099 1.4761887l-12.111946 12.194714l-1.3850784 -1.3770409zm-0.3491211 -9.116245q-1.6846619 1.6961746 -1.8123245 3.243763q-0.11657715 1.5586052 0.8585205 2.5280457q0.98617554 0.9804535 2.4548798 0.85424805q1.4907913 -0.1262703 3.1203995 -1.7670135q1.8057785 -1.8181229 1.9445267 -3.3546944q0.14974976 -1.5476608 -0.86966705 -2.561161q-0.99726105 -0.99147034 -2.4879837 -0.8430977q-1.4686356 0.1483078 -3.2083511 1.89991zm12.965904 15.997295l1.3420181 1.7308197q-1.708992 0.9889641 -3.4439087 0.76236725q-1.7239075 -0.23768616 -3.2641144 -1.7689552q-1.9391174 -1.9278603 -1.9022598 -4.2487564q0.058944702 -2.3209648 2.2060623 -4.4827538q2.2131805 -2.2283058 4.5766907 -2.3241806q2.3745956 -0.084861755 4.2029037 1.7328339q1.7729111 1.7626152 1.6918716 4.0836487q-0.06996155 2.3320541 -2.2390976 4.516014q-0.13213348 0.13303375 -0.4074707 0.3880844l-6.581909 -6.543701q-1.3648605 1.5293922 -1.393219 3.0435143q-0.02835083 1.514122 1.0797119 2.6157532q0.8199692 0.81520844 1.8255844 0.9556999q1.0167007 0.15150833 2.3071365 -0.46038818zm-2.5194473 -7.3080254l4.930893 4.9022713q1.001358 -1.2077599 1.0975266 -2.235836q0.14968872 -1.5697594 -0.9916229 -2.704445q-1.0305023 -1.024517 -2.4333496 -1.0311394q-1.3807526 -0.006690979 -2.603447 1.069149zm3.0941849 13.541922l8.775658 -8.835623l1.3407593 1.3329735l-1.3323135 1.3414192q1.4567108 -0.4245491 2.1861496 -0.29423904q0.7405243 0.14133072 1.2613144 0.6590996q0.75348663 0.74910736 1.0557327 2.0190582l-1.8971481 0.8679924q-0.22364044 -0.8612938 -0.7776718 -1.4121132q-0.48754883 -0.48471832 -1.1837463 -0.58198166q-0.6741028 -0.097332 -1.3578262 0.25846863q-1.0365524 0.55583954 -1.98349 1.5092468l-4.591522 4.622904l-1.4958954 -1.4872055zm23.544388 14.902957l1.2103806 2.018571q-2.4806595 1.4776611 -4.8452835 1.2198973q-2.3536224 -0.26885033 -4.2594986 -2.16366q-1.9612732 -1.9498911 -2.409523 -3.9819193q-0.42616272 -2.0320988 0.43964386 -4.189842q0.8768234 -2.1688309 2.6055298 -3.9093494q1.8938675 -1.9068089 4.0234985 -2.609768q2.1407166 -0.6919441 4.208191 -0.09065056q2.0674744 0.6012955 3.6852493 2.2096786q1.8283081 1.8176956 2.144432 3.9827576q0.32720184 2.1760788 -0.858902 4.345886l-1.9589005 -1.19841q0.88916016 -1.7599678 0.6858673 -3.1738968q-0.19221497 -1.4029121 -1.411087 -2.614708q-1.4072418 -1.3990746 -3.0207596 -1.6592102q-1.6135178 -0.26013756 -3.1244507 0.4850731q-1.4998474 0.7562275 -2.7000275 1.964613q-1.5415268 1.5520535 -2.2544403 3.1567478q-0.701828 1.6157112 -0.3214569 3.1395931q0.40246582 1.5238132 1.5105286 2.6254463q1.3629227 1.3550091 3.0644531 1.5043535q1.7236328 0.14927578 3.5865555 -1.061203zm2.9826355 2.7009192q2.4444046 -2.461115 4.9744797 -2.2812328q2.1212769 0.14801979 3.7612152 1.7784376q1.8172226 1.8066788 1.7804413 4.1496763q-0.03678131 2.342998 -2.117836 4.4382715q-1.6956711 1.7072599 -3.1743393 2.1760855q-1.4786682 0.4688257 -2.9932938 0.042607307q-1.5146332 -0.4262185 -2.6670227 -1.5719173q-1.8615494 -1.850744 -1.8246918 -4.1716394q0.047859192 -2.3319817 2.2610474 -4.5602884zm1.5402069 1.531271q-1.6846619 1.6961737 -1.7901611 3.2657952q-0.09442139 1.5806384 1.0358047 2.7043047q1.1080704 1.1016331 2.687294 0.9971838q1.5902405 -0.11553526 3.3189468 -1.8560538q1.6296082 -1.6407428 1.7129517 -3.232398q0.09442139 -1.5806379 -1.0025711 -2.671255q-1.1302261 -1.1236658 -2.7094498 -1.0192165q-1.5681534 0.11546612 -3.2528152 1.8116398zm4.0971527 12.842519l8.775658 -8.835625l1.3518448 1.3439932l-1.2552414 1.2638154q2.4285355 -0.49392796 4.2568436 1.3237672q0.7978058 0.7931762 1.1763611 1.7423949q0.38963318 0.9602351 0.25959778 1.7563415q-0.1300354 0.79610634 -0.6356964 1.5712963q-0.3187561 0.49831665 -1.353775 1.5404102l-5.3953247 5.432191l-1.4958878 -1.4872055l5.3402634 -5.3767595q0.90289307 -0.9090605 1.1770477 -1.539852q0.27415466 -0.6307916 0.095184326 -1.3375114q-0.16795349 -0.717806 -0.76631165 -1.3126881q-0.95292664 -0.94740486 -2.256607 -1.0316982q-1.3036804 -0.084293365 -2.9883423 1.6118804l-4.7897263 4.822455l-1.4958878 -1.4872053zm11.4878845 6.1773295l1.7160339 1.243381q-0.7589874 1.0080671 -0.6673279 2.0466032q0.10272217 1.049552 1.1221466 2.063054q1.0305023 1.0245199 1.9475403 1.0989828q0.91703796 0.07446289 1.4785919 -0.49092865q0.50650024 -0.5099602 0.3495636 -1.2388525q-0.100982666 -0.49699116 -1.022644 -2.0302153q-1.2325287 -2.0406027 -1.5779114 -2.9788752q-0.32330322 -0.9383421 -0.12719727 -1.8009648q0.21820068 -0.86269283 0.8568268 -1.5056868q0.5835724 -0.5875635 1.3450012 -0.8220463q0.7835083 -0.23455215 1.5792236 -0.10444927q0.596756 0.08652592 1.3712769 0.50403047q0.79663086 0.41743445 1.4836273 1.1004474q1.0415802 1.0355353 1.5310211 2.1170201q0.48942566 1.0814848 0.33758545 1.9660702q-0.12976074 0.8845167 -0.8335571 1.8813581l-1.6608429 -1.2546062q0.58296204 -0.7864847 0.48085022 -1.6371155q-0.09107971 -0.8617153 -0.9664612 -1.7320061q-1.0305023 -1.024519 -1.8150635 -1.1215034q-0.78456116 -0.09698391 -1.2360077 0.35754633q-0.28627014 0.28823853 -0.32913208 0.70832443q-0.064956665 0.42015553 0.17979431 0.9719491q0.13352966 0.30901527 0.93322754 1.698957q1.1661224 1.9966078 1.5113678 2.8906755q0.3673401 0.8939972 0.20440674 1.7675667q-0.14083862 0.8734999 -0.900589 1.6384411q-0.73773193 0.74276924 -1.8415985 0.96728134q-1.092804 0.23552895 -2.2761383 -0.21383762q-1.1723022 -0.460454 -2.2138977 -1.4959888q-1.7174988 -1.7075319 -1.9214172 -3.320382q-0.18182373 -1.6129198 0.96170044 -3.2742305zm11.088821 13.60232l-1.0886841 1.5395737q-0.7747345 -0.48381233 -1.2733612 -0.9795475q-0.81996155 -0.81520844 -1.0210266 -1.5218582q-0.17897034 -0.70672035 0.051071167 -1.3152695q0.24113464 -0.5975342 1.5734406 -1.9389515l5.0539856 -5.088522l-1.0969849 -1.0906172l1.1561432 -1.1640406l1.0969849 1.0906172l2.1691284 -2.1839619l2.3766937 0.57821465l-3.06102 3.081936l1.5069733 1.4982224l-1.1561432 1.1640406l-1.5069733 -1.4982214l-5.1310577 5.1661234q-0.6386261 0.6429939 -0.74824524 0.90857315q-0.087524414 0.26550674 -0.020355225 0.5526295q0.078201294 0.27603722 0.410614 0.6065273q0.24377441 0.24235916 0.7088165 0.594532zm0.116485596 2.781805l8.77565 -8.835625l1.3407593 1.3329773l-1.3323059 1.3414173q1.4567108 -0.424551 2.186142 -0.29423714q0.7405243 0.1413269 1.261322 0.65909576q0.753479 0.7491112 1.0557251 2.0190582l-1.8971405 0.8679962q-0.22364807 -0.8612976 -0.77767944 -1.4121151q-0.48754883 -0.48471832 -1.1837463 -0.58198166q-0.6741028 -0.097332 -1.3578186 0.25846863q-1.03656 0.55583954 -1.98349 1.5092449l-4.5915375 4.6229057l-1.4958801 -1.4872055zm11.462936 11.396399l1.288269 -1.2970734q-2.5169678 0.47210312 -4.2787933 -1.2794952q-0.7867279 -0.7821579 -1.1653442 -1.753479q-0.3786316 -0.9713211 -0.25959778 -1.7563419q0.13009644 -0.774004 0.6467743 -1.5602798q0.3407135 -0.5425911 1.2876434 -1.4959965l5.4393616 -5.476534l1.4958954 1.4872055l-4.866806 4.900057q-1.1671448 1.175127 -1.474823 1.6844597q-0.4506073 0.719759 -0.33764648 1.5150986q0.1350708 0.795269 0.8109894 1.4672661q0.6648407 0.6609802 1.5934448 0.90117645q0.9507141 0.24012756 1.7780609 -0.10507965q0.83836365 -0.3562889 1.9614716 -1.4870701l4.7016296 -4.7337666l1.4958954 1.4872055l-8.775665 8.835625l-1.3407593 -1.3329773zm12.658661 6.1515274l1.2865448 1.6536369q-1.7632751 1.2875252 -3.6193695 1.1607704q-1.8340149 -0.12682343 -3.2855835 -1.5699654q-1.8061523 -1.7956619 -1.7360535 -4.0835075q0.08117676 -2.2768326 2.2723389 -4.4829636q1.4203949 -1.4301109 2.96492 -2.0317574q1.5445251 -0.60165024 3.0370636 -0.17536163q1.50354 0.41519928 2.6448517 1.5498848q1.4404907 1.4321213 1.6223907 3.0671463q0.1929779 1.646038 -0.8734741 3.229744l-1.6828003 -1.210331q0.6813507 -1.1072845 0.58992004 -2.0795135q-0.0693512 -0.97229767 -0.8228302 -1.7214088q-1.1302338 -1.1236649 -2.6542053 -1.0083389q-1.5018616 0.11525726 -3.2415924 1.8668594q-1.761734 1.773777 -1.8896027 3.2550583q-0.11679077 1.4922981 0.9801941 2.5829163q0.8753662 0.87029266 2.002182 0.91093826q1.1378784 0.051662445 2.4051056 -0.9138069zm4.1339417 7.877594l-1.0886688 1.5395737q-0.77474976 -0.48381042 -1.2733765 -0.9795456q-0.81996155 -0.81520844 -1.0210266 -1.5218582q-0.17897034 -0.70672226 0.051071167 -1.3152695q0.24113464 -0.5975342 1.5734406 -1.9389534l5.0539856 -5.08852l-1.0969849 -1.0906181l1.1561432 -1.1640396l1.0969849 1.0906143l2.1691437 -2.18396l2.3766785 0.57821274l-3.06102 3.081936l1.5069733 1.4982224l-1.1561432 1.1640434l-1.5069733 -1.4982224l-5.1310577 5.1661224q-0.6386261 0.6429939 -0.74824524 0.90857315q-0.087524414 0.26550674 -0.020339966 0.5526314q0.078186035 0.2760353 0.41059875 0.6065254q0.24377441 0.24235916 0.7088165 0.594532zm10.532898 -7.661442l1.7176971 -1.729435l1.4958801 1.4872055l-1.7176819 1.729435l-1.4958954 -1.4872055zm-10.394257 10.465279l8.775665 -8.835625l1.4958801 1.4872055l-8.77565 8.835625l-1.4958954 -1.4872055zm7.5984955 -1.2147751q2.444397 -2.4611168 4.974472 -2.2812347q2.1212769 0.14801788 3.7612152 1.7784386q1.8172302 1.8066788 1.7804413 4.1496773q-0.03678894 2.3429947 -2.1178284 4.4382706q-1.6956787 1.7072601 -3.174347 2.1760864q-1.4786682 0.46882248 -2.9932861 0.042606354q-1.5146332 -0.42621994 -2.6670227 -1.5719185q-1.861557 -1.8507423 -1.8246918 -4.1716385q0.047851562 -2.3319817 2.2610474 -4.5602875zm1.5402069 1.5312691q-1.6846619 1.6961746 -1.7901611 3.2657967q-0.09442139 1.5806389 1.0357971 2.7043037q1.108078 1.1016312 2.6873016 0.99718475q1.5902405 -0.115535736 3.3189392 -1.8560562q1.6296082 -1.6407433 1.7129517 -3.2323952q0.09442139 -1.5806389 -1.0025635 -2.671257q-1.1302338 -1.1236649 -2.7094574 -1.0192146q-1.5681458 0.11546326 -3.2528076 1.8116379zm4.0971527 12.842518l8.77565 -8.835625l1.3518372 1.3439941l-1.2552338 1.2638168q2.4285278 -0.493927 4.256836 1.3237648q0.7978058 0.79317856 1.1763763 1.7423973q0.38963318 0.9602356 0.25959778 1.75634q-0.1300354 0.79610443 -0.6356964 1.5712967q-0.3187561 0.4983139 -1.353775 1.5404129l-5.3953247 5.43219l-1.4958954 -1.4872055l5.340271 -5.3767624q0.90289307 -0.9090576 1.1770477 -1.5398483q0.27415466 -0.6307945 0.095184326 -1.337513q-0.16795349 -0.71780777 -0.76631165 -1.3126907q-0.9529419 -0.94740295 -2.256607 -1.0316963q-1.3036804 -0.084293365 -2.9883423 1.6118813l-4.789734 4.8224525l-1.4958801 -1.4872055zm39.22354 14.759506l1.6177826 1.6083832l-7.0029144 7.0507584q-1.8167877 1.8292084 -3.3169098 2.4970245q-1.4780426 0.6677475 -3.2466278 0.2754898q-1.7575684 -0.40335083 -3.519394 -2.1549454q-1.7174988 -1.7075348 -2.219818 -3.3746948q-0.49131775 -1.6782532 0.15538025 -3.2606354q0.64671326 -1.5823822 2.5626068 -3.5113678l7.002899 -7.0507584l1.6067047 1.5973663l-6.9918976 7.0396805q-1.5745544 1.5853119 -2.0241241 2.6366043q-0.44955444 1.0513 -0.14779663 2.1665268q0.32385254 1.1151657 1.3654327 2.1506958q1.7839966 1.7736359 3.3302612 1.7245407q1.5572662 -0.060173035 3.8365173 -2.3549957l6.9918976 -7.039673zm-8.009323 16.273506l8.77565 -8.835617l1.3518372 1.3439865l-1.2552338 1.2638168q2.4285278 -0.493927 4.256836 1.3237686q0.7978058 0.79317474 1.1763611 1.7423935q0.38964844 0.9602356 0.25961304 1.75634q-0.1300354 0.79611206 -0.63571167 1.5712967q-0.3187561 0.49832153 -1.353775 1.5404129l-5.3953094 5.43219l-1.4958954 -1.4872055l5.340271 -5.3767624q0.90289307 -0.9090576 1.1770477 -1.5398483q0.27415466 -0.6307907 0.095184326 -1.3375092q-0.16795349 -0.7178116 -0.76631165 -1.3126907q-0.9529419 -0.94740295 -2.2566223 -1.0317001q-1.3036804 -0.08428955 -2.988327 1.6118851l-4.789734 4.8224487l-1.4958801 -1.4872055zm15.194351 15.106155l1.1120911 -1.1196976q-2.15242 0.48200226 -3.7812805 -1.1373978q-1.0526581 -1.0465546 -1.3665466 -2.5043335q-0.3028717 -1.4688721 0.24459839 -2.9956818q0.558548 -1.5158005 1.9128876 -2.879387q1.3102875 -1.319252 2.8104858 -1.9649658q1.5112762 -0.63469696 2.9592133 -0.34088135q1.4590149 0.30482483 2.5449219 1.3844299q0.7978058 0.79317474 1.0769958 1.7537613q0.30126953 0.96051025 0.14955139 1.8893051l4.349289 -4.379013l1.4848175 1.4761887l-12.111954 12.19471l-1.3850708 -1.377037zm-0.3491211 -9.116249q-1.6846619 1.6961746 -1.8123322 3.2437668q-0.11657715 1.5586014 0.8585205 2.5280457q0.98617554 0.9804535 2.4548798 0.85424805q1.490799 -0.12627411 3.120407 -1.7670135q1.8057709 -1.8181229 1.944519 -3.3546982q0.14974976 -1.5476608 -0.8696594 -2.5611572q-0.9972687 -0.99147034 -2.4879913 -0.8431015q-1.4686279 0.1483078 -3.2083435 1.89991zm12.965897 15.997299l1.3420258 1.7308197q-1.7089996 0.98896027 -3.4439087 0.76236725q-1.7239075 -0.23768616 -3.2641144 -1.768959q-1.9391174 -1.9278564 -1.9022675 -4.2487564q0.058944702 -2.320961 2.20607 -4.48275q2.2131805 -2.2283096 4.5766907 -2.3241806q2.374588 -0.084861755 4.202896 1.7328339q1.7729034 1.7626114 1.6918793 4.0836487q-0.06996155 2.3320465 -2.2391052 4.516014q-0.13212585 0.13303375 -0.4074707 0.3880844l-6.581909 -6.543709q-1.3648529 1.529396 -1.393219 3.043518q-0.02835083 1.514122 1.0797119 2.6157532q0.8199768 0.81520844 1.825592 0.95570374q1.0166931 0.15150452 2.307129 -0.46038818zm-2.5194397 -7.308029l4.930893 4.902275q1.001358 -1.2077637 1.0975189 -2.2358398q0.14968872 -1.5697632 -0.9916229 -2.704445q-1.0305023 -1.0245132 -2.4333496 -1.0311356q-1.3807526 -0.006690979 -2.6034393 1.0691452zm3.0941772 13.5419235l8.775665 -8.835625l1.3407593 1.3329773l-1.3323212 1.3414154q1.4567108 -0.4245453 2.1861572 -0.29423523q0.7405243 0.1413269 1.2613068 0.65909576q0.75349426 0.74910736 1.0557404 2.0190582l-1.8971558 0.8679962q-0.22363281 -0.8612976 -0.7776642 -1.412117q-0.48754883 -0.48471832 -1.1837463 -0.58197784q-0.6741028 -0.097335815 -1.3578339 0.25846863q-1.0365448 0.55583954 -1.98349 1.5092468l-4.591522 4.622902l-1.4958954 -1.4872055zm23.544388 14.902954l1.2103882 2.01857q-2.4806519 1.4776611 -4.845276 1.2198944q-2.3536377 -0.2688446 -4.2595215 -2.1636505q-1.9612732 -1.9498901 -2.4095154 -3.9819183q-0.42616272 -2.0321045 0.43963623 -4.18985q0.87683105 -2.1688232 2.6055298 -3.9093475q1.8938904 -1.906807 4.0234985 -2.609764q2.1407166 -0.69194794 4.208191 -0.090652466q2.0674744 0.6012955 3.6852722 2.2096786q1.8283081 1.817688 2.1444092 3.9827576q0.32720947 2.1760712 -0.8588867 4.345886l-1.9588928 -1.19841q0.88916016 -1.759964 0.68585205 -3.1739044q-0.1921997 -1.4029083 -1.4110718 -2.6147003q-1.4072571 -1.3990784 -3.0207825 -1.6592102q-1.6134949 -0.26013947 -3.1244507 0.4850769q-1.4998474 0.7562256 -2.7000122 1.9646149q-1.5415344 1.5520477 -2.2544556 3.1567383q-0.70181274 1.6157074 -0.32144165 3.1396027q0.40246582 1.5238037 1.5105286 2.6254425q1.362915 1.355011 3.0644531 1.5043488q1.7236328 0.14927673 3.5865479 -1.061203zm2.9826355 2.7009277q2.444397 -2.4611206 4.9744873 -2.2812347q2.1212769 0.14801025 3.7612 1.7784271q1.8172302 1.8066864 1.7804565 4.1496887q-0.03677368 2.342987 -2.1178284 4.438263q-1.6956787 1.7072601 -3.174347 2.1760864q-1.4786682 0.4688263 -2.9932861 0.04260254q-1.5146484 -0.4262085 -2.6670227 -1.5719147q-1.8615723 -1.8507385 -1.824707 -4.171631q0.047851562 -2.3319855 2.2610474 -4.5602875zm1.5402222 1.5312653q-1.6846619 1.696167 -1.7901611 3.2657928q-0.09442139 1.5806427 1.0357971 2.7043q1.1080627 1.1016388 2.6872864 0.9971924q1.5902405 -0.11553955 3.3189392 -1.8560486q1.6296082 -1.6407471 1.7129517 -3.2324066q0.09442139 -1.5806427 -1.0025635 -2.6712494q-1.1302185 -1.1236725 -2.7094421 -1.0192261q-1.5681458 0.11546326 -3.2528076 1.8116455zm4.0971375 12.842514l8.775665 -8.835617l1.3518372 1.3439941l-1.255249 1.2638092q2.4285278 -0.493927 4.256836 1.3237762q0.79782104 0.7931671 1.1763916 1.7423859q0.38961792 0.9602356 0.25958252 1.7563477q-0.1300354 0.7960968 -0.63568115 1.5712891q-0.3187561 0.49832153 -1.3537903 1.5404205l-5.3953247 5.43219l-1.4958801 -1.4872131l5.340271 -5.3767548q0.90289307 -0.9090576 1.1770325 -1.539856q0.27416992 -0.63079834 0.095184326 -1.3375092q-0.16793823 -0.71780396 -0.7662964 -1.3126831q-0.9529419 -0.9474182 -2.2566223 -1.0317078q-1.3036804 -0.08428955 -2.9883423 1.6118774l-4.789734 4.822464l-1.4958801 -1.4872131zm11.4878845 6.1773376l1.7160339 1.2433777q-0.75897217 1.0080719 -0.6673279 2.0466003q0.10272217 1.0495605 1.1221313 2.0630493q1.0305176 1.0245209 1.9475708 1.0989838q0.9170227 0.07446289 1.4785767 -0.49092102q0.50650024 -0.509964 0.34954834 -1.2388611q-0.100982666 -0.49697876 -1.0226135 -2.0302124q-1.232544 -2.0406036 -1.5779114 -2.9788666q-0.32330322 -0.93833923 -0.12719727 -1.8009644q0.21817017 -0.8627014 0.8568115 -1.5056915q0.58358765 -0.5875702 1.3450012 -0.822052q0.7835083 -0.23454285 1.5792236 -0.10444641q0.59677124 0.08653259 1.3712769 0.5040283q0.79663086 0.4174347 1.4836426 1.1004486q1.041565 1.0355377 1.5310059 2.1170197q0.48944092 1.0814819 0.33758545 1.9660797q-0.12976074 0.8845062 -0.8335571 1.8813477l-1.6608276 -1.2546082q0.5829468 -0.78648376 0.48083496 -1.6371155q-0.09106445 -0.8617096 -0.9664612 -1.7319946q-1.0304871 -1.0245209 -1.8150635 -1.1215057q-0.7845459 -0.09698486 -1.2359924 0.35754395q-0.2862854 0.28823853 -0.32913208 0.70832825q-0.064971924 0.42015076 0.17977905 0.9719391q0.13354492 0.309021 0.93322754 1.6989594q1.1661377 1.9966125 1.511383 2.890686q0.36730957 0.8939972 0.20440674 1.7675629q-0.14083862 0.87350464 -0.90060425 1.638443q-0.73773193 0.74276733 -1.8416138 0.96728516q-1.0927734 0.23551941 -2.276123 -0.21385193q-1.1723022 -0.46044922 -2.2138977 -1.4959869q-1.7174988 -1.7075348 -1.9214172 -3.3203735q-0.18182373 -1.6129303 0.96170044 -3.274231zm11.088837 13.60231l-1.0886841 1.5395813q-0.77474976 -0.48381042 -1.2733765 -0.9795532q-0.8199768 -0.8152008 -1.0210266 -1.5218506q-0.17895508 -0.7067261 0.051086426 -1.3152771q0.24111938 -0.5975342 1.5734253 -1.9389496l5.0539856 -5.088516l-1.0969849 -1.090622l1.1561279 -1.1640472l1.0969849 1.090622l2.169159 -2.18396l2.3766785 0.57821655l-3.0610046 3.0819397l1.506958 1.4982147l-1.1561279 1.1640472l-1.5069885 -1.49823l-5.1310425 5.1661224q-0.63864136 0.6430054 -0.7482605 0.9085846q-0.087524414 0.26550293 -0.020355225 0.55262756q0.07821655 0.2760315 0.410614 0.6065216q0.24377441 0.24235535 0.7088318 0.5945282zm0.116485596 2.7818146l8.775635 -8.835632l1.3407593 1.3329773l-1.3323059 1.3414154q1.4567261 -0.4245453 2.1861572 -0.29423523q0.74050903 0.1413269 1.2612915 0.6591034q0.7535095 0.74909973 1.0557556 2.0190582l-1.8971558 0.8679962q-0.22363281 -0.8612976 -0.77767944 -1.4121246q-0.48754883 -0.4847107 -1.1837463 -0.5819702q-0.6741028 -0.097335815 -1.3578186 0.25846863q-1.03656 0.5558319 -1.98349 1.5092316l-4.591522 4.6229095l-1.4958801 -1.4871979zm11.462921 11.396393l1.288269 -1.2970734q-2.5169678 0.47210693 -4.278778 -1.2794952q-0.78674316 -0.78215027 -1.1653442 -1.753479q-0.3786316 -0.9713135 -0.25961304 -1.7563477q0.13009644 -0.7740021 0.64678955 -1.5602722q0.34069824 -0.5425873 1.2876282 -1.4960022l5.4393616 -5.476532l1.4958801 1.4872131l-4.866791 4.900055q-1.1671448 1.1751251 -1.474823 1.6844635q-0.45062256 0.7197571 -0.33764648 1.515091q0.1350708 0.7952728 0.81100464 1.4672699q0.66482544 0.6609802 1.5934448 0.9011688q0.9506836 0.24012756 1.7780457 -0.10507202q0.8383484 -0.35629272 1.9614563 -1.4870758l4.70166 -4.7337646l1.4958801 1.4872131l-8.775665 8.835617l-1.3407593 -1.3329773zm12.658661 6.151535l1.28656 1.6536255q-1.7632751 1.2875214 -3.6193848 1.1607819q-1.8340149 -0.12683105 -3.2855835 -1.5699768q-1.8061523 -1.7956543 -1.7360535 -4.083496q0.08117676 -2.2768402 2.2723389 -4.482971q1.4204102 -1.4301147 2.9649353 -2.0317535q1.5444946 -0.60165405 3.0370483 -0.17536926q1.50354 0.4152069 2.644867 1.5498962q1.4404602 1.4321136 1.6223755 3.0671387q0.19296265 1.6460419 -0.8734741 3.2297516l-1.6828003 -1.2103424q0.68136597 -1.1072845 0.5899048 -2.0795135q-0.06933594 -0.97229004 -0.82281494 -1.721405q-1.1302185 -1.1236572 -2.6542053 -1.0083313q-1.5018616 0.115249634 -3.2415771 1.8668518q-1.7617493 1.7737732 -1.8896179 3.255066q-0.11679077 1.4922943 0.9801941 2.5829163q0.8753662 0.87028503 2.0021973 0.91093445q1.1378784 0.05166626 2.4050903 -0.9138031zm4.1339417 7.877594l-1.0886841 1.539566q-0.77471924 -0.48381042 -1.273346 -0.97953796q-0.8199768 -0.81521606 -1.0210266 -1.5218658q-0.1789856 -0.7067261 0.05105591 -1.3152771q0.24111938 -0.5975189 1.5734558 -1.9389496l5.0539856 -5.088516l-1.0969849 -1.090622l1.1561279 -1.164032l1.0969849 1.0906067l2.1691284 -2.18396l2.376709 0.57821655l-3.0610352 3.0819397l1.5069885 1.4982147l-1.1561584 1.1640472l-1.506958 -1.4982147l-5.131073 5.1661224q-0.63861084 0.6429901 -0.74823 0.90856934q-0.08755493 0.26550293 -0.020355225 0.55262756q0.078186035 0.2760315 0.410614 0.6065216q0.24377441 0.2423706 0.70880127 0.59454346zm10.532898 -7.6614532l1.7177124 -1.7294312l1.4958801 1.4872131l-1.7177124 1.7294312l-1.4958801 -1.4872131zm-10.394257 10.465286l8.775665 -8.835632l1.4958801 1.4872131l-8.775635 8.835617l-1.4959106 -1.4871979zm7.59848 -1.2147827q2.4444275 -2.4611053 4.9744873 -2.2812347q2.1212769 0.14802551 3.7612305 1.7784424q1.8172302 1.8066864 1.780426 4.1496735q-0.03677368 2.3430023 -2.1178284 4.438278q-1.6956787 1.7072601 -3.174347 2.1760864q-1.4786682 0.4688263 -2.9932861 0.04260254q-1.5146179 -0.42622375 -2.6670227 -1.5719147q-1.8615417 -1.8507538 -1.824707 -4.171646q0.04788208 -2.3319702 2.2610474 -4.5602875zm1.5402222 1.5312805q-1.6846619 1.696167 -1.7901611 3.2657928q-0.09442139 1.5806274 1.0357971 2.7043q1.1080627 1.1016388 2.687317 0.9971924q1.5902405 -0.11553955 3.3189392 -1.8560638q1.6296082 -1.6407471 1.7129517 -3.2323914q0.09442139 -1.5806427 -1.0025635 -2.6712646q-1.130249 -1.1236572 -2.7094727 -1.0192108q-1.5681458 0.11546326 -3.2528076 1.8116455zm4.097168 12.842514l8.775635 -8.835632l1.3518372 1.3439941l-1.2552185 1.2638245q2.4285278 -0.493927 4.256836 1.323761q0.7977905 0.7931824 1.1763611 1.7424011q0.38964844 0.9602356 0.25961304 1.7563324q-0.13006592 0.79611206 -0.63571167 1.5713043q-0.3187561 0.49832153 -1.3537903 1.5404053l-5.395294 5.43219l-1.4959106 -1.4871979l5.340271 -5.37677q0.90289307 -0.9090576 1.1770325 -1.5398407q0.27416992 -0.63079834 0.095214844 -1.3375092q-0.16796875 -0.7178192 -0.7663269 -1.3126984q-0.9529419 -0.94740295 -2.2566223 -1.0316925q-1.3036804 -0.08428955 -2.9883423 1.6118774l-4.7897034 4.8224487l-1.4958801 -1.4871979z" fill-rule="nonzero"></path><path fill="#ffe600" d="m156.93317 -137.17555l268.6614 381.6378l-32.06299 22.614182l-268.6614 -381.6378z" fill-rule="nonzero"></path><path stroke="#434343" stroke-width="2.0" stroke-linejoin="round" stroke-linecap="butt" stroke-dasharray="16.0,6.0" d="m156.93317 -137.17555l268.6614 381.6378l-32.06299 22.614182l-268.6614 -381.6378z" fill-rule="nonzero"></path><path fill="#000000" d="m160.70435 -112.7609l1.3131714 1.865387l-8.120834 5.727661q-2.1068115 1.4859467 -3.6999207 1.8830032q-1.5713501 0.40081787 -3.2444458 -0.2929306q-1.6603394 -0.7027588 -3.0904388 -2.7342453q-1.3941193 -1.9803772 -1.5988312 -3.7097855q-0.19194031 -1.7384262 0.7199249 -3.1846237q0.91186523 -1.4461975 3.1335907 -3.0131989l8.120834 -5.727661l1.304184 1.8526154l-8.108063 5.718651q-1.8259125 1.2878189 -2.4513245 2.2451859q-0.62542725 0.9573593 -0.5222168 2.1082764q0.12495422 1.154686 0.97042847 2.35569q1.4480896 2.0570374 2.9790497 2.2774277q1.5437164 0.21139526 4.1868286 -1.6527939l8.108063 -5.7186584zm-10.7153015 14.636879l10.176575 -7.1775894l1.0973053 1.5587463l-1.4556122 1.0266571q2.4769592 -0.06441498 3.961029 2.0437317q0.647583 0.91991425 0.8552704 1.9206619q0.21665955 1.0135269 -0.04978943 1.7750626q-0.26644897 0.7615433 -0.8990936 1.4371948q-0.40048218 0.4354248 -1.6007233 1.2819672l-6.2566223 4.412819l-1.2142334 -1.7248459l6.1927643 -4.36779q1.0470276 -0.738472 1.4266357 -1.3121338q0.3795929 -0.5736618 0.32626343 -1.3008652q-0.04055786 -0.73620605 -0.5262451 -1.4261475q-0.7735138 -1.0987854 -2.0424347 -1.4084015q-1.2689209 -0.30960846 -3.222519 1.0682755l-5.5543365 3.9174957l-1.2142334 -1.7248383zm12.333511 17.519943l1.2896271 -0.9095764q-2.2030334 0.10066223 -3.5252075 -1.777504q-0.85446167 -1.2137833 -0.91004944 -2.7042084q-0.042816162 -1.4994354 0.76168823 -2.9081497q0.8134918 -1.395935 2.3840332 -2.5036392q1.519455 -1.0716858 3.1087952 -1.4469604q1.5983276 -0.3624878 2.9728546 0.17856598q1.3835144 0.5538254 2.2649536 1.8059387q0.64759827 0.91991425 0.75546265 1.9145889q0.12960815 0.998436 -0.1812439 1.8869019l5.0435944 -3.5572739l1.205246 1.7120667l-14.045471 9.906334l-1.1242828 -1.597084zm1.2413025 -9.039909q-1.9535828 1.3778839 -2.3483582 2.8800278q-0.38578796 1.5149155 0.40571594 2.6392593q0.80049133 1.1371155 2.2684937 1.2680817q1.4897614 0.13472748 3.3795166 -1.1981277q2.09404 -1.476944 2.497818 -2.9663086q0.41653442 -1.4983673 -0.4109497 -2.6738129q-0.809494 -1.1499023 -2.3030243 -1.2628479q-1.4717712 -0.109176636 -3.489212 1.3137283zm9.984497 18.010391l1.0203705 1.9380493q-1.8545837 0.67707825 -3.523346 0.15234375q-1.6559906 -0.53372955 -2.9062042 -2.3096848q-1.5740204 -2.2359085 -1.134201 -4.515518q0.46159363 -2.2758331 2.951477 -4.0319595q2.5664825 -1.8101501 4.9102173 -1.4937973q2.3527222 0.32913208 3.836792 2.437271q1.4391022 2.044258 0.9557495 4.31633q-0.47434998 2.2848434 -2.9897614 4.058975q-0.15322876 0.10807037 -0.4686737 0.31143188l-5.342636 -7.5893173q-1.609726 1.2691879 -1.9009094 2.7556229q-0.29118347 1.4864426 0.60824585 2.7640991q0.6655884 0.9454727 1.6312714 1.2586365q0.9746704 0.32593536 2.3516083 -0.052482605zm-1.2099457 -7.636078l4.002487 5.6856003q1.1959076 -1.0155716 1.4693451 -2.0114822q0.4203186 -1.5201492 -0.5061035 -2.8361435q-0.83647156 -1.1882248 -2.2165375 -1.4385681q-1.3582916 -0.24656677 -2.7491913 0.60059357zm0.69192505 13.876175l10.176575 -7.1775894l1.0883179 1.5459747l-1.5449982 1.0896912q1.5080566 -0.16498566 2.203598 0.090148926q0.7045288 0.2679062 1.1272583 0.8684082q0.61161804 0.86881256 0.68840027 2.172203l-2.018814 0.5252228q-0.07043457 -0.8872223 -0.52015686 -1.5260544q-0.39575195 -0.56217194 -1.0643005 -0.77897644q-0.6467743 -0.21302795 -1.3818207 0.018592834q-1.117218 0.36732483 -2.2153168 1.1418228l-5.3245087 3.7553978l-1.2142334 -1.7248421zm20.590103 18.771076l0.840744 2.1986008q-2.6993256 1.0243034 -4.982666 0.35943222q-2.270584 -0.6738777 -3.8176117 -2.8714561q-1.5919952 -2.2614632 -1.6800385 -4.3408585q-0.06625366 -2.0756264 1.1613617 -4.050461q1.2404022 -1.9838371 3.2450714 -3.3977394q2.1961975 -1.5489922 4.415207 -1.8712463q2.228012 -0.30947876 4.1590576 0.64211273q1.9310455 0.9515915 3.244217 2.8169785q1.4840698 2.1081429 1.4188843 4.2956085q-0.05619812 2.200245 -1.6012726 4.1312904l-1.7203369 -1.5208626q1.1814575 -1.5789795 1.2271423 -3.0069885q0.05467224 -1.4152336 -0.9346924 -2.8206635q-1.1422882 -1.6226311 -2.6856995 -2.1592941q-1.543396 -0.53666306 -3.1605988 -0.065258026q-1.6082153 0.48418427 -2.9999847 1.4658089q-1.7876129 1.260807 -2.7685394 2.717476q-0.9719238 1.4694443 -0.862381 3.0365334q0.13130188 1.5708618 1.0307465 2.8485222q1.106308 1.5715256 2.7556305 2.0143623q1.6710968 0.44660187 3.7157593 -0.4218979zm2.4670258 3.1787186q2.8346252 -1.999279 5.294403 -1.3823624q2.0628204 0.5144806 3.393982 2.4054222q1.4750824 2.0953636 1.0314789 4.396755q-0.44358826 2.3013916 -2.8568573 4.003479q-1.9663696 1.3868866 -3.5037384 1.5916672q-1.537384 0.20478058 -2.954544 -0.4782791q-1.41716 -0.6830635 -2.3525848 -2.0118332q-1.5110474 -2.146473 -1.071228 -4.426079q0.45259094 -2.2886162 3.0190887 -4.09877zm1.2502136 1.7759514q-1.953598 1.3778801 -2.3303833 2.9055748q-0.36779785 1.5404701 0.54963684 2.8436852q0.8994293 1.2776642 2.472458 1.4492607q1.5858154 0.16259003 3.5904846 -1.2513123q1.8897552 -1.3328514 2.2485504 -2.8861008q0.3677826 -1.5404701 -0.52264404 -2.805355q-0.9174347 -1.3032188 -2.4904633 -1.4748154q-1.5640411 -0.15881729 -3.5176392 1.2190628zm1.8010254 13.361601l10.176575 -7.1775837l1.0973053 1.5587463l-1.4556122 1.0266571q2.4769592 -0.06441498 3.961029 2.043726q0.64759827 0.91991806 0.8552704 1.9206657q0.2166748 1.0135231 -0.04977417 1.7750645q-0.26644897 0.76153946 -0.8991089 1.4371929q-0.40048218 0.4354248 -1.6007233 1.2819672l-6.2566223 4.412819l-1.2142334 -1.7248459l6.1927643 -4.36779q1.0470276 -0.7384701 1.4266357 -1.3121338q0.37960815 -0.5736618 0.3262787 -1.3008633q-0.04055786 -0.73620987 -0.5262604 -1.4261475q-0.7735138 -1.0987892 -2.0424347 -1.4084015q-1.2689056 -0.30961037 -3.2225037 1.0682697l-5.554352 3.9175034l-1.2142334 -1.7248459zm10.236664 8.081127l1.4733887 1.5229473q-0.92256165 0.86100197 -1.0128937 1.8998585q-0.081344604 1.051631 0.7461395 2.2270803q0.83647156 1.1882267 1.7264252 1.4209557q0.8899536 0.23272991 1.541153 -0.22656345q0.58735657 -0.41426468 0.5595703 -1.1594791q-0.013015747 -0.50707245 -0.6538696 -2.1774387q-0.85873413 -2.2241535 -1.0356445 -3.208353q-0.15516663 -0.9804287 0.18789673 -1.7960052q0.3648224 -0.8118038 1.1054077 -1.334137q0.67674255 -0.47730446 1.4671936 -0.5759239q0.8122101 -0.09485054 1.5730286 0.17159653q0.57250977 0.18894196 1.262497 0.7347889q0.7117615 0.54961586 1.2694092 1.3417664q0.845459 1.201004 1.1393127 2.3512993q0.29385376 1.1502953 -0.009460449 1.9951954q-0.28155518 0.84866905 -1.1478119 1.7082081l-1.4170837 -1.5244102q0.7107086 -0.6733475 0.7580719 -1.5289383q0.060150146 -0.8645954 -0.6504059 -1.873949q-0.83647156 -1.1882267 -1.5920715 -1.4201126q-0.7556 -0.23188782 -1.2791138 0.13734818q-0.33198547 0.23414993 -0.44721985 0.6404743q-0.13700867 0.40255165 0.008041382 0.98859215q0.07772827 0.3275776 0.6234131 1.835619q0.8009949 2.1692762 0.9854584 3.109911q0.2062378 0.94440556 -0.10606384 1.7765284q-0.2905426 0.83589363 -1.1715851 1.4572897q-0.85549927 0.6033859 -1.9813843 0.63266563q-1.1168976 0.042057037 -2.2038422 -0.6062231q-1.074173 -0.65728664 -1.9196472 -1.8582888q-1.3941193 -1.9803772 -1.3144684 -3.6044292q0.10140991 -1.6202812 1.516159 -3.0578728zm8.552765 15.325164l-1.3395691 1.3272171q-0.6786804 -0.6111932 -1.0834198 -1.186141q-0.6655884 -0.94547033 -0.7406769 -1.6764445q-0.053329468 -0.7272029 0.27897644 -1.2866244q0.34129333 -0.5466442 1.8862915 -1.6363411l5.860794 -4.1336403l-0.8904419 -1.2648859l1.3406982 -0.9456043l0.8904419 1.2648859l2.5154266 -1.7741327l2.239502 0.98260117l-3.5496826 2.5035992l1.2232361 1.7376213l-1.3406982 0.9456043l-1.2232361 -1.7376213l-5.950165 4.196681q-0.7405853 0.5223341 -0.89468384 0.76486826q-0.13235474 0.24630499 -0.116119385 0.54078865q0.0289917 0.28547764 0.29881287 0.6687765q0.19787598 0.2810855 0.59451294 0.7087922zm-0.36898804 2.7602398l10.176575 -7.1775856l1.0883179 1.5459723l-1.5449982 1.0896959q1.5080719 -0.16498756 2.203598 0.09014559q0.7045288 0.26790953 1.1272583 0.86841106q0.61161804 0.86881065 0.68840027 2.172204l-2.018814 0.5252178q-0.07043457 -0.8872216 -0.5201416 -1.5260527q-0.39575195 -0.56217146 -1.0643005 -0.778975q-0.64678955 -0.21303225 -1.3818359 0.01858902q-1.117218 0.36732817 -2.2153168 1.1418233l-5.3245087 3.755399l-1.2142334 -1.7248445zm9.304657 13.21742l1.493927 -1.0536728q-2.5602264 0.027550697 -3.990326 -2.003933q-0.63861084 -0.90714073 -0.84251404 -1.9296703q-0.2039032 -1.0225296 0.04978943 -1.775064q0.2626648 -0.73975825 0.90808105 -1.424417q0.4297943 -0.47521996 1.5278931 -1.2497146l6.3076935 -4.448842l1.2142334 1.7248446l-5.6437225 3.9805431q-1.3534698 0.9546099 -1.7449493 1.4028125q-0.5688019 0.6306243 -0.595871 1.4336443q-0.0052948 0.8067908 0.5433655 1.586165q0.5396576 0.7665973 1.4121857 1.1645808q0.8942871 0.40175343 1.7689056 0.20553398q0.8873749 -0.20522499 2.1897736 -1.1238112l5.452194 -3.8454568l1.2142487 1.7248442l-10.17659 7.1775856l-1.0883179 -1.5459719zm11.393875 8.2592l0.979187 1.8523884q-1.9599457 0.96170807 -3.7653809 0.51426125q-1.7836914 -0.4436779 -2.9619446 -2.1174145q-1.4660797 -2.08259 -0.99928284 -4.3238688q0.47579956 -2.2285013 3.0167542 -4.020647q1.6471558 -1.1617422 3.272461 -1.4859047q1.6253204 -0.32416344 3.0207214 0.35512733q1.4081726 0.6702843 2.3345795 1.9862766q1.1692657 1.6609612 1.0640869 3.3030243q-0.096206665 1.6548395 -1.4215698 3.0293932l-1.4463959 -1.4846172q0.86335754 -0.9722223 0.9423828 -1.9457302q0.10076904 -0.969738 -0.51083374 -1.8385487q-0.9174347 -1.303215 -2.4379425 -1.4544935q-1.498764 -0.14750767 -3.5161896 1.2754011q-2.042984 1.4409208 -2.4264374 2.877715q-0.37445068 1.4495707 0.5159912 2.7144575q0.7105408 1.0093517 1.812912 1.2452316q1.1113586 0.24865532 2.5269012 -0.48205185zm2.7005157 8.477692l-1.3395844 1.3272171q-0.67866516 -0.6111927 -1.0834198 -1.186142q-0.6655731 -0.9454689 -0.7406616 -1.6764431q-0.053329468 -0.72720337 0.27896118 -1.2866249q0.3413086 -0.5466442 1.8863068 -1.6363411l5.860794 -4.1336403l-0.8904419 -1.2648869l1.3406982 -0.9456043l0.8904419 1.2648869l2.5154114 -1.7741337l2.239502 0.98260117l-3.5496674 2.503601l1.2232208 1.7376213l-1.3406982 0.9456024l-1.2232361 -1.7376213l-5.950165 4.196682q-0.74057007 0.52233315 -0.89468384 0.7648678q-0.13233948 0.24630547 -0.116119385 0.54078865q0.0289917 0.2854786 0.29882812 0.66877747q0.19787598 0.28108406 0.59451294 0.70879173zm11.70256 -5.715639l1.9918976 -1.4048958l1.2142334 1.724844l-1.9918976 1.4048977l-1.2142334 -1.7248459zm-12.053574 8.501432l10.17659 -7.1775856l1.2142334 1.724844l-10.176575 7.1775856l-1.2142487 -1.724844zm7.69252 0.12412453q2.8346252 -1.9992771 5.294403 -1.3823605q2.0628357 0.5144806 3.3939972 2.4054203q1.4750671 2.0953674 1.0314636 4.396759q-0.443573 2.3013878 -2.856842 4.003475q-1.9663696 1.3868866 -3.5037537 1.5916672q-1.5373688 0.2047844 -2.954544 -0.4782791q-1.41716 -0.6830597 -2.3525696 -2.0118294q-1.5110474 -2.146473 -1.071228 -4.4260826q0.45259094 -2.2886124 3.0190735 -4.09877zm1.2502136 1.7759514q-1.953598 1.3778801 -2.3303833 2.9055748q-0.3677826 1.5404701 0.54963684 2.843689q0.8994293 1.2776604 2.4724731 1.4492569q1.5858002 0.16259384 3.5904694 -1.2513123q1.8897552 -1.3328514 2.2485504 -2.886097q0.36779785 -1.5404739 -0.52264404 -2.805359q-0.91741943 -1.303215 -2.4904633 -1.4748116q-1.5640411 -0.1588211 -3.5176392 1.219059zm1.8010254 13.361603l10.17659 -7.1775856l1.09729 1.5587502l-1.4555969 1.0266533q2.4769592 -0.06441498 3.961029 2.0437279q0.647583 0.91991806 0.8552551 1.9206657q0.2166748 1.0135231 -0.04977417 1.7750626q-0.26644897 0.76153946 -0.8991089 1.4371948q-0.40048218 0.4354248 -1.600708 1.2819672l-6.2566223 4.412819l-1.2142487 -1.7248459l6.1927643 -4.36779q1.0470276 -0.738472 1.4266357 -1.3121338q0.37960815 -0.5736618 0.32629395 -1.3008652q-0.04055786 -0.73620987 -0.52627563 -1.4261475q-0.77349854 -1.0987892 -2.0424194 -1.4083977q-1.2689209 -0.30961227 -3.2225037 1.0682678l-5.554352 3.9175034l-1.2142487 -1.7248459zm36.052414 21.354881l1.3131714 1.865387l-8.120819 5.727661q-2.106842 1.4859467 -3.6999512 1.8830032q-1.5713196 0.40081787 -3.2444458 -0.2929306q-1.6603088 -0.7027588 -3.0904236 -2.7342453q-1.3941345 -1.9803772 -1.5988464 -3.709793q-0.19192505 -1.7384186 0.7199402 -3.184616q0.91186523 -1.4461975 3.133606 -3.0132027l8.120819 -5.7276573l1.3041992 1.8526115l-8.108063 5.7186546q-1.8259277 1.2878189 -2.451355 2.2451782q-0.6253967 0.9573593 -0.5222168 2.1082764q0.12496948 1.1546936 0.970459 2.3556976q1.4480896 2.0570297 2.9790344 2.2774277q1.5437317 0.21139526 4.1868286 -1.6528015l8.108063 -5.718651zm-10.7153015 14.636871l10.176575 -7.177582l1.0973206 1.5587463l-1.4556274 1.0266571q2.4769592 -0.06441498 3.961029 2.043724q0.647583 0.9199219 0.8552551 1.9206696q0.2166748 1.0135193 -0.04977417 1.7750626q-0.26644897 0.7615433 -0.89907837 1.4371948q-0.40048218 0.4354248 -1.6007385 1.2819672l-6.2566223 4.412819l-1.2142334 -1.7248459l6.1927795 -4.36779q1.0470276 -0.738472 1.4266052 -1.3121338q0.37960815 -0.5736618 0.32629395 -1.3008652q-0.04055786 -0.73620605 -0.52627563 -1.4261475q-0.77349854 -1.098793 -2.0424194 -1.4084015q-1.2689209 -0.30960846 -3.2225037 1.0682678l-5.554352 3.9175034l-1.2142334 -1.7248459zm12.333496 17.51995l1.2896423 -0.9095764q-2.2030334 0.1006546 -3.5252075 -1.777504q-0.85446167 -1.2137833 -0.9100342 -2.7042084q-0.042816162 -1.4994354 0.76168823 -2.9081497q0.81347656 -1.395935 2.3840027 -2.5036469q1.5194702 -1.0716782 3.1088257 -1.4469528q1.5983276 -0.36249542 2.9728394 0.17856598q1.3835144 0.5538254 2.2649536 1.8059387q0.6476135 0.91991425 0.75546265 1.9145813q0.12960815 0.9984436 -0.1812439 1.8869095l5.0436096 -3.5572739l1.2052307 1.7120667l-14.045471 9.906326l-1.1242981 -1.5970764zm1.241333 -9.039909q-1.9536133 1.3778839 -2.3483887 2.8800201q-0.3857727 1.5149231 0.4057312 2.639267q0.8005066 1.1371155 2.2684937 1.268074q1.4897461 0.1347351 3.3795166 -1.1981201q2.0940552 -1.476944 2.4978027 -2.9663086q0.41656494 -1.4983673 -0.4109192 -2.6738205q-0.8095093 -1.1498947 -2.3030396 -1.2628403q-1.4717712 -0.109176636 -3.4891968 1.3137283zm9.984467 18.010384l1.0203857 1.938057q-1.8545837 0.6770706 -3.523346 0.15234375q-1.6559753 -0.53372955 -2.9062195 -2.3096848q-1.5740051 -2.2359085 -1.1341858 -4.515518q0.4616089 -2.2758331 2.951477 -4.0319595q2.5664978 -1.8101578 4.9102173 -1.4937973q2.3527222 0.32912445 3.836792 2.437271q1.4390869 2.044258 0.9557495 4.3163223q-0.47433472 2.2848434 -2.9897766 4.058983q-0.15319824 0.108062744 -0.46865845 0.31142426l-5.3426514 -7.5893097q-1.6097107 1.2691879 -1.9009094 2.7556229q-0.2911682 1.4864349 0.60827637 2.7640991q0.6655884 0.9454727 1.6312561 1.2586288q0.9746704 0.325943 2.351593 -0.052482605zm-1.2099304 -7.6360703l4.0025024 5.6855927q1.1958923 -1.015564 1.4693298 -2.0114746q0.4203186 -1.5201492 -0.5061035 -2.8361435q-0.8364868 -1.1882248 -2.2165222 -1.4385681q-1.3583069 -0.2465744 -2.7492065 0.60059357zm0.69192505 13.876167l10.176575 -7.177582l1.0883179 1.5459671l-1.5450134 1.0896988q1.5080872 -0.16498566 2.2036133 0.090148926q0.7045288 0.2679062 1.1272583 0.8684082q0.6116028 0.86881256 0.688385 2.172203l-2.0187988 0.5252228q-0.07043457 -0.8872223 -0.5201416 -1.5260544q-0.39575195 -0.56217194 -1.0643005 -0.77897644q-0.64678955 -0.21303558 -1.3818359 0.018585205q-1.117218 0.36733246 -2.2153015 1.1418304l-5.324524 3.755394l-1.2142334 -1.7248459zm20.590118 18.77108l0.84072876 2.1986084q-2.6993103 1.024292 -4.982666 0.35942078q-2.2705688 -0.6738739 -3.817627 -2.8714447q-1.59198 -2.2614746 -1.6800232 -4.340866q-0.06625366 -2.0756226 1.161377 -4.050461q1.240387 -1.9838333 3.2450562 -3.3977356q2.1961975 -1.548996 4.415222 -1.8712463q2.2279968 -0.30947876 4.1590576 0.64211273q1.9310303 0.9515915 3.2442017 2.8169785q1.4840698 2.108139 1.4188843 4.2956085q-0.05621338 2.200241 -1.6012878 4.1312866l-1.7203064 -1.5208588q1.1814575 -1.5789795 1.2271423 -3.0069885q0.054656982 -1.4152374 -0.9347229 -2.8206635q-1.142273 -1.6226349 -2.685669 -2.1592941q-1.5434265 -0.53666687 -3.160614 -0.06526184q-1.6082153 0.48418427 -2.9999695 1.4658127q-1.7876282 1.2608032 -2.7685547 2.717476q-0.9719238 1.4694443 -0.86239624 3.0365372q0.13131714 1.5708618 1.0307617 2.8485107q1.1062927 1.5715332 2.7556458 2.0143738q1.6710815 0.44659424 3.7157593 -0.42190552zm2.4670105 3.1787262q2.8346252 -1.9992828 5.294403 -1.38237q2.0628357 0.5144806 3.393982 2.405426q1.4750977 2.0953674 1.0314941 4.396759q-0.44360352 2.3013916 -2.8568726 4.003479q-1.9663696 1.3868866 -3.5037537 1.5916595q-1.5373535 0.20478821 -2.9545288 -0.47827148q-1.4171753 -0.68307495 -2.3525696 -2.0118408q-1.5110474 -2.146469 -1.071228 -4.426071q0.45257568 -2.28862 3.0190735 -4.09877zm1.2502136 1.77594q-1.9535828 1.3778839 -2.3303833 2.9055786q-0.36779785 1.5404663 0.5496216 2.843689q0.8994446 1.2776642 2.4724731 1.4492645q1.5858154 0.1625824 3.5904846 -1.2513123q1.88974 -1.3328552 2.2485352 -2.8861084q0.36779785 -1.5404663 -0.52264404 -2.805359q-0.91741943 -1.3032074 -2.490448 -1.4748077q-1.5640564 -0.15881348 -3.5176392 1.2190552zm1.8010254 13.361603l10.176575 -7.177582l1.0973206 1.5587463l-1.4556274 1.0266571q2.4769592 -0.06440735 3.961029 2.0437317q0.647583 0.9199219 0.85528564 1.9206543q0.21664429 1.0135345 -0.049804688 1.7750702q-0.26644897 0.76153564 -0.89907837 1.4371948q-0.40048218 0.4354248 -1.6007385 1.2819672l-6.2566223 4.4128113l-1.2142334 -1.7248383l6.1927795 -4.3677826q1.0470276 -0.7384796 1.4266357 -1.3121338q0.37957764 -0.57366943 0.32626343 -1.3008728q-0.04055786 -0.73620605 -0.5262451 -1.4261475q-0.77352905 -1.0987854 -2.04245 -1.4084015q-1.2689209 -0.30960083 -3.2225037 1.0682678l-5.554352 3.917511l-1.2142334 -1.7248535zm10.236664 8.081131l1.4733887 1.5229492q-0.9225464 0.8610077 -1.0128784 1.8998566q-0.08135986 1.0516357 0.74612427 2.2270813q0.8364868 1.1882324 1.7264404 1.4209595q0.8899536 0.23272705 1.5411377 -0.2265625q0.5873413 -0.41427612 0.5595703 -1.1594849q-0.013031006 -0.5070648 -0.6538696 -2.1774445q-0.85873413 -2.2241516 -1.0356445 -3.2083435q-0.15515137 -0.98043823 0.18789673 -1.7960052q0.36483765 -0.81181335 1.1054077 -1.334137q0.6767273 -0.47731018 1.4671936 -0.57592773q0.8121948 -0.09484863 1.5730286 0.17160034q0.57250977 0.18893433 1.2625122 0.734787q0.71173096 0.5496216 1.2693787 1.3417664q0.8454895 1.201004 1.1393433 2.351303q0.29382324 1.1502838 -0.009490967 1.9951935q-0.28152466 0.84866333 -1.1477966 1.7082062l-1.4170837 -1.5244141q0.71069336 -0.67333984 0.75808716 -1.5289307q0.060150146 -0.8645935 -0.65042114 -1.8739471q-0.8364563 -1.1882324 -1.5920715 -1.4201202q-0.75561523 -0.23188782 -1.2791138 0.13734436q-0.3319702 0.23416138 -0.4472351 0.6404724q-0.13699341 0.40255737 0.008056641 0.9886017q0.07772827 0.32757568 0.6234131 1.8356171q0.8009949 2.169281 0.98547363 3.109909q0.20620728 0.94441223 -0.1060791 1.776535q-0.29055786 0.8358917 -1.1715698 1.4572906q-0.85549927 0.6033783 -1.9813843 0.6326599q-1.1169128 0.042053223 -2.2038574 -0.6062317q-1.0741882 -0.65727234 -1.9196472 -1.8582764q-1.3941345 -1.9803772 -1.3144836 -3.6044312q0.10144043 -1.620285 1.5161743 -3.0578766zm8.552765 15.325165l-1.3395691 1.3272095q-0.6786804 -0.6111908 -1.083435 -1.1861267q-0.66555786 -0.94548035 -0.7406616 -1.6764526q-0.05331421 -0.72720337 0.2789917 -1.2866211q0.34127808 -0.5466461 1.8862915 -1.6363373l5.860779 -4.1336517l-0.8904419 -1.2648773l1.3406982 -0.9456024l0.8904419 1.2648773l2.5154114 -1.7741241l2.239502 0.9825897l-3.549652 2.503601l1.2232361 1.7376251l-1.3407288 0.9456024l-1.2232056 -1.7376251l-5.9501953 4.196686q-0.74057007 0.52233887 -0.89468384 0.76486206q-0.13232422 0.24630737 -0.116119385 0.540802q0.0289917 0.28547668 0.29882812 0.66877747q0.19787598 0.28108215 0.59451294 0.708786zm-0.36898804 2.7602386l10.176575 -7.177582l1.0883179 1.5459747l-1.5449829 1.0896912q1.5080566 -0.16499329 2.2035828 0.090148926q0.7045288 0.26789856 1.1272583 0.8684082q0.6116333 0.86880493 0.6884155 2.1721954l-2.0188293 0.5252228q-0.07043457 -0.8872223 -0.5201416 -1.5260468q-0.39575195 -0.56217957 -1.0643005 -0.77897644q-0.64678955 -0.21302795 -1.3818359 0.018585205q-1.117218 0.36732483 -2.2153015 1.1418304l-5.324524 3.7553864l-1.2142334 -1.7248383zm9.304657 13.2174225l1.493927 -1.0536804q-2.5602417 0.027557373 -3.990326 -2.0039215q-0.63861084 -0.90715027 -0.8424988 -1.9296722q-0.20391846 -1.0225372 0.04977417 -1.7750702q0.2626648 -0.73976135 0.90808105 -1.424408q0.42980957 -0.47521973 1.5278931 -1.2497253l6.3077087 -4.4488373l1.2142334 1.7248383l-5.643738 3.980545q-1.3534546 0.9546051 -1.7449646 1.4028168q-0.5687866 0.63061523 -0.5958557 1.4336395q-0.005279541 0.8067932 0.5433655 1.5861664q0.53967285 0.76660156 1.4122009 1.1645813q0.8942871 0.40174866 1.7688904 0.20553589q0.88739014 -0.20523071 2.1897888 -1.1238098l5.452179 -3.845459l1.2142334 1.7248383l-10.176575 7.177597l-1.0883179 -1.5459747zm11.39389 8.259201l0.979187 1.8523865q-1.9599609 0.96170044 -3.7654114 0.5142517q-1.7836609 -0.44366455 -2.961914 -2.1174011q-1.466095 -2.0825958 -0.9992981 -4.323868q0.47579956 -2.2285156 3.0167542 -4.0206604q1.6471558 -1.1617279 3.272461 -1.4859009q1.6253052 -0.3241577 3.0207214 0.35513306q1.4081726 0.6702881 2.3345947 1.9862671q1.1692505 1.660965 1.0640564 3.3030243q-0.096191406 1.6548462 -1.4215393 3.0294037l-1.4464111 -1.4846191q0.8633728 -0.972229 0.9423828 -1.9457397q0.10076904 -0.96972656 -0.51083374 -1.8385468q-0.91741943 -1.3032074 -2.4379578 -1.454483q-1.4987488 -0.14750671 -3.5161743 1.2753906q-2.0429688 1.4409332 -2.426422 2.877716q-0.3744812 1.4495697 0.5159607 2.7144623q0.7105713 1.0093536 1.8129272 1.2452393q1.1113586 0.24864197 2.5269165 -0.48205566zm2.7005005 8.477692l-1.3395691 1.3272095q-0.6786804 -0.6111908 -1.083435 -1.186142q-0.6655884 -0.9454651 -0.7406616 -1.6764374q-0.053344727 -0.72720337 0.27896118 -1.2866211q0.3413086 -0.5466461 1.8862915 -1.6363525l5.8608093 -4.1336365l-0.8904419 -1.2648773l1.3406982 -0.9456177l0.8904419 1.2648926l2.5154114 -1.7741394l2.239502 0.982605l-3.5496826 2.503601l1.2232361 1.7376251l-1.3406982 0.9456024l-1.2232361 -1.7376251l-5.950165 4.196686q-0.74057007 0.52233887 -0.89468384 0.76486206q-0.13235474 0.24630737 -0.116119385 0.54078674q0.0289917 0.28547668 0.29882812 0.66877747q0.19787598 0.2810974 0.59451294 0.70880127zm11.702545 -5.715637l1.9919128 -1.4049072l1.2142334 1.7248535l-1.9919128 1.404892l-1.2142334 -1.7248383zm-12.053558 8.501419l10.176575 -7.177582l1.2142334 1.7248535l-10.176575 7.177582l-1.2142334 -1.7248535zm7.6925354 0.12413025q2.8346252 -1.9992676 5.294403 -1.3823547q2.0628052 0.5144806 3.393982 2.4054108q1.4750671 2.0953674 1.0314636 4.396759q-0.443573 2.3013916 -2.856842 4.003479q-1.9663696 1.3868866 -3.5037537 1.5916748q-1.537384 0.20477295 -2.9545288 -0.47828674q-1.4171753 -0.6830597 -2.3526 -2.0118256q-1.5110474 -2.146469 -1.071228 -4.4260864q0.4526062 -2.2886047 3.019104 -4.09877zm1.2502136 1.7759552q-1.9536133 1.3778839 -2.3303833 2.9055786q-0.36779785 1.5404663 0.5496216 2.843689q0.8994446 1.2776489 2.4724731 1.4492493q1.5858154 0.16259766 3.5904846 -1.2513123q1.88974 -1.3328552 2.2485352 -2.8860931q0.36779785 -1.5404816 -0.52264404 -2.805359q-0.91741943 -1.3032227 -2.490448 -1.4748077q-1.5640564 -0.15882874 -3.5176392 1.2190552zm1.8010254 13.361603l10.176575 -7.177582l1.0973206 1.5587463l-1.4556274 1.0266571q2.4769592 -0.06442261 3.961029 2.0437164q0.647583 0.9199219 0.8552551 1.9206696q0.2166748 1.0135193 -0.04977417 1.7750702q-0.26644897 0.76153564 -0.8991089 1.4371948q-0.40048218 0.4354248 -1.600708 1.2819672l-6.2566223 4.4128113l-1.2142334 -1.7248383l6.1927795 -4.367798q1.0469971 -0.73846436 1.4266052 -1.3121338q0.37960815 -0.5736542 0.32629395 -1.3008575q-0.04055786 -0.73620605 -0.52627563 -1.4261475q-0.77349854 -1.0988007 -2.0424194 -1.4084015q-1.2689209 -0.3096161 -3.2225037 1.0682678l-5.554352 3.9174957l-1.2142334 -1.7248383z" fill-rule="nonzero"></path></g></svg>

