<?xml version="1.0" standalone="yes"?>

<svg version="1.1" viewBox="0.0 0.0 346.0 242.0" fill="none" stroke="none" stroke-linecap="square" stroke-miterlimit="10" xmlns="http://www.w3.org/2000/svg" xmlns:xlink="http://www.w3.org/1999/xlink"><clipPath id="p.0"><path d="m0 0l346.0 0l0 242.0l-346.0 0l0 -242.0z" clip-rule="nonzero"></path></clipPath><g clip-path="url(#p.0)"><path fill="#000000" fill-opacity="0.0" d="m0 0l346.03937 0l0 242.41733l-346.03937 0z" fill-rule="nonzero"></path><path fill="#ffe600" d="m58.61441 -98.17158l330.96063 329.03937l-27.653564 27.84253l-330.9606 -329.03937z" fill-rule="nonzero"></path><path stroke="#434343" stroke-width="2.0" stroke-linejoin="round" stroke-linecap="butt" stroke-dasharray="16.0,6.0" d="m58.61441 -98.17158l330.96063 329.03937l-27.653564 27.84253l-330.9606 -329.03937z" fill-rule="nonzero"></path><path fill="#000000" d="m45.027477 -67.48533l16.141918 -16.25222l2.1496468 2.137169l-16.141918 16.25222l-2.1496468 -2.137169zm5.6843796 5.6513824l11.693531 -11.7734375l1.7950668 1.7846451l-1.6626396 1.673996q3.223339 -0.65115356 5.672161 1.7834549q1.0637436 1.0575714 1.5648193 2.326889q0.52316284 1.269249 0.34977722 2.3307266q-0.17337799 1.0614777 -0.8439255 2.0913658q-0.4397354 0.6644707 -1.8160934 2.050232l-7.19009 7.2392273l-1.9945183 -1.9829407l7.113014 -7.161625q1.2111969 -1.219471 1.5730896 -2.0494614q0.37290192 -0.8410797 0.12689209 -1.7907181q-0.2239151 -0.94970703 -1.0217209 -1.7428818q-1.2742767 -1.2668762 -3.0088463 -1.3829651q-1.7234879 -0.10507202 -3.9697037 2.1564941l-6.3862953 6.4299393l-1.9945183 -1.9829407zm19.180614 19.069275l16.141922 -16.252224l6.1276016 6.0920334q1.617775 1.6083832 2.3168411 2.611847q0.99851227 1.3893127 1.2458496 2.7588959q0.25833893 1.3584976 -0.2560959 2.8520546q-0.50335693 1.50457 -1.7035446 2.7129555q-2.0590286 2.073101 -4.8090363 2.20335q-2.739006 0.11916351 -6.185089 -3.306919l-4.1663284 -4.1421394l-6.5624695 6.607315l-2.1496506 -2.137169zm10.617004 -6.3880424l4.1995697 4.17519q2.0831604 2.0710716 3.7292938 2.1653366q1.6461334 0.09426117 3.04451 -1.3136749q1.0130005 -1.0199203 1.2079163 -2.2582855q0.21700287 -1.2384338 -0.393898 -2.3084831q-0.3998108 -0.683918 -1.8624573 -2.1380768l-4.1552505 -4.1311226l-5.769684 5.8091164zm4.2421646 21.16095l11.693527 -11.773441l1.7950668 1.7846451l-1.7727432 1.7848625q1.931221 -0.5697174 2.9038086 -0.39596558q0.98366547 0.18476486 1.6817474 0.8787956q1.0083389 1.0024834 1.411293 2.681015l-2.5258102 1.1683655q-0.30190277 -1.1594353 -1.033226 -1.8865128q-0.6537628 -0.6499634 -1.5709457 -0.7686348q-0.9061661 -0.12975311 -1.8214645 0.3483467q-1.3894653 0.7337761 -2.644699 1.9975891l-6.12204 6.1638737l-1.9945145 -1.9829388zm12.683533 0.9103565q3.2481995 -3.270399 6.6289673 -3.0379467q2.817337 0.20107651 5.0002213 2.371294q2.4266663 2.4125786 2.3813171 5.540247q-0.034339905 3.1165829 -2.8200912 5.9213676q-2.257225 2.2726517 -4.2435074 2.8977985q-1.9641876 0.6250782 -3.9874115 0.045746803q-2.012146 -0.56831455 -3.5523605 -2.0995846q-2.4709854 -2.456643 -2.42556 -5.562209q0.056503296 -3.094551 3.018425 -6.0767136zm2.0499191 2.038023q-2.2462158 2.2615643 -2.3831482 4.372801q-0.12591553 2.100151 1.3699722 3.5873547q1.4848099 1.4761896 3.5940933 1.325861q2.109291 -0.15032864 4.4105606 -2.4673252q2.169136 -2.1839619 2.2839737 -4.295128q0.13693237 -2.1112366 -1.3367996 -3.5764084q-1.4958878 -1.4872055 -3.594162 -1.3479633q-2.0982742 0.13924217 -4.34449 2.4008083zm4.1319656 17.746437l1.652832 2.2160969q-0.769989 1.0191541 -0.6233597 1.9801567q0.19186401 1.2923996 1.4772186 2.5702946q1.385086 1.3770418 2.6891098 1.5718474q1.3040314 0.19480562 2.5609436 -0.53855157q0.7607269 -0.45550832 2.6875534 -2.4176788q-2.838028 0.24104083 -4.7882233 -1.6978341q-2.4266586 -2.4125772 -2.0166245 -5.4861417q0.41003418 -3.0735645 2.8434372 -5.523593q1.6736526 -1.6850872 3.6924744 -2.498211q2.0298386 -0.8242092 3.9529877 -0.45453644q1.934227 0.3806877 3.4965973 1.9339905q2.083168 2.0710707 1.7613602 5.100151l1.4093857 -1.4190207l1.8393936 1.8287115l-10.107971 10.177043q-2.7306976 2.7493548 -4.429924 3.3293905q-1.6991653 0.6021378 -3.5786896 0.055507183q-1.8684387 -0.53561425 -3.6413498 -2.2982278q-2.1053238 -2.0931036 -2.4548264 -4.3354197q-0.36051178 -2.2312298 1.5776749 -4.093974zm8.675949 -5.431501q-2.3012695 2.3169947 -2.438614 4.295617q-0.13735199 1.9786215 1.2477341 3.3556633q1.3740005 1.3660254 3.3508072 1.2382178q1.9878159 -0.13889384 4.2340317 -2.4004588q2.1471176 -2.16179 2.273178 -4.2177353q0.13713837 -2.0449295 -1.2147064 -3.3889217q-1.3296814 -1.3219604 -3.3395157 -1.1608944q-1.9988327 0.14997959 -4.112915 2.278512zm5.2573776 17.345034l11.693527 -11.773441l1.7950745 1.784646l-1.7727509 1.7848625q1.9312286 -0.56971693 2.9038086 -0.395967q0.9836731 0.18476605 1.6817474 0.87879515q1.0083466 1.0024865 1.4113007 2.681016l-2.5258179 1.1683664q-0.30189514 -1.1594361 -1.0332184 -1.8865142q-0.6537628 -0.64996374 -1.5709381 -0.7686318q-0.9061737 -0.12975407 -1.8214722 0.3483436q-1.3894653 0.7337759 -2.644699 1.9975916l-6.12204 6.163873l-1.9945221 -1.9829402zm19.400528 11.7526l1.8077545 2.30402q-2.282318 1.3223152 -4.5919037 1.009121q-2.3095703 -0.31319427 -4.359497 -2.3512173q-2.581787 -2.566805 -2.5252838 -5.661356q0.07859039 -3.0946198 2.9304047 -5.965921q2.9509125 -2.9710755 6.1096497 -3.0915644q3.1587372 -0.12048912 5.5964813 2.3031046q2.3601837 2.3464794 2.259491 5.4411693q-0.10067749 3.0946903 -2.9965363 6.010336q-0.17617798 0.1773777 -0.5396118 0.52111626l-8.775879 -8.724937q-1.8160858 2.050231 -1.8539276 4.061693q-0.037826538 2.0114613 1.4358978 3.476633q1.0969849 1.0906181 2.4452057 1.285284q1.3482056 0.19466591 3.0577545 -0.61748123zm-3.344513 -9.73671l6.5708313 6.5326867q1.3424835 -1.617734 1.4597015 -2.977418q0.19218445 -2.100359 -1.3258667 -3.6095967q-1.3739929 -1.3660254 -3.2297516 -1.3822675q-1.8446808 -0.0052256584 -3.4749146 1.4365954zm6.83667 13.759417l2.280655 1.6504974q-1.0119476 1.3514576 -0.88609314 2.7324772q0.13694763 1.3920345 1.4998779 2.7470436q1.3739929 1.3660259 2.589386 1.4727001q1.2263794 0.095588684 1.9751282 -0.65826607q0.6716614 -0.67625237 0.46977234 -1.6481323q-0.1457367 -0.6736698 -1.3671875 -2.7032566q-1.6434326 -2.7355404 -2.1002502 -3.9828968q-0.4347229 -1.2474289 -0.17324829 -2.3975925q0.28355408 -1.1502342 1.142395 -2.0149498q0.7817688 -0.7871132 1.7970123 -1.0997562q1.037323 -0.31271362 2.0982666 -0.13924313q0.8067322 0.1190176 1.8357697 0.6793852q1.051117 0.56029797 1.9708099 1.4746532q1.385086 1.3770428 2.0302734 2.811678q0.6562805 1.445652 0.472229 2.628725q-0.17303467 1.1719875 -1.1187744 2.501133l-2.2144623 -1.6728077q0.769928 -1.041256 0.6337433 -2.1901646q-0.12509155 -1.1378918 -1.288559 -2.2946072q-1.3740082 -1.3660259 -2.4127197 -1.4953613q-1.0387268 -0.1293354 -1.6443176 0.4804001q-0.38539124 0.38801384 -0.44992065 0.94078445q-0.075531006 0.5638561 0.23605347 1.2922592q0.18907166 0.4083023 1.2553253 2.2615585q1.5548553 2.6695118 2.0225372 3.861578q0.48979187 1.1919956 0.2835846 2.3530369q-0.20620728 1.1610413 -1.2192078 2.1809616q-0.99098206 0.9977493 -2.4591217 1.3007717q-1.4460449 0.30295372 -3.0275116 -0.29987526q-1.5704498 -0.6139145 -2.955536 -1.9909554q-2.2937012 -2.2803822 -2.5545502 -4.4345684q-0.24978638 -2.1431675 1.2786407 -4.34721zm11.346588 11.280727l2.280655 1.6504955q-1.0119476 1.3514595 -0.8860779 2.732479q0.13694763 1.3920326 1.4998627 2.7470436q1.3740082 1.366024 2.589386 1.4726982q1.2263947 0.095588684 1.9751282 -0.65826416q0.6716614 -0.6762543 0.46977234 -1.6481323q-0.14572144 -0.6736717 -1.3671875 -2.7032585q-1.6434174 -2.7355385 -2.100235 -3.9828968q-0.43473816 -1.247427 -0.17326355 -2.3975906q0.28355408 -1.1502342 1.1424103 -2.0149498q0.7817688 -0.7871132 1.7969971 -1.0997562q1.037323 -0.31271362 2.0982819 -0.13924408q0.8067169 0.119018555 1.8357544 0.67938614q1.0511322 0.560297 1.9708252 1.4746532q1.385086 1.3770428 2.0302734 2.811678q0.65626526 1.445652 0.472229 2.6287231q-0.17303467 1.1719894 -1.1187897 2.501133l-2.214447 -1.6728058q0.7699127 -1.041256 0.6337433 -2.1901646q-0.12510681 -1.1378918 -1.2885742 -2.2946072q-1.3739929 -1.3660259 -2.4127197 -1.4953613q-1.0387115 -0.1293354 -1.6443176 0.4804001q-0.38537598 0.38801384 -0.4499054 0.94078255q-0.075546265 0.56385803 0.23603821 1.2922611q0.18907166 0.4083023 1.2553253 2.2615585q1.5548553 2.66951 2.0225525 3.861576q0.4897766 1.1919975 0.28356934 2.3530388q-0.20620728 1.1610413 -1.2192078 2.1809616q-0.9909668 0.9977493 -2.4591217 1.3007736q-1.4460449 0.3029518 -3.0275116 -0.29987717q-1.5704498 -0.6139145 -2.955536 -1.9909554q-2.293686 -2.280384 -2.5545502 -4.4345665q-0.24977112 -2.1431694 1.2786407 -4.347212zm15.579376 22.473406l16.141907 -16.252228l2.1496582 2.137169l-16.141922 16.252228l-2.149643 -2.137169zm5.684372 5.6513786l11.693527 -11.773441l1.7950745 1.7846489l-1.6626434 1.6739998q3.223343 -0.6511574 5.672165 1.7834549q1.063736 1.0575676 1.5648193 2.326889q0.52316284 1.269249 0.34977722 2.3307228q-0.17338562 1.0614777 -0.8439331 2.0913696q-0.43972778 0.66446686 -1.8160858 2.050228l-7.190094 7.2392273l-1.9945221 -1.9829407l7.113022 -7.161621q1.2111969 -1.219471 1.5730896 -2.0494652q0.3728943 -0.8410797 0.12689209 -1.7907181q-0.22392273 -0.94970703 -1.0217285 -1.7428818q-1.2742767 -1.2668762 -3.0088348 -1.3829651q-1.7234955 -0.10506821 -3.9697113 2.1564941l-6.3862915 6.4299393l-1.9945221 -1.9829407zm19.180618 19.069279l16.141922 -16.252228l6.1276093 6.0920334q1.6177673 1.6083832 2.3168335 2.611847q0.99850464 1.3893127 1.2458496 2.7588959q0.25834656 1.3584976 -0.25610352 2.8520508q-0.50335693 1.50457 -1.703537 2.7129593q-2.0590363 2.0730972 -4.8090363 2.203354q-2.7389984 0.11916351 -6.185089 -3.306923l-4.166321 -4.1421356l-6.5624847 6.607315l-2.149643 -2.137169zm10.617004 -6.3880463l4.1995697 4.175194q2.0831604 2.0710678 3.7292938 2.165329q1.6461334 0.0942688 3.04451 -1.3136673q1.0130005 -1.0199203 1.2079163 -2.2582855q0.21699524 -1.2384338 -0.39390564 -2.308487q-0.3998108 -0.6839218 -1.8624573 -2.1380768l-4.155243 -4.1311264l-5.769684 5.80912zm4.242157 21.16095l11.693527 -11.7734375l1.7950745 1.7846451l-1.7727509 1.7848587q1.9312286 -0.5697174 2.9038086 -0.39596558q0.9836731 0.18476868 1.6817474 0.8787918q1.0083466 1.0024872 1.4113007 2.6810226l-2.5258179 1.1683655q-0.30189514 -1.1594391 -1.0332184 -1.8865204q-0.6537628 -0.6499634 -1.5709381 -0.768631q-0.9061737 -0.12975311 -1.8214722 0.3483429q-1.3894653 0.7337799 -2.644699 1.9975967l-6.12204 6.163872l-1.9945221 -1.9829407zm12.683533 0.9103546q3.2481995 -3.2703934 6.6289825 -3.037941q2.8173218 0.2010727 5.0002136 2.371292q2.4266663 2.4125748 2.3813171 5.540245q-0.034347534 3.1165848 -2.8200989 5.9213715q-2.2572174 2.2726517 -4.2434998 2.8977966q-1.9641876 0.6250763 -3.9874115 0.04574585q-2.012146 -0.5683136 -3.552353 -2.0995865q-2.470993 -2.4566422 -2.4255676 -5.56221q0.056503296 -3.094551 3.0184174 -6.0767136zm2.0499268 2.038025q-2.2462158 2.2615662 -2.3831482 4.3728027q-0.12591553 2.100151 1.3699799 3.5873566q1.4848022 1.4761887 3.5940857 1.3258591q2.1092834 -0.15032959 4.410553 -2.4673233q2.1691437 -2.1839676 2.2839813 -4.295128q0.13693237 -2.1112366 -1.336792 -3.5764084q-1.4958954 -1.4872055 -3.5941772 -1.347969q-2.0982666 0.13924408 -4.3444824 2.4008102zm4.131958 17.746437l1.6528473 2.216095q-0.7700043 1.0191574 -0.6233673 1.9801636q0.19186401 1.2923965 1.4772186 2.5702896q1.385086 1.3770447 2.6891022 1.571846q1.3040314 0.19480896 2.5609436 -0.53855133q0.7607269 -0.45550537 2.687561 -2.4176788q-2.838028 0.24104309 -4.7882233 -1.6978302q-2.4266663 -2.4125824 -2.016632 -5.486145q0.41003418 -3.0735626 2.8434448 -5.52359q1.673645 -1.6850891 3.6924744 -2.4982147q2.029831 -0.8242035 3.9529877 -0.45453644q1.9342194 0.38069153 3.4965973 1.9339905q2.0831604 2.0710754 1.7613525 5.100151l1.4093933 -1.4190216l1.839386 1.8287125l-10.107971 10.177048q-2.7306824 2.7493515 -4.4299164 3.3293915q-1.699173 0.6021347 -3.5786896 0.055503845q-1.8684387 -0.535614 -3.6413422 -2.2982254q-2.1053314 -2.0931091 -2.454834 -4.3354187q-0.3605194 -2.2312317 1.5776672 -4.093979zm8.675949 -5.4315033q-2.3012695 2.3170013 -2.438614 4.295624q-0.13734436 1.9786148 1.2477417 3.3556595q1.3739929 1.3660278 3.3507996 1.2382202q1.9878235 -0.13889313 4.2340393 -2.4004593q2.14711 -2.161789 2.273178 -4.2177353q0.13713074 -2.0449295 -1.2147064 -3.3889236q-1.3296814 -1.3219604 -3.3395233 -1.1608963q-1.9988251 0.14998627 -4.112915 2.278511zm5.2573853 17.34504l11.693527 -11.773445l1.7950745 1.7846451l-1.7727509 1.7848663q1.9312286 -0.5697174 2.9038086 -0.39596558q0.9836731 0.18476105 1.6817627 0.8787918q1.0083313 1.0024872 1.4112854 2.681015l-2.5258179 1.1683655q-0.30189514 -1.1594315 -1.0332184 -1.8865128q-0.6537628 -0.6499634 -1.5709534 -0.768631q-0.90615845 -0.12975311 -1.8214569 0.3483429q-1.3894653 0.7337799 -2.644699 1.9975967l-6.12204 6.163872l-1.9945221 -1.9829407zm19.400513 11.752594l1.8077698 2.3040314q-2.282318 1.3223114 -4.5918884 1.0091095q-2.3095856 -0.31318665 -4.3595123 -2.3512115q-2.581787 -2.566803 -2.5252838 -5.6613617q0.07858276 -3.0946198 2.9304047 -5.9659195q2.9509125 -2.9710693 6.1096344 -3.0915604q3.1587524 -0.12049103 5.5964966 2.3031006q2.3601685 2.3464813 2.259491 5.4411774q-0.10067749 3.0946808 -2.9965515 6.01033q-0.17617798 0.17738342 -0.5395813 0.52111816l-8.775894 -8.724945q-1.8160858 2.050232 -1.8539276 4.0617065q-0.037826538 2.0114594 1.4358978 3.4766235q1.0969849 1.090622 2.4452057 1.2852936q1.3482056 0.19465637 3.0577393 -0.6174927zm-3.3444977 -9.73671l6.570816 6.5326996q1.3424988 -1.6177368 1.4597168 -2.9774323q0.1921997 -2.100357 -1.3258667 -3.6095886q-1.3739929 -1.3660278 -3.2297668 -1.3822708q-1.8446655 -0.0052261353 -3.4748993 1.4365921zm6.8366547 13.759415l2.2806702 1.6504974q-1.0119629 1.351471 -0.8860779 2.732483q0.13693237 1.3920288 1.4998474 2.7470398q1.3740234 1.3660278 2.589386 1.472702q1.2264099 0.09559631 1.9751282 -0.65826416q0.6716614 -0.6762543 0.4697876 -1.6481323q-0.14572144 -0.67367554 -1.3671875 -2.7032623q-1.6434326 -2.7355347 -2.1002502 -3.982895q-0.4347229 -1.2474213 -0.17324829 -2.397583q0.28353882 -1.150238 1.142395 -2.0149536q0.7817688 -0.7871094 1.7969971 -1.099762q1.037323 -0.31271362 2.098297 -0.13923645q0.80670166 0.119018555 1.8357544 0.6793823q1.051117 0.56030273 1.9708252 1.4746552q1.3850708 1.3770447 2.0302734 2.811676q0.65625 1.4456482 0.472229 2.6287231q-0.17303467 1.1719971 -1.1188049 2.5011292l-2.214447 -1.6728058q0.769928 -1.0412445 0.63375854 -2.190155q-0.12512207 -1.1378937 -1.2885742 -2.2946167q-1.3739929 -1.3660278 -2.4127197 -1.4953613q-1.0387268 -0.1293335 -1.6443176 0.4804077q-0.38537598 0.38801575 -0.44992065 0.94078064q-0.075531006 0.56385803 0.23605347 1.2922668q0.1890564 0.40829468 1.25531 2.261551q1.5548706 2.66951 2.0225525 3.8615723q0.4897766 1.1920013 0.28356934 2.3530426q-0.20620728 1.1610413 -1.2192078 2.1809692q-0.9909668 0.9977417 -2.4591064 1.300766q-1.4460449 0.302948 -3.0275269 -0.29988098q-1.5704346 -0.61390686 -2.955536 -1.9909515q-2.2936707 -2.2803802 -2.554535 -4.4345703q-0.24978638 -2.143158 1.2786255 -4.3472137zm11.346588 11.280731l2.2806702 1.6504974q-1.0119629 1.3514557 -0.8860779 2.732483q0.13693237 1.3920288 1.4998474 2.7470398q1.3740234 1.3660278 2.589386 1.472702q1.2264099 0.095581055 1.9751587 -0.65826416q0.6716614 -0.6762543 0.46975708 -1.6481323q-0.14572144 -0.67367554 -1.3671875 -2.7032623q-1.6434326 -2.7355347 -2.1002502 -3.982895q-0.4347229 -1.2474213 -0.17324829 -2.3975983q0.28356934 -1.1502228 1.142395 -2.0149384q0.7817688 -0.78712463 1.7969971 -1.099762q1.0373535 -0.31271362 2.098297 -0.13923645q0.8067322 0.119018555 1.8357544 0.6793823q1.051117 0.5602875 1.9708252 1.4746552q1.3850708 1.3770447 2.0302734 2.811676q0.6562805 1.4456482 0.472229 2.6287231q-0.17303467 1.1719818 -1.1187744 2.5011292l-2.2144775 -1.6728058q0.769928 -1.0412598 0.63375854 -2.1901703q-0.12509155 -1.1378784 -1.2885742 -2.2946014q-1.3739929 -1.3660278 -2.4127197 -1.4953613q-1.0387268 -0.1293335 -1.6443176 0.4804077q-0.38537598 0.3880005 -0.44992065 0.94078064q-0.075531006 0.56385803 0.23605347 1.2922516q0.1890564 0.40830994 1.2553406 2.2615662q1.5548401 2.66951 2.022522 3.8615723q0.4897766 1.1920013 0.28359985 2.3530426q-0.20620728 1.1610413 -1.2192078 2.180954q-0.9909973 0.99775696 -2.459137 1.3007812q-1.4460449 0.302948 -3.0274963 -0.29988098q-1.5704651 -0.61390686 -2.955536 -1.9909515q-2.2937012 -2.2803802 -2.5545654 -4.4345703q-0.24978638 -2.1431732 1.2786255 -4.3472137zm15.579376 22.473404l16.141937 -16.252228l2.1496277 2.1371765l-16.141907 16.252228l-2.1496582 -2.1371765zm5.684387 5.6513824l11.6935425 -11.7734375l1.795044 1.7846527l-1.6626282 1.673996q3.2233276 -0.65115356 5.6721497 1.7834473q1.0637512 1.0575714 1.5648193 2.326889q0.52316284 1.2692566 0.34979248 2.3307343q-0.17337036 1.0614777 -0.8439331 2.0913544q-0.43972778 0.6644745 -1.8161011 2.050232l-7.190094 7.2392273l-1.9945068 -1.9829407l7.1130066 -7.161621q1.2112122 -1.2194672 1.5730896 -2.0494537q0.3729248 -0.8410797 0.12689209 -1.7907257q-0.22390747 -0.94970703 -1.021698 -1.7428741q-1.274292 -1.2668915 -3.00885 -1.3829651q-1.7235107 -0.10507202 -3.969696 2.1564941l-6.386322 6.4299316l-1.9945068 -1.9829407zm19.180603 19.069275l16.141937 -16.252228l6.127594 6.092041q1.6177673 1.6083832 2.3168335 2.611847q0.99853516 1.3893127 1.2458496 2.7588959q0.25836182 1.35849 -0.256073 2.8520508q-0.50335693 1.5045776 -1.7035522 2.7129517q-2.059021 2.0731049 -4.8090515 2.203354q-2.7389832 0.11917114 -6.185089 -3.3069153l-4.166321 -4.1421356l-6.5624695 6.607315l-2.1496582 -2.1371765zm10.617004 -6.3880463l4.199585 4.1752014q2.0831604 2.0710602 3.7292786 2.165329q1.6461487 0.0942688 3.0445251 -1.3136749q1.0130005 -1.0199127 1.2079163 -2.2582855q0.2170105 -1.2384338 -0.39389038 -2.308487q-0.3998108 -0.6839142 -1.8624573 -2.1380768l-4.1552734 -4.131119l-5.769684 5.8091125zm4.2421875 21.16095l11.693512 -11.7734375l1.7950745 1.7846527l-1.7727661 1.7848511q1.9312439 -0.5697174 2.903839 -0.39596558q0.9836426 0.18476868 1.6817322 0.87879944q1.0083313 1.0024872 1.4112854 2.681015l-2.5258179 1.1683655q-0.30187988 -1.1594391 -1.0332031 -1.8865051q-0.6537781 -0.6499634 -1.5709534 -0.76864624q-0.90615845 -0.12974548 -1.8214722 0.34835815q-1.3894653 0.73376465 -2.6446838 1.9975891l-6.12204 6.163864l-1.9945068 -1.9829407zm12.683533 0.9103699q3.2481995 -3.270401 6.6289673 -3.0379486q2.8173218 0.20106506 5.0002136 2.371292q2.4266663 2.4125671 2.3813171 5.5402374q-0.034362793 3.1165924 -2.8200989 5.9213715q-2.2572327 2.2726593 -4.2434998 2.8977966q-1.9642029 0.6250763 -3.9874268 0.04574585q-2.012146 -0.5683136 -3.5523376 -2.0995789q-2.4710083 -2.4566498 -2.4255676 -5.56221q0.056488037 -3.0945587 3.0184326 -6.076706zm2.0498962 2.0380096q-2.2462158 2.2615662 -2.3831482 4.3728027q-0.12591553 2.1001587 1.3699951 3.5873566q1.4848022 1.4761963 3.5940857 1.3258667q2.1092834 -0.15032959 4.410553 -2.467331q2.1691284 -2.18396 2.283966 -4.2951202q0.13693237 -2.1112366 -1.336792 -3.576416q-1.4958801 -1.4871979 -3.5941467 -1.3479614q-2.098297 0.13923645 -4.344513 2.4008026z" fill-rule="nonzero"></path><path fill="#ffe600" d="m156.93317 -137.17555l268.6614 381.6378l-32.06299 22.614182l-268.6614 -381.6378z" fill-rule="nonzero"></path><path stroke="#434343" stroke-width="2.0" stroke-linejoin="round" stroke-linecap="butt" stroke-dasharray="16.0,6.0" d="m156.93317 -137.17555l268.6614 381.6378l-32.06299 22.614182l-268.6614 -381.6378z" fill-rule="nonzero"></path><path fill="#000000" d="m138.22287 -109.31375l18.71878 -13.202431l1.7449036 2.4786606l-18.71878 13.202438l-1.7449036 -2.4786682zm4.614105 6.554413l13.560257 -9.56411l1.4570923 2.069809l-1.9280548 1.3598709q3.2868347 -0.08114624 5.274597 2.7424927q0.8634491 1.2265549 1.1360931 2.5638885q0.29441833 1.3411026 -0.06085205 2.3564835q-0.3552704 1.0153885 -1.1945343 1.9132614q-0.54849243 0.5780487 -2.1445618 1.7037735l-8.337906 5.8807526l-1.618988 -2.2997894l8.24852 -5.8177185q1.4045563 -0.9906311 1.9051819 -1.7452545q0.51338196 -0.7636261 0.4362793 -1.741745q-0.05532837 -0.97435 -0.70292664 -1.8942642q-1.0343475 -1.4693146 -2.7219849 -1.8851318q-1.6786346 -0.40303802 -4.283432 1.4341354l-7.405792 5.2233353l-1.618988 -2.2997894zm15.569229 22.116333l18.71878 -13.202431l4.973877 7.0654755q1.3131714 1.865387 1.8269806 2.9752655q0.7415619 1.5419769 0.74694824 2.9339676q0.018157959 1.3829803 -0.7480316 2.764679q-0.75720215 1.3944702 -2.1489716 2.3760986q-2.387741 1.6840744 -5.117981 1.334404q-2.7174835 -0.35868073 -5.5147247 -4.3322067l-3.3818817 -4.804016l-7.610077 5.3674316l-1.7449188 -2.4786682zm11.563965 -4.4467545l3.4088593 4.8423386q1.6909485 2.402008 3.2953033 2.78096q1.6043549 0.37895203 3.2259674 -0.76478577q1.1747131 -0.82852936 1.5819397 -2.0144043q0.4289856 -1.1820984 0.013549805 -2.342247q-0.2747345 -0.7431259 -1.4619904 -2.4296417l-3.372879 -4.791237l-6.69075 4.719017zm0.49746704 21.580212l13.560257 -9.564106l1.4570923 2.069809l-2.0557404 1.4499283q2.0005035 -0.22550201 2.9278717 0.11467743q0.93637085 0.35295105 1.5030212 1.1578827q0.81848145 1.162674 0.92337036 2.8860092l-2.6900024 0.71180725q-0.09565735 -1.1944809 -0.6892853 -2.037735q-0.5306549 -0.7538223 -1.4130707 -1.0301208q-0.8696289 -0.28529358 -1.8539429 0.026535034q-1.4956207 0.48125458 -2.951233 1.5079117l-7.09935 5.0071945l-1.618988 -2.2997932zm12.329651 3.1011238q3.766739 -2.6566963 7.054962 -1.8401451q2.738922 0.68771744 4.510803 3.204712q1.9697723 2.7980804 1.3813019 5.870861q-0.57569885 3.063774 -3.8061523 5.342228q-2.617569 1.84618 -4.6819 2.1167107q-2.0425873 0.2742958 -3.9338837 -0.6479721q-1.8822937 -0.9094887 -3.1325073 -2.68544q-2.0057526 -2.8491898 -1.421051 -5.9001846q0.5936737 -3.0382195 4.028427 -5.4607697zm1.6639557 2.363678q-2.6047974 1.8371735 -3.1066895 3.8928795q-0.48913574 2.0466995 0.72509766 3.7715454q1.205246 1.7120667 3.3081512 1.9305992q2.10289 0.21853256 4.77153 -1.6636696q2.5154114 -1.7741318 2.9955444 -3.8336105q0.50190735 -2.055706 -0.6943512 -3.7549973q-1.2142334 -1.7248459 -3.3043518 -1.952385q-2.0901337 -0.22753525 -4.694931 1.6096382zm0.982666 18.197865l1.2420197 2.4700623q-0.935318 0.87000656 -0.95803833 1.8420525q-0.03579712 1.3063202 1.0075378 2.7884102q1.1242981 1.5970783 2.3743439 2.0156002q1.2500458 0.4185238 2.6150818 -0.08535576q0.8282013 -0.3164444 3.0664825 -1.9142342q-2.8361816 -0.2558403 -4.419174 -2.504528q-1.9697723 -2.7980804 -1.0316467 -5.7541847q0.93811035 -2.9561043 3.759964 -4.946377q1.9408264 -1.3688736 4.0699005 -1.8188934q2.1418457 -0.45903015 3.971054 0.23933792q1.838211 0.7111435 3.1064148 2.5126457q1.6909485 2.402008 0.84742737 5.329628l1.6343842 -1.1527367l1.4930573 2.120922l-11.721573 8.267281q-3.1666107 2.233427 -4.9404907 2.5094128q-1.7776489 0.29776573 -3.5331573 -0.56731796q-1.7464905 -0.85230637 -3.1855927 -2.8965664q-1.7089233 -2.427559 -1.6631622 -4.6969185q0.032989502 -2.260353 2.2651672 -3.7582397zm9.4865265 -3.8419533q-2.6686401 1.882206 -3.1478882 3.8072166q-0.4792633 1.9250107 0.6450348 3.522091q1.1152954 1.584301 3.083847 1.8019905q1.981308 0.20868301 4.5861053 -1.6284904q2.4898682 -1.7561188 2.9714508 -3.7592583q0.49058533 -1.9903564 -0.6067352 -3.5491066q-1.0793152 -1.5331955 -3.0861664 -1.7238655q-1.9940796 -0.19968033 -4.445648 1.5294228zm2.1605072 17.9981l13.560257 -9.56411l1.457077 2.0698128l-2.0557404 1.4499283q2.0005035 -0.2255001 2.927887 0.11467743q0.9363556 0.35295486 1.503006 1.1578808q0.81848145 1.162674 0.9233856 2.8860092l-2.6900177 0.71181107q-0.09564209 -1.1944809 -0.68927 -2.0377388q-0.53067017 -0.7538204 -1.4130707 -1.0301151q-0.86964417 -0.2853012 -1.8539581 0.026529312q-1.4956055 0.48125458 -2.951233 1.5079098l-7.0993347 5.0071983l-1.618988 -2.2997932zm17.057892 14.947852l1.3792725 2.5835848q-2.4770355 0.9057665 -4.696533 0.19586611q-2.2194977 -0.70990133 -3.8834534 -3.0735765q-2.0956879 -2.9769545 -1.5019989 -6.015175q0.61543274 -3.0344486 3.9225006 -5.3669395q3.421997 -2.4135418 6.5529633 -1.9832191q3.1309814 0.43032265 5.109741 3.2411804q1.9157867 2.7214222 1.2785797 5.7521q-0.63720703 3.0306787 -3.995346 5.399193q-0.20429993 0.1440916 -0.6218872 0.4194994l-7.123535 -10.119088q-2.1445618 1.7037735 -2.53154 3.6784286q-0.38697815 1.9746542 0.80926514 3.6739454q0.8904419 1.2648859 2.184021 1.6909504q1.2935638 0.4260645 3.1179504 -0.0767498zm-1.5999908 -10.17166l5.3336487 7.57654q1.6030579 -1.3600903 1.9548798 -2.6789665q0.55441284 -2.035389 -0.67781067 -3.7857857q-1.1153107 -1.5843029 -2.939621 -1.9228382q-1.8153229 -0.3257599 -3.6710968 0.8110504zm4.338867 14.740858l1.9585114 2.022078q-1.2313232 1.1552651 -1.3475189 2.5374036q-0.10719299 1.3949151 0.99909973 2.9664402q1.1153107 1.5843017 2.293396 1.9006114q1.1908569 0.30730414 2.0591278 -0.3050871q0.7788849 -0.549351 0.7490845 -1.5417134q-0.026351929 -0.6888733 -0.8760834 -2.9002502q-1.1424408 -2.9800596 -1.3753357 -4.288067q-0.21113586 -1.3042364 0.24627686 -2.3916698q0.479187 -1.083662 1.4751282 -1.7861109q0.90657043 -0.63940907 1.9605103 -0.7709017q1.0756989 -0.12772274 2.0901184 0.22753811q0.7735901 0.25744057 1.689331 0.9882364q0.9375 0.73456764 1.6840363 1.7950273q1.1242828 1.5970783 1.510086 3.1222882q0.39479065 1.5379865 0.007888794 2.6712914q-0.3741455 1.1242992 -1.5364075 2.2690945l-1.8894501 -2.0325482q0.9391022 -0.89179134 1.004776 -2.0471003q0.07467651 -1.1425323 -0.86972046 -2.484078q-1.1153107 -1.5843015 -2.1155243 -1.8922272q-1.0002136 -0.30792522 -1.7024841 0.18739128q-0.4468994 0.31520128 -0.6065521 0.8484483q-0.17240906 0.54225254 0.0077209473 1.3138633q0.11515808 0.43502665 0.8427582 2.4457483q1.0667114 2.8996289 1.319931 4.1550655q0.27497864 1.2592077 -0.12992859 2.3669593q-0.40489197 1.1077518 -1.5796051 1.9362807q-1.1491699 0.8105178 -2.6473541 0.853817q-1.4764252 0.047070026 -2.9286957 -0.82156277q-1.4394836 -0.87763834 -2.5637817 -2.474717q-1.8618317 -2.6447616 -1.7441101 -4.8119087q0.12670898 -2.1543703 2.0147705 -4.0596414zm9.21022 13.083265l1.9585114 2.0220785q-1.2313232 1.1552649 -1.3475189 2.537403q-0.10719299 1.3949156 0.99909973 2.9664402q1.1153107 1.584301 2.293396 1.9006119q1.1908569 0.30730438 2.0591278 -0.30508804q0.7788849 -0.5493498 0.7490845 -1.5417128q-0.02633667 -0.6888733 -0.8760834 -2.9002504q-1.1424408 -2.9800596 -1.3753357 -4.288067q-0.21113586 -1.3042364 0.24627686 -2.3916693q0.479187 -1.0836625 1.4751282 -1.7861114q0.90657043 -0.6394086 1.9605103 -0.7709017q1.0756989 -0.12772226 2.0901337 0.22753859q0.7735901 0.2574401 1.6893158 0.9882362q0.9375 0.7345674 1.6840363 1.795027q1.1242828 1.5970783 1.510086 3.1222887q0.39479065 1.5379858 0.007888794 2.6712914q-0.3741455 1.124299 -1.5364075 2.2690945l-1.8894501 -2.032549q0.9391022 -0.8917904 1.004776 -2.0471q0.07467651 -1.1425323 -0.86972046 -2.484078q-1.1153107 -1.5843015 -2.1155243 -1.8922267q-1.0002136 -0.30792522 -1.7024841 0.18739128q-0.4468994 0.31520128 -0.60653687 0.8484478q-0.17242432 0.542253 0.0077056885 1.3138638q0.11517334 0.43502617 0.8427582 2.4457483q1.0667114 2.8996286 1.319931 4.1550655q0.27497864 1.2592077 -0.12992859 2.3669596q-0.40489197 1.1077518 -1.5796051 1.9362812q-1.1491699 0.81051636 -2.6473541 0.853817q-1.4764252 0.04706955 -2.9286957 -0.8215637q-1.4394836 -0.87763786 -2.5637817 -2.4747162q-1.8618317 -2.644762 -1.7441101 -4.8119087q0.12670898 -2.1543703 2.0147705 -4.059642zm11.431641 24.843395l18.71878 -13.202433l1.7449036 2.4786644l-18.71878 13.202436l-1.7449036 -2.4786682zm4.614105 6.554409l13.560257 -9.56411l1.457077 2.0698147l-1.9280548 1.359869q3.28685 -0.081142426 5.2746124 2.7424927q0.86343384 1.2265549 1.1360779 2.5638885q0.2944336 1.3410988 -0.06085205 2.3564873q-0.35525513 1.0153885 -1.194519 1.9132576q-0.54849243 0.5780525 -2.1445618 1.7037735l-8.337906 5.8807564l-1.618988 -2.2997932l8.24852 -5.8177185q1.404541 -0.9906311 1.9051514 -1.7452507q0.5133972 -0.7636261 0.4363098 -1.7417488q-0.05532837 -0.97435 -0.7029419 -1.894268q-1.0343323 -1.4693108 -2.7219696 -1.885128q-1.6786499 -0.40303802 -4.2834473 1.4341354l-7.405792 5.2233353l-1.6189728 -2.2997932zm15.569214 22.11634l18.71878 -13.202435l4.973877 7.0654755q1.3131714 1.865387 1.8269958 2.9752655q0.74154663 1.5419807 0.74694824 2.9339676q0.018157959 1.3829803 -0.7480469 2.7646751q-0.75720215 1.394474 -2.1489563 2.3761024q-2.3877563 1.6840744 -5.117981 1.334404q-2.7174988 -0.35868073 -5.51474 -4.3322067l-3.3818665 -4.8040123l-7.610077 5.367428l-1.7449341 -2.4786644zm11.563965 -4.4467583l3.4088745 4.8423424q1.6909485 2.4020042 3.295288 2.7809563q1.6043701 0.3789482 3.2259827 -0.76478195q1.1747131 -0.82852936 1.5819397 -2.0144043q0.4289856 -1.182106 0.013549805 -2.3422508q-0.27474976 -0.7431259 -1.4620056 -2.4296417l-3.3728638 -4.791237l-6.6907654 4.719017zm0.49746704 21.580215l13.560272 -9.56411l1.4570923 2.069809l-2.0557556 1.4499283q2.0005188 -0.22550201 2.927887 0.11467743q0.93637085 0.35295868 1.5030212 1.1578827q0.81848145 1.162674 0.92337036 2.8860092l-2.6900024 0.71180725q-0.09567261 -1.1944809 -0.68930054 -2.037735q-0.53067017 -0.7538223 -1.4130554 -1.0301132q-0.8696289 -0.2853012 -1.8539429 0.026527405q-1.495636 0.48125458 -2.951233 1.5079117l-7.099365 5.0071945l-1.618988 -2.2997894zm12.329651 3.10112q3.7667542 -2.6566925 7.054962 -1.8401489q2.738922 0.68772125 4.510803 3.2047195q1.9697876 2.7980804 1.3813171 5.8708572q-0.5757141 3.063774 -3.8061523 5.3422318q-2.6175842 1.8461761 -4.6819153 2.1167068q-2.042572 0.27429962 -3.9338684 -0.6479721q-1.8822937 -0.9094925 -3.1325073 -2.68544q-2.0057678 -2.8491898 -1.4210815 -5.9001846q0.59368896 -3.0382233 4.0284424 -5.4607697zm1.663971 2.363678q-2.6047974 1.8371735 -3.1066895 3.8928757q-0.48913574 2.0467072 0.72509766 3.7715454q1.2052307 1.7120743 3.308136 1.930603q2.1029053 0.21853638 4.7715454 -1.6636658q2.5154114 -1.7741394 2.9955444 -3.8336105q0.5018921 -2.0557098 -0.69436646 -3.7549973q-1.2142334 -1.7248459 -3.3043518 -1.952385q-2.0901184 -0.22753906 -4.694916 1.6096344zm0.982666 18.197868l1.2420044 2.4700546q-0.93530273 0.8700104 -0.95803833 1.8420563q-0.03579712 1.3063202 1.0075378 2.788414q1.1242981 1.5970764 2.3743591 2.0155945q1.2500305 0.4185257 2.6150818 -0.08535004q0.82818604 -0.3164444 3.0664673 -1.914238q-2.8361816 -0.2558365 -4.419159 -2.5045242q-1.9697876 -2.7980804 -1.0316772 -5.7541885q0.93814087 -2.9561005 3.7599792 -4.946373q1.9408264 -1.3688736 4.069916 -1.8189011q2.1418457 -0.45902252 3.9710388 0.23934174q1.8382263 0.7111435 3.1064148 2.5126495q1.6909485 2.4020004 0.8474426 5.329628l1.6343689 -1.1527405l1.4930725 2.120926l-11.721588 8.267281q-3.1665955 2.2334213 -4.9404907 2.509407q-1.7776489 0.29776764 -3.533142 -0.56731415q-1.7464905 -0.8523102 -3.185608 -2.8965683q-1.7089233 -2.427559 -1.663147 -4.6969147q0.032989502 -2.2603607 2.2651672 -3.7582397zm9.486511 -3.841957q-2.6686401 1.8822021 -3.1478882 3.8072205q-0.47924805 1.9250107 0.64505005 3.522087q1.1152954 1.5843048 3.0838318 1.8019943q1.9813232 0.2086792 4.5861206 -1.6284943q2.4898682 -1.7561188 2.9714355 -3.7592545q0.4906006 -1.9903641 -0.60672 -3.5491104q-1.0793152 -1.5331955 -3.0861816 -1.7238693q-1.9940796 -0.19967651 -4.445648 1.5294266zm2.1605225 17.9981l13.560242 -9.56411l1.4570923 2.0698166l-2.0557556 1.4499207q2.0005188 -0.22549438 2.927887 0.11468506q0.93637085 0.35295105 1.5030212 1.1578751q0.81848145 1.162674 0.92337036 2.8860092l-2.6900024 0.7118149q-0.09564209 -1.1944809 -0.68927 -2.0377426q-0.53067017 -0.7538223 -1.4130859 -1.0301132q-0.8696289 -0.2853012 -1.8539429 0.026527405q-1.4956055 0.48125458 -2.951233 1.5079117l-7.0993347 5.007202l-1.618988 -2.299797zm17.057892 14.947861l1.3792725 2.5835724q-2.4770508 0.905777 -4.696533 0.19587708q-2.219513 -0.7098999 -3.8834534 -3.073578q-2.0957031 -2.9769592 -1.5020142 -6.0151825q0.615448 -3.0344467 3.9225159 -5.3669357q3.421997 -2.4135437 6.552948 -1.983223q3.1309814 0.43032837 5.109741 3.2411804q1.915802 2.721428 1.278595 5.7521057q-0.63720703 3.0306702 -3.9953613 5.399185q-0.20428467 0.14408875 -0.6218872 0.4195099l-7.123535 -10.119095q-2.1445618 1.7037735 -2.5315247 3.6784286q-0.3869934 1.9746552 0.80926514 3.6739426q0.8904419 1.2648926 2.184021 1.6909485q1.2935486 0.42607117 3.1179504 -0.07673645zm-1.6000061 -10.171669l5.3336487 7.576538q1.6030579 -1.3600845 1.9548645 -2.6789627q0.55444336 -2.0353928 -0.6777954 -3.7857895q-1.1152954 -1.5842972 -2.9396057 -1.9228363q-1.8153381 -0.3257599 -3.671112 0.8110504zm4.338867 14.740852l1.9585266 2.0220795q-1.2313232 1.1552734 -1.3475342 2.5374146q-0.10720825 1.3949127 0.999115 2.9664307q1.1152954 1.5843048 2.293396 1.9006195q1.1908569 0.30729675 2.0591125 -0.3050995q0.77890015 -0.5493469 0.7490845 -1.5417023q-0.02633667 -0.6888733 -0.8760681 -2.9002533q-1.142456 -2.9800568 -1.3753357 -4.2880707q-0.21115112 -1.3042297 0.24627686 -2.3916626q0.4791565 -1.083664 1.4751282 -1.7861176q0.9065552 -0.6394043 1.9605103 -0.77090454q1.0756836 -0.12771606 2.0901184 0.22753906q0.7735901 0.2574463 1.689331 0.9882355q0.9375 0.73457336 1.684021 1.7950287q1.1242981 1.5970764 1.5101013 3.1222992q0.3947754 1.5379791 0.007873535 2.67128q-0.3741455 1.1242981 -1.5364075 2.269104l-1.8894348 -2.032547q0.9390869 -0.8917999 1.0047607 -2.047104q0.07467651 -1.1425323 -0.86972046 -2.484085q-1.1152954 -1.5842896 -2.115509 -1.8922272q-1.0002136 -0.30792236 -1.7024841 0.18739319q-0.4468994 0.3152008 -0.6065674 0.8484497q-0.1723938 0.5422516 0.0077209473 1.313858q0.11517334 0.43502808 0.8427429 2.445755q1.066742 2.8996277 1.3199463 4.15506q0.2749939 1.2592163 -0.12991333 2.3669586q-0.40490723 1.1077576 -1.5796204 1.9362946q-1.1491699 0.81051636 -2.6473389 0.85380554q-1.4764404 0.047073364 -2.928711 -0.8215637q-1.4394836 -0.8776398 -2.5637817 -2.4747162q-1.8618164 -2.6447601 -1.7441101 -4.811905q0.12670898 -2.1543732 2.0147705 -4.0596466zm9.210236 13.083267l1.9584961 2.0220795q-1.2313232 1.1552734 -1.3475037 2.5373993q-0.10720825 1.394928 0.9990845 2.966446q1.1153259 1.5843048 2.293396 1.9006195q1.1908569 0.30729675 2.059143 -0.3050995q0.7788696 -0.5493469 0.7490845 -1.5417023q-0.026367188 -0.6888733 -0.87609863 -2.9002533q-1.1424255 -2.9800568 -1.3753357 -4.2880707q-0.2111206 -1.3042297 0.24627686 -2.3916626q0.479187 -1.083664 1.4751282 -1.7861176q0.9065857 -0.6394043 1.9605103 -0.77090454q1.0757141 -0.12771606 2.0901184 0.22753906q0.7735901 0.2574463 1.689331 0.9882355q0.9375 0.73457336 1.6840515 1.7950287q1.1242676 1.5970764 1.5100708 3.122284q0.3948059 1.5379944 0.007904053 2.6712952q-0.3741455 1.1242981 -1.5364075 2.269104l-1.8894653 -2.0325623q0.93911743 -0.89178467 1.0047913 -2.0470886q0.07467651 -1.1425323 -0.86972046 -2.484085q-1.1153259 -1.5843048 -2.1155396 -1.8922272q-1.0002136 -0.30792236 -1.7024841 0.18739319q-0.4468994 0.3152008 -0.60653687 0.8484497q-0.17242432 0.5422516 0.0077209473 1.313858q0.11514282 0.43502808 0.8427429 2.445755q1.0667114 2.8996277 1.3199463 4.15506q0.27496338 1.2592163 -0.12994385 2.3669586q-0.4048767 1.1077576 -1.5795898 1.9362793q-1.1491699 0.81051636 -2.6473694 0.8538208q-1.4764099 0.047073364 -2.9286804 -0.8215637q-1.4394836 -0.8776398 -2.5637817 -2.4747162q-1.8618469 -2.6447601 -1.7441101 -4.811905q0.12670898 -2.1543732 2.0147705 -4.0596466zm11.431641 24.8434l18.71875 -13.202438l1.7449036 2.4786682l-18.71875 13.202438l-1.7449036 -2.4786682zm4.614105 6.554413l13.560242 -9.564117l1.4570923 2.0698242l-1.9280701 1.3598633q3.2868652 -0.08114624 5.274597 2.7424927q0.86346436 1.2265625 1.1361084 2.5638885q0.29440308 1.341095 -0.06085205 2.356491q-0.35525513 1.0153809 -1.1945496 1.9132538q-0.54849243 0.5780487 -2.1445618 1.7037659l-8.337891 5.880768l-1.618988 -2.2997894l8.248535 -5.8177185q1.404541 -0.9906311 1.9051514 -1.7452545q0.5133972 -0.7636261 0.4363098 -1.741745q-0.055358887 -0.97435 -0.7029419 -1.8942719q-1.0343628 -1.4693146 -2.7219849 -1.8851318q-1.6786499 -0.40304565 -4.2834473 1.4341278l-7.405792 5.223343l-1.6189575 -2.2997894zm15.569214 22.116333l18.71878 -13.202423l4.973877 7.06546q1.3131714 1.865387 1.8269653 2.9752808q0.74157715 1.5419769 0.74694824 2.93396q0.018157959 1.3829803 -0.74801636 2.764679q-0.75720215 1.3944702 -2.1489868 2.3760986q-2.3877258 1.6840668 -5.117981 1.3343964q-2.7174683 -0.3586731 -5.5147095 -4.332199l-3.3818665 -4.804016l-7.6101074 5.3674316l-1.7449036 -2.4786682zm11.563965 -4.446762l3.4088745 4.842346q1.690918 2.402008 3.295288 2.78096q1.6043396 0.37895203 3.2259521 -0.76478577q1.1747131 -0.8285217 1.5819397 -2.0144043q0.4289856 -1.1820984 0.013580322 -2.3422394q-0.27474976 -0.74313354 -1.4620056 -2.4296417l-3.3728943 -4.7912445l-6.690735 4.7190094zm0.49746704 21.580215l13.560272 -9.564102l1.4570618 2.069809l-2.055725 1.4499359q2.0004883 -0.22550964 2.927887 0.1146698q0.93637085 0.35295105 1.5029907 1.1578827q0.81848145 1.162674 0.9234009 2.8860168l-2.690033 0.71180725q-0.09564209 -1.1944885 -0.68927 -2.0377502q-0.53067017 -0.7538147 -1.4130554 -1.0301056q-0.8696594 -0.28530884 -1.8539734 0.026535034q-1.4956055 0.48124695 -2.951233 1.507904l-7.0993347 5.007202l-1.618988 -2.2998047zm12.329651 3.1011353q3.7667542 -2.6567078 7.054962 -1.8401489q2.738922 0.6877136 4.510803 3.204712q1.9697571 2.7980804 1.3812866 5.870865q-0.5756836 3.0637665 -3.8061218 5.342224q-2.6175842 1.8461761 -4.6819153 2.1166992q-2.0426025 0.27430725 -3.933899 -0.6479645q-1.8822937 -0.90948486 -3.1325073 -2.68544q-2.0057373 -2.8491821 -1.421051 -5.900177q0.59368896 -3.0382233 4.0284424 -5.4607697zm1.663971 2.3636627q-2.6047974 1.8371887 -3.10672 3.8928833q-0.48910522 2.0467072 0.7251282 3.7715454q1.2052307 1.7120667 3.308136 1.930603q2.1028748 0.21853638 4.771515 -1.6636658q2.515442 -1.7741394 2.995575 -3.8336182q0.5018921 -2.0556946 -0.69436646 -3.7549896q-1.2142334 -1.7248535 -3.3043518 -1.9523926q-2.090149 -0.22753906 -4.694916 1.6096344z" fill-rule="nonzero"></path></g></svg>

