<?xml version="1.0" standalone="yes"?>

<svg version="1.1" viewBox="0.0 0.0 425.0 233.0" fill="none" stroke="none" stroke-linecap="square" stroke-miterlimit="10" xmlns="http://www.w3.org/2000/svg" xmlns:xlink="http://www.w3.org/1999/xlink"><clipPath id="p.0"><path d="m0 0l425.0 0l0 233.0l-425.0 0l0 -233.0z" clip-rule="nonzero"></path></clipPath><g clip-path="url(#p.0)"><path fill="#000000" fill-opacity="0.0" d="m0 0l425.5958 0l0 233.4567l-425.5958 0z" fill-rule="nonzero"></path><path fill="#ffe600" d="m219.25002 101.7109l341.15814 127.74908l-13.743286 36.759933l-341.15814 -127.74907z" fill-rule="nonzero"></path><path stroke="#434343" stroke-width="1.0" stroke-linejoin="round" stroke-linecap="butt" stroke-dasharray="8.0,3.0" d="m219.25002 101.7109l341.15814 127.74908l-13.743286 36.759933l-341.15814 -127.74907z" fill-rule="nonzero"></path><path fill="#000000" d="m232.87471 120.63957l1.6827698 0.6301193l-2.7468262 7.347069q-0.7222595 1.9319 -1.5825653 2.8944702q-0.84568787 0.96803284 -2.2551575 1.257782q-1.3893585 0.28060913 -3.2330933 -0.40979004q-1.7851868 -0.66848755 -2.6967316 -1.710556q-0.9115448 -1.0420837 -0.9566803 -2.393753q-0.045150757 -1.3516693 0.7154236 -3.3860168l2.7468262 -7.347069l1.6827698 0.6301193l-2.7468262 7.3470764q-0.6183014 1.6538162 -0.6064911 2.559204q0.011810303 0.9053955 0.59939575 1.6092682q0.6022339 0.70936584 1.6850586 1.1148376q1.8583527 0.6958618 2.9604187 0.15753174q1.1075287 -0.5529938 2.004898 -2.9532242l2.746811 -7.347069zm-0.70321655 14.252213l3.4526672 -9.235062l1.4047546 0.52601624l-0.49246216 1.3172073q1.5933533 -1.1385498 3.5102386 -0.42075348q0.8340759 0.3123169 1.4215393 0.8826752q0.5929413 0.5557251 0.743454 1.1793518q0.17060852 0.6144867 0.07070923 1.3278809q-0.07635498 0.4719391 -0.4812622 1.5549774l-2.1230316 5.678604l-1.5657043 -0.58628845l2.1011505 -5.6200714q0.35565186 -0.9513092 0.3405304 -1.4908752q0.0049743652 -0.5487213 -0.35931396 -1.0021515q-0.36428833 -0.45341492 -0.99349976 -0.6890259q-0.99502563 -0.3725891 -1.9619446 -0.017227173q-0.95228577 0.36083984 -1.6198425 2.1463928l-1.8822784 5.0346375l-1.5657043 -0.58628845zm15.701614 5.8795776l0.43774414 -1.1708374q-1.3923187 1.0469818 -3.0897064 0.41137695q-1.0974579 -0.4109497 -1.8096161 -1.3616791q-0.6920471 -0.9598999 -0.7992859 -2.2347107q-0.087142944 -1.2839661 0.44361877 -2.7036133q0.51434326 -1.3757477 1.3892822 -2.33284q0.88957214 -0.9515991 2.0211487 -1.2119446q1.1462097 -0.2548523 2.2875671 0.17253113q0.83406067 0.31233215 1.3465881 0.90467834q0.5271454 0.5978241 0.72346497 1.3220215l1.7071838 -4.5662994l1.5510712 0.58081055l-4.7604218 12.732971l-1.4486389 -0.5424652zm-3.2222748 -6.462219q-0.66207886 1.7709045 -0.2441101 2.928482q0.43260193 1.1630707 1.4422607 1.5411377q1.024292 0.38356018 2.0531769 -0.18218994q1.0289001 -0.56573486 1.6745605 -2.2927399q0.7058563 -1.8879852 0.302536 -3.0401q-0.39787292 -1.1667328 -1.4660645 -1.5667267q-1.0389252 -0.38902283 -2.0586548 0.19682312q-1.0197296 0.5858612 -1.7037048 2.4153137zm14.386398 7.2557526l1.53302 0.80763245q-0.9057617 1.262558 -2.2401428 1.6638336q-1.3143005 0.39213562 -2.9239044 -0.21058655q-2.0193176 -0.7561493 -2.7394714 -2.4440002q-0.7201538 -1.687851 0.12249756 -3.941742q0.8700104 -2.327057 2.5367737 -3.1711578q1.6814117 -0.83862305 3.5982819 -0.12083435q1.8583679 0.6958771 2.5584106 2.3928833q0.7000427 1.6970062 -0.15899658 3.9947968q-0.04925537 0.13171387 -0.16784668 0.40431213l-6.8773956 -2.5752869q-0.48127747 1.5549774 -0.0066833496 2.6503448q0.47459412 1.0953674 1.6305847 1.5282288q0.8487091 0.31781006 1.6127777 0.103393555q0.7842102 -0.22357178 1.5220947 -1.0818176zm-4.1894684 -4.4552l5.1507416 1.9287262q0.32983398 -1.1945648 0.065826416 -1.9608154q-0.40704346 -1.1868439 -1.6069336 -1.6361542q-1.0681763 -0.3999939 -2.0880432 0.052337646q-0.9997406 0.44317627 -1.5215912 1.6159058zm6.459549 8.692215l3.4526672 -9.235062l1.4047546 0.52601624l-0.5252991 1.405014q0.90802 -0.7778473 1.4765625 -0.91534424q0.5739746 -0.15211487 1.1300354 0.05609131q0.79016113 0.29588318 1.4180908 1.114975l-1.0831299 1.2461853q-0.44482422 -0.5503082 -1.0301208 -0.7694855q-0.512146 -0.19177246 -1.0367737 -0.037841797q-0.50997925 0.15940857 -0.888031 0.63516235q-0.57528687 0.73561096 -0.9473572 1.7308197l-1.8056946 4.8297577l-1.5657043 -0.58628845zm21.647614 3.0173187l1.5240784 1.0545502q-1.303772 1.8809967 -3.0896301 2.4636078q-1.780365 0.5679779 -3.7704163 -0.17721558q-2.0632324 -0.772583 -3.039032 -2.0889893q-0.9703064 -1.3310547 -1.0524597 -3.163742q-0.076690674 -1.8473358 0.6072693 -3.6767883q0.74417114 -1.9904327 2.0430603 -3.1891785q1.3135681 -1.1932678 3.0028381 -1.4283142q1.6947327 -0.2496643 3.3775024 0.38046265q1.9169006 0.7177887 2.8526 2.1860352q0.9411926 1.4536133 0.7967224 3.401657l-1.801239 -0.22399902q0.080841064 -1.5547638 -0.53256226 -2.501892q-0.6079712 -0.96177673 -1.881012 -1.4384766q-1.4632568 -0.54792786 -2.7209473 -0.21801758q-1.243042 0.33538818 -2.1014404 1.3820953q-0.83828735 1.0375366 -1.3088684 2.2962036q-0.60736084 1.6245422 -0.5932617 3.0146332q0.034210205 1.3809357 0.8048706 2.353592q0.78533936 0.97813416 1.9413147 1.4110107q1.4193726 0.53149414 2.700714 0.09364319q1.2868347 -0.45246887 2.2398987 -1.9308777zm2.794983 0.8797455q0.95755005 -2.5612335 2.856659 -3.26828q1.5682678 -0.5806732 3.280304 0.060409546q1.9022522 0.71232605 2.6315613 2.420288q0.74942017 1.6988068 -0.07131958 3.8941498q-0.667572 1.7855377 -1.5920105 2.6072998q-0.9043274 0.8126068 -2.1419983 0.99983215q-1.2175903 0.17808533 -2.432129 -0.27670288q-1.9315186 -0.72328186 -2.6662903 -2.4166107q-0.73480225 -1.6933289 0.13522339 -4.0203857zm1.6095886 0.60272217q-0.66207886 1.7709045 -0.21484375 2.9394531q0.4472351 1.1685333 1.6178589 1.6068878q1.1706238 0.43833923 2.2598267 -0.15486145q1.109314 -0.6023712 1.7878113 -2.4171906q0.64019775 -1.7123566 0.19296265 -2.8809052q-0.4472351 -1.1685333 -1.603241 -1.6013947q-1.1705933 -0.4383545 -2.2744446 0.14938354q-1.1038513 0.5877228 -1.7659302 2.3586273zm6.968933 7.8651886l3.4526672 -9.235062l1.4047546 0.5260315l-0.49246216 1.3171997q1.5933533 -1.1385498 3.510254 -0.4207611q0.8340454 0.31233215 1.4215088 0.8826752q0.59295654 0.5557251 0.74346924 1.1793671q0.17062378 0.61447144 0.07070923 1.3278656q-0.07635498 0.4719391 -0.4812622 1.5549774l-2.1230469 5.6786194l-1.5657043 -0.58628845l2.1011658 -5.6200714q0.35565186 -0.95132446 0.34051514 -1.4908905q0.0049743652 -0.5487213 -0.35928345 -1.0021362q-0.36428833 -0.45341492 -0.99349976 -0.6890259q-0.99502563 -0.37260437 -1.9619446 -0.017242432q-0.952301 0.3608551 -1.6198425 2.1463928l-1.8822937 5.0346527l-1.5657043 -0.5863037zm10.1163025 0.6514282l1.6440735 0.332016q-0.21847534 0.98599243 0.18078613 1.702774q0.41937256 0.70762634 1.4875793 1.1076202q1.0828247 0.4054718 1.7591248 0.1581726q0.69091797 -0.24180603 0.90979004 -0.82722473q0.19699097 -0.526886 -0.14172363 -1.0040894q-0.24533081 -0.3254547 -1.3979797 -1.1241302q-1.5625305 -1.0856323 -2.1207275 -1.6450348q-0.53808594 -0.56855774 -0.68136597 -1.2562103q-0.12313843 -0.69680786 0.12857056 -1.3700409q0.22979736 -0.6147003 0.70480347 -1.0374756q0.48965454 -0.41729736 1.1038513 -0.58773804q0.46429443 -0.12644958 1.1646423 -0.081100464q0.7003479 0.04534912 1.4173584 0.31384277q1.0974426 0.4109497 1.7965088 1.0397644q0.7045288 0.6141968 0.8825073 1.298172q0.19812012 0.67481995 0.010650635 1.6223907l-1.5983887 -0.36494446q0.16021729 -0.74087524 -0.20419312 -1.3278046q-0.34432983 -0.59609985 -1.2515564 -0.93582153q-1.0828247 -0.4054718 -1.6732178 -0.20944214q-0.5849304 0.18139648 -0.7600403 0.6497345q-0.11489868 0.3073578 -0.017700195 0.62739563q0.09719849 0.32002258 0.44674683 0.6344452q0.20129395 0.17547607 1.2222595 0.92485046q1.4893494 1.0582275 2.0438538 1.5828857q0.5545044 0.52464294 0.717865 1.2031403q0.17800903 0.6839752 -0.122924805 1.4889374q-0.29000854 0.7756958 -1.0062866 1.3083344q-0.7107849 0.51802063 -1.7163696 0.57525635q-1.0001221 0.042617798 -2.0829468 -0.362854q-1.7998352 -0.67396545 -2.4718933 -1.776535q-0.6574402 -1.0970917 -0.37365723 -2.6592865zm12.285614 6.1354218l-0.3003235 1.47258q-0.70770264 -0.114852905 -1.2344971 -0.31211853q-0.84869385 -0.3177948 -1.2184448 -0.75657654q-0.36428833 -0.45341492 -0.3958435 -0.9490814q-0.026062012 -0.5102997 0.5046997 -1.9299469l1.9807739 -5.2980804l-1.1560059 -0.4328766l0.45962524 -1.2293854l1.1560059 0.43286133l0.85357666 -2.283142l1.9012756 -0.35588074l-1.2037964 3.2198334l1.5803528 0.59176636l-0.45962524 1.2294006l-1.5803528 -0.59176636l-2.0136108 5.385895q-0.25167847 0.67323303 -0.2496643 0.89089966q0.016662598 0.22312927 0.16311646 0.41145325q0.14645386 0.18830872 0.49765015 0.31982422q0.24874878 0.09313965 0.7150879 0.18434143zm0.89016724 1.9350433l3.4526672 -9.235062l1.4047546 0.52601624l-0.5252991 1.405014q0.90802 -0.7778473 1.476532 -0.915329q0.5740051 -0.15213013 1.1300659 0.05609131q0.79016113 0.29588318 1.4180908 1.114975l-1.0831299 1.2461853q-0.44482422 -0.5503235 -1.0301208 -0.7694855q-0.512146 -0.19178772 -1.0367737 -0.037857056q-0.51000977 0.15940857 -0.8880615 0.6351776q-0.57525635 0.7355957 -0.9473572 1.7308197l-1.8056641 4.8297424l-1.5657043 -0.58628845zm11.876099 4.447098l0.5088806 -1.3611145q-1.653656 1.1660156 -3.512024 0.47013855q-0.8048096 -0.30136108 -1.4068909 -0.87719727q-0.58200073 -0.58499146 -0.75808716 -1.1848297q-0.1614685 -0.5943756 -0.050628662 -1.3370361q0.08731079 -0.5012207 0.4593811 -1.4964294l2.1394653 -5.722519l1.5657043 0.58628845l-1.9151306 5.122452q-0.45962524 1.2294006 -0.53048706 1.6867065q-0.083496094 0.66947937 0.2680664 1.2015533q0.3515625 0.532074 1.0539246 0.7950897q0.70236206 0.2630005 1.4482727 0.14187622q0.7513733 -0.13575745 1.22995 -0.65730286q0.49865723 -0.5307007 0.941864 -1.7161865l1.8494568 -4.946823l1.5657043 0.58628845l-3.4526672 9.235062l-1.4047546 -0.52601624zm10.966156 0.25222778l1.4598389 0.78022766q-0.83969116 1.4874878 -2.217865 2.0058746q-1.3727112 0.5037384 -2.8945007 -0.06611633q-1.8876343 -0.7068329 -2.5839844 -2.3690948q-0.67626953 -1.6714172 0.18826294 -3.983841q0.558136 -1.4928284 1.4568481 -2.4243164q0.91885376 -0.9406433 2.136444 -1.1187134q1.2376709 -0.1872406 2.422943 0.2565918q1.5071716 0.5643616 2.173767 1.6815796q0.66659546 1.1172028 0.41931152 2.6263275l-1.6093445 -0.3356781q0.13070679 -1.0188751 -0.25024414 -1.6954346q-0.38095093 -0.6765442 -1.1564941 -0.96694946q-1.1852417 -0.4438324 -2.2488708 0.1255951q-1.0490112 0.57489014 -1.7329712 2.4043427q-0.6949158 1.8587189 -0.29525757 2.9760742q0.40509033 1.1027069 1.5464478 1.5301056q0.921875 0.34519958 1.7443848 0.019180298q0.8279724 -0.34066772 1.4412842 -1.445755zm5.392456 4.271652l-0.3003235 1.4725647q-0.70773315 -0.114852905 -1.2344971 -0.31210327q-0.84869385 -0.31781006 -1.2184753 -0.75657654q-0.3642578 -0.45341492 -0.395813 -0.9490814q-0.02609253 -0.5102997 0.5046692 -1.9299622l1.9807739 -5.2980804l-1.1559753 -0.43286133l0.45962524 -1.2294006l1.1559753 0.4328766l0.8536072 -2.2831573l1.9012756 -0.35586548l-1.2037964 3.2198334l1.5803223 0.59176636l-0.45962524 1.2293854l-1.5803223 -0.59176636l-2.0136108 5.385895q-0.25170898 0.6732483 -0.2496643 0.89089966q0.016662598 0.22314453 0.16311646 0.41145325q0.14645386 0.18832397 0.49765015 0.31982422q0.24874878 0.09315491 0.7150879 0.18435669zm5.0122986 -9.001434l0.6675415 -1.7855377l1.5657043 0.58628845l-0.6675415 1.7855377l-1.5657043 -0.58628845zm-4.092865 10.947433l3.4526672 -9.235062l1.5657043 0.58628845l-3.4526672 9.235062l-1.5657043 -0.58628845zm5.005249 -3.3813782q0.95755005 -2.5612335 2.856659 -3.26828q1.5682983 -0.58065796 3.280304 0.060424805q1.9022827 0.7123108 2.6315918 2.4202728q0.74942017 1.698822 -0.0713501 3.8941498q-0.6675415 1.785553 -1.59198 2.6072998q-0.9043274 0.8126068 -2.1420288 0.99983215q-1.2175903 0.17808533 -2.4320984 -0.27670288q-1.9315186 -0.7232666 -2.6663208 -2.4165955q-0.7347717 -1.6933441 0.13522339 -4.020401zm1.6096191 0.6027374q-0.66207886 1.7709045 -0.21487427 2.9394379q0.4472351 1.1685486 1.6178589 1.6068878q1.1706238 0.4383545 2.2598267 -0.15486145q1.109314 -0.6023712 1.7878113 -2.4171753q0.64019775 -1.7123718 0.19296265 -2.8809052q-0.4472351 -1.1685486 -1.6032104 -1.6014099q-1.1706238 -0.4383545 -2.274475 0.14938354q-1.1038208 0.5877228 -1.7658997 2.3586426zm6.9689026 7.8651886l3.4526978 -9.235062l1.4047241 0.52601624l-0.49246216 1.3171997q1.5933533 -1.1385498 3.510254 -0.4207611q0.8340759 0.31233215 1.4215393 0.8826904q0.592926 0.55570984 0.7434387 1.1793518q0.17062378 0.61447144 0.070739746 1.3278656q-0.07635498 0.47195435 -0.4812622 1.5549774l-2.1230469 5.6786194l-1.5657043 -0.58628845l2.1011353 -5.6200714q0.35568237 -0.9513092 0.34054565 -1.4908905q0.0049743652 -0.5487213 -0.35931396 -1.0021362q-0.36428833 -0.45341492 -0.99349976 -0.6890259q-0.99502563 -0.3725891 -1.9619446 -0.017227173q-0.952301 0.36083984 -1.6198425 2.1463776l-1.8822937 5.0346527l-1.5657043 -0.58628845zm32.745697 -2.2536926l1.6827698 0.63012695l-2.7468262 7.347061q-0.7222595 1.9319 -1.58255 2.8944702q-0.8457031 0.96803284 -2.2551575 1.2577972q-1.3893738 0.28059387 -3.2330933 -0.4098053q-1.7851868 -0.6684723 -2.6967468 -1.710556q-0.91152954 -1.0420837 -0.95666504 -2.393753q-0.045166016 -1.3516693 0.7154236 -3.3860168l2.7468262 -7.347061l1.6827698 0.63012695l-2.7468262 7.347061q-0.61831665 1.6538239 -0.60650635 2.559204q0.011810303 0.9053955 0.59939575 1.6092682q0.6022339 0.70936584 1.6850586 1.1148376q1.8583679 0.6958771 2.9604187 0.15753174q1.107544 -0.5529785 2.0049133 -2.9532166l2.7467957 -7.3470764zm-0.70321655 14.252213l3.4526672 -9.235062l1.4047546 0.52601624l-0.49246216 1.317215q1.5933533 -1.1385498 3.510254 -0.4207611q0.8340759 0.3123169 1.4215393 0.8826752q0.592926 0.5557251 0.7434387 1.1793671q0.17062378 0.61447144 0.07070923 1.3278656q-0.07635498 0.4719391 -0.4812622 1.5549774l-2.1230164 5.6786194l-1.5657043 -0.58628845l2.1011353 -5.6200714q0.35565186 -0.95132446 0.34054565 -1.4908905q0.0049743652 -0.5487213 -0.35931396 -1.0021362q-0.36428833 -0.45341492 -0.99349976 -0.6890259q-0.99502563 -0.37260437 -1.9619446 -0.017242432q-0.952301 0.3608551 -1.6198425 2.1463928l-1.8822937 5.0346375l-1.5657043 -0.58628845zm15.70163 5.879593l0.43774414 -1.1708527q-1.392334 1.0469818 -3.0897217 0.41137695q-1.0974426 -0.4109497 -1.8096008 -1.3616791q-0.6920471 -0.9598999 -0.7992859 -2.2347107q-0.0871582 -1.2839661 0.44360352 -2.7036133q0.51434326 -1.3757477 1.3892822 -2.3328247q0.8895874 -0.9516144 2.0211487 -1.2119446q1.1462097 -0.25486755 2.2875671 0.17253113q0.8340759 0.3123169 1.3465881 0.9046631q0.52716064 0.5978241 0.7234802 1.3220367l1.7071838 -4.5663147l1.5510559 0.58081055l-4.7604065 12.732971l-1.4486389 -0.54244995zm-3.22229 -6.4622345q-0.66207886 1.7709045 -0.2441101 2.9284973q0.4326172 1.1630554 1.4422607 1.5411224q1.024292 0.38356018 2.0531921 -0.18217468q1.0289001 -0.5657501 1.6745605 -2.2927551q0.70584106 -1.8879852 0.30252075 -3.0400848q-0.39785767 -1.166748 -1.4660645 -1.5667267q-1.0389099 -0.3890381 -2.0586548 0.19682312q-1.0197144 0.58584595 -1.7037048 2.4152985zm14.386414 7.255768l1.53302 0.8076172q-0.9057617 1.262558 -2.2401428 1.6638489q-1.3143005 0.39213562 -2.9239197 -0.2106018q-2.0193176 -0.7561493 -2.7394714 -2.4440002q-0.7201538 -1.687851 0.12249756 -3.9417267q0.87002563 -2.327057 2.5367737 -3.171173q1.6813965 -0.83862305 3.598297 -0.12083435q1.8583679 0.6958771 2.5584106 2.3928833q0.7000427 1.6970062 -0.1590271 3.9947968q-0.049224854 0.13172913 -0.16784668 0.4043274l-6.8773804 -2.5752869q-0.4812622 1.5549774 -0.0066833496 2.6503296q0.47460938 1.0953674 1.6305847 1.5282288q0.84869385 0.31781006 1.612793 0.103393555q0.7842102 -0.22357178 1.5220947 -1.0818024zm-4.1894836 -4.4552155l5.1507263 1.9287262q0.32983398 -1.1945648 0.065826416 -1.9608002q-0.40701294 -1.1868591 -1.6069031 -1.6361694q-1.0681763 -0.3999939 -2.0880432 0.052352905q-0.99975586 0.44317627 -1.5216064 1.6158905zm6.459564 8.692215l3.4526672 -9.235062l1.4047546 0.52601624l-0.5252991 1.405014q0.90802 -0.7778473 1.476532 -0.915329q0.5740051 -0.15213013 1.1300659 0.05609131q0.79016113 0.29588318 1.4180908 1.1149597l-1.0831299 1.2462006q-0.44482422 -0.5503235 -1.0301208 -0.7694855q-0.512146 -0.19178772 -1.0367737 -0.037857056q-0.51000977 0.15940857 -0.8880615 0.6351776q-0.57525635 0.7355957 -0.9473572 1.7308197l-1.8056641 4.8297424l-1.5657043 -0.58628845zm21.647614 3.0173187l1.5240784 1.0545502q-1.303772 1.8809967 -3.0896301 2.4636078q-1.7803955 0.5679779 -3.7704468 -0.17720032q-2.063202 -0.77259827 -3.0390015 -2.0890045q-0.9703369 -1.3310394 -1.0524902 -3.163742q-0.076690674 -1.8473358 0.6072998 -3.676773q0.7441406 -1.990448 2.0430603 -3.1891937q1.3135681 -1.1932678 3.0028381 -1.428299q1.6947327 -0.24967957 3.3775024 0.3804474q1.9169006 0.7177887 2.8526 2.1860352q0.9411926 1.4536133 0.7967224 3.401657l-1.801239 -0.22399902q0.080841064 -1.5547638 -0.5325928 -2.501892q-0.6079407 -0.9617615 -1.8809814 -1.4384766q-1.4632874 -0.54792786 -2.7209473 -0.21801758q-1.243042 0.33538818 -2.1014404 1.3820953q-0.83828735 1.0375366 -1.3088684 2.2962036q-0.60736084 1.6245422 -0.5932617 3.0146484q0.034179688 1.3809357 0.8048706 2.3535767q0.78533936 0.97813416 1.9413147 1.4110107q1.4193726 0.53149414 2.700714 0.09365845q1.2868042 -0.45248413 2.2398987 -1.930893zm2.7949524 0.8797455q0.95758057 -2.5612183 2.8566895 -3.26828q1.5682678 -0.58065796 3.280304 0.060424805q1.9022522 0.7123108 2.6315613 2.4202728q0.74942017 1.698822 -0.0713501 3.8941498q-0.6675415 1.785553 -1.59198 2.6072998q-0.9043274 0.8126068 -2.1420288 0.99983215q-1.2175598 0.17808533 -2.4320984 -0.27670288q-1.9315186 -0.7232666 -2.6662903 -2.4165955q-0.73480225 -1.6933441 0.13519287 -4.020401zm1.6096191 0.6027374q-0.66207886 1.7709045 -0.21484375 2.9394379q0.4472351 1.1685486 1.6178284 1.6068878q1.1706238 0.4383545 2.2598267 -0.15486145q1.109314 -0.6023712 1.7878113 -2.4171753q0.64019775 -1.7123718 0.19296265 -2.8809052q-0.4472046 -1.1685486 -1.6032104 -1.6014099q-1.1706238 -0.4383545 -2.2744446 0.14938354q-1.1038513 0.5877228 -1.7659302 2.3586426zm6.968933 7.8651886l3.4526672 -9.235062l1.4047546 0.52601624l-0.49246216 1.3171997q1.5933533 -1.1385498 3.510254 -0.42074585q0.8340759 0.3123169 1.4215393 0.8826752q0.592926 0.5557251 0.7434387 1.1793518q0.17062378 0.6144867 0.07070923 1.3278809q-0.07635498 0.4719391 -0.4812622 1.5549774l-2.1230469 5.678604l-1.5657043 -0.58628845l2.1011658 -5.6200714q0.35565186 -0.9513092 0.34054565 -1.4908752q0.0049743652 -0.5487366 -0.35931396 -1.0021515q-0.36428833 -0.45341492 -0.99349976 -0.6890259q-0.99502563 -0.3725891 -1.9619446 -0.017227173q-0.952301 0.36083984 -1.6198425 2.1463928l-1.8822937 5.0346375l-1.5657043 -0.58628845zm10.1163025 0.6514282l1.6440735 0.33200073q-0.21850586 0.98599243 0.18078613 1.702774q0.41937256 0.70762634 1.4875488 1.1076202q1.0828247 0.4054718 1.7591248 0.15818787q0.6909485 -0.24182129 0.90982056 -0.82724q0.19696045 -0.526886 -0.14172363 -1.0040894q-0.24533081 -0.32543945 -1.3980103 -1.1241302q-1.5625 -1.0856323 -2.120697 -1.6450348q-0.53808594 -0.5685425 -0.68136597 -1.2562103q-0.12313843 -0.69680786 0.12854004 -1.3700409q0.22982788 -0.6147003 0.704834 -1.0374756q0.48962402 -0.41729736 1.1038513 -0.5877228q0.46429443 -0.12646484 1.1646423 -0.08111572q0.7003479 0.04534912 1.4173279 0.31384277q1.0974731 0.4109497 1.7965393 1.0397797q0.7044983 0.6141815 0.8825073 1.298172q0.1980896 0.67481995 0.010650635 1.6223755l-1.5984192 -0.36494446q0.16021729 -0.74086 -0.20419312 -1.3278046q-0.34429932 -0.59609985 -1.2515259 -0.9358063q-1.0828247 -0.4054718 -1.6732178 -0.20944214q-0.58496094 0.18139648 -0.7600403 0.6497345q-0.11489868 0.30734253 -0.017700195 0.6273804q0.09719849 0.32003784 0.4467163 0.6344452q0.20129395 0.17549133 1.22229 0.92485046q1.4893494 1.0582428 2.0438538 1.5828857q0.5545044 0.52464294 0.717865 1.2031403q0.17800903 0.6839905 -0.12295532 1.4889374q-0.28997803 0.7756958 -1.0062561 1.3083496q-0.7107849 0.5180054 -1.7163696 0.57525635q-1.0001221 0.04260254 -2.0829468 -0.36286926q-1.7998352 -0.6739502 -2.4719238 -1.776535q-0.65740967 -1.0970917 -0.3736267 -2.6592712zm12.285614 6.1354065l-0.3003235 1.47258q-0.70773315 -0.114852905 -1.2344971 -0.31210327q-0.84869385 -0.31781006 -1.2184448 -0.7565918q-0.36428833 -0.45341492 -0.3958435 -0.94906616q-0.026062012 -0.5102997 0.5046997 -1.9299622l1.9807434 -5.2980804l-1.1559753 -0.4328766l0.45962524 -1.2293854l1.1560059 0.4328766l0.85357666 -2.2831573l1.9012756 -0.35586548l-1.2037964 3.2198334l1.5803528 0.59176636l-0.45965576 1.2293854l-1.5803223 -0.59176636l-2.0136108 5.385895q-0.25167847 0.67323303 -0.2496643 0.89089966q0.016662598 0.22314453 0.16311646 0.41145325q0.14645386 0.18832397 0.49765015 0.31982422q0.24874878 0.09313965 0.7150879 0.18434143zm0.89016724 1.9350586l3.4526672 -9.235062l1.4047546 0.52601624l-0.5252991 1.405014q0.90802 -0.7778473 1.4765625 -0.91534424q0.5739746 -0.15211487 1.1300354 0.05609131q0.79016113 0.29588318 1.4180908 1.114975l-1.0831299 1.2461853q-0.44482422 -0.5503082 -1.0301208 -0.7694855q-0.512146 -0.19177246 -1.0367737 -0.037841797q-0.50997925 0.15940857 -0.888031 0.63516235q-0.57528687 0.73561096 -0.9473572 1.7308197l-1.8056946 4.8297577l-1.5657043 -0.58628845zm11.876129 4.4470825l0.5088501 -1.3610992q-1.653656 1.1660156 -3.512024 0.47013855q-0.8048096 -0.30136108 -1.4068909 -0.87719727q-0.58200073 -0.58499146 -0.75808716 -1.184845q-0.1614685 -0.59436035 -0.050628662 -1.3370209q0.08731079 -0.5012207 0.4593811 -1.4964447l2.1394653 -5.722519l1.5657043 0.58628845l-1.9151001 5.122467q-0.45962524 1.2293854 -0.5305176 1.6866913q-0.083496094 0.6694946 0.2680664 1.2015686q0.3515625 0.532074 1.0539246 0.79507446q0.7023926 0.26301575 1.4482727 0.14189148q0.7513733 -0.13575745 1.22995 -0.65730286q0.49865723 -0.5307007 0.94189453 -1.7161865l1.8494263 -4.9468384l1.5657043 0.58628845l-3.4526672 9.235062l-1.4047241 -0.52601624zm10.9661255 0.25222778l1.4598389 0.78022766q-0.83969116 1.487503 -2.217865 2.0058746q-1.3727112 0.5037384 -2.8945312 -0.06611633q-1.8876038 -0.7068329 -2.5839844 -2.3690948q-0.676239 -1.6714172 0.18829346 -3.983841q0.55810547 -1.4928284 1.4568481 -2.4243164q0.91882324 -0.9406433 2.1364136 -1.1187134q1.2377014 -0.1872406 2.422943 0.2565918q1.5071716 0.5643616 2.1737976 1.6815796q0.66659546 1.1172028 0.41931152 2.6263275l-1.6093445 -0.3356781q0.13070679 -1.0188751 -0.25024414 -1.6954193q-0.38095093 -0.67655945 -1.1564941 -0.9669647q-1.1852417 -0.4438324 -2.2488708 0.1255951q-1.0490112 0.57489014 -1.7329712 2.4043427q-0.6949158 1.8587189 -0.2952881 2.9760742q0.40512085 1.1027222 1.5464783 1.5301056q0.921875 0.34519958 1.7443542 0.019180298q0.8280029 -0.34065247 1.4413147 -1.445755zm5.392456 4.271652l-0.3003235 1.4725647q-0.70773315 -0.11483765 -1.2344971 -0.31210327q-0.84872437 -0.3177948 -1.2184753 -0.75657654q-0.36428833 -0.45341492 -0.395813 -0.9490814q-0.02609253 -0.5102997 0.5046692 -1.9299469l1.9807739 -5.2980957l-1.1559753 -0.43286133l0.45962524 -1.2293854l1.1559753 0.43286133l0.8536072 -2.2831573l1.9012451 -0.35586548l-1.2037659 3.2198334l1.5803223 0.59176636l-0.45962524 1.2293854l-1.5803223 -0.59176636l-2.0136108 5.38591q-0.25170898 0.67323303 -0.2496643 0.8908844q0.016662598 0.22314453 0.16311646 0.41145325q0.14645386 0.18832397 0.49761963 0.31982422q0.2487793 0.09315491 0.7151184 0.18435669zm5.012268 -9.001434l0.6675415 -1.7855377l1.5657349 0.58628845l-0.66760254 1.7855377l-1.5656738 -0.58628845zm-4.092865 10.947433l3.4526672 -9.235062l1.5657349 0.58628845l-3.4526978 9.235062l-1.5657043 -0.58628845zm5.0052795 -3.3813782q0.95758057 -2.5612183 2.8566895 -3.2682648q1.5682373 -0.5806732 3.2802734 0.060409546q1.9022827 0.7123108 2.6315918 2.420288q0.74938965 1.6988068 -0.0713501 3.8941498q-0.6675415 1.7855377 -1.59198 2.6072998q-0.9043579 0.81259155 -2.1420288 0.99983215q-1.2175903 0.17807007 -2.432129 -0.27671814q-1.9315186 -0.7232666 -2.6662903 -2.4165955q-0.7347717 -1.6933289 0.13522339 -4.020401zm1.6096191 0.6027374q-0.6621094 1.7709045 -0.21484375 2.9394379q0.4472046 1.1685486 1.6177979 1.6068878q1.1706543 0.4383545 2.2598267 -0.15486145q1.109314 -0.60235596 1.7878418 -2.4171753q0.64019775 -1.7123718 0.19293213 -2.8809052q-0.4472046 -1.1685333 -1.6032104 -1.6014099q-1.1705933 -0.43833923 -2.274414 0.14938354q-1.1038818 0.58773804 -1.7659302 2.3586426zm6.968933 7.8651886l3.4526367 -9.235062l1.4047852 0.52601624l-0.49249268 1.317215q1.5933838 -1.1385498 3.510254 -0.4207611q0.83410645 0.3123169 1.4215698 0.8826752q0.5928955 0.5557251 0.7434082 1.1793518q0.1706543 0.6144867 0.070739746 1.3278809q-0.07635498 0.4719391 -0.4812622 1.5549774l-2.1230469 5.6786194l-1.5656738 -0.5863037l2.1011353 -5.620056q0.35565186 -0.95132446 0.34051514 -1.4908905q0.005004883 -0.5487213 -0.35931396 -1.0021362q-0.3642578 -0.45341492 -0.99346924 -0.6890259q-0.99505615 -0.37260437 -1.9619751 -0.017242432q-0.9522705 0.3608551 -1.619812 2.1463928l-1.8823242 5.0346375l-1.5656738 -0.58628845z" fill-rule="nonzero"></path><path fill="#ffe600" d="m217.17804 101.796524l4.779373 1.78685l-13.291046 35.55034l-4.7793884 -1.78685z" fill-rule="nonzero"></path><path fill="#ffe600" d="m-121.068214 -25.721369l341.15814 127.749084l-13.743271 36.75994l-341.15814 -127.749084z" fill-rule="nonzero"></path><path stroke="#434343" stroke-width="1.0" stroke-linejoin="round" stroke-linecap="butt" stroke-dasharray="8.0,3.0" d="m-121.068214 -25.721369l341.15814 127.749084l-13.743271 36.75994l-341.15814 -127.749084z" fill-rule="nonzero"></path><path fill="#000000" d="m-107.44352 -6.7926955l1.6827698 0.6301241l-2.7468185 7.3470693q-0.72226715 1.9318987 -1.5825806 2.8944592q-0.8456726 0.96804 -2.2551422 1.2577958q-1.3893661 0.2805996 -3.2330933 -0.4097967q-1.7851944 -0.66847944 -2.6967392 -1.710563q-0.9115372 -1.0420833 -0.9566803 -2.3937492q-0.045143127 -1.3516657 0.7154312 -3.3860137l2.7468185 -7.347069l1.6827698 0.63012314l-2.7468185 7.3470697q-0.618309 1.6538224 -0.6064987 2.5592108q0.011817932 0.90538824 0.5994034 1.6092668q0.60222626 0.709358 1.685051 1.1148291q1.8583603 0.6958759 2.9604187 0.15753126q1.1075287 -0.5529804 2.004898 -2.9532182l2.746811 -7.3470693zm-0.70321655 14.252216l3.4526749 -9.235061l1.404747 0.5260165l-0.49246216 1.3172036q1.5933533 -1.1385484 3.5102463 -0.420755q0.8340683 0.31232226 1.4215317 0.88267803q0.5929413 0.5557202 0.743454 1.1793553q0.17061615 0.6144788 0.07071686 1.327874q-0.07635498 0.47194386 -0.48126984 1.5549781l-2.1230316 5.6786113l-1.5657043 -0.5862894l2.1011505 -5.6200686q0.35565948 -0.951314 0.3405304 -1.4908845q0.0049743652 -0.54872656 -0.35930634 -1.0021418q-0.36428833 -0.45341516 -0.99349976 -0.68902665q-0.99502563 -0.372595 -1.9619446 -0.017231286q-0.9522934 0.36084306 -1.6198425 2.1463857l-1.8822861 5.034645l-1.5657043 -0.5862894zm15.701614 5.8795815l0.43774414 -1.1708479q-1.3923111 1.0469856 -3.0897064 0.41138268q-1.0974579 -0.41095066 -1.8096161 -1.3616877q-0.6920471 -0.9598932 -0.7992859 -2.234704q-0.087135315 -1.283967 0.4436264 -2.70362q0.51434326 -1.3757463 1.3892822 -2.3328276q0.88957214 -0.951602 2.0211487 -1.2119424q1.1462021 -0.25486112 2.2875595 0.17252731q0.8340683 0.31232214 1.3465881 0.9046674q0.527153 0.59782434 0.72346497 1.3220341l1.7071915 -4.566306l1.5510712 0.58080983l-4.7604218 12.732969l-1.4486465 -0.5424547zm-3.2222672 -6.4622293q-0.66207886 1.7709069 -0.24411774 2.9284892q0.43260193 1.1630611 1.4422607 1.5411358q1.024292 0.3835535 2.0531845 -0.18218803q1.0289001 -0.5657406 1.6745605 -2.2927418q0.7058563 -1.8879914 0.30252838 -3.0400944q-0.3978653 -1.166738 -1.4660568 -1.5667295q-1.0389252 -0.38903332 -2.0586548 0.19682312q-1.0197372 0.58585644 -1.7037048 2.4153056zm14.386406 7.2557597l1.5329971 0.8076258q-0.90573883 1.2625551 -2.2401352 1.6638441q-1.3142929 0.3921318 -2.9238968 -0.21059418q-2.0193253 -0.7561493 -2.739479 -2.4440012q-0.7201538 -1.6878519 0.12249756 -3.9417334q0.8700104 -2.3270602 2.5367737 -3.1711664q1.6814041 -0.8386264 3.5982895 -0.1208334q1.8583603 0.6958761 2.5584106 2.3928843q0.70005035 1.6970081 -0.15901184 3.9947968q-0.04924774 0.13172054 -0.16784668 0.40431786l-6.877388 -2.5752888q-0.48126984 1.5549774 -0.00667572 2.65034q0.4745865 1.0953627 1.6305771 1.5282307q0.84869385 0.31780148 1.612793 0.10338688q0.7842026 -0.22357178 1.5220947 -1.081809zm-4.1894836 -4.455205l5.150734 1.9287262q0.32983398 -1.1945667 0.065826416 -1.9608088q-0.40702057 -1.1868534 -1.6069107 -1.636159q-1.0681915 -0.399992 -2.0880508 0.05234146q-0.99974823 0.44317722 -1.5215988 1.6159zm6.4595566 8.69221l3.4526749 -9.235062l1.404747 0.5260172l-0.52529144 1.4050169q0.90802 -0.7778492 1.4765396 -0.91533756q0.5739975 -0.15212345 1.130043 0.05609131q0.79016876 0.29588413 1.4180908 1.1149731l-1.0831146 1.2461882q-0.44483185 -0.550313 -1.0301361 -0.7694864q-0.512146 -0.19177628 -1.0367737 -0.03785038q-0.5099869 0.15940571 -0.88803864 0.63517q-0.57527924 0.7356014 -0.9473572 1.7308216l-1.8056793 4.8297462l-1.5657043 -0.58628845zm21.64761 3.0173187l1.524086 1.0545559q-1.3037682 1.8809986 -3.0896263 2.4636097q-1.7803879 0.567976 -3.770443 -0.17721367q-2.063221 -0.7725868 -3.039013 -2.088997q-0.97032166 -1.331047 -1.052475 -3.1637402q-0.076690674 -1.8473301 0.6072769 -3.6767797q0.7441635 -1.9904413 2.0430756 -3.18919q1.3135529 -1.1932697 3.0028267 -1.4283037q1.6947479 -0.24967003 3.377514 0.3804531q1.9168892 0.71779346 2.8526 2.18604q0.94117737 1.4536104 0.7967148 3.401658l-1.801239 -0.22400284q0.080833435 -1.5547628 -0.5325813 -2.501895q-0.6079407 -0.9617672 -1.8809929 -1.4384699q-1.4632721 -0.5479336 -2.7209435 -0.21802044q-1.2430382 0.33539295 -2.1014404 1.3820906q-0.838295 1.0375414 -1.3088646 2.2962017q-0.60736847 1.6245518 -0.59326935 3.0146446q0.034194946 1.3809376 0.80487823 2.353592q0.7853203 0.97813416 1.9413071 1.4110012q1.4193764 0.53149605 2.700718 0.09365463q1.2868118 -0.4524784 2.239891 -1.9308891zm2.7949715 0.8797512q0.9575577 -2.5612297 2.8566666 -3.26828q1.5682755 -0.5806656 3.280304 0.060417175q1.9022598 0.7123146 2.6315765 2.4202805q0.74942017 1.6988106 -0.07134247 3.8941517q-0.66755295 1.7855415 -1.5919876 2.607298q-0.9043312 0.8125992 -2.1420212 0.99983406q-1.2175865 0.1780796 -2.432106 -0.2767067q-1.9315224 -0.7232723 -2.6663094 -2.416603q-0.734787 -1.6933327 0.13521957 -4.0203915zm1.6096039 0.6027279q-0.6620827 1.7709064 -0.21485138 2.9394474q0.4472313 1.168541 1.6178513 1.6068878q1.17062 0.43834686 2.2598305 -0.15486336q1.1093102 -0.6023674 1.7878075 -2.417181q0.64019394 -1.7123642 0.19296265 -2.8809052q-0.4472313 -1.168541 -1.6032181 -1.601408q-1.17062 -0.43834686 -2.2744598 0.14938354q-1.1038399 0.5877304 -1.7659225 2.3586388zm6.9689255 7.8651905l3.4526749 -9.235062l1.4047432 0.52601624l-0.49245834 1.3172035q1.5933571 -1.1385479 3.5102463 -0.42075348q0.8340683 0.3123207 1.4215317 0.8826771q0.59293747 0.5557194 0.74345016 1.1793556q0.17061996 0.61447906 0.07072067 1.3278732q-0.076358795 0.4719448 -0.48126602 1.5549793l-2.1230392 5.6786118l-1.5657043 -0.58629227l2.1011505 -5.6200676q0.3556633 -0.951313 0.3405342 -1.4908829q0.0049743652 -0.54872704 -0.35931015 -1.002142q-0.36428452 -0.45341682 -0.9934921 -0.6890278q-0.99502945 -0.37259483 -1.9619522 -0.017230988q-0.9522896 0.36084366 -1.6198425 2.1463852l-1.8822823 5.034645l-1.5657043 -0.58628845zm10.1163025 0.6514282l1.6440887 0.33200455q-0.21849442 0.98599243 0.18077469 1.7027779q0.41937637 0.70762634 1.4875679 1.1076164q1.0828228 0.4054718 1.759121 0.15818024q0.6909313 -0.24180984 0.9098015 -0.8272362q0.19698334 -0.52687836 -0.14172554 -1.0040855q-0.24531555 -0.32544327 -1.3979874 -1.1241302q-1.5625134 -1.0856304 -2.1207104 -1.6450272q-0.5380974 -0.5685539 -0.68135834 -1.2562103q-0.12315369 -0.6968136 0.12854767 -1.3700504q0.22981262 -0.6146946 0.7048187 -1.0374699q0.48963547 -0.41729355 1.1038399 -0.5877304q0.4643097 -0.12645721 1.1646519 -0.08110809q0.7003403 0.04534912 1.417345 0.31383705q1.097456 0.4109497 1.7965126 1.0397758q0.7045269 0.61419106 0.8825245 1.2981701q0.19810104 0.67482376 0.010652542 1.6223888l-1.5984116 -0.364954q0.16021538 -0.7408638 -0.20419502 -1.3278008q-0.34430313 -0.59609413 -1.2515354 -0.9358139q-1.0828228 -0.4054699 -1.6732311 -0.20944023q-0.58493614 0.18139458 -0.76003456 0.6497345q-0.11490631 0.30734634 -0.017700195 0.6273842q0.097206116 0.32003593 0.44673538 0.634449q0.20129204 0.1754837 1.222269 0.9248543q1.4893475 1.0582333 2.0438595 1.58288q0.5545101 0.52464676 0.7178745 1.2031479q0.17799759 0.68397903 -0.1229496 1.4889374q-0.29000282 0.77568436 -1.0062618 1.3083344q-0.7107868 0.518013 -1.7163849 0.57526016q-1.0001259 0.042606354 -2.0829487 -0.36286545q-1.7998314 -0.6739578 -2.471901 -1.7765274q-0.6574364 -1.0970955 -0.3736496 -2.6592827zm12.285625 6.135418l-0.3003254 1.4725685q-0.7077198 -0.11484909 -1.234499 -0.31210327q-0.84869957 -0.31780243 -1.2184563 -0.75658035q-0.36428452 -0.45341873 -0.39583015 -0.9490814q-0.026073456 -0.5102997 0.50468636 -1.9299507l1.980772 -5.298086l-1.1559868 -0.43286705l0.45962715 -1.2293911l1.1559868 0.43286705l0.8535919 -2.2831516l1.9012642 -0.3558693l-1.203785 3.2198315l1.5803375 0.59176826l-0.45962715 1.2293911l-1.5803356 -0.59176826l-2.0136032 5.3858967q-0.25170135 0.67324066 -0.24967003 0.89089966q0.016664505 0.2231369 0.16311646 0.41145325q0.14645195 0.18831635 0.4976368 0.3198204q0.24875641 0.09315109 0.71509933 0.18435287zm0.8901596 1.9350395l3.452671 -9.23506l1.4047451 0.52601624l-0.5252876 1.405016q0.9080181 -0.7778492 1.4765415 -0.9153366q0.5739937 -0.1521244 1.1300373 0.05609131q0.79016876 0.29588318 1.4180918 1.1149712l-1.0831146 1.2461891q-0.44482708 -0.55031204 -1.0301371 -0.7694855q-0.512146 -0.19177628 -1.0367699 -0.037849426q-0.5099907 0.15940475 -0.88803864 0.63517q-0.57527924 0.7355995 -0.9473591 1.7308197l-1.8056755 4.8297462l-1.5657043 -0.58628845zm11.876108 4.447094l0.50887203 -1.3611107q-1.6536684 1.1660156 -3.5120277 0.47014236q-0.804801 -0.3013649 -1.4068995 -0.8772011q-0.58199406 -0.58499146 -0.7580843 -1.1848335q-0.16145802 -0.59436417 -0.05061245 -1.3370285q0.08729935 -0.5012169 0.45937824 -1.4964371l2.139453 -5.722519l1.5657043 0.58628845l-1.9151115 5.1224594q-0.4596262 1.2293892 -0.5305109 1.6866989q-0.0834856 0.669487 0.26807308 1.201561q0.35155964 0.532074 1.0539312 0.7950821q0.70237255 0.26300812 1.4482698 0.14188385q0.7513695 -0.13575745 1.2299395 -0.65730286q0.49867535 -0.5307045 0.9418869 -1.7161865l1.8494501 -4.9468307l1.5657048 0.58628845l-3.4526725 9.235062l-1.4047441 -0.52601624zm10.966161 0.2522316l1.4598347 0.78022766q-0.8397055 1.4874954 -2.2178793 2.005867q-1.3727021 0.5037384 -2.8945086 -0.06611252q-1.8876252 -0.7068329 -2.5839858 -2.369091q-0.6762562 -1.6714134 0.18827963 -3.9838371q0.55811834 -1.4928322 1.456852 -2.4243202q0.91883826 -0.9406433 2.1364245 -1.118721q1.2376909 -0.18723297 2.422944 0.2565918q1.5071737 0.564373 2.1737716 1.6815796q0.6665981 1.1172104 0.41933274 2.6263351l-1.6093544 -0.33568192q0.13070059 -1.0188713 -0.25024813 -1.6954231q-0.38094875 -0.67655563 -1.1564847 -0.9669609q-1.185253 -0.44382477 -2.2488847 0.1255951q-1.0489991 0.57489777 -1.7329676 2.4043465q-0.69491196 1.8587189 -0.29526806 2.9760704q0.40511513 1.1027184 1.5464699 1.5301056q0.92186356 0.34519958 1.7443656 0.019180298q0.8279738 -0.34065628 1.4413066 -1.4457512zm5.392438 4.2716446l-0.30032444 1.4725723q-0.7077198 -0.11484909 -1.234499 -0.31210327q-0.84869957 -0.31780243 -1.2184563 -0.75658417q-0.364285 -0.45341492 -0.39583015 -0.9490776q-0.026073217 -0.5102997 0.5046861 -1.9299507l1.9807727 -5.298088l-1.1559877 -0.43286514l0.45962667 -1.229393l1.1559877 0.43286896l0.8535924 -2.2831535l1.9012642 -0.3558693l-1.203785 3.2198334l1.5803375 0.59176636l-0.45962715 1.229393l-1.580337 -0.5917702l-2.0136027 5.3858986q-0.2517004 0.67323685 -0.24966955 0.89089966q0.016664028 0.2231369 0.1631155 0.41145325q0.14645195 0.18831635 0.49763823 0.3198204q0.24875641 0.09314728 0.7150979 0.18434906zm5.0122924 -9.001423l0.66755295 -1.7855453l1.5657043 0.58629227l-0.66755295 1.7855415l-1.5657043 -0.58628845zm-4.0928674 10.947426l3.4526725 -9.235062l1.5657053 0.58628845l-3.452673 9.235062l-1.5657048 -0.58628845zm5.0052667 -3.3813705q0.9575567 -2.5612297 2.8566647 -3.26828q1.5682755 -0.5806656 3.2803068 0.060417175q1.9022579 0.7123146 2.6315746 2.4202805q0.74942017 1.6988106 -0.07134247 3.8941498q-0.66755295 1.7855453 -1.5919876 2.6072998q-0.9043293 0.8125992 -2.1420212 0.99983597q-1.2175856 0.1780777 -2.432104 -0.2767067q-1.9315233 -0.72327423 -2.6663113 -2.416607q-0.734787 -1.6933289 0.13522053 -4.0203896zm1.6096029 0.602726q-0.66208076 1.7709084 -0.21484947 2.9394493q0.44723034 1.168541 1.6178513 1.6068878q1.17062 0.43834686 2.2598286 -0.15486526q1.109312 -0.6023636 1.7878094 -2.417179q0.64019394 -1.7123642 0.19296265 -2.8809052q-0.4472313 -1.168541 -1.6032181 -1.6014099q-1.1706209 -0.43834686 -2.2744617 0.14938736q-1.1038408 0.5877304 -1.7659225 2.358635zm6.9689274 7.8651924l3.452673 -9.235062l1.4047432 0.52601624l-0.49245644 1.3172035q1.5933552 -1.138546 3.5102444 -0.42075348q0.8340683 0.3123207 1.4215336 0.882679q0.59293747 0.55571747 0.74345016 1.1793518q0.17061806 0.61447906 0.07071686 1.327877q-0.07635498 0.4719429 -0.4812641 1.5549774l-2.1230373 5.6786118l-1.5657063 -0.58628845l2.1011524 -5.6200714q0.3556633 -0.951313 0.3405323 -1.4908829q0.0049762726 -0.54872894 -0.35931015 -1.0021439q-0.36428452 -0.45341492 -0.9934921 -0.6890259q-0.99502754 -0.37259293 -1.9619503 -0.017230988q-0.9522896 0.36084366 -1.6198444 2.1463852l-1.8822803 5.034645l-1.5657043 -0.58628845zm32.74569 -2.253685l1.682766 0.63012314l-2.7468185 7.347069q-0.72227097 1.9319 -1.5825768 2.8944626q-0.8456764 0.96804047 -2.255146 1.2577896q-1.3893661 0.2806015 -3.2330933 -0.40979004q-1.7851944 -0.6684799 -2.6967354 -1.7105675q-0.911541 -1.0420837 -0.9566841 -2.3937492q-0.045139313 -1.3516655 0.7154312 -3.386013l2.7468185 -7.347069l1.682766 0.63012314l-2.7468147 7.347069q-0.618309 1.6538239 -0.6064949 2.5592117q0.011814117 0.9053879 0.5994034 1.6092682q0.60222244 0.7093582 1.6850471 1.1148262q1.8583565 0.6958809 2.960415 0.15753174q1.1075325 -0.5529785 2.004898 -2.9532166l2.7468185 -7.347069zm-0.70322037 14.252216l3.4526749 -9.235062l1.4047432 0.52601624l-0.49245834 1.3172035q1.5933571 -1.1385498 3.5102463 -0.42075348q0.8340683 0.3123207 1.4215317 0.8826752q0.59293747 0.5557213 0.74345016 1.1793556q0.17061996 0.61447906 0.07072067 1.327877q-0.076358795 0.4719429 -0.48126602 1.5549736l-2.1230392 5.6786118l-1.5657043 -0.58628845l2.1011505 -5.620064q0.3556633 -0.95131683 0.3405342 -1.4908867q0.0049743652 -0.54872894 -0.35931015 -1.0021439q-0.36428452 -0.45341492 -0.9934921 -0.6890259q-0.99502945 -0.37259674 -1.9619522 -0.017230988q-0.9522896 0.36084366 -1.6198425 2.1463852l-1.8822823 5.034645l-1.5657043 -0.58628845zm15.701614 5.8795776l0.43774414 -1.170845q-1.3923111 1.0469894 -3.0897064 0.41138458q-1.0974579 -0.4109497 -1.8096161 -1.3616867q-0.6920471 -0.9598923 -0.7992859 -2.234703q-0.0871315 -1.2839737 0.4436264 -2.703621q0.51434326 -1.3757477 1.3892822 -2.3328285q0.88957214 -0.95160294 2.0211487 -1.2119446q1.1462021 -0.25485992 2.2875595 0.17252731q0.8340683 0.31232452 1.3465881 0.9046669q0.5271454 0.5978279 0.72346497 1.3220329l1.7071915 -4.5663033l1.5510712 0.58081055l-4.7604218 12.732967l-1.4486465 -0.5424576zm-3.2222672 -6.462227q-0.6620827 1.7709045 -0.24411774 2.9284897q0.43260193 1.163063 1.4422607 1.5411377q1.024292 0.38355255 2.0531845 -0.18218994q1.0289001 -0.5657425 1.6745605 -2.2927399q0.7058563 -1.8879929 0.30252838 -3.0400925q-0.3978653 -1.1667404 -1.4660568 -1.5667343q-1.0389252 -0.38903046 -2.0586548 0.19682312q-1.0197372 0.5858612 -1.7037048 2.415306zm14.386406 7.25576l1.5329971 0.8076248q-0.90573883 1.262558 -2.2401352 1.6638489q-1.3142929 0.392128 -2.9238968 -0.2106018q-2.0193253 -0.75614166 -2.739479 -2.4440002q-0.7201538 -1.687851 0.12249756 -3.9417343q0.8700104 -2.327057 2.5367737 -3.1711655q1.6813965 -0.83862305 3.5982895 -0.12082672q1.8583603 0.69586945 2.5584106 2.3928833q0.70005035 1.6970062 -0.15901184 3.9947968q-0.04924774 0.1317215 -0.16784668 0.40431213l-6.877388 -2.5752869q-0.48126984 1.5549774 -0.00667572 2.6503448q0.4745865 1.0953598 1.6305771 1.5282288q0.84869385 0.31780243 1.612793 0.103385925q0.7842026 -0.22357178 1.5220947 -1.08181zm-4.1894836 -4.455208l5.150734 1.9287262q0.32983398 -1.1945648 0.065826416 -1.9608078q-0.40702057 -1.1868515 -1.6069107 -1.6361542q-1.0681915 -0.3999939 -2.0880508 0.052337646q-0.99974823 0.44317627 -1.5215988 1.6158981zm6.4595566 8.692215l3.4526749 -9.235062l1.404747 0.52601624l-0.52529144 1.405014q0.90802 -0.7778473 1.4765396 -0.9153366q0.5739975 -0.1521225 1.130043 0.05609131q0.79016876 0.29588318 1.4180908 1.114975l-1.0831146 1.2461853q-0.44483185 -0.5503082 -1.0301361 -0.7694855q-0.512146 -0.19177246 -1.0367737 -0.037849426q-0.5099869 0.15940857 -0.88803864 0.63517q-0.57527924 0.73560333 -0.9473572 1.7308197l-1.8056793 4.82975l-1.5657043 -0.58628845zm21.647606 3.0173187l1.524086 1.0545502q-1.3037643 1.8810043 -3.0896225 2.4636154q-1.7803879 0.5679779 -3.7704468 -0.17721558q-2.0632172 -0.772583 -3.039009 -2.088997q-0.97032166 -1.331047 -1.052475 -3.163742q-0.076690674 -1.8473282 0.6072769 -3.6767807q0.7441635 -1.9904404 2.0430756 -3.189186q1.3135529 -1.1932678 3.0028229 -1.4283066q1.6947479 -0.24967194 3.3775177 0.38045502q1.916893 0.7177963 2.8526 2.1860428q0.94117737 1.4536057 0.7967148 3.401657l-1.801239 -0.22400665q0.080833435 -1.5547638 -0.5325775 -2.501892q-0.6079483 -0.9617691 -1.8809967 -1.4384689q-1.4632721 -0.5479355 -2.7209473 -0.21802521q-1.2430344 0.3353958 -2.1014404 1.3820953q-0.838295 1.0375366 -1.3088608 2.2962036q-0.60736847 1.6245499 -0.59326935 3.0146408q0.034194946 1.3809357 0.80487823 2.353592q0.78531647 0.97813416 1.9413071 1.4110031q1.4193802 0.53149414 2.7007217 0.09365082q1.2868118 -0.4524765 2.2398834 -1.9308853zm2.7949753 0.8797531q0.9575577 -2.5612335 2.8566666 -3.26828q1.5682755 -0.5806656 3.280304 0.060417175q1.9022598 0.7123108 2.6315765 2.4202805q0.74942017 1.6988068 -0.07134247 3.8941498q-0.66755676 1.7855377 -1.5919876 2.6072998q-0.9043274 0.8125992 -2.1420212 0.99983215q-1.2175903 0.1780777 -2.432106 -0.2767105q-1.9315262 -0.7232666 -2.6663132 -2.416603q-0.734787 -1.6933289 0.13522339 -4.0203857zm1.6096039 0.60272217q-0.66207886 1.7709122 -0.21485138 2.9394455q0.4472351 1.168541 1.6178513 1.6068878q1.1706238 0.4383545 2.2598267 -0.15486145q1.109314 -0.6023636 1.7878113 -2.4171753q0.64019775 -1.7123642 0.19296265 -2.8809052q-0.44722748 -1.168541 -1.6032181 -1.6014099q-1.1706161 -0.43834686 -2.2744598 0.14938354q-1.1038437 0.5877304 -1.7659225 2.358635zm6.9689407 7.865196l3.4526749 -9.235062l1.4047394 0.52601624l-0.49245453 1.3172073q1.5933533 -1.1385498 3.5102463 -0.42075348q0.8340683 0.3123169 1.4215317 0.8826752q0.59293365 0.55571747 0.743454 1.1793518q0.17061615 0.61447906 0.07071686 1.3278809q-0.07635498 0.4719391 -0.48126984 1.5549774l-2.1230392 5.6786118l-1.5657043 -0.5862961l2.1011505 -5.620064q0.3556671 -0.95131683 0.34053802 -1.4908829q0.0049743652 -0.54872894 -0.35931396 -1.0021439q-0.3642807 -0.45341492 -0.9934921 -0.6890259q-0.99502563 -0.37259674 -1.9619522 -0.017234802q-0.95228577 0.36084747 -1.6198425 2.1463852l-1.8822784 5.034645l-1.5657043 -0.58628845zm10.116287 0.6514282l1.6440887 0.33200073q-0.21849823 0.98599243 0.1807785 1.702774q0.41937256 0.70762634 1.4875641 1.1076202q1.0828171 0.4054718 1.7591171 0.15818024q0.6909332 -0.24181366 0.9098053 -0.82723236q0.19697571 -0.526886 -0.14172363 -1.0040894q-0.24531555 -0.32544708 -1.397995 -1.1241302q-1.5625076 -1.0856323 -2.1207047 -1.6450272q-0.5381012 -0.5685501 -0.68135834 -1.2562103q-0.12315369 -0.6968155 0.12854767 -1.3700485q0.22981262 -0.6147003 0.7048187 -1.037468q0.48963928 -0.41729736 1.103836 -0.5877304q0.46431732 -0.12645721 1.16465 -0.08110809q0.7003479 0.04534912 1.4173584 0.31383514q1.0974426 0.4109497 1.7965088 1.039772q0.7045288 0.61418915 0.8825226 1.298172q0.19810486 0.6748276 0.010650635 1.6223907l-1.5984039 -0.3649521q0.16020203 -0.7408676 -0.20420837 -1.3278046q-0.34429932 -0.5960922 -1.2515259 -0.9358139q-1.0828247 -0.4054718 -1.673233 -0.20944214q-0.58493805 0.18139648 -0.76003265 0.6497345q-0.11490631 0.30735016 -0.017707825 0.627388q0.097206116 0.32003784 0.44673157 0.6344452q0.20129395 0.1754837 1.2222748 0.9248581q1.4893494 1.0582352 2.0438538 1.5828781q0.55451965 0.52464294 0.71788025 1.2031479q0.17799377 0.68398285 -0.12294006 1.4889374q-0.29000854 0.7756882 -1.0062714 1.3083344q-0.7107849 0.518013 -1.7163849 0.57525635q-1.0001221 0.04261017 -2.0829468 -0.36286163q-1.7998276 -0.6739578 -2.471901 -1.7765274q-0.65743256 -1.0970917 -0.3736496 -2.6592789zm12.285629 6.135414l-0.3003235 1.4725723q-0.70773315 -0.114852905 -1.2345123 -0.3121109q-0.84869385 -0.3177948 -1.2184448 -0.75657654q-0.36428833 -0.45341492 -0.39582825 -0.9490814q-0.02607727 -0.5102997 0.50468445 -1.9299545l1.9807739 -5.2980804l-1.1559906 -0.43286896l0.45962524 -1.229393l1.1559906 0.43286896l0.8535919 -2.2831497l1.9012604 -0.3558731l-1.2037811 3.2198334l1.5803375 0.59176636l-0.45962524 1.229393l-1.5803375 -0.59176636l-2.0136108 5.385895q-0.25169373 0.67324066 -0.2496643 0.89089966q0.016662598 0.2231369 0.16311646 0.41145325q0.14645386 0.18831635 0.4976349 0.31982422q0.24876404 0.09314728 0.71510315 0.18434906zm0.89016724 1.9350433l3.4526672 -9.235062l1.4047546 0.52601624l-0.5252838 1.4050217q0.90800476 -0.7778473 1.476532 -0.9153366q0.57398987 -0.1521225 1.1300354 0.05609131q0.7901764 0.29588318 1.4180908 1.1149673l-1.0831146 1.2461929q-0.44482422 -0.55031586 -1.0301361 -0.7694855q-0.512146 -0.19178009 -1.0367584 -0.037849426q-0.5099945 0.15940094 -0.88804626 0.63517q-0.5752716 0.7355957 -0.9473572 1.7308197l-1.8056793 4.8297424l-1.5657043 -0.58628845zm11.876114 4.447098l0.50886536 -1.3611145q-1.6536713 1.1660156 -3.512024 0.47014618q-0.8047943 -0.3013687 -1.4069061 -0.8772049q-0.5819855 -0.58499146 -0.7580719 -1.1848297q-0.1614685 -0.594368 -0.050613403 -1.3370285q0.08729553 -0.5012207 0.45936584 -1.4964371l2.1394653 -5.722519l1.5657043 0.58628845l-1.9151154 5.1224594q-0.45962524 1.2293854 -0.5305176 1.6866989q-0.083480835 0.669487 0.26808167 1.201561q0.3515625 0.532074 1.0539246 0.7950821q0.7023773 0.26300812 1.4482727 0.14188385q0.7513733 -0.13575745 1.2299347 -0.65730286q0.49868774 -0.5307083 0.94189453 -1.7161865l1.8494415 -4.9468307l1.5657043 0.58628845l-3.4526672 9.235062l-1.4047394 -0.52601624zm10.966141 0.25222015l1.4598389 0.78022766q-0.8397064 1.4874954 -2.2178802 2.0058746q-1.3726959 0.5037384 -2.894516 -0.06611633q-1.887619 -0.7068329 -2.5839844 -2.3690872q-0.6762543 -1.6714172 0.1882782 -3.983841q0.5581207 -1.4928284 1.4568634 -2.4243164q0.9188385 -0.9406433 2.1364136 -1.118721q1.2377014 -0.1872406 2.422943 0.2565918q1.5071869 0.5643692 2.1737823 1.6815796q0.66659546 1.1172028 0.41932678 2.6263275l-1.6093597 -0.3356781q0.13070679 -1.0188675 -0.25024414 -1.6954193q-0.38095093 -0.67655945 -1.1564789 -0.9669647q-1.185257 -0.44382477 -2.248886 0.1255951q-1.048996 0.57489777 -1.7329712 2.4043427q-0.6949158 1.8587265 -0.29527283 2.9760742q0.40512085 1.1027222 1.5464783 1.5301056q0.92185974 0.34519958 1.7443695 0.019180298q0.8279724 -0.3406601 1.4412994 -1.445755zm5.392441 4.271652l-0.3003235 1.4725723q-0.7077179 -0.114852905 -1.2344971 -0.3121109q-0.8487091 -0.31780243 -1.2184601 -0.75657654q-0.36428833 -0.45341492 -0.39582825 -0.9490814q-0.02607727 -0.5102997 0.50468445 -1.9299545l1.9807739 -5.2980804l-1.1559906 -0.43286896l0.45962524 -1.229393l1.1559906 0.43286896l0.8535919 -2.2831497l1.9012604 -0.3558731l-1.2037811 3.2198334l1.5803375 0.59176636l-0.45962524 1.229393l-1.5803375 -0.59176636l-2.0136108 5.385895q-0.25169373 0.67324066 -0.2496643 0.89089966q0.016662598 0.2231369 0.16311646 0.41145325q0.14645386 0.18831635 0.4976349 0.31982422q0.24876404 0.09314728 0.71510315 0.18434906zm5.0122833 -9.001434l0.6675415 -1.7855377l1.5657043 0.58628845l-0.6675415 1.7855377l-1.5657043 -0.58628845zm-4.0928802 10.947426l3.4526825 -9.235062l1.5657043 0.58628845l-3.4526825 9.235062l-1.5657043 -0.58628845zm5.005295 -3.381363q0.95755005 -2.561226 2.856659 -3.26828q1.5682678 -0.5806656 3.280304 0.060417175q1.9022675 0.7123184 2.6315765 2.4202805q0.74942017 1.6988144 -0.0713501 3.8941498q-0.6675415 1.7855453 -1.59198 2.6072998q-0.9043274 0.8125992 -2.1420135 0.99983215q-1.2175903 0.1780777 -2.4321136 -0.27670288q-1.9315186 -0.72327423 -2.6663055 -2.416603q-0.734787 -1.6933365 0.13522339 -4.0203934zm1.6096039 0.6027298q-0.6620941 1.7709045 -0.21485901 2.9394455q0.4472351 1.168541 1.6178589 1.6068878q1.1706085 0.43834686 2.2598267 -0.15486145q1.109314 -0.6023712 1.7878113 -2.417183q0.6401825 -1.7123642 0.19296265 -2.8809052q-0.4472351 -1.168541 -1.6032257 -1.6014099q-1.1706238 -0.43834686 -2.2744598 0.14938354q-1.103836 0.5877304 -1.7659149 2.3586426zm6.968933 7.865196l3.4526672 -9.235062l1.4047546 0.52601624l-0.49246216 1.3171997q1.5933533 -1.1385422 3.5102386 -0.42075348q0.8340759 0.31232452 1.4215393 0.8826828q0.5929413 0.55571747 0.743454 1.1793518q0.17060852 0.61447906 0.07070923 1.3278732q-0.07635498 0.47194672 -0.4812622 1.5549774l-2.1230316 5.6786118l-1.5657043 -0.58628845l2.1011505 -5.6200714q0.3556671 -0.9513092 0.3405304 -1.4908829q0.0049743652 -0.54872894 -0.35931396 -1.0021439q-0.36428833 -0.45341492 -0.9934845 -0.6890259q-0.99502563 -0.3725891 -1.9619598 -0.017227173q-0.95228577 0.36083984 -1.6198425 2.1463852l-1.8822784 5.034645l-1.5657043 -0.58628845z" fill-rule="nonzero"></path><path fill="#ffe600" d="m218.81062 102.04673l3.1567535 1.1801987l-13.434433 35.933884l-3.1567535 -1.1802063z" fill-rule="nonzero"></path><path fill="#ffe600" d="m251.88515 103.29039l243.12785 271.2624l-29.209381 26.207214l-243.12785 -271.2624z" fill-rule="nonzero"></path><path stroke="#434343" stroke-width="1.0" stroke-linejoin="round" stroke-linecap="butt" stroke-dasharray="8.0,3.0" d="m251.88515 103.29039l243.12785 271.2624l-29.209381 26.207214l-243.12785 -271.2624z" fill-rule="nonzero"></path><path fill="#000000" d="m255.18985 126.37672l1.1992798 1.3380814l-5.838272 5.238205q-1.5351715 1.3773804 -2.7435303 1.8318024q-1.1979523 0.46603394 -2.581253 0.06976318q-1.3612518 -0.39505005 -2.6752625 -1.8611298q-1.2722931 -1.4195251 -1.5972748 -2.765335q-0.32496643 -1.3458252 0.2612915 -2.5645752q0.58625793 -1.2187424 2.202835 -2.6691666l5.838272 -5.2382126l1.199295 1.3380737l-5.838272 5.2382126q-1.3141937 1.1791229 -1.7232208 1.9869461q-0.4090271 0.80781555 -0.21443176 1.7038269q0.20501709 0.9076538 0.9767456 1.7686768q1.3244324 1.4776917 2.5504913 1.5112305q1.2376862 0.023101807 3.1450195 -1.6881866l5.8382874 -5.2382126zm-7.2266083 12.304329l7.338562 -6.5842896l1.0011444 1.1170044l-1.0466919 0.93911743q1.9395142 -0.27072144 3.305664 1.2535248q0.5944519 0.66322327 0.85079956 1.4408417q0.26797485 0.76719666 0.11239624 1.3895874q-0.13348389 0.6235962 -0.55255127 1.2095184q-0.28634644 0.38285828 -1.1469727 1.155014l-4.512451 4.0486755l-1.11586 -1.2449951l4.465927 -4.0069275q0.7559509 -0.6782532 0.9925537 -1.1634216q0.25863647 -0.48397827 0.14590454 -1.0545654q-0.11276245 -0.5706024 -0.56118774 -1.0709229q-0.70913696 -0.791214 -1.7306671 -0.9242859q-1.0110931 -0.1214447 -2.4299622 1.1515808l-4.0007324 3.5895386l-1.1158752 -1.2449951zm11.190445 12.485367l0.9303894 -0.8347626q-1.7189331 0.2827301 -2.9286804 -1.0669861q-0.782135 -0.87265015 -0.9727478 -2.0451508q-0.16851807 -1.1712952 0.3270874 -2.3506927q0.5176697 -1.1782074 1.6457825 -2.1903687q1.0932312 -0.9808655 2.3120422 -1.423645q1.2292175 -0.43113708 2.3526306 -0.13755798q1.1338501 0.3052063 1.9472656 1.2127838q0.5944519 0.663208 0.7741699 1.4256134q0.19018555 0.77401733 0.028625488 1.5067596l3.6285706 -3.2556152l1.1054382 1.2333527l-10.118164 9.078186l-1.0324097 -1.1519165zm0.1385498 -7.2197113q-1.4072266 1.2626038 -1.5731506 2.4821014q-0.15551758 1.2311249 0.5640564 2.033966q0.730011 0.81448364 1.9039307 0.7898407q1.1739197 -0.024642944 2.5462646 -1.2559357q1.5002747 -1.3460693 1.6766357 -2.5539246q0.18798828 -1.2182922 -0.5733032 -2.067688q-0.7404175 -0.82611084 -1.9155579 -0.7794037q-1.1751099 0.046707153 -2.6288757 1.3510437zm9.387299 13.095566l0.9843445 1.4259796q-1.3876343 0.69921875 -2.7561035 0.4365692q-1.346405 -0.2614441 -2.4935303 -1.541336q-1.4391785 -1.6056976 -1.2953491 -3.4351196q0.14385986 -1.829422 1.9348755 -3.4363556q1.8491821 -1.6591187 3.7173462 -1.634903q1.8786011 0.035858154 3.244751 1.5601044q1.3244324 1.4776917 1.1585388 3.3059082q-0.16589355 1.8282318 -1.9918213 3.4664764q-0.104644775 0.09390259 -0.33605957 0.28053284l-4.9014587 -5.4686584q-1.1469727 1.155014 -1.2338867 2.3455963q-0.08694458 1.1905975 0.7369385 2.1098022q0.6048584 0.67485046 1.3813171 0.8388672q0.79855347 0.16520691 1.8500977 -0.25346375zm-1.648468 -5.8892517l3.6708984 4.095688q0.84576416 -0.90579224 0.9668274 -1.7071533q0.18920898 -1.2403564 -0.6659546 -2.194458q-0.7612915 -0.84939575 -1.8746643 -0.9210663q-1.0912781 -0.07046509 -2.097107 0.72698975zm1.6970825 10.695816l7.3385315 -6.5842896l1.0011597 1.1170044l-1.1164856 1.0017242q1.1650696 -0.26860046 1.732605 -0.12704468q0.5791321 0.13114929 0.97543335 0.57328796q0.56314087 0.62831116 0.7401123 1.6451111l-1.5372314 0.6025238q-0.13925171 -0.69377136 -0.5563965 -1.159195q-0.36499023 -0.40724182 -0.9012146 -0.51390076q-0.5258179 -0.09503174 -1.0812683 0.15142822q-0.850647 0.3853302 -1.6414795 1.0948944l-3.8379211 3.443451l-1.1158447 -1.2449951zm17.785858 12.703796l0.8619995 1.640686q-2.026886 1.062851 -3.879425 0.75172424q-1.8409119 -0.32156372 -3.2592163 -1.9039917q-1.470459 -1.6405945 -1.7252502 -3.2592926q-0.24319458 -1.6291351 0.5331421 -3.2913055q0.78796387 -1.6726227 2.2416992 -2.9769592q1.5816956 -1.4191132 3.2881775 -1.8796082q1.7169495 -0.4488678 3.3228455 0.12553406q1.6175537 0.56396484 2.8168335 1.9020386q1.3661804 1.5242462 1.5151062 3.2589264q0.16055298 1.7242432 -0.87002563 3.3836517l-1.4924622 -1.0330658q0.7919922 -1.3403625 0.68722534 -2.463913q-0.09313965 -1.1339874 -1.0004272 -2.1462708q-1.0428772 -1.1635437 -2.3102722 -1.4538879q-1.256958 -0.27870178 -2.5026245 0.2511444q-1.2236023 0.53105164 -2.2237854 1.4284363q-1.2909241 1.1582489 -1.9225159 2.3966675q-0.6094971 1.2396088 -0.37719727 2.4586487q0.24273682 1.2306671 1.0666199 2.1498718q1.0115662 1.1286316 2.349945 1.3343048q1.3500061 0.1952362 2.8796082 -0.67333984zm2.0692444 2.0746155q2.0352478 -1.8260803 4.045807 -1.5727539q1.658844 0.21205139 2.8789978 1.5733948q1.3557129 1.5126038 1.2106934 3.3641052q-0.12298584 1.8526917 -1.8674927 3.4178925q-1.4188538 1.2730255 -2.6188354 1.5729523q-1.177887 0.30111694 -2.3614807 -0.106414795q-1.161499 -0.4063263 -2.0270996 -1.3720703q-1.3765869 -1.5358887 -1.2431641 -3.3769379q0.13339233 -1.8410492 1.9825745 -3.5001678zm1.1471558 1.279892q-1.4072266 1.2626038 -1.5523071 2.5053558q-0.14511108 1.2427673 0.689209 2.1735992q0.83428955 0.9308319 2.0743713 0.9098053q1.262146 -0.019836426 2.7042847 -1.313736q1.3607178 -1.220871 1.5057983 -2.463623q0.14508057 -1.2427673 -0.6788025 -2.161972q-0.83428955 -0.9308319 -2.0848083 -0.9214325q-1.2505188 0.009414673 -2.6577454 1.2720032zm2.5316467 10.198929l7.3385315 -6.5842896l1.0011597 1.1169891l-1.0466919 0.9391327q1.9395142 -0.2707367 3.305664 1.2535095q0.5944519 0.66322327 0.85079956 1.4408569q0.26797485 0.76719666 0.11239624 1.3895874q-0.13348389 0.6235962 -0.55255127 1.2095184q-0.28634644 0.38284302 -1.1469727 1.155014l-4.512451 4.0486603l-1.1158752 -1.2449951l4.4659424 -4.006912q0.7559509 -0.6782532 0.9925537 -1.1634369q0.25863647 -0.483963 0.14590454 -1.0545654q-0.11276245 -0.57058716 -0.56118774 -1.0709076q-0.70913696 -0.791214 -1.7306824 -0.92430115q-1.0110779 -0.1214447 -2.4299622 1.1515961l-4.0007324 3.5895386l-1.1158447 -1.2449951zm8.663116 5.2644196l1.3031311 1.0559692q-0.65045166 0.77253723 -0.62872314 1.5927429q0.043792725 0.8213959 0.8050842 1.6707764q0.771698 0.86102295 1.4855957 0.9552307q0.7243347 0.10583496 1.1895447 -0.31155396q0.41870117 -0.37565613 0.33963013 -0.95547485q-0.06661987 -0.4020691 -0.7180481 -1.6439209q-0.88168335 -1.6860199 -1.117157 -2.440384q-0.21343994 -0.75315857 -0.02178955 -1.4289246q0.2137146 -0.67456055 0.74871826 -1.1545563q0.48843384 -0.43826294 1.1052856 -0.5928345q0.6272278 -0.14294434 1.2505188 -0.009399414q0.47003174 0.10305786 1.0696716 0.46772766q0.5996094 0.3646698 1.1106262 0.93481445q0.782135 0.87265015 1.1102905 1.7537994q0.3397827 0.8707123 0.18060303 1.5593262q-0.13711548 0.6898041 -0.74224854 1.4426727l-1.247406 -1.0639954q0.48526 -0.58232117 0.43426514 -1.271286q-0.028930664 -0.6877899 -0.6755066 -1.4091797q-0.7717285 -0.86102295 -1.3857727 -0.9608612q-0.602417 -0.11026001 -0.97457886 0.22364807q-0.24423218 0.21913147 -0.30636597 0.54777527q-0.06213379 0.32865906 0.10192871 0.7692261q0.097076416 0.2487793 0.6546631 1.38591q0.8295288 1.6278381 1.0778503 2.349701q0.24832153 0.72184753 0.07873535 1.398819q-0.15917969 0.6886139 -0.7988281 1.2625122q-0.61639404 0.55303955 -1.4979248 0.6932068q-0.86990356 0.12973022 -1.7875671 -0.28546143q-0.9060364 -0.4256134 -1.6777649 -1.2866364q-1.2827148 -1.4311676 -1.3674622 -2.719635q-0.074279785 -1.2768402 0.901001 -2.5297546zm8.044678 11.129379l-0.9484253 1.1658325q-0.5739746 -0.4296875 -0.94940186 -0.8485565q-0.6048584 -0.6748657 -0.7292175 -1.2350159q-0.11276245 -0.5706024 0.08892822 -1.0244751q0.21334839 -0.46429443 1.3414612 -1.4764557l4.210083 -3.777359l-0.82388306 -0.9192047l0.9769287 -0.8765106l0.82385254 0.9192047l1.8143005 -1.6278229l1.849762 0.5655365l-2.5586243 2.295639l1.1263123 1.2566223l-0.9769287 0.8765259l-1.1262817 -1.2566376l-4.2798767 3.8399658q-0.53497314 0.47999573 -0.6340332 0.6738281q-0.08859253 0.2054596 -0.046081543 0.4402008q0.042541504 0.23474121 0.29281616 0.5139923q0.17730713 0.19779968 0.5483093 0.49468994zm-0.10769653 2.127243l7.3385315 -6.5842896l1.0011597 1.1170044l-1.1164856 1.0017242q1.1650696 -0.26860046 1.732605 -0.12702942q0.5791321 0.13113403 0.97543335 0.5732727q0.56314087 0.62831116 0.7401123 1.6451111l-1.5372314 0.6025238q-0.13925171 -0.69377136 -0.5563965 -1.159195q-0.36499023 -0.40724182 -0.9012146 -0.51390076q-0.5258179 -0.09503174 -1.0812683 0.15142822q-0.850647 0.3853302 -1.6414795 1.0948944l-3.8379211 3.443451l-1.1158447 -1.2449951zm8.46402 9.443466l1.0815735 -0.97042847q-2.0057068 0.26712036 -3.3301392 -1.2105713q-0.5735779 -0.6399536 -0.84036255 -1.4292145q-0.24468994 -0.7880707 -0.12283325 -1.4012299q0.1322937 -0.601532 0.574646 -1.208313q0.3095703 -0.40371704 1.1004333 -1.1132812l4.547333 -4.0799713l1.1158752 1.2449951l-4.070526 3.6521454q-0.9769287 0.8765106 -1.2516174 1.2489319q-0.3841858 0.5546112 -0.31915283 1.1890106q0.06503296 0.6344147 0.5656128 1.1929169q0.5005493 0.5585022 1.2176819 0.7967529q0.72875977 0.22781372 1.3945007 -0.012634277q0.6878052 -0.23925781 1.6298523 -1.0844574l3.9309387 -3.5269318l1.1158752 1.2449951l-7.338562 6.5842896l-1.0011292 -1.1170044zm9.601196 5.304428l0.93218994 1.3677979q-1.4333191 0.92915344 -2.8948364 0.74998474q-1.4498596 -0.18960571 -2.5344238 -1.3996887q-1.3453064 -1.5009766 -1.1922607 -3.296692q0.17514038 -1.7945099 2.0126648 -3.4431915q1.1862793 -1.064331 2.4143066 -1.4734039q1.2500916 -0.40786743 2.411621 -0.0015411377q1.1835632 0.40753174 2.0282898 1.3500061q1.0741577 1.1984406 1.1472473 2.4973602q0.0730896 1.2989044 -0.84524536 2.5217133l-1.2706604 -1.0431366q0.5878906 -0.8423462 0.56378174 -1.6184082q-0.024139404 -0.776062 -0.57684326 -1.3927307q-0.84472656 -0.94247437 -2.0511475 -0.9306793q-1.1959534 0.0234375 -2.6497192 1.327774q-1.4770203 1.3252106 -1.640564 2.5005646q-0.15188599 1.164917 0.66152954 2.0724792q0.65701294 0.7330322 1.5369568 0.8251953q0.89157104 0.08174133 1.947113 -0.6134033zm2.7995605 6.2839355l-0.9484253 1.1658325q-0.5739746 -0.4296875 -0.94940186 -0.8485718q-0.6048584 -0.67485046 -0.7292175 -1.2350159q-0.11276245 -0.57058716 0.08892822 -1.0244598q0.21334839 -0.46429443 1.3414612 -1.4764557l4.210083 -3.777359l-0.82388306 -0.9192047l0.9769287 -0.8765106l0.82385254 0.91918945l1.8143005 -1.6278076l1.849762 0.5655365l-2.5586243 2.295639l1.1263123 1.2566223l-0.9769287 0.8765106l-1.1262817 -1.2566223l-4.2798767 3.8399658q-0.53497314 0.47999573 -0.6340332 0.6738281q-0.08859253 0.2054596 -0.046081543 0.4402008q0.042541504 0.23474121 0.29281616 0.5139923q0.17730713 0.19779968 0.5483093 0.49468994zm8.612427 -5.6546326l1.4188538 -1.2730408l1.1158752 1.2449951l-1.4188538 1.2730408l-1.1158752 -1.2449951zm-8.69928 7.8051453l7.338562 -6.5842896l1.1158752 1.2449951l-7.338562 6.5842896l-1.1158752 -1.2449951zm6.002289 -0.6774597q2.0352478 -1.8260651 4.045807 -1.5727539q1.658844 0.21205139 2.8789978 1.5733948q1.3557129 1.512619 1.2106934 3.3641052q-0.12298584 1.8526917 -1.8674927 3.4178925q-1.4188538 1.2730255 -2.6188354 1.5729523q-1.177887 0.30111694 -2.3614807 -0.106414795q-1.161499 -0.4063263 -2.0270996 -1.3720703q-1.3765869 -1.5358734 -1.2431641 -3.3769379q0.13339233 -1.8410492 1.9825745 -3.5001678zm1.1471558 1.279892q-1.4072266 1.2626038 -1.5523376 2.505371q-0.14508057 1.2427521 0.689209 2.173584q0.83432007 0.93084717 2.0744019 0.9098053q1.262146 -0.019836426 2.7042847 -1.313736q1.3607178 -1.2208557 1.5057983 -2.463623q0.14508057 -1.2427673 -0.6788025 -2.1619568q-0.83428955 -0.93084717 -2.0848083 -0.9214325q-1.2505188 0.009399414 -2.6577454 1.2719879zm2.5316467 10.198929l7.3385315 -6.5842896l1.0011597 1.1170044l-1.0466919 0.93911743q1.9395142 -0.27072144 3.305664 1.2535248q0.5944519 0.663208 0.85079956 1.4408417q0.26797485 0.76719666 0.11239624 1.3895874q-0.13348389 0.6235962 -0.55255127 1.2095184q-0.28634644 0.38285828 -1.1469727 1.155014l-4.512451 4.0486603l-1.1158752 -1.2449799l4.4659424 -4.0069275q0.7559509 -0.6782532 0.9925537 -1.1634216q0.25863647 -0.48397827 0.14590454 -1.0545654q-0.11276245 -0.5706024 -0.56118774 -1.0709229q-0.70913696 -0.791214 -1.7306824 -0.9242859q-1.0110779 -0.1214447 -2.4299622 1.1515808l-4.0007324 3.5895386l-1.1158447 -1.2449951zm30.063019 13.174713l1.1993103 1.338089l-5.8382874 5.238205q-1.5351868 1.3773804 -2.7435303 1.8317871q-1.1979675 0.46603394 -2.5812683 0.0697937q-1.3612366 -0.39508057 -2.6752625 -1.861145q-1.2722778 -1.4195251 -1.5972595 -2.7653503q-0.3249817 -1.3458252 0.2612915 -2.56456q0.5862427 -1.21875 2.2028198 -2.6691742l5.8382874 -5.238205l1.1992798 1.3380737l-5.838257 5.23822q-1.314209 1.1791077 -1.7232361 1.9869385q-0.4090271 0.80781555 -0.2144165 1.7038116q0.20501709 0.9076538 0.9767456 1.7686768q1.3244324 1.4777222 2.550476 1.511261q1.2377014 0.023101807 3.1450195 -1.6882019l5.8382874 -5.23822zm-7.226593 12.304321l7.338562 -6.5842896l1.0011292 1.1170044l-1.0466919 0.93914795q1.9395447 -0.27075195 3.3056946 1.2535095q0.5944214 0.663208 0.85076904 1.4408569q0.26797485 0.7671814 0.11242676 1.3895874q-0.1335144 0.6235962 -0.5525818 1.2095032q-0.28631592 0.38284302 -1.1469421 1.1550293l-4.5124817 4.048645l-1.1158447 -1.2449951l4.4659424 -4.0069275q0.7559509 -0.6782532 0.9925232 -1.1634216q0.258667 -0.48394775 0.14590454 -1.0545654q-0.11273193 -0.57058716 -0.56118774 -1.0709229q-0.70913696 -0.79119873 -1.7306519 -0.9242859q-1.0111084 -0.12142944 -2.4299622 1.1516113l-4.0007324 3.589508l-1.1158752 -1.2449951zm11.19043 12.485382l0.9303894 -0.83477783q-1.7189331 0.28274536 -2.92865 -1.0669861q-0.7821655 -0.87265015 -0.9727478 -2.0451355q-0.16854858 -1.1712952 0.32705688 -2.350708q0.5177002 -1.1781921 1.645813 -2.1903687q1.0932007 -0.9808655 2.3120117 -1.4236145q1.2292175 -0.43115234 2.3526306 -0.13757324q1.1338501 0.3052063 1.9472961 1.2127686q0.5944214 0.6632385 0.7741699 1.4256287q0.19015503 0.77401733 0.02859497 1.5067749l3.6285706 -3.2556458l1.1054382 1.2333679l-10.118134 9.078186l-1.0324402 -1.1519165zm0.13858032 -7.219696q-1.4072571 1.2625732 -1.5731812 2.4820862q-0.15551758 1.2311096 0.5640564 2.033966q0.730011 0.81448364 1.9039307 0.78982544q1.1739197 -0.024627686 2.5462646 -1.2559204q1.5002747 -1.3460693 1.6766357 -2.5539246q0.18798828 -1.2182922 -0.5733032 -2.067688q-0.7404175 -0.82611084 -1.9155273 -0.7793884q-1.1751404 0.046691895 -2.6288757 1.3510437zm9.387268 13.095551l0.9843445 1.4259949q-1.3876343 0.69918823 -2.756073 0.43655396q-1.346405 -0.2614441 -2.4935608 -1.5413513q-1.439148 -1.6056824 -1.2953186 -3.4351196q0.14382935 -1.8294067 1.934845 -3.4363403q1.8491821 -1.6591187 3.7173462 -1.6349182q1.8786011 0.035858154 3.244751 1.5601196q1.3244324 1.4776917 1.1585388 3.3059082q-0.16589355 1.8282166 -1.9917908 3.4664612q-0.10467529 0.093933105 -0.3360901 0.2805481l-4.9014587 -5.4686584q-1.1469421 1.1550293 -1.2338867 2.3456116q-0.08694458 1.1905823 0.7369385 2.1097717q0.6048584 0.6748657 1.3813171 0.8388672q0.79855347 0.16522217 1.8500977 -0.2534485zm-1.6484375 -5.8892517l3.670868 4.0956726q0.84576416 -0.90579224 0.9668274 -1.7071228q0.18920898 -1.240387 -0.6659546 -2.1944885q-0.7612915 -0.84936523 -1.8746338 -0.921051q-1.0913086 -0.07046509 -2.097107 0.72698975zm1.697052 10.695801l7.338562 -6.5842896l1.0011292 1.1170044l-1.1164856 1.0017395q1.1651001 -0.26861572 1.732605 -0.12704468q0.5791626 0.13113403 0.97543335 0.5732727q0.56314087 0.6283264 0.7401123 1.6451416l-1.5372314 0.60250854q-0.13922119 -0.6937866 -0.55636597 -1.1592102q-0.36502075 -0.40722656 -0.9012451 -0.5138855q-0.5258179 -0.09503174 -1.0812683 0.15142822q-0.85061646 0.38534546 -1.6414795 1.0948792l-3.8378906 3.443451l-1.1158752 -1.2449951zm17.785858 12.703827l0.86203 1.6406555q-2.0269165 1.0628662 -3.8794556 0.7517395q-1.8409119 -0.32156372 -3.2592163 -1.9039917q-1.4704285 -1.6405945 -1.7252502 -3.2593079q-0.24319458 -1.6291199 0.5331421 -3.2912903q0.78796387 -1.6726074 2.2417297 -2.9769592q1.581665 -1.4191284 3.2881775 -1.8796082q1.716919 -0.44885254 3.322815 0.12554932q1.6175537 0.56396484 2.816864 1.9020386q1.3661499 1.524231 1.5150757 3.2589111q0.1605835 1.7242432 -0.87002563 3.3836365l-1.4924622 -1.0330505q0.7919922 -1.3403625 0.68722534 -2.4638977q-0.09313965 -1.1340027 -1.0004272 -2.1462708q-1.0428772 -1.1635437 -2.3102417 -1.4538879q-1.2569885 -0.27871704 -2.502655 0.25112915q-1.2236023 0.5310669 -2.2237854 1.4284363q-1.2909241 1.1582642 -1.9225159 2.3966675q-0.6094971 1.239624 -0.37719727 2.4586487q0.24276733 1.2306519 1.0666199 2.1498718q1.0115662 1.1286316 2.349945 1.3342896q1.3500061 0.19525146 2.8796082 -0.6733093zm2.0692444 2.074585q2.0352783 -1.8260498 4.0458374 -1.5727234q1.6588135 0.21203613 2.8789673 1.5733643q1.3557129 1.5126343 1.2106934 3.3641052q-0.12298584 1.8526917 -1.8674927 3.4179077q-1.4188538 1.2730408 -2.618805 1.572937q-1.1779175 0.30111694 -2.3615112 -0.106414795q-1.161499 -0.40631104 -2.027069 -1.3720703q-1.3765869 -1.5358582 -1.2431946 -3.3769226q0.13339233 -1.8410645 1.9825745 -3.500183zm1.1471558 1.2799072q-1.4072266 1.2626038 -1.5523071 2.505371q-0.14508057 1.2427368 0.689209 2.173584q0.83428955 0.93084717 2.0743713 0.90979004q1.262146 -0.019836426 2.7042847 -1.3137207q1.3607178 -1.2208557 1.5057983 -2.463623q0.14508057 -1.2427673 -0.678772 -2.1619568q-0.83428955 -0.93084717 -2.0848083 -0.92144775q-1.2505493 0.009399414 -2.6577759 1.2720032zm2.5316467 10.198944l7.338562 -6.5842896l1.0011597 1.1170044l-1.0467224 0.93911743q1.9395447 -0.27072144 3.3056946 1.2535095q0.5944214 0.663208 0.85076904 1.4408569q0.26797485 0.7671814 0.11242676 1.3895874q-0.1335144 0.6235962 -0.5525818 1.2095032q-0.28631592 0.38287354 -1.1469421 1.1550293l-4.512451 4.048645l-1.1158752 -1.2449951l4.4659424 -4.006897q0.7559509 -0.6782532 0.9925232 -1.1634521q0.258667 -0.48394775 0.14590454 -1.0545349q-0.11273193 -0.5706177 -0.5611572 -1.0709229q-0.7091675 -0.79122925 -1.7306824 -0.9242859q-1.0111084 -0.12145996 -2.4299622 1.1515808l-4.0007324 3.5895386l-1.1158752 -1.2449951zm8.663116 5.2644043l1.3031616 1.0559692q-0.6504822 0.7725525 -0.62875366 1.5927429q0.043792725 0.8213806 0.8050842 1.6707764q0.7717285 0.86102295 1.4856262 0.9552307q0.7243347 0.10583496 1.1895142 -0.31155396q0.41870117 -0.37564087 0.33963013 -0.95547485q-0.066589355 -0.4020691 -0.7180481 -1.6439209q-0.88168335 -1.6860046 -1.117157 -2.4403687q-0.21343994 -0.7531738 -0.021759033 -1.4289246q0.21368408 -0.67459106 0.74868774 -1.1545715q0.48846436 -0.43826294 1.1052856 -0.5928345q0.6272583 -0.14294434 1.2505188 -0.009399414q0.47006226 0.10305786 1.0696716 0.4677124q0.5996399 0.36468506 1.1106262 0.93481445q0.7821655 0.87268066 1.1102905 1.7538147q0.3397827 0.87072754 0.18060303 1.5593262q-0.13708496 0.6897888 -0.74224854 1.442688l-1.247406 -1.0640259q0.48526 -0.5823059 0.43426514 -1.2712708q-0.028930664 -0.68777466 -0.6755066 -1.4091797q-0.7717285 -0.86102295 -1.3857727 -0.96084595q-0.602417 -0.11029053 -0.97457886 0.22363281q-0.24420166 0.21911621 -0.30636597 0.5477905q-0.06213379 0.3286438 0.10195923 0.76919556q0.097076416 0.2487793 0.65463257 1.3859253q0.8295288 1.6278381 1.0778503 2.349701q0.24832153 0.7218628 0.07873535 1.3988037q-0.15917969 0.68862915 -0.7988281 1.2625427q-0.61639404 0.55303955 -1.4979248 0.69317627q-0.86990356 0.12976074 -1.7875671 -0.2854309q-0.9060364 -0.42562866 -1.6777649 -1.2866516q-1.2827148 -1.4311829 -1.3674316 -2.719635q-0.0743103 -1.2768555 0.90097046 -2.5297546zm8.044678 11.129364l-0.9484253 1.1658325q-0.5739441 -0.4296875 -0.94937134 -0.84854126q-0.6048889 -0.6748657 -0.72924805 -1.2350159q-0.11276245 -0.5706177 0.08895874 -1.0244751q0.21331787 -0.46429443 1.3414307 -1.476471l4.210083 -3.7773438l-0.82388306 -0.91922l0.9769287 -0.87649536l0.82388306 0.91918945l1.81427 -1.6278076l1.849762 0.56555176l-2.5585938 2.2956238l1.1262817 1.2566223l-0.9769287 0.8765259l-1.1262817 -1.2566528l-4.2798767 3.8399963q-0.53497314 0.47998047 -0.6340027 0.6737976q-0.08862305 0.20547485 -0.04611206 0.44021606q0.042541504 0.23474121 0.29284668 0.51397705q0.17727661 0.19781494 0.5482788 0.49468994zm-0.10769653 2.1272583l7.338562 -6.5842896l1.0011597 1.1170044l-1.1164856 1.0017395q1.1650696 -0.26861572 1.7325745 -0.12704468q0.5791626 0.13113403 0.97546387 0.5732727q0.56314087 0.6283264 0.7400818 1.6451111l-1.5372314 0.60253906q-0.13922119 -0.6937866 -0.55636597 -1.1592102q-0.36502075 -0.40722656 -0.9012451 -0.5138855q-0.52578735 -0.09503174 -1.0812683 0.15142822q-0.85061646 0.38534546 -1.641449 1.0948792l-3.8379211 3.443451l-1.1158752 -1.2449951zm8.46402 9.443481l1.081604 -0.97042847q-2.0057068 0.26712036 -3.3301392 -1.2105713q-0.5735779 -0.6399536 -0.84036255 -1.4292297q-0.24472046 -0.7880554 -0.12283325 -1.4012146q0.1322937 -0.601532 0.5746155 -1.208313q0.30960083 -0.40371704 1.1004333 -1.1132812l4.5473633 -4.0799866l1.1158447 1.2449951l-4.0704956 3.6521606q-0.9769287 0.87649536 -1.251648 1.2489319q-0.38415527 0.55459595 -0.3191223 1.1890259q0.06500244 0.6343994 0.5655823 1.1929016q0.50057983 0.5585022 1.2177124 0.7967529q0.72875977 0.22781372 1.3945007 -0.012634277q0.6878052 -0.23925781 1.6298218 -1.0844727l3.9309692 -3.5269165l1.1158752 1.2449951l-7.338562 6.5842896l-1.0011597 -1.1170044zm9.601227 5.304413l0.9321594 1.3677979q-1.4333191 0.9291382 -2.894806 0.7499695q-1.4498901 -0.1895752 -2.5344543 -1.3996887q-1.3453064 -1.500946 -1.1922302 -3.2966614q0.17510986 -1.7945251 2.0126648 -3.4432068q1.1862488 -1.064331 2.4142761 -1.4734192q1.2500916 -0.40786743 2.411621 -0.0015258789q1.1835632 0.40753174 2.0282898 1.3500061q1.0741577 1.1984558 1.1472473 2.497345q0.07312012 1.2989197 -0.84524536 2.5217285l-1.2706604 -1.0431519q0.5878906 -0.8423462 0.56378174 -1.6184082q-0.024139404 -0.7760315 -0.57684326 -1.3927307q-0.84472656 -0.94247437 -2.051117 -0.93066406q-1.1959839 0.0234375 -2.6497498 1.3277893q-1.4770203 1.3251953 -1.640564 2.5005493q-0.15188599 1.164917 0.66152954 2.0724792q0.65701294 0.7330322 1.5369568 0.8251953q0.89157104 0.081726074 1.9471436 -0.6134033zm2.79953 6.2839355l-0.9484253 1.1658325q-0.5739441 -0.4296875 -0.94937134 -0.8485718q-0.6048889 -0.6748657 -0.72924805 -1.2350159q-0.11276245 -0.57058716 0.08895874 -1.0244446q0.21331787 -0.46432495 1.3414307 -1.476471l4.210083 -3.7773743l-0.82388306 -0.91918945l0.9769287 -0.8765259l0.82388306 0.91922l1.81427 -1.6278076l1.849762 0.56552124l-2.5585938 2.2956238l1.1262817 1.2566528l-0.9769287 0.87649536l-1.1262817 -1.2566223l-4.279846 3.8399658q-0.53500366 0.47998047 -0.6340332 0.6738281q-0.08862305 0.20544434 -0.04611206 0.44018555q0.042541504 0.23474121 0.29284668 0.51400757q0.17727661 0.19778442 0.5482788 0.49468994zm8.612427 -5.654663l1.4188538 -1.2730103l1.1158752 1.2449951l-1.4188843 1.2730103l-1.1158447 -1.2449951zm-8.69928 7.805176l7.338562 -6.5842896l1.1158752 1.2449951l-7.338562 6.5842896l-1.1158752 -1.2449951zm6.002289 -0.6774597q2.0352783 -1.8260803 4.0458374 -1.5727539q1.6588135 0.21203613 2.8789673 1.5733948q1.3557129 1.5126038 1.2106934 3.3641052q-0.12298584 1.8526917 -1.8674927 3.4178772q-1.4188538 1.2730408 -2.6188354 1.5729675q-1.177887 0.30111694 -2.3614807 -0.106414795q-1.161499 -0.40634155 -2.0270996 -1.3720703q-1.3765564 -1.5358887 -1.2431641 -3.3769226q0.13339233 -1.8410645 1.9825745 -3.500183zm1.1471558 1.2799072q-1.4072266 1.2625732 -1.5523071 2.5053406q-0.14508057 1.2427673 0.689209 2.1736145q0.83428955 0.93081665 2.0743713 0.90979004q1.262146 -0.019836426 2.7042847 -1.3137512q1.3607178 -1.2208557 1.5057983 -2.463623q0.14508057 -1.2427368 -0.678772 -2.1619568q-0.83428955 -0.93081665 -2.0848389 -0.92141724q-1.2505188 0.009399414 -2.6577454 1.2720032zm2.5316467 10.198914l7.338562 -6.5842896l1.0011597 1.1170044l-1.0467224 0.93911743q1.9395447 -0.27072144 3.3056946 1.25354q0.5944214 0.663208 0.85076904 1.4408264q0.26797485 0.7672119 0.11242676 1.3896179q-0.1335144 0.6235657 -0.5525818 1.2095032q-0.28631592 0.38284302 -1.1469421 1.1550293l-4.512451 4.048645l-1.1158752 -1.2449951l4.4659424 -4.0069275q0.7559509 -0.6782532 0.9925232 -1.1634216q0.258667 -0.48397827 0.14590454 -1.0545654q-0.11273193 -0.57058716 -0.5611572 -1.0709229q-0.7091675 -0.79119873 -1.7306824 -0.9242859q-1.0111084 -0.12142944 -2.4299622 1.1515808l-4.0007324 3.5895386l-1.1158752 -1.2449951z" fill-rule="nonzero"></path><path fill="#ffe600" d="m250.00941 102.40632l3.407364 3.7976837l-28.248245 25.344856l-3.4073486 -3.7976913z" fill-rule="nonzero"></path><path fill="#ffe600" d="m9.354804 -167.30211l243.12785 271.2624l-29.209381 26.2072l-243.12784 -271.2624z" fill-rule="nonzero"></path><path stroke="#434343" stroke-width="1.0" stroke-linejoin="round" stroke-linecap="butt" stroke-dasharray="8.0,3.0" d="m9.354804 -167.30211l243.12785 271.2624l-29.209381 26.2072l-243.12784 -271.2624z" fill-rule="nonzero"></path><path fill="#000000" d="m12.659503 -144.21579l1.199296 1.338089l-5.8382816 5.238205q-1.5351653 1.3773804 -2.743538 1.8317871q-1.1979446 0.4660492 -2.5812519 0.06977844q-1.3612485 -0.3950653 -2.6752594 -1.8611298q-1.2722961 -1.4195251 -1.5972695 -2.7653503q-0.32497346 -1.3458252 0.2612841 -2.56456q0.5862577 -1.21875 2.2028337 -2.6691742l5.838281 -5.23822l1.1992955 1.338089l-5.8382807 5.238205q-1.3141949 1.1791229 -1.7232153 1.9869385q-0.40902045 0.8078308 -0.21443017 1.7038422q0.20501895 0.90763855 0.9767396 1.7686615q1.3244394 1.4777069 2.5504994 1.5112457q1.2376897 0.023101807 3.145017 -1.6881866l5.8382807 -5.23822zm-7.226598 12.304337l7.3385563 -6.5842896l1.0011511 1.1170044l-1.0467033 0.93911743q1.9395304 -0.27072144 3.305684 1.2535095q0.59443283 0.66322327 0.8507786 1.4408569q0.26797485 0.76719666 0.1124115 1.3895874q-0.13350296 0.6235962 -0.55256844 1.2095184q-0.28632927 0.38284302 -1.1469526 1.155014l-4.512456 4.0486603l-1.1158667 -1.2449875l4.4659367 -4.00692q0.75595284 -0.6782532 0.9925413 -1.1634369q0.25864792 -0.483963 0.14590168 -1.0545502q-0.11274624 -0.5706024 -0.56117916 -1.0709229q-0.7091484 -0.791214 -1.7306728 -0.92430115q-1.011096 -0.1214447 -2.4299612 1.1515961l-4.0007343 3.5895386l-1.1158667 -1.2449951zm11.190428 12.485367l0.93040276 -0.8347702q-1.7189426 0.2827301 -2.928667 -1.0669785q-0.7821493 -0.8726578 -0.9727516 -2.0451508q-0.16854382 -1.1712952 0.3270769 -2.3507004q0.51767826 -1.1782074 1.645792 -2.1903763q1.0932245 -0.9808502 2.312026 -1.4236298q1.2292309 -0.43113708 2.3526382 -0.13755798q1.1338367 0.3052063 1.9472733 1.2127686q0.59443283 0.66322327 0.77417374 1.425621q0.19016838 0.77402496 0.028598785 1.5067673l3.6285725 -3.2556152l1.1054382 1.2333527l-10.118137 9.078178l-1.0324364 -1.1519089zm0.13857651 -7.2197113q-1.4072342 1.2626038 -1.5731754 2.4820938q-0.15551281 1.2311249 0.564065 2.033966q0.7300062 0.81448364 1.9039221 0.7898407q1.1739178 -0.024635315 2.5462627 -1.255928q1.5002747 -1.346077 1.6766434 -2.5539322q0.18799973 -1.2182922 -0.5732918 -2.0676804q-0.74043465 -0.82611084 -1.9155521 -0.7794037q-1.1751175 0.046707153 -2.6288738 1.3510437zm9.387287 13.095558l0.98433304 1.4259872q-1.3876305 0.6992111 -2.7560863 0.4365692q-1.3463993 -0.2614441 -2.4935513 -1.5413437q-1.4391537 -1.6056976 -1.2953224 -3.435112q0.14383316 -1.829422 1.9348602 -3.4363632q1.8491764 -1.6591187 3.7173405 -1.634903q1.8785934 0.035858154 3.2447472 1.5601044q1.32444 1.4776993 1.1585484 3.3059158q-0.16588974 1.8282242 -1.991806 3.4664688q-0.10467148 0.09391022 -0.336071 0.28053284l-4.9014683 -5.4686584q-1.1469517 1.1550217 -1.2338867 2.345604q-0.086933136 1.1905899 0.73693085 2.1097946q0.6048622 0.67485046 1.3813381 0.8388672q0.7985344 0.16521454 1.8500938 -0.25346375zm-1.6484604 -5.889244l3.670887 4.09568q0.8457718 -0.90579224 0.9668293 -1.7071457q0.18920135 -1.2403564 -0.66594887 -2.1944656q-0.7612915 -0.8493881 -1.8746567 -0.92105865q-1.0913048 -0.07047272 -2.0971107 0.72698975zm1.6970615 10.695816l7.3385563 -6.584297l1.001152 1.1170044l-1.1164856 1.0017319q1.1650734 -0.26861572 1.7325935 -0.12704468q0.57914734 0.13114166 0.97543716 0.57328796q0.5631485 0.62831116 0.74010086 1.6451111l-1.5372353 0.6025238q-0.139225 -0.693779 -0.5563736 -1.159195q-0.36500168 -0.40724182 -0.9012337 -0.5139084q-0.5258064 -0.09503174 -1.0812607 0.15142822q-0.8506279 0.38533783 -1.6414719 1.094902l-3.8379135 3.4434433l-1.1158657 -1.2449875zm17.785852 12.703796l0.8620262 1.640686q-2.0268974 1.0628433 -3.8794441 0.7517166q-1.8409195 -0.32156372 -3.2592163 -1.9039841q-1.4704399 -1.6406021 -1.7252502 -3.2593002q-0.24317932 -1.6291275 0.5331497 -3.2913055q0.78795624 -1.672615 2.2417107 -2.9769516q1.5816841 -1.4191208 3.2881813 -1.8796158q1.7169228 -0.44886017 3.3228378 0.12554169q1.6175423 0.56396484 2.8168373 1.9020386q1.3661537 1.5242462 1.515091 3.2589264q0.16056824 1.7242432 -0.87003326 3.383644l-1.4924507 -1.0330658q0.791996 -1.3403625 0.68722534 -2.4639053q-0.09313965 -1.1339874 -1.0004311 -2.1462708q-1.0428658 -1.1635437 -2.310257 -1.4538879q-1.2569618 -0.2787094 -2.5026283 0.2511444q-1.2236061 0.53105164 -2.223793 1.4284363q-1.2909317 1.1582489 -1.9225082 2.3966599q-0.60951996 1.2396164 -0.37720108 2.4586487q0.24274445 1.2306671 1.0666084 2.1498718q1.0115814 1.1286392 2.3499527 1.3343048q1.3500023 0.1952362 2.879593 -0.6733322zm2.0692596 2.0746078q2.0352592 -1.8260727 4.045822 -1.5727463q1.6588211 0.21204376 2.878975 1.5733871q1.3557243 1.5126114 1.2106934 3.3641052q-0.122974396 1.8526917 -1.8674812 3.4178925q-1.4188652 1.2730331 -2.6188278 1.5729523q-1.177906 0.30111694 -2.3614845 -0.106414795q-1.1615181 -0.4063263 -2.0270958 -1.3720703q-1.3765831 -1.535881 -1.2431793 -3.3769379q0.13340378 -1.8410492 1.9825783 -3.5001678zm1.147152 1.2798996q-1.4072342 1.2625961 -1.5523186 2.5053558q-0.14508057 1.2427597 0.689209 2.1735992q0.83429337 0.9308319 2.0743866 0.90979767q1.2621498 -0.019836426 2.704277 -1.3137436q1.360714 -1.2208557 1.5057983 -2.4636154q0.14508438 -1.2427597 -0.6787796 -2.1619644q-0.83429337 -0.9308319 -2.084816 -0.9214325q-1.2505188 0.009407043 -2.6577568 1.2720032zm2.531639 10.198921l7.338558 -6.5842896l1.0011482 1.1169968l-1.0467033 0.93912506q1.9395294 -0.27072906 3.305687 1.2535172q0.59443283 0.66322327 0.8507767 1.4408493q0.26797485 0.76719666 0.1124115 1.389595q-0.13350296 0.6235962 -0.5525665 1.2095108q-0.28633118 0.38285065 -1.1469536 1.1550217l-4.512455 4.0486603l-1.1158676 -1.2449951l4.4659348 -4.00692q0.75595474 -0.6782532 0.99254227 -1.1634293q0.25864792 -0.48397064 0.14590073 -1.0545654q-0.11274719 -0.57058716 -0.5611763 -1.0709152q-0.7091484 -0.791214 -1.7306747 -0.9242935q-1.011097 -0.1214447 -2.4299622 1.1515884l-4.0007324 3.5895386l-1.1158676 -1.2449951zm8.663124 5.264427l1.3031464 1.0559692q-0.6504631 0.77253723 -0.6287384 1.5927353q0.04378128 0.8213959 0.8050766 1.670784q0.7717171 0.86102295 1.4856224 0.9552231q0.7243347 0.10583496 1.189537 -0.31155396q0.41867828 -0.3756485 0.3396225 -0.95547485q-0.06660843 -0.40206146 -0.7180443 -1.6439133q-0.88167953 -1.6860199 -1.1171646 -2.440384q-0.2134285 -0.75315857 -0.021774292 -1.4289246q0.21371078 -0.6745682 0.74869156 -1.1545639q0.48846436 -0.4382553 1.1052895 -0.5928345q0.6272545 -0.1429367 1.2505226 -0.009399414q0.47005463 0.10305786 1.0696793 0.4677353q0.59962463 0.3646698 1.1106262 0.9348068q0.78215027 0.8726578 1.1102905 1.7538071q0.3397751 0.8707123 0.18061066 1.5593185q-0.13710785 0.6898117 -0.74225616 1.4426804l-1.2473984 -1.064003q0.48523712 -0.58231354 0.43424988 -1.2712936q-0.028938293 -0.68777466 -0.6755142 -1.409172q-0.7717209 -0.86102295 -1.3857574 -0.9608536q-0.60240936 -0.11026764 -0.9745712 0.22364044q-0.24422836 0.21913147 -0.30636978 0.5477829q-0.062137604 0.32865143 0.10193634 0.7692261q0.097076416 0.24877167 0.65465164 1.3859024q0.82953644 1.6278458 1.077858 2.349701q0.2483139 0.72185516 0.07872009 1.3988266q-0.15916443 0.68860626 -0.7988167 1.2625122q-0.61639404 0.55303955 -1.4979248 0.6932068q-0.86989975 0.12973022 -1.787571 -0.28546143q-0.9060402 -0.42562103 -1.6777611 -1.286644q-1.2827263 -1.4311676 -1.3674583 -2.719635q-0.07429886 -1.2768402 0.90098953 -2.529747zm8.044682 11.129372l-0.9484253 1.1658325q-0.57395935 -0.4296875 -0.9493942 -0.84856415q-0.6048584 -0.67485046 -0.7292366 -1.2350082q-0.11274338 -0.5705948 0.088954926 -1.0244675q0.2133255 -0.46429443 1.3414383 -1.4764633l4.2100754 -3.777359l-0.82386017 -0.9191971l0.9769211 -0.87651825l0.8238678 0.9192047l1.8142853 -1.6278152l1.849762 0.5655365l-2.558609 2.2956314l1.1262894 1.25663l-0.9769211 0.87651825l-1.126297 -1.25663l-4.279854 3.8399658q-0.5349808 0.47999573 -0.6340256 0.6738205q-0.08862305 0.20546722 -0.046089172 0.44020844q0.042533875 0.23473358 0.2928238 0.5139847q0.17728424 0.19780731 0.54829407 0.49468994zm-0.10770416 2.1272469l7.3385544 -6.5842934l1.001152 1.1170044l-1.1164856 1.0017319q1.1650772 -0.2686081 1.7325974 -0.12704468q0.57914734 0.13114166 0.97543335 0.57328796q0.5631485 0.62831116 0.7401047 1.6451111l-1.5372391 0.6025238q-0.13922119 -0.693779 -0.5563736 -1.159195q-0.36499786 -0.40724182 -0.90122986 -0.5139084q-0.52581024 -0.09503174 -1.0812607 0.15142822q-0.8506317 0.38533783 -1.6414719 1.094902l-3.8379135 3.443447l-1.1158676 -1.2449951zm8.464012 9.443466l1.0815964 -0.97042847q-2.0057068 0.26712418 -3.3301468 -1.2105751q-0.5735779 -0.6399498 -0.8403473 -1.4292183q-0.24471283 -0.78806305 -0.12284088 -1.401226q0.13230133 -0.60152435 0.5746231 -1.2083092q0.3095932 -0.40372467 1.1004333 -1.1132812l4.547348 -4.0799675l1.1158676 1.2449951l-4.0705185 3.6521416q-0.9769211 0.87651443 -1.2516174 1.2489357q-0.38417816 0.5546112 -0.31915283 1.1890106q0.06502533 0.6344032 0.56559753 1.1929054q0.50057983 0.5585022 1.2177048 0.79676056q0.72875214 0.22782135 1.3945007 -0.012634277q0.6878052 -0.239254 1.6298447 -1.084465l3.930954 -3.5269241l1.11586 1.2449913l-7.3385544 6.5842934l-1.001152 -1.1170044zm9.601219 5.3044243l0.93218994 1.3678093q-1.4333344 0.929142 -2.8948288 0.7499771q-1.4498672 -0.1896019 -2.5344467 -1.3996887q-1.3452988 -1.5009727 -1.1922379 -3.296688q0.1751175 -1.7945137 2.0126648 -3.4431953q1.186264 -1.0643387 2.4142914 -1.4734039q1.2500916 -0.40786743 2.4116058 -0.0015411377q1.1835785 0.40753174 2.0282974 1.3500023q1.0741577 1.198452 1.147255 2.4973602q0.07310486 1.2989082 -0.84523773 2.5217133l-1.2706604 -1.0431328q0.5878906 -0.8423538 0.5637665 -1.6184082q-0.024131775 -0.7760582 -0.5768509 -1.3927383q-0.84471893 -0.94247055 -2.0511246 -0.9306679q-1.1959763 0.023441315 -2.6497269 1.3277779q-1.4770203 1.3252068 -1.6405563 2.5005531q-0.15190887 1.164917 0.66152954 2.072483q0.6570053 0.7330322 1.5369492 0.82520294q0.89157104 0.0817337 1.9471207 -0.61341476zm2.799553 6.2839394l-0.9484253 1.1658249q-0.57395935 -0.4296837 -0.9493942 -0.8485565q-0.6048584 -0.6748581 -0.7292328 -1.2350159q-0.11274719 -0.5705948 0.08895111 -1.0244598q0.2133255 -0.46430206 1.3414459 -1.4764671l4.2100677 -3.777359l-0.82386017 -0.9192009l0.9769211 -0.87651443l0.8238678 0.9192009l1.8142853 -1.6278114l1.849762 0.5655365l-2.558609 2.2956314l1.1262894 1.25663l-0.9769211 0.87651443l-1.126297 -1.25663l-4.279854 3.8399658q-0.5349808 0.47999573 -0.6340256 0.6738243q-0.08862305 0.20546341 -0.046089172 0.44020462q0.042533875 0.2347374 0.2928238 0.5139885q0.17728424 0.1978035 0.54829407 0.49469376zm8.612427 -5.6546364l1.4188614 -1.2730331l1.1158676 1.2449951l-1.418869 1.2730331l-1.11586 -1.2449951zm-8.699272 7.805149l7.3385544 -6.5842896l1.1158676 1.2449913l-7.3385544 6.5842934l-1.1158676 -1.2449951zm6.002281 -0.6774597q2.0352554 -1.8260727 4.045822 -1.5727463q1.6588211 0.21204376 2.878975 1.573391q1.3557205 1.5126076 1.2106934 3.3640976q-0.12297821 1.8526917 -1.867485 3.4178963q-1.4188614 1.2730331 -2.6188278 1.5729485q-1.1779022 0.30111694 -2.3614807 -0.10641098q-1.1615219 -0.4063263 -2.0270996 -1.3720703q-1.3765793 -1.5358772 -1.2431793 -3.376934q0.1334076 -1.8410568 1.9825821 -3.5001717zm1.1471481 1.2798996q-1.4072342 1.2625961 -1.5523148 2.5053558q-0.14508057 1.2427635 0.689209 2.1735992q0.83428955 0.9308357 2.0743866 0.90979767q1.262146 -0.019836426 2.704277 -1.3137398q1.3607101 -1.2208595 1.5057983 -2.4636192q0.14508057 -1.2427597 -0.6787796 -2.1619606q-0.8342972 -0.9308357 -2.084816 -0.9214363q-1.2505188 0.009403229 -2.6577606 1.2720032zm2.531639 10.198919l7.338562 -6.5842915l1.0011444 1.1170044l-1.0466995 0.93912125q1.9395294 -0.27072525 3.305687 1.2535172q0.594429 0.66322327 0.8507767 1.4408531q0.26797485 0.76719475 0.1124115 1.3895893q-0.13350677 0.6235962 -0.5525665 1.2095108q-0.28633118 0.38285446 -1.1469574 1.1550217l-4.512451 4.0486603l-1.1158676 -1.2449932l4.4659348 -4.006922q0.7559509 -0.6782551 0.99253845 -1.1634254q0.25865173 -0.48397064 0.14590454 -1.0545635q-0.11274719 -0.5705948 -0.5611801 -1.070919q-0.7091446 -0.7912102 -1.7306747 -0.9242897q-1.0110931 -0.12144852 -2.4299622 1.1515846l-4.0007324 3.5895348l-1.1158676 -1.2449932zm30.063034 13.174721l1.1993027 1.3380775l-5.8382874 5.2382154q-1.5351639 1.3773804 -2.743538 1.8317881q-1.1979446 0.466043 -2.581253 0.06977749q-1.3612442 -0.39506435 -2.6752548 -1.8611317q-1.2723007 -1.4195251 -1.5972748 -2.7653475q-0.32496643 -1.3458223 0.26128387 -2.5645676q0.58625793 -1.2187443 2.202835 -2.6691666l5.8382797 -5.2382164l1.1993027 1.3380775l-5.8382874 5.2382145q-1.3141937 1.179121 -1.7232132 1.9869385q-0.40901947 0.8078184 -0.21443176 1.7038326q0.20502472 0.90764904 0.976738 1.768673q1.32444 1.4777021 2.5505066 1.511239q1.2376862 0.023101807 3.145012 -1.6881876l5.8382797 -5.2382164zm-7.226593 12.304329l7.3385544 -6.584291l1.001152 1.1170034l-1.0467072 0.9391222q1.939537 -0.2707262 3.305687 1.2535176q0.59443665 0.6632209 0.8507843 1.4408507q0.26797485 0.7671957 0.1124115 1.3895907q-0.1335144 0.6235957 -0.5525818 1.2095113q-0.28631592 0.3828535 -1.1469421 1.155021l-4.512459 4.0486608l-1.1158676 -1.2449933l4.4659424 -4.0069222q0.7559509 -0.67825484 0.99253845 -1.1634262q0.25865173 -0.48397017 0.14590454 -1.054564q-0.11274719 -0.57059336 -0.56118774 -1.0709181q-0.7091522 -0.79121065 -1.7306671 -0.92429113q-1.0111008 -0.12144518 -2.4299622 1.151587l-4.0007324 3.5895343l-1.1158676 -1.2449932zm11.190422 12.485374l0.93040466 -0.83477545q-1.7189484 0.28273392 -2.9286652 -1.0669785q-0.78215027 -0.8726587 -0.97275543 -2.0451503q-0.16854095 -1.1712906 0.32707977 -2.3506985q0.51768494 -1.1782074 1.6457977 -2.1903725q1.093216 -0.9808612 2.312027 -1.4236335q1.2292175 -0.43113697 2.3526306 -0.13756144q1.1338348 0.3052112 1.9472809 1.2127764q0.5944214 0.66322076 0.7741699 1.4256133q0.19017029 0.77402794 0.02859497 1.5067736l3.6285706 -3.2556243l1.1054382 1.2333579l-10.118134 9.078183l-1.0324402 -1.1519098zm0.13858032 -7.2197113q-1.4072418 1.2625978 -1.5731812 2.4820874q-0.15550232 1.2311254 0.56407166 2.0339713q0.730011 0.81448174 1.9039154 0.7898412q1.1739197 -0.024640083 2.5462646 -1.2559342q1.5002747 -1.3460753 1.676651 -2.5539293q0.18800354 -1.2182889 -0.5733032 -2.0676768q-0.74043274 -0.82611704 -1.9155426 -0.77940655q-1.1751251 0.04671049 -2.6288757 1.351047zm9.387283 13.095558l0.9843292 1.4259853q-1.387619 0.69920826 -2.756073 0.4365654q-1.346405 -0.26144314 -2.4935608 -1.5413427q-1.439148 -1.6056929 -1.2953186 -3.435113q0.14382935 -1.829421 1.9348602 -3.4363632q1.8491821 -1.6591163 3.7173462 -1.6348977q1.8785858 0.035853863 3.2447357 1.5600982q1.3244476 1.4777021 1.1585541 3.3059225q-0.16589355 1.8282194 -1.991806 3.466466q-0.10467529 0.093912125 -0.33607483 0.28053665l-4.9014587 -5.468663q-1.1469574 1.1550217 -1.2338867 2.3456087q-0.08694458 1.190587 0.7369232 2.109787q0.6048584 0.6748562 1.3813477 0.8388691q0.79852295 0.16521358 1.8500824 -0.25345898zm-1.6484528 -5.8892455l3.6708832 4.095679q0.8457794 -0.9057884 0.9668274 -1.7071466q0.18920898 -1.2403584 -0.6659546 -2.1944656q-0.7612915 -0.8493881 -1.874649 -0.9210615q-1.0913086 -0.07047272 -2.097107 0.726995zm1.697052 10.69581l7.338562 -6.5842905l1.0011444 1.1170034l-1.1164856 1.00173q1.1650848 -0.2686119 1.732605 -0.12704182q0.57914734 0.13113594 0.97543335 0.5732832q0.56314087 0.628314 0.74009705 1.645113l-1.5372314 0.6025238q-0.13922119 -0.6937809 -0.55636597 -1.1591988q-0.3650055 -0.40724087 -0.9012451 -0.5139046q-0.5258026 -0.09502888 -1.081253 0.15142918q-0.8506317 0.38533974 -1.6414795 1.0948992l-3.837906 3.443447l-1.1158752 -1.2449932zm17.785858 12.7038l0.86203 1.6406841q-2.0269012 1.0628471 -3.8794556 0.7517166q-1.8409119 -0.32156372 -3.259201 -1.903986q-1.4704437 -1.6405983 -1.7252502 -3.2592964q-0.24317932 -1.6291313 0.5331421 -3.2913094q0.7879486 -1.6726112 2.2417145 -2.9769478q1.5816803 -1.4191189 3.2881775 -1.8796139q1.716919 -0.44886208 3.3228302 0.12553787q1.6175537 0.56396484 2.8168488 1.9020424q1.3661499 1.5242443 1.515091 3.2589226q0.16056824 1.7242451 -0.8700409 3.3836498l-1.4924469 -1.0330696q0.7919922 -1.3403587 0.68722534 -2.4639072q-0.09313965 -1.1339836 -1.0004272 -2.146267q-1.0428772 -1.1635456 -2.310257 -1.4538918q-1.2569733 -0.2787094 -2.5026398 0.2511425q-1.2236023 0.53105354 -2.2237854 1.4284363q-1.2909393 1.1582508 -1.9225159 2.3966656q-0.6095123 1.2396145 -0.37719727 2.4586487q0.24275208 1.2306671 1.0666046 2.149868q1.0115814 1.1286392 2.3499603 1.3343048q1.3500061 0.19523239 2.879593 -0.6733303zm2.0692596 2.074606q2.035263 -1.8260708 4.045822 -1.5727444q1.6588287 0.21204185 2.8789825 1.573389q1.3557129 1.5126114 1.2106781 3.3641014q-0.12297058 1.8526917 -1.8674774 3.4178925q-1.418869 1.2730331 -2.6188202 1.5729523q-1.1779175 0.30111694 -2.3614807 -0.10641098q-1.1615295 -0.4063301 -2.0270996 -1.3720703q-1.3765869 -1.535881 -1.2431793 -3.3769379q0.13339233 -1.841053 1.9825745 -3.5001717zm1.1471558 1.2798996q-1.4072418 1.2626 -1.5523224 2.5053596q-0.14508057 1.2427597 0.689209 2.1735954q0.83428955 0.9308357 2.0743866 0.90979767q1.262146 -0.019836426 2.7042694 -1.3137398q1.3607178 -1.2208557 1.5057983 -2.4636192q0.14509583 -1.2427597 -0.678772 -2.1619606q-0.83428955 -0.9308357 -2.0848083 -0.9214325q-1.250534 0.009403229 -2.6577606 1.2719994zm2.5316467 10.198933l7.338562 -6.5842896l1.0011444 1.1170006l-1.0467072 0.93912506q1.9395294 -0.27072906 3.3056946 1.2535172q0.5944214 0.66321945 0.85076904 1.4408493q0.26797485 0.76719666 0.1124115 1.3895912q-0.13349915 0.6235962 -0.5525665 1.2095108q-0.28633118 0.38285446 -1.1469574 1.1550217l-4.512451 4.0486603l-1.11586 -1.2449913l4.465927 -4.0069237q0.7559509 -0.6782532 0.99253845 -1.1634254q0.25865173 -0.48397064 0.14590454 -1.0545654q-0.11274719 -0.570591 -0.5611725 -1.070919q-0.7091522 -0.7912102 -1.7306824 -0.9242897q-1.0110931 -0.1214447 -2.4299622 1.1515884l-4.0007324 3.5895348l-1.11586 -1.2449951zm8.663116 5.2644157l1.3031464 1.0559692q-0.6504669 0.77253723 -0.6287384 1.5927353q0.043777466 0.8213997 0.80506897 1.6707878q0.7717285 0.86102295 1.4856262 0.9552231q0.7243347 0.10583496 1.1895294 -0.31155396q0.4186859 -0.3756485 0.33963013 -0.95547485q-0.066604614 -0.40206528 -0.7180481 -1.6439133q-0.8816681 -1.6860237 -1.117157 -2.440384q-0.21343994 -0.75315857 -0.021774292 -1.4289284q0.21369934 -0.6745682 0.74868774 -1.1545639q0.48846436 -0.4382553 1.1052856 -0.59283066q0.6272583 -0.14294052 1.2505188 -0.009403229q0.47006226 0.103061676 1.0696869 0.4677353q0.59962463 0.3646736 1.1106262 0.93481064q0.78215027 0.8726578 1.1102905 1.7538071q0.3397827 0.8707123 0.18060303 1.5593185q-0.13710022 0.6898079 -0.74224854 1.4426765l-1.247406 -1.0639992q0.48524475 -0.58231354 0.43424988 -1.2712936q-0.028930664 -0.68777466 -0.6755066 -1.409172q-0.77171326 -0.86102295 -1.3857574 -0.9608574q-0.602417 -0.110263824 -0.9745636 0.22364426q-0.24423218 0.21912766 -0.30638123 0.5477791q-0.06213379 0.32865143 0.10194397 0.7692261q0.097076416 0.24877548 0.6546478 1.3859024q0.82954407 1.6278496 1.0778503 2.349701q0.24832153 0.72185516 0.07873535 1.3988266q-0.15917969 0.68860626 -0.7988281 1.2625122q-0.61639404 0.55303955 -1.4979248 0.6932068q-0.8698883 0.12973022 -1.7875671 -0.2854576q-0.9060364 -0.42562485 -1.6777649 -1.2866478q-1.2827301 -1.4311638 -1.3674469 -2.719635q-0.0743103 -1.2768402 0.9009857 -2.529747zm8.044678 11.129375l-0.9484253 1.1658287q-0.57395935 -0.4296837 -0.9493866 -0.84856033q-0.60487366 -0.6748543 -0.72924805 -1.235012q-0.11274719 -0.5705948 0.08895874 -1.0244637q0.21333313 -0.46430206 1.3414459 -1.4764671l4.2100677 -3.777359l-0.8238678 -0.9191971l0.9769287 -0.87651443l0.8238678 0.9192009l1.8142853 -1.6278152l1.849762 0.5655403l-2.558609 2.2956314l1.126297 1.25663l-0.9769287 0.87651443l-1.126297 -1.25663l-4.279846 3.8399658q-0.5349884 0.47999573 -0.6340332 0.6738243q-0.08862305 0.20546341 -0.0460968 0.4402008q0.042541504 0.23474121 0.29283142 0.5139923q0.17727661 0.19779968 0.54829407 0.49468994zm-0.10769653 2.1272583l7.338562 -6.5842934l1.0011444 1.1170044l-1.1164856 1.0017319q1.1650696 -0.2686119 1.7325897 -0.12704468q0.5791626 0.13113785 0.9754486 0.57328415q0.56314087 0.628315 0.74009705 1.6451149l-1.5372314 0.6025238q-0.13923645 -0.6937828 -0.5563812 -1.1591988q-0.3650055 -0.40724182 -0.90122986 -0.5139046q-0.5258026 -0.09503174 -1.0812683 0.15142822q-0.85061646 0.38533783 -1.6414642 1.0948982l-3.8379211 3.443451l-1.11586 -1.2449951zm8.46402 9.443466l1.0815887 -0.97042847q-2.0057068 0.26712036 -3.3301392 -1.2105789q-0.5735779 -0.639946 -0.8403473 -1.4292145q-0.24472046 -0.78806305 -0.12284851 -1.4012299q0.13230896 -0.60152435 0.57463074 -1.2083054q0.30958557 -0.40372467 1.1004333 -1.1132812l4.547348 -4.0799675l1.11586 1.2449913l-4.070511 3.6521454q-0.9769287 0.8765106 -1.2516327 1.2489319q-0.38417053 0.5546112 -0.31913757 1.1890106q0.0650177 0.63440704 0.56559753 1.1929092q0.50057983 0.5585022 1.2176971 0.7967529q0.72875977 0.22782898 1.3945007 -0.012626648q0.6878052 -0.23925781 1.629837 -1.084465l3.930954 -3.5269241l1.1158752 1.2449875l-7.338562 6.584297l-1.0011444 -1.1170044zm9.601212 5.304413l0.9321747 1.3678055q-1.4333191 0.9291458 -2.8948212 0.7499771q-1.4498749 -0.18959808 -2.5344543 -1.3996887q-1.3452911 -1.5009689 -1.1922302 -3.2966843q0.17512512 -1.7945175 2.0126648 -3.4431992q1.186264 -1.0643387 2.4142914 -1.4734039q1.2500916 -0.40786743 2.4116058 -0.0015411377q1.1835785 0.40753174 2.028305 1.3500061q1.0741425 1.1984482 1.1472473 2.4973602q0.07310486 1.2989044 -0.84524536 2.5217133l-1.2706604 -1.0431366q0.5879059 -0.8423538 0.5637665 -1.6184082q-0.024124146 -0.7760544 -0.57684326 -1.3927383q-0.84472656 -0.94246674 -2.051117 -0.93066406q-1.1959839 0.0234375 -2.6497345 1.327774q-1.4770203 1.3252106 -1.6405487 2.500557q-0.1519165 1.164917 0.6615143 2.0724792q0.65701294 0.7330322 1.5369568 0.82520294q0.89157104 0.0817337 1.9471283 -0.61341095zm2.7995453 6.2839355l-0.9484253 1.1658249q-0.57395935 -0.42967987 -0.9493866 -0.8485565q-0.60487366 -0.6748581 -0.72924805 -1.2350159q-0.11274719 -0.5705948 0.08895874 -1.0244598q0.21333313 -0.46430206 1.3414459 -1.4764633l4.2100677 -3.777359l-0.8238678 -0.9192047l0.9769287 -0.8765106l0.8238678 0.9191971l1.8142853 -1.6278076l1.849762 0.5655365l-2.558609 2.2956314l1.126297 1.25663l-0.9769287 0.8765106l-1.126297 -1.25663l-4.279846 3.8399658q-0.5349884 0.47999573 -0.6340332 0.6738281q-0.08862305 0.2054596 -0.046081543 0.4402008q0.042526245 0.23474121 0.29281616 0.5139923q0.17727661 0.19779968 0.54829407 0.49468994zm8.6124115 -5.654648l1.418869 -1.2730331l1.11586 1.2449951l-1.4188538 1.2730331l-1.1158752 -1.2449951zm-8.699265 7.805153l7.3385468 -6.5842896l1.1158752 1.2449875l-7.338562 6.584297l-1.11586 -1.2449951zm6.002289 -0.6774521q2.035263 -1.8260727 4.045822 -1.5727463q1.6588135 0.21204376 2.8789673 1.5733948q1.3557281 1.5126038 1.2106934 3.3640976q-0.12297058 1.8526917 -1.8674774 3.4178925q-1.418869 1.2730331 -2.6188354 1.5729523q-1.1779022 0.30111694 -2.3614807 -0.106414795q-1.1615143 -0.4063263 -2.0270844 -1.3720703q-1.3765869 -1.5358734 -1.2431793 -3.3769302q0.13339233 -1.8410568 1.9825745 -3.5001755zm1.1471558 1.2798996q-1.4072418 1.2625961 -1.5523224 2.5053558q-0.14508057 1.2427673 0.689209 2.1735992q0.83428955 0.93083954 2.0743866 0.90979767q1.262146 -0.019836426 2.7042694 -1.313736q1.3607178 -1.2208633 1.5057983 -2.463623q0.14509583 -1.2427597 -0.678772 -2.1619568q-0.83428955 -0.93083954 -2.0848236 -0.9214401q-1.2505188 0.009407043 -2.6577454 1.2720032zm2.5316467 10.198936l7.3385468 -6.584297l1.0011597 1.1170044l-1.0467072 0.93912506q1.9395294 -0.27072906 3.3056793 1.2535172q0.59443665 0.66322327 0.8507843 1.4408493q0.26797485 0.76719666 0.1124115 1.389595q-0.13349915 0.62358856 -0.5525665 1.2095108q-0.28633118 0.38285065 -1.1469574 1.155014l-4.512451 4.048668l-1.1158752 -1.2449951l4.4659424 -4.0069275q0.7559509 -0.6782532 0.99253845 -1.1634216q0.25865173 -0.48397064 0.14590454 -1.0545654q-0.11274719 -0.5705948 -0.5611725 -1.0709152q-0.7091522 -0.791214 -1.7306824 -0.9242935q-1.0110931 -0.1214447 -2.4299622 1.1515884l-4.0007324 3.589531l-1.11586 -1.2449875z" fill-rule="nonzero"></path><path fill="#ffe600" d="m251.34021 103.384415l2.250534 2.5083542l-28.552994 25.618279l-2.250534 -2.5083466z" fill-rule="nonzero"></path></g></svg>

