<?xml version="1.0" encoding="UTF-8" standalone="no"?>
<svg
   xmlns:dc="http://purl.org/dc/elements/1.1/"
   xmlns:cc="http://creativecommons.org/ns#"
   xmlns:rdf="http://www.w3.org/1999/02/22-rdf-syntax-ns#"
   xmlns:svg="http://www.w3.org/2000/svg"
   xmlns="http://www.w3.org/2000/svg"
   xmlns:sodipodi="http://sodipodi.sourceforge.net/DTD/sodipodi-0.dtd"
   xmlns:inkscape="http://www.inkscape.org/namespaces/inkscape"
   version="1.0"
   width="32.000000pt"
   height="32.000000pt"
   viewBox="0 0 32.000000 32.000000"
   preserveAspectRatio="xMidYMid meet"
   id="svg2"
   inkscape:version="0.91 r13725"
   sodipodi:docname="undo_icon.svg">
  <defs
     id="defs12" />
  <sodipodi:namedview
     pagecolor="#ffffff"
     bordercolor="#666666"
     borderopacity="1"
     objecttolerance="10"
     gridtolerance="10"
     guidetolerance="10"
     inkscape:pageopacity="0"
     inkscape:pageshadow="2"
     inkscape:window-width="675"
     inkscape:window-height="515"
     id="namedview10"
     showgrid="false"
     inkscape:zoom="5.9"
     inkscape:cx="20"
     inkscape:cy="20"
     inkscape:window-x="115"
     inkscape:window-y="10"
     inkscape:window-maximized="0"
     inkscape:current-layer="svg2" />
  <metadata
     id="metadata4">
Created by potrace 1.10, written by Peter Selinger 2001-2011
<rdf:RDF>
  <cc:Work
     rdf:about="">
    <dc:format>image/svg+xml</dc:format>
    <dc:type
       rdf:resource="http://purl.org/dc/dcmitype/StillImage" />
  </cc:Work>
</rdf:RDF>
</metadata>
  <g
     transform="translate(0.000000,32.000000) scale(0.100000,-0.100000)"
     id="g6"
     stroke="none"
     fill="#000000">
    <path
       d="M92 294 c-69 -35 -99 -120 -67 -188 62 -131 253 -101 272 43 15 108 -108 194 -205 145z m99 -4 c42 -12 76 -45 88 -87 7 -24 5 -32 -10 -41 -16 -11 -19 -9 -19 9 0 11 -13 34 -29 50 -42 42 -99 41 -135 -2 -37 -44 -35 -92 5 -130 35 -33 93 -40 103 -14 4 13 2 14 -14 5 -46 -24 -104 18 -104 76 0 96 131 108 159 14 7 -22 6 -23 -9 -11 -24 20 -27 10 -5 -18 l20 -24 26 24 c21 19 25 21 20 6 -4 -10 -7 -22 -7 -27 0 -5 -12 -22 -26 -39 -47 -57 -143 -61 -192 -8 -67 71 -37 189 54 217 39 11 34 11 75 0z"
       id="path8" />
  </g>
</svg>
