<?xml version="1.0" standalone="yes"?>

<svg version="1.1" viewBox="0.0 0.0 355.0 369.0" fill="none" stroke="none" stroke-linecap="square" stroke-miterlimit="10" xmlns="http://www.w3.org/2000/svg" xmlns:xlink="http://www.w3.org/1999/xlink"><clipPath id="p.0"><path d="m0 0l355.0 0l0 369.0l-355.0 0l0 -369.0z" clip-rule="nonzero"></path></clipPath><g clip-path="url(#p.0)"><path fill="#000000" fill-opacity="0.0" d="m0 0l355.3701 0l0 369.25986l-355.3701 0z" fill-rule="nonzero"></path><path fill="#cc0000" d="m9.858268 106.577286l98.30956 -98.30957l139.03441 0l98.30957 98.30957l0 156.10527l-98.30957 98.30957l-139.03441 0l-98.30956 -98.30957z" fill-rule="nonzero"></path><path stroke="#ffffff" stroke-width="3.0" stroke-linejoin="round" stroke-linecap="butt" d="m9.858268 106.577286l98.30956 -98.30957l139.03441 0l98.30957 98.30957l0 156.10527l-98.30957 98.30957l-139.03441 0l-98.30956 -98.30957z" fill-rule="nonzero"></path><path fill="#000000" fill-opacity="0.0" d="m5.007874 105.16658l101.15083 -101.15083l143.05267 0l101.15083 101.15083l0 158.92668l-101.15083 101.15082l-143.05267 0l-101.15083 -101.15082z" fill-rule="nonzero"></path><path stroke="#000000" stroke-width="4.0" stroke-linejoin="round" stroke-linecap="butt" d="m5.007874 105.16658l101.15083 -101.15083l143.05267 0l101.15083 101.15083l0 158.92668l-101.15083 101.15082l-143.05267 0l-101.15083 -101.15082z" fill-rule="nonzero"></path><path fill="#000000" fill-opacity="0.0" d="m5.007874 106.8189l335.65353 0l0 155.62204l-335.65353 0z" fill-rule="nonzero"></path><path fill="#000000" d="m61.254562 193.0118l7.1875 1.828125q-2.265625 8.859375 -8.140625 13.515625q-5.875 4.65625 -14.375 4.65625q-8.796875 0 -14.3125 -3.578125q-5.515625 -3.578125 -8.390625 -10.359375q-2.875 -6.796875 -2.875 -14.59375q0 -8.5 3.25 -14.828125q3.25 -6.328125 9.234375 -9.609375q6.0 -3.28125 13.203125 -3.28125q8.15625 0 13.71875 4.15625q5.578125 4.15625 7.765625 11.6875l-7.09375 1.671875q-1.890625 -5.9375 -5.5 -8.640625q-3.59375 -2.71875 -9.046875 -2.71875q-6.265625 0 -10.484375 3.015625q-4.203125 3.0 -5.921875 8.0625q-1.703125 5.0625 -1.703125 10.453125q0 6.9375 2.015625 12.109375q2.03125 5.171875 6.296875 7.734375q4.265625 2.5625 9.25 2.5625q6.046875 0 10.234375 -3.484375q4.203125 -3.484375 5.6875 -10.359375zm15.759766 19.078125l0 -54.40625l7.203125 0l0 47.984375l26.796875 0l0 6.421875l-34.0 0zm40.376953 -26.5q0 -13.546875 7.265625 -21.203125q7.28125 -7.671875 18.78125 -7.671875q7.546875 0 13.59375 3.609375q6.046875 3.59375 9.21875 10.03125q3.171875 6.4375 3.171875 14.609375q0 8.265625 -3.34375 14.796875q-3.34375 6.53125 -9.46875 9.890625q-6.109375 3.359375 -13.203125 3.359375q-7.6875 0 -13.734375 -3.703125q-6.046875 -3.71875 -9.171875 -10.125q-3.109375 -6.421875 -3.109375 -13.59375zm7.421875 0.109375q0 9.84375 5.28125 15.5q5.296875 5.65625 13.28125 5.65625q8.125 0 13.375 -5.703125q5.25 -5.71875 5.25 -16.234375q0 -6.640625 -2.25 -11.59375q-2.234375 -4.953125 -6.5625 -7.671875q-4.328125 -2.734375 -9.703125 -2.734375q-7.640625 0 -13.15625 5.25q-5.515625 5.25 -5.515625 17.53125zm51.44336 8.90625l6.78125 -0.59375q0.484375 4.09375 2.25 6.703125q1.765625 2.609375 5.46875 4.234375q3.71875 1.609375 8.359375 1.609375q4.109375 0 7.265625 -1.21875q3.15625 -1.234375 4.6875 -3.359375q1.546875 -2.140625 1.546875 -4.65625q0 -2.5625 -1.484375 -4.46875q-1.484375 -1.921875 -4.890625 -3.21875q-2.203125 -0.859375 -9.703125 -2.65625q-7.484375 -1.796875 -10.484375 -3.390625q-3.90625 -2.046875 -5.8125 -5.0625q-1.90625 -3.03125 -1.90625 -6.78125q0 -4.109375 2.328125 -7.6875q2.34375 -3.59375 6.828125 -5.4375q4.5 -1.859375 9.984375 -1.859375q6.046875 0 10.671875 1.953125q4.625 1.9375 7.109375 5.734375q2.484375 3.78125 2.671875 8.5625l-6.90625 0.515625q-0.5625 -5.15625 -3.78125 -7.78125q-3.203125 -2.640625 -9.46875 -2.640625q-6.53125 0 -9.515625 2.390625q-2.984375 2.390625 -2.984375 5.765625q0 2.9375 2.109375 4.828125q2.078125 1.890625 10.84375 3.875q8.78125 1.984375 12.046875 3.46875q4.75 2.203125 7.015625 5.5625q2.265625 3.34375 2.265625 7.734375q0 4.34375 -2.484375 8.1875q-2.484375 3.828125 -7.140625 5.96875q-4.65625 2.125 -10.484375 2.125q-7.390625 0 -12.390625 -2.140625q-4.984375 -2.15625 -7.828125 -6.484375q-2.828125 -4.328125 -2.96875 -9.78125zm53.285156 17.484375l0 -54.40625l39.32814 0l0 6.421875l-32.125015 0l0 16.65625l30.093765 0l0 6.390625l-30.093765 0l0 18.515625l33.39064 0l0 6.421875l-40.593765 0zm50.53517 0l0 -54.40625l18.75 0q6.34375 0 9.6875 0.78125q4.671875 1.078125 7.96875 3.890625q4.3125 3.640625 6.4375 9.3125q2.140625 5.65625 2.140625 12.921875q0 6.203125 -1.453125 10.984375q-1.4375 4.78125 -3.703125 7.921875q-2.265625 3.140625 -4.96875 4.9375q-2.6875 1.796875 -6.484375 2.734375q-3.796875 0.921875 -8.734375 0.921875l-19.640625 0zm7.203125 -6.421875l11.609375 0q5.390625 0 8.453125 -1.0q3.0625 -1.0 4.875 -2.828125q2.5625 -2.546875 3.984375 -6.875q1.4375 -4.328125 1.4375 -10.484375q0 -8.53125 -2.8125 -13.109375q-2.796875 -4.59375 -6.796875 -6.15625q-2.90625 -1.109375 -9.3125 -1.109375l-11.4375 0l0 41.5625z" fill-rule="nonzero"></path></g></svg>

