<?xml version="1.0" standalone="yes"?>

<svg version="1.1" viewBox="0.0 0.0 425.0 233.0" fill="none" stroke="none" stroke-linecap="square" stroke-miterlimit="10" xmlns="http://www.w3.org/2000/svg" xmlns:xlink="http://www.w3.org/1999/xlink"><clipPath id="p.0"><path d="m0 0l425.0 0l0 233.0l-425.0 0l0 -233.0z" clip-rule="nonzero"></path></clipPath><g clip-path="url(#p.0)"><path fill="#000000" fill-opacity="0.0" d="m0 0l425.5958 0l0 233.4567l-425.5958 0z" fill-rule="nonzero"></path><path fill="#ffe600" d="m254.50948 91.59654l321.53717 171.16151l-18.421143 34.64859l-321.53717 -171.1615z" fill-rule="nonzero"></path><path stroke="#434343" stroke-width="1.0" stroke-linejoin="round" stroke-linecap="butt" stroke-dasharray="8.0,3.0" d="m254.50948 91.59654l321.53717 171.16151l-18.421143 34.64859l-321.53717 -171.1615z" fill-rule="nonzero"></path><path fill="#000000" d="m265.54834 112.13967l1.5861511 0.84433746l-3.682129 6.9257736q-0.9682312 1.8211212 -1.9467773 2.6631775q-0.9647827 0.84939575 -2.4000244 0.9527359q-1.414093 0.09688568 -3.1519623 -0.82821655q-1.6826935 -0.8957367 -2.4504395 -2.0478668q-0.767746 -1.1521301 -0.6361084 -2.4981232q0.13163757 -1.3460007 1.1511993 -3.2636948l3.682129 -6.9257736l1.5861511 0.8443451l-3.6821442 6.9257736q-0.82884216 1.5589828 -0.9352875 2.458168q-0.10644531 0.8991928 0.38426208 1.673729q0.50450134 0.78188324 1.5251617 1.325203q1.751648 0.9324417 2.9145203 0.5425186q1.170227 -0.4037094 2.373169 -2.6663132l3.682129 -6.9257736zm-2.5571594 14.038559l4.628357 -8.705498l1.3240662 0.7048416l-0.66012573 1.2416687q1.728302 -0.92087555 3.5351257 0.04093933q0.78619385 0.41849518 1.2941895 1.0606384q0.51535034 0.6283493 0.5831909 1.2662964q0.08895874 0.631485 -0.10317993 1.3257446q-0.13729858 0.45793915 -0.6800842 1.4788742l-2.8459473 5.3529816l-1.4757996 -0.78559875l2.8166199 -5.297798q0.4767456 -0.89676666 0.5321655 -1.4337006q0.076538086 -0.54338074 -0.22546387 -1.0404587q-0.30197144 -0.49707794 -0.89505005 -0.8127899q-0.9378967 -0.49925995 -1.9429321 -0.27311707q-0.99124146 0.23347473 -1.8861084 1.9166336l-2.5232239 4.745949l-1.4757996 -0.7856064zm14.800049 7.878395l0.586792 -1.103714q-1.5170288 0.8563385 -3.1169739 0.0046539307q-1.0344238 -0.5506592 -1.6164246 -1.5861969q-0.56088257 -1.0419922 -0.500824 -2.3199005q0.08117676 -1.2843628 0.7926636 -2.6226044q0.68948364 -1.2968597 1.6818542 -2.1315765q1.006134 -0.8273697 2.1620178 -0.9378128q1.1696472 -0.10309601 2.2454834 0.4695816q0.78616333 0.4185028 1.2170105 1.0726624q0.4446106 0.66150665 0.54473877 1.4051437l2.2885132 -4.3044586l1.4620056 0.7782593l-6.3814087 12.0028305l-1.365448 -0.7268677zm-2.3513794 -6.8274765q-0.8875122 1.6693649 -0.62420654 2.8715897q0.27713013 1.2095642 1.2288208 1.7161713q0.9654541 0.51394653 2.0593872 0.08731079q1.0939331 -0.42662048 1.9594421 -2.054596q0.946228 -1.7797241 0.6966858 -2.974617q-0.2421875 -1.2086792 -1.249054 -1.7446518q-0.97927856 -0.521286 -2.066742 -0.073516846q-1.0874634 0.44776917 -2.0043335 2.1723099zm13.316498 9.071175l1.4144897 1.0007782q-1.0627747 1.1335449 -2.4381409 1.3572693q-1.3542175 0.21725464 -2.871399 -0.5903778q-1.9033813 -1.0131989 -2.3970947 -2.7806091q-0.4937439 -1.767395 0.63583374 -3.8920288q1.1662598 -2.1936188 2.9289246 -2.8129883q1.7764893 -0.61203766 3.583313 0.34977722q1.751648 0.93244934 2.2242432 2.7062988q0.4725952 1.7738495 -0.6789856 3.9398804q-0.06600952 0.124176025 -0.21917725 0.37895203l-6.482483 -3.4507751q-0.6800842 1.4788818 -0.35250854 2.6268005q0.32757568 1.147934 1.4172058 1.7279663q0.7999573 0.42582703 1.5855103 0.31297302q0.80667114 -0.11932373 1.6502686 -0.8739166zm-3.5722656 -4.963852l4.8549805 2.5844116q0.48291016 -1.1412964 0.321167 -1.9354401q-0.24865723 -1.2298279 -1.3796387 -1.8318787q-1.0068665 -0.53596497 -2.0770264 -0.22059631q-1.0490417 0.30891418 -1.7194824 1.4035034zm5.2699585 9.460861l4.628357 -8.705505l1.3240967 0.70484924l-0.7041626 1.3244476q1.00177 -0.6526947 1.583374 -0.71481323q0.5889282 -0.075912476 1.1130371 0.20307922q0.744812 0.39646912 1.2604675 1.2904968l-1.2364807 1.0941925q-0.36920166 -0.6036682 -0.92092896 -0.89733887q-0.48272705 -0.25697327 -1.0229492 -0.1728363q-0.5264282 0.0914917 -0.9633484 0.513855q-0.6663513 0.65423584 -1.1651306 1.5923767l-2.4205017 4.5527954l-1.4758301 -0.78559875zm21.068726 5.816574l1.3734436 1.2444305q-1.5381165 1.6947784 -3.384735 2.0393524q-1.8392639 0.33076477 -3.7150574 -0.6677551q-1.9447632 -1.0352325 -2.7404175 -2.4677277q-0.78829956 -1.4462891 -0.6305847 -3.2740326q0.16503906 -1.8415375 1.0819092 -3.5660858q0.9975586 -1.8763123 2.441803 -2.8952942q1.4580383 -1.0116425 3.1635437 -1.0242157q1.7128296 -0.026367188 3.2989807 0.8179779q1.8068237 0.96180725 2.5429077 2.5396118q0.7434387 1.5640106 0.34597778 3.4765472l-1.7565918 -0.45715332q0.28305054 -1.5309296 -0.20153809 -2.550003q-0.4772339 -1.0328827 -1.677185 -1.6716461q-1.379242 -0.73420715 -2.66922 -0.5712433q-1.2761841 0.17030334 -2.2638245 1.0960236q-0.9665222 0.91926575 -1.5973206 2.1057587q-0.81417847 1.5313873 -0.9816284 2.911438q-0.14630127 1.3735962 0.49084473 2.438507q0.65097046 1.0722504 1.7405701 1.6522827q1.3378906 0.71217346 2.6654053 0.44529724q1.3348389 -0.28068542 2.4727173 -1.6220703zm2.65625 1.2369843q1.2836304 -2.4143677 3.2587585 -2.8675385q1.6306458 -0.3710327 3.2443848 0.48799133q1.7930298 0.9544678 2.293213 2.7430115q0.52130127 1.7820892 -0.578949 3.851532q-0.8948364 1.6831665 -1.9186096 2.377243q-1.002655 0.6876373 -2.254181 0.7117462q-1.2304382 0.017669678 -2.3752136 -0.59173584q-1.8206177 -0.9691467 -2.328125 -2.7438965q-0.50753784 -1.7747345 0.6587219 -3.9683533zm1.5171814 0.80763245q-0.8875122 1.6693573 -0.59661865 2.886261q0.29092407 1.216919 1.3943176 1.8042755q1.1033936 0.5873718 2.2607117 0.14138794q1.1784363 -0.4524536 2.0879822 -2.163208q0.8581848 -1.6141663 0.56726074 -2.8310852q-0.29089355 -1.2169037 -1.3805237 -1.796936q-1.1033936 -0.58735657 -2.2745056 -0.14871216q-1.1710815 0.4386444 -2.0586243 2.108017zm5.882904 8.707382l4.628357 -8.705505l1.3240662 0.70484924l-0.66012573 1.2416687q1.728302 -0.9208832 3.5351257 0.04093933q0.78616333 0.4185028 1.2941895 1.0606384q0.51535034 0.6283417 0.5831909 1.2662964q0.08895874 0.631485 -0.10317993 1.3257446q-0.13729858 0.45794678 -0.6800842 1.4788666l-2.8459473 5.352997l-1.4757996 -0.785614l2.8165894 -5.2977905q0.47677612 -0.8967743 0.53219604 -1.4337006q0.076538086 -0.54338074 -0.22546387 -1.0404663q-0.30200195 -0.4970703 -0.89508057 -0.81277466q-0.9378662 -0.49926758 -1.9429016 -0.27313232q-0.99124146 0.23348999 -1.8861084 1.9166412l-2.5232239 4.745941l-1.4757996 -0.78559875zm9.944794 1.9660645l1.5867004 0.54371643q-0.3453064 0.9490509 -0.042999268 1.7118073q0.3234558 0.7563019 1.3302917 1.2922821q1.0206604 0.54330444 1.7234497 0.38638306q0.71658325 -0.14956665 1.0099792 -0.701416q0.2640381 -0.49667358 -0.009490967 -1.0140076q-0.20074463 -0.3546753 -1.2393188 -1.2969513q-1.4074707 -1.2802582 -1.8879089 -1.9077148q-0.45928955 -0.63391113 -0.5115967 -1.3343811q-0.031158447 -0.7069397 0.3062439 -1.341568q0.30807495 -0.5794525 0.834198 -0.936615q0.5398865 -0.349823 1.1710815 -0.4386444q0.47686768 -0.06478882 1.1652832 0.07156372q0.68844604 0.1363678 1.3642883 0.49612427q1.0344238 0.5506592 1.6454468 1.2653351q0.61834717 0.70088196 0.7055664 1.4022369q0.1083374 0.6949005 -0.20117188 1.609909l-1.5371094 -0.5704346q0.25552368 -0.71362305 -0.029174805 -1.3430939q-0.26358032 -0.6359253 -1.1187134 -1.0911407q-1.0206299 -0.54330444 -1.6315918 -0.42601013q-0.6036072 0.103515625 -0.8383179 0.54499817q-0.15402222 0.28971863 -0.09942627 0.6197052q0.054626465 0.32998657 0.36010742 0.68733215q0.17669678 0.20024109 1.0911255 1.0764465q1.3385315 1.2435455 1.8198242 1.8360748q0.48129272 0.59251404 0.554718 1.2865448q0.08721924 0.701355 -0.31619263 1.4601593q-0.38876343 0.7312012 -1.1684265 1.1658173q-0.77230835 0.42082214 -1.7767639 0.346344q-0.99713135 -0.088272095 -2.0177917 -0.63157654q-1.6964722 -0.9030762 -2.2189026 -2.0839386q-0.5086365 -1.1735077 -0.023406982 -2.6852875zm11.379852 7.6862335l-0.4899292 1.4207916q-0.686676 -0.20622253 -1.183197 -0.47053528q-0.7999878 -0.4258423 -1.109314 -0.9091339q-0.30200195 -0.4970703 -0.2685852 -0.99261475q0.040740967 -0.5093384 0.7522278 -1.84758l2.655243 -4.994278l-1.0895996 -0.58003235l0.6161194 -1.1588898l1.0896301 0.5800171l1.1442566 -2.1522217l1.931427 -0.10470581l-1.613678 3.0351868l1.4895935 0.7929535l-0.6161194 1.1588898l-1.4895935 -0.79293823l-2.6992798 5.077057q-0.33740234 0.6346283 -0.36380005 0.85069275q-0.012573242 0.22340393 0.10803223 0.42922974q0.12063599 0.20581055 0.45166016 0.38201904q0.23446655 0.124816895 0.684906 0.27609253zm0.6300354 2.034668l4.6283264 -8.705505l1.3240967 0.70484924l-0.7041626 1.3244476q1.00177 -0.6526947 1.583374 -0.71481323q0.5889282 -0.075927734 1.1130676 0.20307922q0.7447815 0.39646912 1.260437 1.2904968l-1.2364807 1.0941925q-0.36920166 -0.6036682 -0.92089844 -0.8973541q-0.48275757 -0.25697327 -1.0229797 -0.17282104q-0.5264282 0.0914917 -0.9633179 0.5138397q-0.6663513 0.65423584 -1.1651306 1.592392l-2.4205322 4.5527954l-1.4757996 -0.78559875zm11.194183 5.9589233l0.6821594 -1.2830658q-1.7917175 0.9402466 -3.5433655 0.007797241q-0.75857544 -0.40382385 -1.2803955 -1.053299q-0.5006714 -0.6559448 -0.59695435 -1.2736359q-0.08251953 -0.61035156 0.124298096 -1.3321991q0.15194702 -0.48553467 0.6507263 -1.4236908l2.8679504 -5.3943787l1.4758301 0.78559875l-2.5672302 4.8287354q-0.6161499 1.1588898 -0.74609375 1.6030426q-0.1701355 0.65286255 0.10897827 1.2262573q0.27911377 0.57341003 0.9411316 0.925827q0.66204834 0.352417 1.4173889 0.3296814q0.7626648 -0.0365448 1.3052063 -0.49118042q0.56365967 -0.4610901 1.1577759 -1.5785828l2.4792175 -4.6631775l1.4757996 0.78559875l-4.6283264 8.705505l-1.3240967 -0.704834zm10.839447 1.6811829l1.3455505 0.96406555q-1.0266418 1.3651886 -2.4606934 1.6992798q-1.4266968 0.32028198 -2.8611145 -0.44329834q-1.7792358 -0.9471283 -2.252716 -2.6860352q-0.45236206 -1.7453766 0.7065735 -3.9252014q0.7481384 -1.4072266 1.7607727 -2.2134705q1.0337219 -0.8126831 2.2641296 -0.8303375q1.2515564 -0.024108887 2.368744 0.57058716q1.4206238 0.75624084 1.93573 1.950882q0.5151062 1.1946564 0.07299805 2.6585999l-1.5517883 -0.5428314q0.26254272 -0.993103 -0.026855469 -1.7135773q-0.2893982 -0.7204895 -1.0203857 -1.1096191q-1.1171875 -0.5947113 -2.2460327 -0.16896057q-1.1150818 0.43307495 -2.0319214 2.1576233q-0.9315491 1.7521362 -0.68115234 2.912094q0.25775146 1.1461487 1.3335876 1.7188263q0.868927 0.46255493 1.7269287 0.24665833q0.86535645 -0.22969055 1.6176453 -1.245285zm4.7888794 4.938843l-0.4899292 1.4207764q-0.686676 -0.20622253 -1.1832275 -0.47053528q-0.7999573 -0.4258423 -1.1092834 -0.90911865q-0.30200195 -0.49708557 -0.2685852 -0.99263q0.040740967 -0.5093384 0.7522278 -1.84758l2.655243 -4.994278l-1.0895996 -0.58003235l0.6161194 -1.1588898l1.0895996 0.5800171l1.1442566 -2.1522217l1.9314575 -0.10470581l-1.613678 3.035202l1.4895935 0.79293823l-0.6161499 1.1588898l-1.4895935 -0.79293823l-2.6992493 5.077057q-0.33740234 0.6346283 -0.36380005 0.85069275q-0.01260376 0.22340393 0.10803223 0.42922974q0.12060547 0.20581055 0.45162964 0.38201904q0.23446655 0.124816895 0.6849365 0.2761078zm6.1441345 -8.27034l0.89486694 -1.6831512l1.4757996 0.78559875l-0.89486694 1.6831665l-1.4757996 -0.785614zm-5.4865417 10.319687l4.628357 -8.705505l1.4757996 0.78559875l-4.628357 8.705505l-1.4757996 -0.78559875zm5.4037476 -2.6992645q1.2835999 -2.4143524 3.2587585 -2.8675232q1.6306458 -0.3710327 3.2443542 0.48799133q1.7930298 0.9544678 2.293213 2.7429962q0.5213318 1.7820892 -0.57891846 3.8515472q-0.89486694 1.6831512 -1.9186401 2.377243q-1.0026245 0.6876373 -2.254181 0.7117462q-1.2304077 0.017654419 -2.375183 -0.59173584q-1.8206177 -0.969162 -2.328125 -2.7438965q-0.50753784 -1.7747498 0.6587219 -3.9683685zm1.5171814 0.80763245q-0.8875427 1.6693573 -0.59661865 2.8862762q0.29089355 1.2169037 1.3943176 1.8042755q1.1033936 0.5873718 2.2607117 0.14137268q1.1784363 -0.4524536 2.0879517 -2.1631927q0.8581848 -1.6141815 0.56729126 -2.8310852q-0.29092407 -1.216919 -1.3805237 -1.796936q-1.1033936 -0.5873718 -2.2745056 -0.14872742q-1.1711121 0.43865967 -2.0586243 2.108017zm5.882904 8.707382l4.6283264 -8.70549l1.3240967 0.704834l-0.66015625 1.2416687q1.7283325 -0.9208679 3.5351562 0.04093933q0.78616333 0.4185028 1.2941895 1.0606384q0.5153198 0.62835693 0.5831604 1.2662964q0.08898926 0.631485 -0.10317993 1.3257446q-0.13726807 0.45794678 -0.6800537 1.4788818l-2.8459778 5.3529816l-1.4757996 -0.78559875l2.8166199 -5.297806q0.47677612 -0.89675903 0.53219604 -1.4336853q0.076538086 -0.543396 -0.22546387 -1.0404663q-0.30200195 -0.49708557 -0.89508057 -0.8127899q-0.9378967 -0.49926758 -1.9429321 -0.27311707q-0.99121094 0.23347473 -1.8860779 1.916626l-2.5232239 4.7459564l-1.4757996 -0.785614zm32.759766 2.0389862l1.5861206 0.84432983l-3.682129 6.9257812q-0.9682007 1.821106 -1.9467773 2.6631622q-0.9647522 0.849411 -2.399994 0.95274353q-1.414093 0.09689331 -3.1519775 -0.82821655q-1.6826782 -0.8957367 -2.4504395 -2.0478668q-0.7677307 -1.1521301 -0.6361084 -2.4981232q0.13165283 -1.345993 1.1512146 -3.2636871l3.682129 -6.9257812l1.5861511 0.8443451l-3.6821594 6.925766q-0.8288269 1.5589905 -0.9352722 2.4581757q-0.10644531 0.8991852 0.38424683 1.6737366q0.5045166 0.7818756 1.5251465 1.3251953q1.7516785 0.93244934 2.9145508 0.54252625q1.170227 -0.40371704 2.373169 -2.6663208l3.682129 -6.925766zm-2.5571594 14.038559l4.628357 -8.705505l1.3240662 0.704834l-0.66012573 1.241684q1.728302 -0.9208832 3.5351257 0.040924072q0.78616333 0.4185028 1.2941895 1.0606537q0.5153198 0.6283417 0.5831909 1.2662811q0.08895874 0.63150024 -0.10317993 1.3257599q-0.13729858 0.45793152 -0.6800842 1.4788666l-2.8459473 5.3529816l-1.4757996 -0.78559875l2.8165894 -5.297806q0.47677612 -0.89675903 0.53219604 -1.4336853q0.076538086 -0.543396 -0.22546387 -1.0404663q-0.30200195 -0.4970703 -0.89508057 -0.8127899q-0.9378967 -0.49925232 -1.9429016 -0.27311707q-0.99124146 0.23347473 -1.8861084 1.9166412l-2.5232239 4.745941l-1.4757996 -0.78559875zm14.800049 7.8783875l0.586792 -1.103714q-1.5170288 0.8563385 -3.1169739 0.0046539307q-1.0344543 -0.5506592 -1.6164246 -1.5861969q-0.56088257 -1.0419922 -0.500824 -2.3199005q0.08117676 -1.2843628 0.7926636 -2.6226044q0.68948364 -1.2968597 1.6818237 -2.1315765q1.0061646 -0.8273773 2.1620178 -0.9378052q1.1696777 -0.10310364 2.2454834 0.46957397q0.78619385 0.4185028 1.2170105 1.0726624q0.4446411 0.6615143 0.5447693 1.4051514l2.2884827 -4.304474l1.4620361 0.77827454l-6.3814087 12.002823l-1.365448 -0.7268677zm-2.3513794 -6.827469q-0.8875427 1.6693573 -0.62420654 2.871582q0.2770996 1.2095642 1.2287903 1.7161713q0.9654846 0.51394653 2.0594177 0.08731079q1.0939331 -0.42662048 1.9594421 -2.054596q0.9461975 -1.7797241 0.6966858 -2.9746094q-0.24221802 -1.2086945 -1.249054 -1.7446594q-0.97927856 -0.521286 -2.066742 -0.073516846q-1.0874634 0.44776917 -2.0043335 2.1723175zm13.316467 9.071167l1.4144897 1.0007782q-1.0627441 1.1335449 -2.4381104 1.3572693q-1.3542175 0.21725464 -2.871399 -0.5903778q-1.9033813 -1.0131989 -2.3970947 -2.7806091q-0.4937439 -1.767395 0.63583374 -3.8920288q1.1662598 -2.1936188 2.9289246 -2.8129883q1.7764587 -0.61203 3.5832825 0.34977722q1.7516785 0.93244934 2.2242737 2.7062988q0.4725952 1.7738495 -0.6789856 3.9398804q-0.06600952 0.124176025 -0.21917725 0.37895203l-6.4825134 -3.4507751q-0.6800537 1.4788818 -0.35247803 2.6268005q0.32757568 1.147934 1.4172058 1.7279663q0.7999573 0.42582703 1.5855103 0.31297302q0.80667114 -0.11932373 1.650238 -0.8739166zm-3.572235 -4.963852l4.8549805 2.5844116q0.48291016 -1.1412964 0.321167 -1.9354401q-0.24865723 -1.2298279 -1.3796692 -1.8318787q-1.0068359 -0.53596497 -2.0769958 -0.22059631q-1.0490417 0.30891418 -1.7194824 1.4035034zm5.2699585 9.460861l4.628357 -8.705505l1.3240662 0.70484924l-0.7041321 1.3244476q1.0017395 -0.6526947 1.5833435 -0.71481323q0.58895874 -0.075912476 1.1130676 0.20307922q0.7447815 0.39646912 1.2604675 1.2904968l-1.2364807 1.0941925q-0.36923218 -0.6036682 -0.92092896 -0.89733887q-0.48272705 -0.25697327 -1.0229492 -0.1728363q-0.5264282 0.0914917 -0.9633484 0.513855q-0.6663513 0.65423584 -1.1651306 1.5923767l-2.4205322 4.5527954l-1.4757996 -0.78559875zm21.068726 5.816574l1.3734131 1.2444305q-1.5380859 1.6947784 -3.3847046 2.0393524q-1.8392944 0.33076477 -3.7150574 -0.6677551q-1.9447632 -1.0352325 -2.7404175 -2.4677277q-0.7883301 -1.4462891 -0.63061523 -3.2740326q0.16506958 -1.8415375 1.0819397 -3.5660858q0.9975281 -1.8763123 2.441803 -2.8952942q1.4580383 -1.0116425 3.1635437 -1.0242157q1.7128296 -0.026367188 3.2989502 0.8179779q1.8068237 0.96180725 2.5429382 2.5396118q0.7434387 1.5640106 0.34597778 3.4765472l-1.7565918 -0.45715332q0.28302002 -1.5309296 -0.20153809 -2.550003q-0.4772339 -1.0328827 -1.677185 -1.6716461q-1.379242 -0.73420715 -2.66922 -0.5712433q-1.2761841 0.17030334 -2.2638245 1.0960236q-0.9665222 0.91926575 -1.5973511 2.1057587q-0.81417847 1.5314026 -0.9815979 2.911438q-0.14633179 1.3735962 0.49084473 2.438507q0.65093994 1.0722504 1.7405701 1.6522827q1.3378601 0.71217346 2.6654053 0.44529724q1.3348389 -0.28067017 2.4727173 -1.6220703zm2.65625 1.2369843q1.2835999 -2.4143677 3.2587585 -2.8675385q1.6306458 -0.3710327 3.2443542 0.48799133q1.7930298 0.9544678 2.293213 2.7430115q0.5213318 1.7820892 -0.57891846 3.851532q-0.89486694 1.6831665 -1.9186401 2.377243q-1.0026245 0.6876373 -2.254181 0.7117462q-1.2304077 0.017669678 -2.375183 -0.59173584q-1.8206177 -0.9691467 -2.328125 -2.7438965q-0.50753784 -1.7747345 0.6587219 -3.9683533zm1.5171814 0.80763245q-0.8875122 1.6693573 -0.59661865 2.886261q0.29092407 1.216919 1.3943176 1.8042908q1.1033936 0.58735657 2.2607117 0.14137268q1.1784363 -0.4524536 2.0879517 -2.163208q0.85821533 -1.6141663 0.56729126 -2.8310852q-0.29092407 -1.2169037 -1.3805237 -1.796936q-1.1033936 -0.58735657 -2.2745056 -0.14871216q-1.1711121 0.43865967 -2.0586243 2.108017zm5.882904 8.707397l4.628357 -8.705505l1.3240967 0.704834l-0.66015625 1.2416687q1.728302 -0.9208679 3.5351257 0.04093933q0.78619385 0.4185028 1.2941895 1.0606537q0.51535034 0.6283417 0.5831909 1.2662811q0.08895874 0.63150024 -0.10317993 1.3257446q-0.13729858 0.45794678 -0.6800842 1.4788818l-2.8459473 5.3529816l-1.4757996 -0.78559875l2.8166199 -5.297806q0.4767456 -0.89675903 0.5321655 -1.4336853q0.076538086 -0.543396 -0.22543335 -1.0404663q-0.30200195 -0.49708557 -0.89508057 -0.8127899q-0.9378967 -0.49926758 -1.9429321 -0.27311707q-0.99124146 0.23347473 -1.8861084 1.916626l-2.5231934 4.7459564l-1.4758301 -0.78559875zm9.944763 1.9660492l1.5867004 0.54371643q-0.34527588 0.9490509 -0.04296875 1.7118073q0.3234253 0.7563019 1.3302917 1.2922821q1.0206604 0.54330444 1.7234497 0.38638306q0.71655273 -0.14956665 1.0099487 -0.701416q0.2640686 -0.49667358 -0.009460449 -1.0140076q-0.20074463 -0.3546753 -1.2393188 -1.2969513q-1.4075012 -1.2802582 -1.8879089 -1.9077148q-0.45928955 -0.63391113 -0.5115967 -1.3343811q-0.031158447 -0.7069397 0.3062439 -1.341568q0.30807495 -0.57943726 0.834198 -0.936615q0.5398865 -0.349823 1.1710815 -0.4386444q0.47683716 -0.06478882 1.1652832 0.07156372q0.68844604 0.1363678 1.3642578 0.49612427q1.0344543 0.5506592 1.6454773 1.2653351q0.61834717 0.70088196 0.7055359 1.4022369q0.10836792 0.6949005 -0.20114136 1.609909l-1.5371094 -0.5704346q0.25552368 -0.71362305 -0.029174805 -1.3430939q-0.26358032 -0.6359253 -1.1187134 -1.0911407q-1.0206604 -0.54330444 -1.6315918 -0.42601013q-0.6036072 0.103515625 -0.8383179 0.54499817q-0.15405273 0.28971863 -0.09942627 0.6197052q0.054595947 0.32998657 0.36010742 0.68733215q0.17666626 0.20024109 1.0911255 1.0764465q1.338501 1.2435455 1.8198242 1.8360748q0.48129272 0.59251404 0.554718 1.2865448q0.08721924 0.701355 -0.31622314 1.4601593q-0.3887329 0.7312012 -1.168396 1.1658173q-0.77230835 0.42082214 -1.7767639 0.346344q-0.99713135 -0.088272095 -2.0177917 -0.63157654q-1.6964722 -0.9030762 -2.2189026 -2.0839386q-0.508667 -1.1735077 -0.0234375 -2.6852875zm11.379883 7.6862335l-0.4899292 1.4207916q-0.686676 -0.20622253 -1.183197 -0.47053528q-0.7999878 -0.4258423 -1.109314 -0.9091339q-0.30200195 -0.4970703 -0.2685852 -0.99261475q0.040740967 -0.5093384 0.7522278 -1.84758l2.655243 -4.994278l-1.0895996 -0.58003235l0.6161194 -1.1588898l1.0896301 0.5800171l1.1442261 -2.1522217l1.9314575 -0.10470581l-1.613678 3.0351868l1.4895935 0.7929535l-0.6161499 1.1588898l-1.4895935 -0.79293823l-2.6992493 5.077057q-0.33740234 0.6346283 -0.36380005 0.85069275q-0.01260376 0.22340393 0.10803223 0.42922974q0.12063599 0.20581055 0.45162964 0.38201904q0.23449707 0.124816895 0.6849365 0.27609253zm0.6300354 2.0346832l4.6283264 -8.705505l1.3240967 0.704834l-0.7041626 1.3244476q1.00177 -0.6526947 1.583374 -0.71481323q0.5889282 -0.075912476 1.1130676 0.20307922q0.7447815 0.39648438 1.260437 1.2905121l-1.2364807 1.0941772q-0.36920166 -0.60365295 -0.92089844 -0.89733887q-0.48272705 -0.25697327 -1.0229492 -0.1728363q-0.52645874 0.0914917 -0.9633484 0.513855q-0.6663513 0.65423584 -1.1651306 1.592392l-2.4205322 4.5527954l-1.4757996 -0.78559875zm11.194183 5.958908l0.6821594 -1.2830505q-1.791687 0.9402313 -3.5433655 0.0077819824q-0.75857544 -0.4038086 -1.280365 -1.053299q-0.5007019 -0.65592957 -0.59698486 -1.2736359q-0.08251953 -0.61035156 0.124298096 -1.3321991q0.15197754 -0.48553467 0.6507263 -1.4236908l2.867981 -5.3943634l1.4757996 0.78559875l-2.5672302 4.82872q-0.6161499 1.1588898 -0.74609375 1.6030426q-0.1701355 0.65286255 0.10897827 1.2262726q0.27911377 0.5733948 0.9411621 0.925827q0.6620178 0.352417 1.4173584 0.32966614q0.7626648 -0.0365448 1.3052063 -0.49116516q0.56365967 -0.4610901 1.1577759 -1.578598l2.4792175 -4.663162l1.4757996 0.78559875l-4.6283264 8.70549l-1.3240967 -0.704834zm10.839447 1.6811829l1.34552 0.9640503q-1.0266113 1.3652039 -2.4606934 1.6992798q-1.4266968 0.3203125 -2.861084 -0.44326782q-1.7792664 -0.94714355 -2.2527466 -2.6860657q-0.45233154 -1.7453613 0.7065735 -3.9251862q0.74816895 -1.4072266 1.7607727 -2.2134705q1.0337524 -0.8126831 2.2641602 -0.8303375q1.2515259 -0.024108887 2.3687134 0.57058716q1.4206543 0.75624084 1.93573 1.950882q0.5151367 1.1946564 0.07299805 2.6585999l-1.5517578 -0.5428314q0.26257324 -0.993103 -0.026855469 -1.7135773q-0.28936768 -0.7204895 -1.0203857 -1.1096191q-1.1171875 -0.5947113 -2.2460327 -0.16896057q-1.1150513 0.43307495 -2.0319214 2.1576233q-0.9315491 1.7521362 -0.68115234 2.9120789q0.25775146 1.1461792 1.3335571 1.7188416q0.8689575 0.46255493 1.7269287 0.24667358q0.86535645 -0.22970581 1.6176758 -1.2453003zm4.7888794 4.938843l-0.4899292 1.4207764q-0.68670654 -0.2062378 -1.1832275 -0.47055054q-0.7999878 -0.4258423 -1.109314 -0.90911865q-0.30200195 -0.4970703 -0.2685547 -0.99261475q0.04071045 -0.5093384 0.75219727 -1.8475647l2.6552734 -4.994293l-1.0895996 -0.58003235l0.61608887 -1.1588898l1.0896606 0.58003235l1.1442261 -2.152237l1.9314575 -0.10470581l-1.6137085 3.035202l1.489624 0.79293823l-0.6161499 1.1588898l-1.489624 -0.79293823l-2.6992188 5.077057q-0.33740234 0.63464355 -0.36383057 0.850708q-0.012573242 0.22338867 0.10803223 0.42919922q0.120666504 0.20584106 0.45166016 0.38204956q0.23449707 0.124816895 0.6849365 0.27609253zm6.144104 -8.27034l0.8948364 -1.6831512l1.4758301 0.78559875l-0.8948364 1.6831512l-1.4758301 -0.78559875zm-5.486511 10.319687l4.628357 -8.705521l1.475769 0.78559875l-4.628357 8.705505l-1.475769 -0.7855835zm5.4037476 -2.6992493q1.2836304 -2.4143677 3.258728 -2.8675537q1.6306763 -0.3710327 3.2443848 0.4880066q1.7930298 0.9544678 2.293213 2.7430115q0.52130127 1.782074 -0.57891846 3.851532q-0.8948364 1.6831665 -1.9186401 2.3772278q-1.0026245 0.6876526 -2.2541504 0.7117615q-1.2304688 0.017669678 -2.3752441 -0.59173584q-1.8206177 -0.9691467 -2.328125 -2.7438965q-0.5075073 -1.7747498 0.65875244 -3.9683533zm1.5171509 0.8076172q-0.8875122 1.6693726 -0.59661865 2.886261q0.2909546 1.216919 1.3943481 1.8042908q1.1033936 0.5873718 2.2606812 0.14138794q1.1784668 -0.4524536 2.0880127 -2.163208q0.8581543 -1.6141663 0.56726074 -2.8310852q-0.29089355 -1.216919 -1.3805542 -1.796936q-1.1033936 -0.5873718 -2.274475 -0.14871216q-1.1710815 0.43862915 -2.0586548 2.1080017zm5.8829346 8.707397l4.628357 -8.705505l1.3240967 0.704834l-0.66015625 1.2416687q1.7282715 -0.9208679 3.5350952 0.04095459q0.78619385 0.41848755 1.2941895 1.0606384q0.51538086 0.62835693 0.5831909 1.2662964q0.08898926 0.6314697 -0.103149414 1.3257446q-0.1373291 0.45794678 -0.68011475 1.4788818l-2.8459473 5.3529663l-1.475769 -0.7855835l2.8165894 -5.297821q0.47680664 -0.89675903 0.5321655 -1.4336853q0.07659912 -0.543396 -0.22540283 -1.0404663q-0.30200195 -0.4970703 -0.89508057 -0.81277466q-0.93792725 -0.49926758 -1.9429321 -0.27313232q-0.991272 0.23348999 -1.8861084 1.916626l-2.5231934 4.7459717l-1.4758301 -0.785614z" fill-rule="nonzero"></path><path fill="#ffe600" d="m252.44426 91.41106l4.5048676 2.39505l-17.815018 33.508484l-4.504883 -2.39505z" fill-rule="nonzero"></path><path fill="#ffe600" d="m-66.23638 -79.14129l321.53717 171.1615l-18.421173 34.648613l-321.53717 -171.1615z" fill-rule="nonzero"></path><path stroke="#434343" stroke-width="1.0" stroke-linejoin="round" stroke-linecap="butt" stroke-dasharray="8.0,3.0" d="m-66.23638 -79.14129l321.53717 171.1615l-18.421173 34.648613l-321.53717 -171.1615z" fill-rule="nonzero"></path><path fill="#000000" d="m-55.197517 -58.598156l1.5861435 0.84433746l-3.6821365 6.9257736q-0.9682083 1.8211174 -1.9467773 2.6631737q-0.9647713 0.84939957 -2.4000015 0.9527397q-1.4141045 0.09688568 -3.1519623 -0.82822037q-1.6826935 -0.8957329 -2.450447 -2.047863q-0.767746 -1.1521301 -0.6361084 -2.498127q0.13163757 -1.3459969 1.1511917 -3.263691l3.6821365 -6.92577l1.5861435 0.84433746l-3.6821365 6.9257736q-0.82884216 1.5589867 -0.9352875 2.4581757q-0.10644531 0.8991852 0.38426208 1.6737251q0.50450134 0.78188324 1.5251541 1.3251991q1.7516518 0.9324455 2.9145393 0.54252625q1.1702232 -0.40371704 2.3731499 -2.6663208l3.6821365 -6.92577zm-2.557148 14.038559l4.6283417 -8.705502l1.3240814 0.7048416l-0.660141 1.2416725q1.7283096 -0.92087555 3.5351334 0.040935516q0.7861748 0.418499 1.2941856 1.0606422q0.5153427 0.6283493 0.5831833 1.2662926q0.088970184 0.6314888 -0.10317612 1.3257484q-0.13729477 0.45794296 -0.6800804 1.4788704l-2.845951 5.352989l-1.4758034 -0.78560257l2.8166122 -5.297802q0.4767723 -0.89676285 0.5321884 -1.4336929q0.0765419 -0.54338455 -0.22545624 -1.0404625q-0.30199814 -0.49707794 -0.89508057 -0.8127899q-0.9378929 -0.49925995 -1.9429207 -0.27312088q-0.99123764 0.23348236 -1.886097 1.9166374l-2.5232162 4.745945l-1.4758034 -0.78560257zm14.800037 7.878395l0.5867958 -1.1037102q-1.5170364 0.8563347 -3.1169739 0.0046539307q-1.0344429 -0.5506592 -1.6164322 -1.5862007q-0.5608635 -1.0419998 -0.50081635 -2.3199043q0.08117294 -1.2843552 0.79265976 -2.6226044q0.68948364 -1.2968559 1.6818428 -2.1315727q1.0061493 -0.8273735 2.1620216 -0.9378128q1.1696625 -0.10309982 2.2454796 0.4695816q0.7861748 0.418499 1.2170105 1.0726662q0.44462585 0.66150665 0.544754 1.4051399l2.288498 -4.3044624l1.4620132 0.7782631l-6.3813896 12.0028305l-1.3654633 -0.7268677zm-2.3513794 -6.8274765q-0.88752747 1.6693573 -0.6242027 2.8715858q0.27711868 1.2095718 1.2288017 1.7161751q0.9654808 0.51394653 2.0594063 0.087314606q1.0939255 -0.4266281 1.959446 -2.0545998q0.94620895 -1.7797318 0.69667435 -2.974617q-0.24219513 -1.208683 -1.2490501 -1.7446518q-0.97927094 -0.5212898 -2.066742 -0.07352066q-1.0874672 0.44776917 -2.0043335 2.1723137zm13.316484 9.071167l1.4144917 1.0007782q-1.0627613 1.1335564 -2.438118 1.3572693q-1.354229 0.21726227 -2.8714104 -0.59036636q-1.9033699 -1.0132103 -2.3970985 -2.7806091q-0.49372864 -1.7673988 0.6358528 -3.8920364q1.1662521 -2.1936226 2.9289246 -2.812992q1.7764626 -0.61203 3.5832863 0.34978485q1.7516537 0.9324455 2.2242527 2.7062988q0.47260094 1.7738533 -0.6789837 3.9398804q-0.06601524 0.124168396 -0.21917152 0.37895584l-6.4824963 -3.450779q-0.6800804 1.4788742 -0.3524933 2.6268044q0.3275833 1.1479301 1.4171944 1.7279549q0.7999687 0.42583847 1.5855103 0.31297684q0.80667114 -0.119319916 1.650259 -0.87392044zm-3.5722408 -4.9638443l4.8549767 2.5844154q0.48291016 -1.1413078 0.32115364 -1.9354515q-0.24865341 -1.2298203 -1.3796425 -1.831871q-1.0068569 -0.5359726 -2.0770245 -0.22060013q-1.0490379 0.308918 -1.7194633 1.4035072zm5.2699604 9.460863l4.6283417 -8.705503l1.3240852 0.7048416l-0.70415306 1.3244514q1.0017643 -0.6526985 1.5833664 -0.71481705q0.58893776 -0.07591629 1.1130543 0.20308304q0.74479866 0.39647293 1.260458 1.2905006l-1.2364826 1.0941811q-0.36920547 -0.60365677 -0.920908 -0.89733887q-0.4827385 -0.25697327 -1.0229645 -0.17282867q-0.52643204 0.091487885 -0.96333504 0.51384735q-0.66635704 0.65423584 -1.1651325 1.5923882l-2.4205265 4.5527973l-1.4758034 -0.78560257zm21.06871 5.816574l1.3734303 1.2444344q-1.5380917 1.694767 -3.3847113 2.039339q-1.8392849 0.3307743 -3.7150707 -0.6677494q-1.9447498 -1.0352345 -2.7404022 -2.4677315q-0.78831863 -1.446291 -0.6306038 -3.2740345q0.1650505 -1.8415375 1.0819168 -3.566084q0.99755096 -1.8763027 2.4417982 -2.8952885q1.4580402 -1.0116463 3.1635418 -1.0242157q1.7128363 -0.026367188 3.2989788 0.8179741q1.8068242 0.96181107 2.5429206 2.5396137q0.74343157 1.5640068 0.34597874 3.4765415l-1.7566009 -0.45715332q0.28304195 -1.5309162 -0.20152378 -2.5500011q-0.47723103 -1.0328808 -1.6771832 -1.6716404q-1.3792543 -0.73421097 -2.6692247 -0.5712471q-1.2761774 0.17030716 -2.263833 1.0960274q-0.96652794 0.91926956 -1.597332 2.1057568q-0.8141775 1.531395 -0.981616 2.91144q-0.1463089 1.3735905 0.49085236 2.4385033q0.6509533 1.0722542 1.7405643 1.6522789q1.3378773 0.7121811 2.6653996 0.44530296q1.334857 -0.2806778 2.4727201 -1.6220665zm2.65626 1.2369785q1.2836132 -2.414362 3.2587519 -2.867529q1.6306416 -0.37103653 3.2443697 0.48798752q1.7930313 0.9544716 2.2932165 2.7430096q0.5213125 1.7820835 -0.5789273 3.8515377q-0.89486146 1.6831551 -1.918631 2.377243q-1.0026419 0.6876335 -2.2541828 0.71174526q-1.2304132 0.01765728 -2.3751945 -0.5917349q-1.8206167 -0.96915627 -2.3281364 -2.7438965q-0.5075202 -1.7747421 0.65873384 -3.9683628zm1.5171804 0.80762863q-0.8875265 1.6693592 -0.5966172 2.8862724q0.2909093 1.2169113 1.3943129 1.8042774q1.103404 0.587368 2.2607126 0.14137459q1.1784358 -0.4524479 2.0879672 -2.1631947q0.85818684 -1.6141739 0.5672776 -2.831087q-0.29090923 -1.2169113 -1.3805206 -1.796936q-1.1034038 -0.587368 -2.274505 -0.14871597q-1.1711011 0.43865013 -2.0586276 2.1080093zm5.882904 8.707389l4.628341 -8.705501l1.3240848 0.7048397l-0.66014385 1.2416725q1.7283111 -0.92087555 3.5351348 0.040937424q0.7861757 0.418499 1.2941847 1.0606422q0.51534367 0.6283474 0.58318424 1.2662907q0.08896828 0.6314907 -0.103178024 1.3257484q-0.13729286 0.45794296 -0.68007755 1.4788733l-2.845953 5.3529863l-1.4758024 -0.78560257l2.8166132 -5.297802q0.4767704 -0.89676285 0.53218555 -1.4336929q0.0765419 -0.54338455 -0.22545624 -1.0404625q-0.30199814 -0.49707794 -0.8950777 -0.812788q-0.9378929 -0.49926186 -1.9429226 -0.2731228q-0.9912367 0.23348236 -1.8860984 1.9166374l-2.523216 4.745947l-1.4758027 -0.7856035zm9.944774 1.9660568l1.5867033 0.5437231q-0.34530258 0.94904613 -0.042987823 1.7118053q0.3234415 0.7563057 1.3302975 1.2922778q1.020649 0.54331446 1.7234354 0.3863964q0.7165804 -0.14957571 1.0099783 -0.70142984q0.26405716 -0.49666882 -0.009479523 -1.0139971q-0.20074654 -0.3546753 -1.2393293 -1.2969561q-1.4074736 -1.2802572 -1.8878965 -1.9077168q-0.45929623 -0.63391304 -0.51159 -1.3343849q-0.03116703 -0.70692635 0.30624008 -1.3415585q0.30806732 -0.5794468 0.83418274 -0.93661594q0.5399084 -0.3498268 1.1711016 -0.43865204q0.47684193 -0.06478119 1.1652756 0.071575165q0.6884346 0.13635826 1.3642693 0.4961195q1.034441 0.5506563 1.6454544 1.2653332q0.6183491 0.70088005 0.7055645 1.4022398q0.10834122 0.6949053 -0.20116425 1.6099043l-1.5371151 -0.57042885q0.2555294 -0.71361923 -0.029167175 -1.3430939q-0.26356888 -0.6359291 -1.1187057 -1.0911379q-1.020649 -0.54331493 -1.6315918 -0.42601013q-0.6036072 0.103507996 -0.83832455 0.5449915q-0.15403366 0.2897234 -0.09942436 0.61970806q0.0546093 0.32998562 0.360116 0.6873236q0.17667198 0.20025158 1.0911217 1.0764542q1.3385105 1.2435465 1.8198109 1.836071q0.48130226 0.5925245 0.55472183 1.2865419q0.08721542 0.70135975 -0.31620598 1.4601593q-0.38875198 0.7312069 -1.1683979 1.1658273q-0.77231026 0.42082453 -1.7767792 0.34634638q-0.99713326 -0.088274 -2.0177822 -0.63158846q-1.6964836 -0.9030762 -2.2189178 -2.0839257q-0.50864124 -1.1735077 -0.023413658 -2.6853018zm11.379874 7.686248l-0.4899311 1.4207854q-0.68667793 -0.20622683 -1.1832104 -0.47054195q-0.7999687 -0.42584085 -1.1093006 -0.909122q-0.30199814 -0.4970777 -0.26858902 -0.9926193q0.04074478 -0.5093374 0.7522335 -1.8475842l2.6552448 -4.994282l-1.089611 -0.5800247l0.61613464 -1.1588936l1.089611 0.5800247l1.144249 -2.1522322l1.9314461 -0.10470581l-1.6136856 3.0351992l1.4895954 0.7929449l-0.61613274 1.1588945l-1.4895954 -0.79294586l-2.699255 5.0770597q-0.33740616 0.6346326 -0.36379814 0.8506956q-0.012599945 0.22340488 0.1080246 0.42922306q0.12062454 0.20581818 0.4516449 0.3820281q0.23447418 0.124815464 0.6849251 0.2760961zm0.63002014 2.0346608l4.62834 -8.705502l1.3240852 0.7048397l-0.70415306 1.3244505q1.0017643 -0.6526985 1.5833664 -0.71481705q0.58893776 -0.07591534 1.1130543 0.20308399q0.74479866 0.39647198 1.260458 1.2905016l-1.2364826 1.094182q-0.36920547 -0.60365725 -0.920908 -0.8973408q-0.4827385 -0.25697327 -1.0229645 -0.17282772q-0.52643204 0.09148693 -0.96333504 0.51384735q-0.66635704 0.6542349 -1.1651325 1.5923872l-2.4205265 4.552798l-1.4758015 -0.78560317zm11.194189 5.95892l0.682148 -1.2830615q-1.7916946 0.940238 -3.5433483 0.007793188q-0.7585907 -0.4038148 -1.2803917 -1.0533004q-0.5006733 -0.65594006 -0.59697723 -1.2736335q-0.082509995 -0.6103514 0.124305725 -1.332201q0.15196228 -0.48553598 0.65073776 -1.4236883l2.86796 -5.394376l1.4757996 0.7856035l-2.5672245 4.828725q-0.61613464 1.1588941 -0.74609184 1.6030409q-0.17014122 0.6528679 0.10897446 1.2262692q0.27911568 0.5734014 0.9411583 0.9258216q0.6620407 0.3524201 1.417366 0.32967496q0.762661 -0.036541224 1.3052025 -0.4911728q0.5636673 -0.4610858 1.157795 -1.5785908l2.47921 -4.663169l1.4757996 0.7856033l-4.628338 8.705502l-1.3240852 -0.7048402zm10.839462 1.681181l1.3455276 0.96406794q-1.0266457 1.3651915 -2.460682 1.6992769q-1.4267044 0.32029057 -2.8611298 -0.4432869q-1.7792358 -0.9471288 -2.252716 -2.6860476q-0.4523468 -1.7453732 0.7065697 -3.9251976q0.74816513 -1.4072285 1.7607727 -2.2134628q1.0337372 -0.8126886 2.2641487 -0.83034635q1.2515411 -0.024111867 2.36874 0.57059705q1.4206314 0.75623477 1.93573 1.950881q0.5150986 1.1946461 0.073005676 2.658596l-1.5517845 -0.54283524q0.26254654 -0.993098 -0.026851654 -1.7135807q-0.2893982 -0.72048277 -1.0204048 -1.1096133q-1.1171951 -0.5947089 -2.2460442 -0.16896656q-1.1150513 0.43308446 -2.0319176 2.157629q-0.9315376 1.7521374 -0.68112946 2.9120886q0.25774384 1.1461544 1.3335648 1.7188373q0.8689308 0.46255112 1.726944 0.24665737q0.8653488 -0.22969055 1.6176567 -1.2452941zm4.7888603 4.9388423l-0.4899292 1.420785q-0.68667984 -0.20622635 -1.1832123 -0.47054195q-0.7999687 -0.42584038 -1.1092987 -0.9091215q-0.30199814 -0.49707794 -0.26858902 -0.9926195q0.04074478 -0.5093374 0.7522316 -1.8475838l2.6552467 -4.994282l-1.089611 -0.5800247l0.61613464 -1.158894l1.089611 0.5800247l1.144249 -2.1522317l1.9314461 -0.104705796l-1.6136856 3.0351987l1.4895935 0.7929454l-0.6161308 1.1588938l-1.4895973 -0.79294515l-2.699253 5.0770597q-0.33740616 0.6346321 -0.36380005 0.8506956q-0.01259613 0.22340488 0.1080246 0.42922306q0.12062454 0.20581722 0.4516449 0.38202763q0.23447418 0.12481594 0.6849251 0.27609634zm6.1441345 -8.27033l0.8948593 -1.6831558l1.4758034 0.7856032l-0.8948593 1.6831555l-1.4758034 -0.78560305zm-5.4865303 10.319675l4.6283417 -8.705502l1.4758034 0.78560305l-4.6283417 8.705502l-1.4758034 -0.7856035zm5.40374 -2.699254q1.2836113 -2.4143624 3.258751 -2.8675284q1.6306419 -0.37103605 3.2443695 0.487988q1.7930336 0.9544716 2.2932205 2.7430086q0.5213089 1.7820835 -0.5789299 3.8515377q-0.8948631 1.6831551 -1.9186325 2.377243q-1.0026398 0.6876335 -2.254181 0.7117462q-1.2304153 0.017658234 -2.3751945 -0.59173584q-1.8206177 -0.9691553 -2.3281364 -2.7438965q-0.5075226 -1.7747412 0.65873337 -3.9683628zm1.5171814 0.8076296q-0.88752747 1.6693592 -0.59661865 2.8862715q0.2909088 1.2169123 1.3943138 1.8042784q1.1034012 0.58736706 2.2607117 0.14137459q1.1784363 -0.4524479 2.087967 -2.1631956q0.8581886 -1.6141739 0.567276 -2.8310862q-0.2909088 -1.2169123 -1.3805199 -1.796937q-1.1034012 -0.58736706 -2.2745056 -0.14871597q-1.1711006 0.43865108 -2.0586243 2.1080103zm5.882904 8.707389l4.6283417 -8.705502l1.3240814 0.7048397l-0.660141 1.2416725q1.7283096 -0.92087555 3.5351334 0.040938377q0.7861786 0.41849804 1.2941818 1.0606422q0.5153427 0.6283474 0.5831833 1.2662916q0.088974 0.63148975 -0.1031723 1.3257465q-0.13729095 0.45794296 -0.6800766 1.4788742l-2.845955 5.3529854l-1.4758072 -0.78560257l2.8166199 -5.297802q0.4767685 -0.89676285 0.5321808 -1.4336929q0.076545715 -0.54338455 -0.22545624 -1.0404625q-0.30199432 -0.49707794 -0.89507294 -0.81278706q-0.9378967 -0.49926186 -1.9429245 -0.2731228q-0.99124146 0.2334814 -1.8861008 1.9166365l-2.5232162 4.745947l-1.4757996 -0.78560257zm32.759758 2.0389729l1.5861435 0.8443394l-3.6821365 6.9257717q-0.9682083 1.8211193 -1.9467773 2.6631775q-0.9647751 0.84939575 -2.4000015 0.9527359q-1.4141006 0.09688568 -3.1519623 -0.82821655q-1.6826935 -0.8957367 -2.450447 -2.047865q-0.767746 -1.1521301 -0.6361084 -2.498127q0.13163757 -1.3459988 1.1511917 -3.2636929l3.6821365 -6.92577l1.5861435 0.8443394l-3.6821365 6.9257717q-0.82884216 1.5589886 -0.9352875 2.4581757q-0.10644531 0.8991871 0.38426208 1.673727q0.50450134 0.78188324 1.5251541 1.3251972q1.751648 0.9324455 2.9145355 0.54252434q1.170227 -0.40371513 2.3731537 -2.666319l3.6821365 -6.92577zm-2.5571518 14.038559l4.6283417 -8.705502l1.324089 0.7048416l-0.6601486 1.2416725q1.7283173 -0.92087555 3.535141 0.040937424q0.78617096 0.418499 1.2941818 1.0606422q0.5153427 0.6283474 0.5831833 1.2662907q0.08896637 0.6314888 -0.10317993 1.3257484q-0.13729095 0.45794296 -0.6800766 1.4788742l-2.845955 5.3529854l-1.4757996 -0.78560257l2.8166122 -5.297802q0.4767685 -0.89676285 0.5321884 -1.4336929q0.076538086 -0.54338646 -0.22545624 -1.0404625q-0.30200195 -0.49707794 -0.89508057 -0.812788q-0.9378891 -0.49926186 -1.9429245 -0.2731228q-0.9912338 0.23348045 -1.8860931 1.9166374l-2.5232162 4.745945l-1.4758072 -0.78560257zm14.800041 7.878395l0.586792 -1.1037064q-1.5170364 0.8563309 -3.1169662 0.004650116q-1.0344467 -0.5506592 -1.6164322 -1.5862007q-0.5608673 -1.0419998 -0.500824 -2.3199043q0.08117676 -1.2843552 0.7926636 -2.6226044q0.68948364 -1.2968559 1.681839 -2.1315727q1.0061569 -0.8273697 2.1620255 -0.9378128q1.1696625 -0.10309982 2.2454834 0.46958542q0.78617096 0.418499 1.2170029 1.0726624q0.44463348 0.66150665 0.54476166 1.4051437l2.288498 -4.3044662l1.4620056 0.7782631l-6.381386 12.0028305l-1.3654633 -0.7268677zm-2.3513794 -6.8274765q-0.88752747 1.6693573 -0.6241989 2.8715858q0.27711487 1.2095718 1.2287979 1.7161751q0.965477 0.51394653 2.0594025 0.087314606q1.0939331 -0.4266281 1.9594498 -2.0545998q0.94620514 -1.7797318 0.69667816 -2.974617q-0.24219513 -1.2086792 -1.249054 -1.7446518q-0.97927094 -0.5212898 -2.066742 -0.07352066q-1.0874634 0.44776917 -2.0043335 2.1723137zm13.316483 9.071167l1.4144897 1.0007782q-1.0627594 1.1335564 -2.4381104 1.3572693q-1.3542328 0.21726227 -2.8714142 -0.59036636q-1.9033737 -1.0132065 -2.3970947 -2.7806091q-0.49372864 -1.7673988 0.635849 -3.8920364q1.1662521 -2.1936226 2.9289246 -2.812992q1.7764587 -0.6120262 3.5832825 0.34978485q1.7516556 0.9324455 2.2242584 2.7062988q0.4725952 1.7738533 -0.6789856 3.9398804q-0.06601715 0.124168396 -0.21916962 0.37895584l-6.482498 -3.450779q-0.6800766 1.4788742 -0.3524933 2.6268044q0.3275833 1.1479301 1.4171906 1.7279549q0.79997253 0.4258423 1.5855103 0.31297684q0.80667114 -0.119319916 1.6502609 -0.87392044zm-3.5722427 -4.9638443l4.8549805 2.5844154q0.48291016 -1.1413078 0.32115173 -1.9354477q-0.2486496 -1.2298241 -1.3796387 -1.8318748q-1.0068588 -0.5359688 -2.0770264 -0.22060013q-1.0490341 0.308918 -1.7194672 1.4035072zm5.269966 9.460865l4.6283417 -8.705505l1.3240814 0.7048416l-0.70415497 1.3244514q1.00177 -0.6526985 1.583374 -0.71481705q0.58893585 -0.07591629 1.1130447 0.20308304q0.74479675 0.39647293 1.2604675 1.2905006l-1.2364807 1.0941849q-0.36921692 -0.6036606 -0.9209137 -0.8973427q-0.4827423 -0.25697327 -1.0229645 -0.17282867q-0.5264282 0.091487885 -0.96333313 0.51384735q-0.66635895 0.65423584 -1.1651306 1.5923882l-2.4205322 4.552799l-1.4757996 -0.78560257zm21.06871 5.816574l1.3734283 1.2444344q-1.5380859 1.694767 -3.3847046 2.0393372q-1.8392944 0.3307724 -3.7150726 -0.6677513q-1.9447479 -1.0352325 -2.7404022 -2.4677277q-0.7883301 -1.4462929 -0.6306 -3.2740364q0.16503906 -1.8415375 1.0819092 -3.566082q0.99754333 -1.8763046 2.441803 -2.8952904q1.4580383 -1.0116425 3.1635437 -1.0242157q1.7128296 -0.026367188 3.2989655 0.8179741q1.8068237 0.9618149 2.542923 2.5396156q0.7434387 1.564003 0.34597778 3.4765396l-1.7565918 -0.45715332q0.28303528 -1.5309181 -0.20152283 -2.5499992q-0.4772339 -1.0328827 -1.677185 -1.6716423q-1.3792572 -0.73421097 -2.66922 -0.5712471q-1.2761841 0.17030716 -2.2638397 1.0960274q-0.9665222 0.91926956 -1.5973358 2.1057587q-0.81417847 1.531395 -0.98161316 2.911438q-0.14631653 1.3735924 0.49084473 2.4385033q0.6509552 1.0722542 1.7405701 1.6522789q1.3378754 0.7121811 2.6654053 0.44530106q1.3348541 -0.28067398 2.4727173 -1.6220627zm2.6562653 1.2369766q1.2835999 -2.4143639 3.2587433 -2.867527q1.6306458 -0.37103653 3.2443695 0.48798752q1.7930298 0.9544716 2.293213 2.7430077q0.5213165 1.7820854 -0.57891846 3.8515358q-0.89486694 1.6831589 -1.9186401 2.377243q-1.0026398 0.6876373 -2.254181 0.7117462q-1.2304077 0.017662048 -2.375183 -0.59173584q-1.8206177 -0.96915436 -2.3281403 -2.7438965q-0.5075226 -1.7747383 0.6587372 -3.968361zm1.5171814 0.80762863q-0.88752747 1.6693611 -0.59661865 2.8862724q0.2909088 1.2169113 1.3943024 1.8042793q1.1034088 0.587368 2.2607117 0.14137268q1.1784363 -0.45244598 2.087967 -2.1631966q0.8582001 -1.6141739 0.56729126 -2.8310852q-0.29092407 -1.2169113 -1.3805237 -1.796936q-1.1034088 -0.587368 -2.2745056 -0.14871597q-1.1711121 0.43865204 -2.0586243 2.1080093zm5.882904 8.707394l4.6283417 -8.705498l1.3240967 0.7048378l-0.66015625 1.2416725q1.7283173 -0.92087555 3.535141 0.04093933q0.7861786 0.418499 1.2941895 1.0606422q0.5153351 0.6283493 0.58317566 1.2662926q0.088974 0.6314888 -0.10317993 1.3257446q-0.13728333 0.45794678 -0.68006897 1.4788742l-2.8459625 5.352989l-1.4757996 -0.7856064l2.8166199 -5.297798q0.47676086 -0.89676666 0.5321808 -1.4336967q0.076538086 -0.54338455 -0.22544861 -1.0404625q-0.30200195 -0.49707794 -0.89508057 -0.8127861q-0.9378967 -0.49925995 -1.9429321 -0.27312088q-0.9912262 0.23347855 -1.8860931 1.9166336l-2.5232086 4.745949l-1.4758148 -0.7856064zm9.944763 1.9660492l1.5867004 0.54372406q-0.34529114 0.9490509 -0.04298401 1.7118073q0.32344055 0.7563095 1.330307 1.2922745q1.0206451 0.5433197 1.7234344 0.38639832q0.716568 -0.14957428 1.009964 -0.7014313q0.2640686 -0.49666595 -0.009475708 -1.0139923q-0.20074463 -0.3546753 -1.2393188 -1.2969589q-1.407486 -1.2802582 -1.8879089 -1.9077148q-0.45928955 -0.63391113 -0.5115814 -1.3343887q-0.031173706 -0.70692444 0.3062439 -1.3415527q0.3080597 -0.5794525 0.83418274 -0.936615q0.53990173 -0.34983063 1.1710968 -0.43865585q0.47683716 -0.06478119 1.165268 0.071575165q0.68844604 0.13636017 1.3642731 0.49611664q1.0344391 0.5506592 1.645462 1.2653351q0.61834717 0.70088196 0.70555115 1.4022446q0.10835266 0.6949005 -0.20115662 1.6099014l-1.5371094 -0.57042694q0.25552368 -0.71362305 -0.029174805 -1.3430939q-0.26356506 -0.6359329 -1.1186981 -1.0911407q-1.0206604 -0.5433121 -1.6315918 -0.42601013q-0.6036072 0.103507996 -0.83833313 0.54499054q-0.15403748 0.28972626 -0.09942627 0.6197128q0.054611206 0.32997894 0.36012268 0.6873169q0.17666626 0.20025635 1.0911255 1.0764542q1.338501 1.2435532 1.819809 1.8360748q0.48129272 0.59252167 0.554718 1.2865448q0.08721924 0.701355 -0.3162079 1.4601593q-0.38874817 0.7312012 -1.168396 1.1658249q-0.77230835 0.42082214 -1.7767792 0.346344q-0.99713135 -0.088272095 -2.0177765 -0.63158417q-1.6964874 -0.9030762 -2.2189178 -2.083931q-0.50865173 -1.1735077 -0.023422241 -2.6853027zm11.379883 7.686249l-0.4899292 1.4207916q-0.6866913 -0.20623016 -1.1832123 -0.4705429q-0.79997253 -0.4258423 -1.109314 -0.9091263q-0.3019867 -0.49707794 -0.2685852 -0.99261475q0.040756226 -0.5093384 0.75224304 -1.8475876l2.655243 -4.994278l-1.0896149 -0.5800247l0.61613464 -1.1588974l1.0896149 0.5800247l1.1442413 -2.1522293l1.9314575 -0.10470581l-1.6136932 3.0351944l1.4895935 0.79294586l-0.61613464 1.1588974l-1.4895935 -0.79294586l-2.6992493 5.077057q-0.3374176 0.6346359 -0.36380005 0.8507004q-0.01260376 0.22340393 0.10801697 0.4292221q0.12063599 0.20581818 0.4516449 0.38202667q0.23448181 0.124816895 0.6849365 0.27609253zm0.63002014 2.034668l4.6283417 -8.705498l1.3240967 0.7048416l-0.7041626 1.3244476q1.00177 -0.65270233 1.583374 -0.71482086q0.5889282 -0.075912476 1.1130524 0.20308685q0.74479675 0.39647675 1.2604523 1.2905045l-1.2364807 1.0941772q-0.36920166 -0.60365295 -0.92089844 -0.89733887q-0.4827423 -0.25697327 -1.0229645 -0.17282867q-0.5264435 0.0914917 -0.9633484 0.51384735q-0.6663513 0.65423584 -1.1651306 1.592392l-2.420517 4.5527954l-1.4758148 -0.7856064zm11.194199 5.9589233l0.68214417 -1.2830582q-1.791687 0.9402313 -3.5433502 0.007789612q-0.7585907 -0.40381622 -1.2803802 -1.053299q-0.50068665 -0.6559448 -0.59698486 -1.2736359q-0.08250427 -0.61035156 0.124313354 -1.3321991q0.15196228 -0.48553467 0.6507263 -1.4236908l2.8679657 -5.394371l1.4757996 0.78559875l-2.5672302 4.8287277q-0.61613464 1.1588898 -0.74609375 1.6030426q-0.1701355 0.65286255 0.10897827 1.226265q0.27911377 0.5734024 0.9411621 0.9258194q0.6620331 0.35242462 1.4173584 0.3296814q0.7626648 -0.0365448 1.3052063 -0.4911728q0.5636749 -0.4610901 1.1578064 -1.5785904l2.4792023 -4.66317l1.4757996 0.78559875l-4.6283417 8.705505l-1.3240814 -0.7048416zm10.839447 1.6811752l1.34552 0.96406555q-1.0266418 1.3651886 -2.460678 1.6992798q-1.4266968 0.3202896 -2.8611298 -0.4432907q-1.7792358 -0.9471283 -2.252716 -2.6860428q-0.4523468 -1.7453766 0.7065735 -3.9252014q0.74816895 -1.4072266 1.7607727 -2.2134628q1.0337372 -0.81269073 2.264145 -0.83034515q1.2515411 -0.024116516 2.368744 0.5705948q1.4206238 0.7562332 1.93573 1.950882q0.5151062 1.1946487 0.07299805 2.6585999l-1.5517731 -0.54283905q0.26254272 -0.9930954 -0.026855469 -1.7135773q-0.2893982 -0.7204895 -1.020401 -1.1096191q-1.1172028 -0.5947037 -2.246048 -0.16896057q-1.1150513 0.43308258 -2.0319214 2.1576233q-0.9315338 1.7521439 -0.6811218 2.912094q0.2577362 1.1461487 1.3335571 1.7188339q0.868927 0.46255493 1.726944 0.24665833q0.86535645 -0.22969055 1.6176605 -1.2452927zm4.788864 4.938843l-0.4899292 1.420784q-0.686676 -0.20623016 -1.1832123 -0.4705429q-0.79997253 -0.4258423 -1.1092987 -0.90911865q-0.30200195 -0.49707794 -0.2685852 -0.9926224q0.040740967 -0.5093384 0.7522278 -1.8475876l2.655243 -4.994278l-1.0896149 -0.5800247l0.61613464 -1.1588974l1.0896149 0.5800247l1.1442413 -2.1522293l1.9314575 -0.10470581l-1.6136932 3.035202l1.4895935 0.79294586l-0.61613464 1.1588898l-1.4895935 -0.79294586l-2.6992493 5.0770645q-0.33740234 0.6346283 -0.36380005 0.85069275q-0.01260376 0.22340393 0.10803223 0.4292221q0.12062073 0.20581818 0.4516449 0.38202667q0.23446655 0.124816895 0.68492126 0.27610016zm6.1441193 -8.27034l0.8948517 -1.6831589l1.4758148 0.7856064l-0.89486694 1.6831589l-1.4757996 -0.7856064zm-5.4865265 10.319672l4.6283417 -8.705498l1.4757996 0.7856064l-4.6283417 8.705498l-1.4757996 -0.7856064zm5.4037476 -2.6992416q1.2836151 -2.41436 3.2587585 -2.8675308q1.6306305 -0.3710327 3.2443695 0.48799133q1.7930298 0.9544678 2.293213 2.7430038q0.5213165 1.7820892 -0.5789337 3.8515396q-0.8948517 1.6831589 -1.9186249 2.377243q-1.0026398 0.6876373 -2.254181 0.7117462q-1.230423 0.017654419 -2.3751984 -0.59173584q-1.8206177 -0.96915436 -2.3281403 -2.7438965q-0.5075226 -1.7747421 0.6587372 -3.968361zm1.5171814 0.8076248q-0.88752747 1.6693649 -0.59661865 2.8862762q0.2909088 1.2169113 1.3943176 1.8042755q1.1033936 0.5873718 2.2607117 0.14137268q1.1784363 -0.45244598 2.087967 -2.1631927q0.8581848 -1.6141739 0.567276 -2.8310852q-0.2909088 -1.2169113 -1.3805237 -1.796936q-1.1034088 -0.5873718 -2.2745056 -0.14871979q-1.1710968 0.43865204 -2.0586243 2.1080093zm5.8829193 8.707397l4.6283417 -8.705498l1.3240814 0.7048416l-0.660141 1.2416687q1.728302 -0.92087555 3.5351257 0.04093933q0.7861786 0.41849518 1.2941895 1.0606384q0.51535034 0.6283493 0.5831909 1.2662964q0.08895874 0.631485 -0.10317993 1.3257446q-0.13729858 0.45794678 -0.6800842 1.4788742l-2.8459473 5.352989l-1.4757996 -0.7856064l2.8166046 -5.297798q0.47677612 -0.89676666 0.5321808 -1.4337006q0.076553345 -0.54338074 -0.22544861 -1.0404587q-0.30200195 -0.49707794 -0.89508057 -0.8127899q-0.9378967 -0.49925995 -1.9429169 -0.27311707q-0.99124146 0.23347473 -1.8861084 1.9166336l-2.5232086 4.745949l-1.4757996 -0.7856064z" fill-rule="nonzero"></path><path fill="#ffe600" d="m254.03008 91.87213l2.9754486 1.5819168l-18.007217 33.869987l-2.9754486 -1.5819092z" fill-rule="nonzero"></path><path fill="#ffe600" d="m342.69354 54.66834l243.12787 271.2624l-29.209412 26.207214l-243.12784 -271.2624z" fill-rule="nonzero"></path><path stroke="#434343" stroke-width="1.0" stroke-linejoin="round" stroke-linecap="butt" stroke-dasharray="8.0,3.0" d="m342.69354 54.66834l243.12787 271.2624l-29.209412 26.207214l-243.12784 -271.2624z" fill-rule="nonzero"></path><path fill="#000000" d="m345.99823 77.75467l1.1993103 1.3380814l-5.8382874 5.2382126q-1.5351562 1.3773804 -2.7435303 1.8317871q-1.197937 0.46604156 -2.5812683 0.06977844q-1.3612366 -0.3950653 -2.675232 -1.8611298q-1.2723083 -1.4195251 -1.59729 -2.7653503q-0.3249817 -1.3458252 0.2612915 -2.5645676q0.5862427 -1.2187424 2.2028198 -2.6691666l5.8382874 -5.2382126l1.1993103 1.3380737l-5.8382874 5.2382126q-1.314209 1.1791229 -1.7232056 1.9869385q-0.4090271 0.8078232 -0.21444702 1.7038345q0.20501709 0.9076462 0.9767456 1.7686768q1.3244324 1.4776993 2.5505066 1.5112381q1.2376709 0.023101807 3.1450195 -1.6881866l5.838257 -5.23822zm-7.226593 12.304329l7.338562 -6.5842896l1.0011597 1.1170044l-1.0467224 0.93911743q1.9395447 -0.27072144 3.3056946 1.2535172q0.5944214 0.66322327 0.85076904 1.4408569q0.26797485 0.767189 0.11242676 1.3895874q-0.1335144 0.6235962 -0.5525818 1.2095108q-0.28631592 0.38285065 -1.1469421 1.1550217l-4.512451 4.0486603l-1.1158752 -1.2449951l4.4659424 -4.00692q0.7559509 -0.6782532 0.9925537 -1.1634293q0.25863647 -0.48397064 0.14587402 -1.0545578q-0.11273193 -0.5705948 -0.5611572 -1.0709229q-0.7091675 -0.79120636 -1.7306824 -0.9242935q-1.0111084 -0.1214447 -2.4299622 1.1515884l-4.0007324 3.5895386l-1.1158752 -1.2449951zm11.19043 12.485374l0.9304199 -0.83477783q-1.7189636 0.28273773 -2.9286804 -1.0669785q-0.782135 -0.8726578 -0.9727478 -2.0451508q-0.16854858 -1.1712875 0.3270874 -2.3506927q0.5176697 -1.1782074 1.6457825 -2.1903763q1.0932312 -0.98085785 2.3120117 -1.4236298q1.229248 -0.43113708 2.3526611 -0.13756561q1.1338196 0.30521393 1.9472656 1.2127762q0.5944214 0.66322327 0.7741699 1.4256134q0.19015503 0.7740326 0.02859497 1.5067749l3.6285706 -3.2556229l1.1054382 1.2333527l-10.118134 9.078186l-1.0324402 -1.1519089zm0.13858032 -7.2197113q-1.4072266 1.2625961 -1.5731812 2.4820862q-0.15551758 1.2311249 0.5640869 2.0339737q0.72998047 0.81448364 1.9039001 0.7898407q1.1739197 -0.024642944 2.5462646 -1.2559357q1.5002747 -1.346077 1.6766357 -2.5539322q0.1880188 -1.2182846 -0.5732727 -2.0676727q-0.740448 -0.82611847 -1.9155579 -0.7794037q-1.1751099 0.046707153 -2.6288757 1.3510437zm9.387299 13.095558l0.98431396 1.4259872q-1.3876343 0.6992035 -2.756073 0.43656158q-1.346405 -0.2614441 -2.4935608 -1.5413437q-1.439148 -1.60569 -1.2953186 -3.435112q0.14382935 -1.829422 1.9348755 -3.4363632q1.8491516 -1.659111 3.7173157 -1.6348953q1.8786011 0.035850525 3.244751 1.5600967q1.3244629 1.4776993 1.1585693 3.3059235q-0.16589355 1.8282166 -1.9918213 3.4664688q-0.10467529 0.09391022 -0.33605957 0.28053284l-4.9014893 -5.4686584q-1.1469421 1.155014 -1.2338867 2.345604q-0.08691406 1.1905899 0.7369385 2.109787q0.6048584 0.6748581 1.3813477 0.8388672q0.79852295 0.16521454 1.8500977 -0.25345612zm-1.648468 -5.889244l3.6708984 4.09568q0.84576416 -0.90579224 0.9668274 -1.7071533q0.18917847 -1.2403564 -0.6659546 -2.1944656q-0.7612915 -0.8493881 -1.8746643 -0.92105865q-1.0913086 -0.07047272 -2.097107 0.7269974zm1.697052 10.695808l7.338562 -6.5842896l1.0011597 1.1170044l-1.1164856 1.0017319q1.1650696 -0.26861572 1.7325745 -0.12704468q0.5791626 0.13113403 0.97546387 0.57328033q0.56314087 0.6283188 0.7400818 1.6451187l-1.5372314 0.6025238q-0.13922119 -0.6937866 -0.55636597 -1.1592026q-0.36502075 -0.40724182 -0.9012451 -0.51390076q-0.52578735 -0.09503174 -1.0812683 0.15142822q-0.85061646 0.38533783 -1.641449 1.0948944l-3.8379211 3.443451l-1.1158752 -1.2449951zm17.785858 12.703796l0.86203 1.640686q-2.026886 1.0628433 -3.8794556 0.7517166q-1.8409119 -0.32156372 -3.2592163 -1.9039841q-1.4704285 -1.6405945 -1.7252502 -3.2592926q-0.24316406 -1.6291351 0.5331726 -3.2913132q0.78793335 -1.6726074 2.2416992 -2.976944q1.5816956 -1.4191208 3.2881775 -1.8796158q1.716919 -0.44886017 3.3228455 0.12553406q1.6175232 0.56396484 2.8168335 1.9020462q1.3661499 1.5242386 1.5151062 3.2589188q0.16055298 1.7242508 -0.87005615 3.3836517l-1.4924316 -1.0330658q0.7919922 -1.3403625 0.68722534 -2.463913q-0.09313965 -1.1339798 -1.0004578 -2.1462631q-1.0428467 -1.1635437 -2.3102417 -1.4538956q-1.256958 -0.2787094 -2.5026245 0.2511444q-1.2236023 0.53105164 -2.2237854 1.4284363q-1.2909546 1.1582489 -1.9225159 2.3966675q-0.6095276 1.2396164 -0.37719727 2.4586487q0.24273682 1.2306671 1.0665894 2.1498642q1.0115967 1.1286392 2.3499756 1.3343124q1.3499756 0.19522858 2.8795776 -0.67333984zm2.069275 2.0746078q2.0352478 -1.8260651 4.045807 -1.5727463q1.6588135 0.21204376 2.8789673 1.5733871q1.3557434 1.512619 1.2106934 3.3641052q-0.12295532 1.8526917 -1.8674622 3.4178925q-1.4188843 1.2730408 -2.6188354 1.5729523q-1.1779175 0.30111694 -2.3614807 -0.106414795q-1.1615295 -0.4063263 -2.0270996 -1.3720703q-1.3765869 -1.5358734 -1.2431946 -3.3769379q0.13342285 -1.8410492 1.982605 -3.5001678zm1.1471558 1.2799072q-1.4072571 1.2625885 -1.5523376 2.5053558q-0.14508057 1.2427521 0.689209 2.1735992q0.83428955 0.9308319 2.0744019 0.90979004q1.262146 -0.019836426 2.7042542 -1.313736q1.3607178 -1.2208557 1.5057983 -2.463623q0.14508057 -1.2427521 -0.678772 -2.1619568q-0.83428955 -0.9308319 -2.0848083 -0.9214325q-1.2505188 0.009399414 -2.6577454 1.2720032zm2.5316162 10.198914l7.338562 -6.5842896l1.0011597 1.1170044l-1.0467224 0.93911743q1.9395447 -0.27072144 3.3056946 1.2535248q0.5944214 0.66322327 0.85076904 1.4408417q0.26797485 0.76719666 0.11242676 1.3896027q-0.1335144 0.6235962 -0.5525818 1.2095032q-0.28631592 0.38285828 -1.1469421 1.1550293l-4.512451 4.0486603l-1.1158752 -1.2449951l4.4659424 -4.0069275q0.7559509 -0.6782532 0.9925232 -1.1634216q0.258667 -0.48397827 0.14590454 -1.0545654q-0.11273193 -0.57058716 -0.5611572 -1.0709229q-0.7091675 -0.79119873 -1.7306824 -0.9242859q-1.0111084 -0.1214447 -2.4299622 1.1515808l-4.0007324 3.5895386l-1.1158752 -1.2449951zm8.663116 5.264435l1.3031616 1.0559692q-0.65045166 0.77253723 -0.62875366 1.5927277q0.043792725 0.8213959 0.8050842 1.6707916q0.7717285 0.86102295 1.4856262 0.95521545q0.7243347 0.10583496 1.1895447 -0.3115387q0.41867065 -0.37565613 0.33963013 -0.9554901q-0.06661987 -0.40205383 -0.7180481 -1.6439056q-0.88168335 -1.6860199 -1.1171875 -2.440384q-0.21340942 -0.75315857 -0.021759033 -1.4289246q0.2137146 -0.6745758 0.74868774 -1.1545715q0.48846436 -0.43824768 1.1052856 -0.5928345q0.6272583 -0.14292908 1.2505188 -0.009399414q0.47006226 0.10305786 1.0697021 0.46774292q0.5996094 0.3646698 1.1106262 0.9347992q0.782135 0.8726654 1.1102905 1.7538147q0.3397522 0.8707123 0.18060303 1.5593109q-0.13711548 0.68981934 -0.74224854 1.442688l-1.247406 -1.0640106q0.4852295 -0.5823059 0.43423462 -1.271286q-0.028930664 -0.68777466 -0.6755066 -1.4091797q-0.7717285 -0.86102295 -1.3857422 -0.96084595q-0.602417 -0.11027527 -0.97457886 0.22363281q-0.24423218 0.21913147 -0.30636597 0.5477905q-0.06213379 0.3286438 0.10192871 0.7692261q0.097076416 0.24876404 0.6546631 1.3858948q0.8295288 1.6278534 1.0778503 2.349701q0.24832153 0.7218628 0.078704834 1.3988342q-0.15914917 0.68859863 -0.7987976 1.2625122q-0.61639404 0.55303955 -1.4979248 0.6932068q-0.86990356 0.12973022 -1.7875671 -0.28546143q-0.9060669 -0.42562866 -1.6777649 -1.2866516q-1.2827454 -1.4311523 -1.3674622 -2.719635q-0.0743103 -1.2768402 0.90097046 -2.5297394zm8.044708 11.129379l-0.9484253 1.1658173q-0.5739746 -0.4296875 -0.94940186 -0.8485565q-0.6048584 -0.67485046 -0.72924805 -1.2350159q-0.11273193 -0.57058716 0.08895874 -1.0244598q0.21331787 -0.46429443 1.3414307 -1.476471l4.210083 -3.777359l-0.82385254 -0.91918945l0.9769287 -0.8765259l0.82385254 0.9192047l1.8143005 -1.6278076l1.849762 0.5655365l-2.5586243 2.2956238l1.1262817 1.2566376l-0.9768982 0.8765106l-1.1263123 -1.2566223l-4.279846 3.8399658q-0.53497314 0.47999573 -0.6340332 0.67381287q-0.08862305 0.20547485 -0.046081543 0.44021606q0.042541504 0.23472595 0.29281616 0.51397705q0.17727661 0.19781494 0.5483093 0.4947052zm-0.10772705 2.127243l7.338562 -6.5842896l1.0011597 1.1169891l-1.1164856 1.0017395q1.1650696 -0.26861572 1.7325745 -0.12704468q0.5791626 0.13113403 0.97546387 0.57328796q0.56314087 0.62831116 0.7400818 1.6451111l-1.5372314 0.6025238q-0.13922119 -0.6937866 -0.55636597 -1.159195q-0.36499023 -0.40724182 -0.9012451 -0.513916q-0.52578735 -0.09501648 -1.0812683 0.15142822q-0.85061646 0.38534546 -1.641449 1.0949097l-3.8379211 3.443451l-1.1158752 -1.2449951zm8.46402 9.443466l1.081604 -0.97042847q-2.0057068 0.26712036 -3.3301392 -1.2105865q-0.5735779 -0.6399536 -0.84036255 -1.4292145q-0.24472046 -0.7880707 -0.12283325 -1.4012299q0.1322937 -0.6015167 0.5746155 -1.2082977q0.30960083 -0.4037323 1.1004333 -1.1132965l4.5473633 -4.079956l1.1158447 1.2449951l-4.0704956 3.6521454q-0.9769287 0.8765106 -1.2516174 1.2489319q-0.3841858 0.5546112 -0.31915283 1.1890106q0.06500244 0.6343994 0.5655823 1.1929016q0.50057983 0.5585022 1.2177124 0.7967529q0.72875977 0.22782898 1.3945007 -0.012619019q0.6878052 -0.23925781 1.6298218 -1.0844727l3.9309692 -3.5269318l1.1158752 1.2449951l-7.338562 6.5842896l-1.0011597 -1.1169891zm9.601227 5.304413l0.93218994 1.3678131q-1.4333496 0.9291382 -2.8948364 0.74998474q-1.4498596 -0.18960571 -2.5344543 -1.3996887q-1.3452759 -1.5009766 -1.1922302 -3.296692q0.17510986 -1.7945099 2.0126648 -3.4431915q1.1862793 -1.0643463 2.4143066 -1.4734192q1.2500916 -0.40785217 2.4115906 -0.0015258789q1.1835938 0.40751648 2.0282898 1.3499908q1.0741577 1.1984558 1.1472778 2.4973602q0.0730896 1.2989197 -0.84524536 2.5217133l-1.2706604 -1.0431213q0.5878906 -0.84236145 0.5637512 -1.6184235q-0.024108887 -0.77604675 -0.57684326 -1.3927307q-0.84472656 -0.94247437 -2.051117 -0.93066406q-1.1959839 0.0234375 -2.6497192 1.327774q-1.4770203 1.3252106 -1.640564 2.5005493q-0.1519165 1.164917 0.66152954 2.0724792q0.65701294 0.7330322 1.5369568 0.8252106q0.89157104 0.08174133 1.947113 -0.6134186zm2.7995605 6.2839355l-0.9484253 1.1658325q-0.5739746 -0.4296875 -0.94940186 -0.8485565q-0.6048584 -0.67485046 -0.72924805 -1.2350159q-0.11273193 -0.57058716 0.08895874 -1.0244598q0.21331787 -0.4643097 1.3414307 -1.476471l4.210083 -3.777359l-0.82385254 -0.9192047l0.9769287 -0.8765106l0.82385254 0.9192047l1.8143005 -1.6278076l1.849762 0.5655365l-2.5586243 2.2956238l1.1262817 1.2566376l-0.9768982 0.8765106l-1.1263123 -1.2566223l-4.279846 3.8399658q-0.53497314 0.47999573 -0.6340332 0.67381287q-0.08862305 0.20547485 -0.046081543 0.4402008q0.042541504 0.23474121 0.29281616 0.5139923q0.17727661 0.19779968 0.5483093 0.49468994zm8.612396 -5.6546326l1.4188843 -1.2730255l1.1158752 1.2449951l-1.4188843 1.2730255l-1.1158752 -1.2449951zm-8.699249 7.8051605l7.338562 -6.5842896l1.1158447 1.2449799l-7.338562 6.584305l-1.1158447 -1.2449951zm6.002289 -0.677475q2.0352478 -1.8260651 4.045807 -1.5727386q1.6588135 0.21203613 2.8789673 1.5733948q1.3557434 1.5126038 1.2106934 3.36409q-0.12295532 1.8526917 -1.8674622 3.4179077q-1.4188843 1.2730255 -2.6188354 1.572937q-1.1779175 0.30111694 -2.3614807 -0.106399536q-1.1615295 -0.40634155 -2.0270996 -1.3720703q-1.3765869 -1.5358887 -1.2431946 -3.3769379q0.13342285 -1.8410645 1.982605 -3.500183zm1.1471252 1.2799072q-1.4072266 1.2626038 -1.5523071 2.5053558q-0.14508057 1.2427673 0.689209 2.1735992q0.83428955 0.9308319 2.0744019 0.90979004q1.262146 -0.019836426 2.7042542 -1.313736q1.3607178 -1.2208557 1.5057983 -2.463623q0.14508057 -1.2427521 -0.678772 -2.1619568q-0.83428955 -0.9308319 -2.0848083 -0.9214325q-1.2505188 0.009399414 -2.6577759 1.2720032zm2.5316467 10.198914l7.338562 -6.5842896l1.0011597 1.1170044l-1.0467224 0.9391327q1.9395447 -0.2707367 3.3056946 1.2535095q0.5944214 0.66322327 0.85076904 1.4408569q0.26797485 0.76719666 0.11242676 1.3895874q-0.1335144 0.6235962 -0.5525818 1.2095032q-0.28631592 0.38285828 -1.1469421 1.1550293l-4.512451 4.0486603l-1.1158752 -1.2449951l4.4659424 -4.0069275q0.7559509 -0.6782532 0.9925232 -1.1634216q0.258667 -0.483963 0.14590454 -1.0545654q-0.11273193 -0.57058716 -0.5611572 -1.0709076q-0.7091675 -0.791214 -1.7306824 -0.92430115q-1.0111084 -0.1214447 -2.4299622 1.1515961l-4.0007324 3.5895233l-1.1158752 -1.2449951zm30.06305 13.174728l1.1992798 1.3380737l-5.8382874 5.23822q-1.5351562 1.3773804 -2.7435303 1.8317871q-1.197937 0.46603394 -2.5812378 0.06977844q-1.3612671 -0.3950653 -2.6752625 -1.8611298q-1.2723083 -1.4195251 -1.59729 -2.7653503q-0.32495117 -1.3458252 0.2612915 -2.5645752q0.5862732 -1.2187347 2.2028503 -2.669159l5.838257 -5.23822l1.1993103 1.3380737l-5.8382874 5.23822q-1.3141785 1.1791229 -1.7232056 1.9869385q-0.4090271 0.80781555 -0.21444702 1.7038269q0.20501709 0.9076538 0.9767456 1.7686768q1.3244324 1.4777069 2.5505066 1.5112457q1.2377014 0.023101807 3.1450195 -1.6881866l5.8382874 -5.23822zm-7.226593 12.304321l7.3385315 -6.5842896l1.0011597 1.1170044l-1.0466919 0.9391327q1.9395142 -0.2707367 3.305664 1.2535095q0.5944519 0.66322327 0.85079956 1.4408569q0.26797485 0.76719666 0.11239624 1.3895874q-0.13348389 0.6235962 -0.55255127 1.2095032q-0.28634644 0.38285828 -1.1469727 1.1550293l-4.512451 4.0486603l-1.1158752 -1.2449951l4.4659424 -4.0069275q0.7559509 -0.6782532 0.9925537 -1.1634216q0.25863647 -0.483963 0.14590454 -1.0545654q-0.11276245 -0.57058716 -0.56118774 -1.0709229q-0.70913696 -0.79119873 -1.7306824 -0.9242859q-1.0110779 -0.1214447 -2.4299622 1.1515961l-4.0007324 3.5895233l-1.1158447 -1.2449951zm11.190399 12.485382l0.9304199 -0.83477783q-1.7189331 0.2827301 -2.9286804 -1.0669861q-0.782135 -0.87265015 -0.9727478 -2.0451355q-0.16854858 -1.1712952 0.3270874 -2.350708q0.5176697 -1.1782074 1.6457825 -2.1903687q1.0932312 -0.9808655 2.3120422 -1.4236298q1.2292175 -0.43113708 2.3526306 -0.13757324q1.1338196 0.30522156 1.9472656 1.2127838q0.5944519 0.66322327 0.7741699 1.4256134q0.19018555 0.7740326 0.02859497 1.5067749l3.6285706 -3.2556305l1.1054382 1.2333679l-10.118134 9.078171l-1.0324402 -1.1519012zm0.13858032 -7.2197113q-1.4072266 1.2625885 -1.5731506 2.4820862q-0.15551758 1.2311249 0.5640564 2.033966q0.730011 0.81448364 1.9039307 0.7898407q1.1738892 -0.024642944 2.5462341 -1.2559357q1.5002747 -1.3460693 1.6766663 -2.5539246q0.18798828 -1.2182922 -0.5733032 -2.0676727q-0.7404175 -0.8261261 -1.9155579 -0.7794037q-1.1751099 0.046707153 -2.6288757 1.3510437zm9.387299 13.095551l0.9843445 1.4259949q-1.3876343 0.6992035 -2.7561035 0.43655396q-1.346405 -0.26142883 -2.4935608 -1.541336q-1.439148 -1.6056976 -1.2953186 -3.4351196q0.14382935 -1.8294067 1.9348755 -3.4363556q1.8491821 -1.6591187 3.7173462 -1.634903q1.8785706 0.035858154 3.244751 1.5601044q1.3244324 1.4777069 1.1585388 3.3059235q-0.16589355 1.8282166 -1.9918213 3.4664612q-0.10467529 0.09391785 -0.33605957 0.28053284l-4.9014587 -5.4686584q-1.1469727 1.1550293 -1.2338867 2.3456116q-0.08694458 1.1905823 0.73690796 2.109787q0.6048889 0.67485046 1.3813477 0.8388672q0.79852295 0.16520691 1.8500977 -0.25346375zm-1.648468 -5.8892365l3.6708984 4.0956726q0.84576416 -0.90579224 0.9668274 -1.7071381q0.18920898 -1.2403717 -0.6659546 -2.1944733q-0.7612915 -0.8493805 -1.8746643 -0.9210663q-1.0913086 -0.07046509 -2.097107 0.727005zm1.697052 10.695801l7.338562 -6.5842896l1.0011597 1.1170044l-1.1164856 1.0017395q1.1650696 -0.26861572 1.732605 -0.12704468q0.5791321 0.13113403 0.97543335 0.57328796q0.56314087 0.62831116 0.7400818 1.6451111l-1.5372314 0.6025238q-0.13922119 -0.6937866 -0.55636597 -1.1592102q-0.36499023 -0.40724182 -0.9012451 -0.51390076q-0.52578735 -0.09503174 -1.0812378 0.15142822q-0.850647 0.38534546 -1.6414795 1.0948944l-3.8379211 3.443451l-1.1158752 -1.2449951zm17.785858 12.703812l0.86203 1.6406708q-2.026886 1.0628662 -3.879425 0.75172424q-1.8409424 -0.32156372 -3.2592163 -1.9039917q-1.470459 -1.6405945 -1.7252502 -3.2592926q-0.24319458 -1.6291351 0.5331421 -3.2913055q0.78796387 -1.6726074 2.2416992 -2.976944q1.5816956 -1.4191284 3.2881775 -1.8796234q1.716919 -0.44885254 3.3228455 0.12554932q1.6175537 0.56396484 2.8168335 1.9020386q1.3661499 1.5242462 1.5151062 3.2589264q0.16055298 1.7242432 -0.87005615 3.3836365l-1.4924316 -1.0330658q0.7919922 -1.3403625 0.68722534 -2.4638977q-0.09313965 -1.1339874 -1.0004272 -2.1462708q-1.0428772 -1.1635437 -2.3102722 -1.4538879q-1.256958 -0.27871704 -2.5026245 0.25112915q-1.2236023 0.5310669 -2.2237854 1.4284363q-1.2909241 1.1582642 -1.9225159 2.3966675q-0.6095276 1.239624 -0.37719727 2.4586487q0.24273682 1.2306671 1.0666199 2.1498718q1.0115662 1.1286469 2.349945 1.3343048q1.3500061 0.1952362 2.8795776 -0.6733246zm2.069275 2.0746002q2.0352478 -1.8260651 4.045807 -1.5727386q1.658844 0.21203613 2.8789978 1.5733795q1.3557129 1.5126038 1.2106934 3.3641052q-0.12298584 1.8526917 -1.8674927 3.4179077q-1.4188538 1.2730103 -2.6188354 1.572937q-1.177887 0.30111694 -2.3614807 -0.106414795q-1.1615295 -0.40631104 -2.0270996 -1.3720703q-1.3765869 -1.5358887 -1.2431641 -3.3769226q0.13339233 -1.8410645 1.9825745 -3.500183zm1.1471558 1.2799072q-1.4072571 1.2626038 -1.5523376 2.5053406q-0.14508057 1.2427673 0.689209 2.1736145q0.83428955 0.93081665 2.0744019 0.90979004q1.262146 -0.019836426 2.7042847 -1.3137512q1.3606873 -1.2208557 1.5057983 -2.4635925q0.14508057 -1.2427673 -0.6788025 -2.1619873q-0.83428955 -0.93081665 -2.0848083 -0.92141724q-1.2505188 0.009399414 -2.6577454 1.2720032zm2.5316467 10.198914l7.338562 -6.5842896l1.0011292 1.1170044l-1.0466919 0.93911743q1.9395142 -0.27072144 3.3056946 1.25354q0.5944214 0.663208 0.85076904 1.4408569q0.26797485 0.7671814 0.11239624 1.3895874q-0.13348389 0.6235962 -0.55255127 1.2095032q-0.28634644 0.38284302 -1.1469421 1.1550293l-4.5124817 4.048645l-1.1158447 -1.2449951l4.465912 -4.0069275q0.7559509 -0.6782532 0.9925537 -1.1634216q0.25863647 -0.48394775 0.14590454 -1.0545654q-0.11276245 -0.57058716 -0.56118774 -1.0709229q-0.70913696 -0.79119873 -1.7306519 -0.9242859q-1.0111084 -0.12142944 -2.4299622 1.1515808l-4.0007324 3.5895386l-1.1158752 -1.2449951zm8.663116 5.264435l1.3031311 1.0559692q-0.65045166 0.772522 -0.62872314 1.5927429q0.043762207 0.8213806 0.8050537 1.6707764q0.7717285 0.86102295 1.4856262 0.9552307q0.7243347 0.10583496 1.1895447 -0.31155396q0.41867065 -0.3756714 0.33963013 -0.95547485q-0.06661987 -0.4020691 -0.7180481 -1.6439209q-0.88168335 -1.6860352 -1.117157 -2.4403992q-0.21343994 -0.7531433 -0.02178955 -1.4289246q0.2137146 -0.67456055 0.74868774 -1.154541q0.48846436 -0.43826294 1.1052856 -0.5928345q0.6272583 -0.14294434 1.2505493 -0.009399414q0.47006226 0.10305786 1.0696716 0.4677124q0.5996094 0.36468506 1.1105957 0.93481445q0.7821655 0.87265015 1.1102905 1.7538147q0.3397827 0.870697 0.18066406 1.5593262q-0.137146 0.6897888 -0.7423096 1.4426575l-1.2473755 -1.0639954q0.4852295 -0.5823059 0.43426514 -1.2713013q-0.028930664 -0.68777466 -0.6755371 -1.4091492q-0.7717285 -0.86102295 -1.3857422 -0.96087646q-0.602417 -0.11026001 -0.97457886 0.22366333q-0.24423218 0.21911621 -0.30636597 0.54776q-0.06213379 0.32867432 0.10192871 0.7692261q0.097076416 0.2487793 0.6546631 1.3859253q0.8295288 1.6278381 1.0778809 2.349701q0.24829102 0.7218323 0.07867432 1.3988037q-0.15914917 0.68859863 -0.7987976 1.2625122q-0.61639404 0.55303955 -1.4979248 0.6932068q-0.86990356 0.12973022 -1.7875671 -0.28546143q-0.9060364 -0.42562866 -1.6777649 -1.2866516q-1.2827148 -1.4311523 -1.3674622 -2.719635q-0.0743103 -1.276825 0.901001 -2.5297241zm8.044678 11.129364l-0.9484253 1.1658325q-0.5739746 -0.4296875 -0.94940186 -0.8485718q-0.6048584 -0.6748352 -0.7292175 -1.2350159q-0.11276245 -0.57058716 0.08892822 -1.0244446q0.21334839 -0.46429443 1.3414612 -1.476471l4.210083 -3.7773438l-0.82385254 -0.91922l0.9768677 -0.87649536l0.8239136 0.91918945l1.81427 -1.6278076l1.8497314 0.56552124l-2.5585938 2.2956543l1.1262817 1.2566223l-0.9769287 0.87649536l-1.1262817 -1.2566223l-4.279846 3.8399658q-0.53497314 0.480011 -0.6340332 0.6738281q-0.08862305 0.20547485 -0.046081543 0.44021606q0.042541504 0.23474121 0.29284668 0.51397705q0.1772461 0.19781494 0.5482788 0.49468994zm-0.10772705 2.1272583l7.338562 -6.5842896l1.0011597 1.1170044l-1.1164551 1.0017395q1.1650391 -0.26861572 1.732605 -0.12704468q0.57910156 0.13113403 0.97540283 0.5732727q0.5631714 0.6283264 0.7401123 1.6451111l-1.5372314 0.60253906q-0.13922119 -0.6937866 -0.5563965 -1.1592102q-0.36499023 -0.40722656 -0.9012451 -0.513916q-0.52575684 -0.09500122 -1.0812378 0.15142822q-0.850647 0.38534546 -1.6414795 1.0949097l-3.8378906 3.443451l-1.1159058 -1.2449951zm8.46405 9.443481l1.081604 -0.97042847q-2.0057373 0.26712036 -3.3301392 -1.2106018q-0.5736084 -0.6399231 -0.84039307 -1.4291992q-0.24468994 -0.7880554 -0.122802734 -1.4012451q0.13226318 -0.60150146 0.57458496 -1.2082825q0.30963135 -0.40374756 1.1004639 -1.1132812l4.5473633 -4.0799866l1.1158447 1.2449951l-4.0704956 3.6521606q-0.9769287 0.87649536 -1.251648 1.2489319q-0.38415527 0.55459595 -0.31915283 1.1889954q0.06500244 0.6343994 0.5656128 1.1929016q0.5005493 0.5585022 1.2177124 0.79678345q0.72875977 0.22781372 1.3944702 -0.012634277q0.6878052 -0.23925781 1.6298828 -1.0844727l3.9309082 -3.5269165l1.1159058 1.2449646l-7.338562 6.58432l-1.0011597 -1.1170044zm9.601196 5.304413l0.93218994 1.3677979q-1.4333496 0.9291382 -2.8948364 0.7499695q-1.4498291 -0.18960571 -2.5344238 -1.3996887q-1.3453369 -1.5009766 -1.1922607 -3.296692q0.17510986 -1.7944946 2.0126953 -3.4431763q1.1862183 -1.0643616 2.4142456 -1.4734192q1.2501221 -0.40786743 2.411621 -0.0015258789q1.1835938 0.40753174 2.0283203 1.3500061q1.0741577 1.1984253 1.1472168 2.497345q0.07312012 1.2989197 -0.84521484 2.5217285l-1.2706299 -1.0431519q0.5878906 -0.8423462 0.5637207 -1.6184082q-0.024108887 -0.776062 -0.57684326 -1.3927307q-0.84472656 -0.94247437 -2.0510864 -0.93066406q-1.1959839 0.0234375 -2.6497803 1.3277588q-1.4769897 1.3252258 -1.6405029 2.5005798q-0.1519165 1.164917 0.661499 2.0724792q0.6569824 0.7330322 1.5369263 0.8251953q0.89160156 0.081726074 1.9471436 -0.6134033zm2.7995605 6.2839355l-0.9484253 1.165802q-0.5739746 -0.42965698 -0.94940186 -0.84854126q-0.6048584 -0.6748657 -0.72924805 -1.2350159q-0.11273193 -0.57058716 0.08898926 -1.0244751q0.21331787 -0.46429443 1.3414307 -1.4764404l4.210083 -3.7773743l-0.82385254 -0.91918945l0.9768677 -0.8765259l0.8239136 0.91918945l1.81427 -1.6278076l1.8497314 0.56555176l-2.5585938 2.2956238l1.1262817 1.2566223l-0.9769287 0.8765259l-1.1262817 -1.2566223l-4.279846 3.8399658q-0.53497314 0.47998047 -0.6340332 0.6738281q-0.08862305 0.20544434 -0.046081543 0.44018555q0.042541504 0.23474121 0.29284668 0.51400757q0.1772461 0.19778442 0.5482788 0.49468994zm8.612427 -5.654663l1.4188232 -1.2730408l1.1159058 1.2449951l-1.4188843 1.2730408l-1.1158447 -1.2449951zm-8.69928 7.8051453l7.338562 -6.5842896l1.1158447 1.2449951l-7.338562 6.5842896l-1.1158447 -1.2449951zm6.0022583 -0.6774292q2.0352783 -1.8260803 4.0458374 -1.5727539q1.6588135 0.21203613 2.8789673 1.5733948q1.3557129 1.5126038 1.2106934 3.3641052q-0.12298584 1.8526917 -1.8674927 3.4178772q-1.4188232 1.2730408 -2.6187744 1.5729675q-1.1779175 0.30111694 -2.3615112 -0.106414795q-1.161499 -0.40634155 -2.0270996 -1.3720703q-1.3765869 -1.5358887 -1.2431641 -3.3769531q0.13336182 -1.8410339 1.982544 -3.5001526zm1.1471558 1.2798767q-1.4072266 1.2626038 -1.5523071 2.505371q-0.14508057 1.2427673 0.689209 2.173584q0.83428955 0.93084717 2.0744019 0.90982056q1.262146 -0.019836426 2.7042847 -1.3137512q1.3607178 -1.2208557 1.5057983 -2.463623q0.14508057 -1.2427673 -0.678772 -2.1619568q-0.83428955 -0.93084717 -2.0848389 -0.92144775q-1.2505493 0.009429932 -2.6577759 1.2720032zm2.5316772 10.198944l7.338562 -6.5842896l1.0011597 1.1170044l-1.0467529 0.93911743q1.9395752 -0.27072144 3.305725 1.2535095q0.5944214 0.6632385 0.85076904 1.4408569q0.26794434 0.7672119 0.11242676 1.3895874q-0.13354492 0.6235962 -0.5526123 1.2095337q-0.28631592 0.38284302 -1.1469116 1.1549988l-4.512451 4.0486755l-1.1159058 -1.2449951l4.4659424 -4.0069275q0.75598145 -0.6782532 0.9925537 -1.1634216q0.258667 -0.48397827 0.14587402 -1.0545654q-0.11273193 -0.57058716 -0.5611572 -1.0709229q-0.7091675 -0.79119873 -1.7306519 -0.9242859q-1.0111084 -0.12145996 -2.4299927 1.1515808l-4.0007324 3.5895386l-1.1158447 -1.2449951z" fill-rule="nonzero"></path><path fill="#ffe600" d="m340.8178 53.78427l3.4073486 3.7976875l-28.24823 25.344852l-3.4073486 -3.7976913z" fill-rule="nonzero"></path><path fill="#ffe600" d="m100.1632 -215.92416l243.12784 271.2624l-29.209381 26.207207l-243.12784 -271.2624z" fill-rule="nonzero"></path><path stroke="#434343" stroke-width="1.0" stroke-linejoin="round" stroke-linecap="butt" stroke-dasharray="8.0,3.0" d="m100.1632 -215.92416l243.12784 271.2624l-29.209381 26.207207l-243.12784 -271.2624z" fill-rule="nonzero"></path><path fill="#000000" d="m103.4679 -192.83783l1.199295 1.3380737l-5.8382797 5.23822q-1.5351639 1.3773804 -2.743538 1.8317871q-1.1979446 0.46603394 -2.581253 0.06977844q-1.3612518 -0.3950653 -2.6752625 -1.8611298q-1.2722931 -1.4195251 -1.5972672 -2.7653503q-0.32497406 -1.3458252 0.26128387 -2.5645752q0.58625793 -1.2187347 2.202835 -2.669159l5.8382797 -5.23822l1.199295 1.3380737l-5.8382797 5.23822q-1.3141937 1.1791229 -1.7232132 1.9869385q-0.4090271 0.80781555 -0.21443176 1.7038269q0.20501709 0.9076538 0.976738 1.7686768q1.32444 1.4777069 2.550499 1.5112457q1.2376938 0.023101807 3.1450195 -1.6881866l5.8382797 -5.23822zm-7.2266006 12.304321l7.338562 -6.5842896l1.0011444 1.1170044l-1.0466995 0.93911743q1.9395294 -0.27072144 3.3056793 1.2535248q0.59443665 0.66322327 0.8507843 1.4408569q0.26797485 0.7671814 0.1124115 1.3895874q-0.13350677 0.6235962 -0.55257416 1.2095032q-0.28632355 0.38285828 -1.1469498 1.1550293l-4.512459 4.0486603l-1.11586 -1.2449951l4.4659348 -4.0069275q0.7559509 -0.6782532 0.99253845 -1.1634216q0.25865173 -0.48397827 0.14590454 -1.0545654q-0.11274719 -0.57058716 -0.5611801 -1.0709229q-0.7091522 -0.79119873 -1.7306747 -0.9242859q-1.0110931 -0.1214447 -2.4299622 1.1515808l-4.0007324 3.5895386l-1.1158676 -1.2449951zm11.19043 12.485382l0.93040466 -0.83477783q-1.7189484 0.2827301 -2.9286728 -1.0669861q-0.78214264 -0.87265015 -0.9727478 -2.0451508q-0.16854095 -1.1712799 0.32707977 -2.3506927q0.5176773 -1.1782074 1.6457901 -2.1903687q1.0932236 -0.9808655 2.312027 -1.4236298q1.2292252 -0.43113708 2.3526382 -0.13757324q1.1338348 0.30522156 1.9472733 1.2127838q0.594429 0.66322327 0.7741699 1.4256134q0.19017029 0.77401733 0.0286026 1.5067749l3.6285706 -3.2556305l1.1054382 1.2333527l-10.118134 9.078186l-1.0324402 -1.1519012zm0.13858032 -7.2197113q-1.4072418 1.2625885 -1.5731812 2.4820862q-0.15550995 1.2311249 0.564064 2.033966q0.730011 0.81448364 1.903923 0.7898407q1.1739197 -0.024642944 2.5462646 -1.2559357q1.5002747 -1.3460693 1.6766434 -2.5539246q0.18800354 -1.2182922 -0.57328796 -2.0676727q-0.74044037 -0.8261261 -1.9155579 -0.77941895q-1.1751175 0.046722412 -2.628868 1.351059zm9.387283 13.095551l0.9843292 1.4259949q-1.3876266 0.6992035 -2.7560806 0.43655396q-1.3463974 -0.2614441 -2.4935532 -1.541336q-1.4391556 -1.6056976 -1.2953186 -3.4351196q0.14382935 -1.829422 1.9348526 -3.4363556q1.8491821 -1.6591187 3.7173462 -1.634903q1.8785934 0.035858154 3.2447433 1.5601044q1.32444 1.4776917 1.1585541 3.3059235q-0.16589355 1.8282166 -1.9918137 3.4664612q-0.10466766 0.09391785 -0.3360672 0.28053284l-4.9014664 -5.4686584q-1.1469574 1.155014 -1.2338867 2.3456116q-0.08693695 1.1905823 0.73693085 2.109787q0.6048584 0.67485046 1.38134 0.8388672q0.7985306 0.16520691 1.85009 -0.25346375zm-1.6484604 -5.8892365l3.6708832 4.0956726q0.8457794 -0.90579224 0.966835 -1.7071533q0.18920135 -1.2403564 -0.6659546 -2.194458q-0.7612915 -0.84939575 -1.874649 -0.9210663q-1.0913086 -0.07046509 -2.0971146 0.727005zm1.6970596 10.695801l7.3385544 -6.5842896l1.001152 1.1170044l-1.1164856 1.0017395q1.1650772 -0.26861572 1.7325974 -0.12704468q0.57914734 0.13113403 0.97543335 0.5732727q0.5631485 0.6283264 0.7401047 1.6451263l-1.5372314 0.6025238q-0.13922882 -0.6937866 -0.5563736 -1.1592102q-0.3650055 -0.40724182 -0.9012375 -0.51390076q-0.5258026 -0.09503174 -1.0812607 0.15142822q-0.8506317 0.38534546 -1.6414719 1.0948944l-3.8379135 3.443451l-1.1158676 -1.2449951zm17.785858 12.703796l0.8620148 1.640686q-2.026886 1.062851 -3.8794403 0.75172424q-1.8409119 -0.32156372 -3.2592163 -1.9039917q-1.4704361 -1.6405945 -1.7252426 -3.2592926q-0.24317932 -1.6291351 0.5331421 -3.2913055q0.78795624 -1.6726227 2.2417068 -2.9769592q1.5816956 -1.4191132 3.2881927 -1.8796082q1.716919 -0.44885254 3.3228302 0.12553406q1.6175537 0.56396484 2.8168488 1.9020538q1.3661499 1.524231 1.515091 3.2589111q0.16056824 1.7242584 -0.8700409 3.3836517l-1.4924469 -1.0330658q0.7919922 -1.3403625 0.68722534 -2.463913q-0.09313965 -1.1339722 -1.0004425 -2.1462555q-1.0428619 -1.1635437 -2.310257 -1.4539032q-1.256958 -0.27870178 -2.5026245 0.2511444q-1.2236023 0.53105164 -2.2237854 1.4284363q-1.2909393 1.1582489 -1.9225159 2.3966675q-0.6095123 1.239624 -0.37719727 2.4586487q0.24273682 1.2306671 1.0666046 2.1498718q1.0115814 1.1286316 2.3499603 1.3343048q1.3499908 0.1952362 2.879593 -0.67333984zm2.0692596 2.0746155q2.0352478 -1.8260651 4.045822 -1.5727539q1.6588135 0.21205139 2.8789673 1.5733948q1.3557281 1.512619 1.2106934 3.3641052q-0.12297058 1.8526917 -1.8674774 3.4178925q-1.418869 1.2730255 -2.6188354 1.5729523q-1.1779022 0.30111694 -2.3614807 -0.106414795q-1.1615143 -0.4063263 -2.0270996 -1.3720703q-1.3765717 -1.5358734 -1.2431793 -3.3769379q0.1334076 -1.8410492 1.9825897 -3.5001678zm1.1471558 1.279892q-1.4072418 1.2626038 -1.5523224 2.505371q-0.14508057 1.2427521 0.689209 2.173584q0.83428955 0.93084717 2.0743866 0.9098053q1.262146 -0.019836426 2.7042694 -1.313736q1.3607178 -1.2208557 1.5057983 -2.463623q0.14508057 -1.2427673 -0.678772 -2.1619568q-0.8343048 -0.93084717 -2.0848236 -0.9214325q-1.2505188 0.009399414 -2.6577454 1.2719879zm2.5316315 10.198929l7.338562 -6.5842896l1.0011444 1.1170044l-1.0467072 0.93911743q1.9395294 -0.27072144 3.3056946 1.2535248q0.5944214 0.663208 0.85076904 1.4408417q0.26797485 0.76719666 0.1124115 1.3895874q-0.13349915 0.6235962 -0.5525665 1.2095184q-0.28633118 0.38285828 -1.1469574 1.155014l-4.512451 4.048668l-1.11586 -1.2449951l4.465927 -4.00692q0.7559509 -0.6782532 0.99253845 -1.1634216q0.25865173 -0.48397827 0.14590454 -1.0545654q-0.11274719 -0.5706024 -0.5611725 -1.0709229q-0.7091522 -0.791214 -1.7306824 -0.9242859q-1.0110931 -0.1214447 -2.429947 1.1515808l-4.0007477 3.5895386l-1.11586 -1.2449951zm8.663116 5.264427l1.3031616 1.0559692q-0.6504669 0.77253723 -0.62875366 1.5927353q0.043792725 0.8213959 0.8050842 1.670784q0.77171326 0.86102295 1.4856262 0.9552231q0.7243347 0.10583496 1.1895294 -0.31154633q0.4186859 -0.37565613 0.33963013 -0.9554825q-0.06661987 -0.40206146 -0.7180481 -1.6439133q-0.88168335 -1.6860199 -1.1171722 -2.440384q-0.21342468 -0.75315857 -0.021774292 -1.4289246q0.2137146 -0.6745682 0.748703 -1.1545639q0.48846436 -0.43826294 1.1052856 -0.5928345q0.6272583 -0.14294434 1.2505188 -0.009399414q0.47006226 0.10305786 1.0696869 0.46772766q0.59962463 0.36468506 1.1106262 0.93481445q0.78215027 0.8726578 1.1102905 1.7538071q0.33976746 0.8707123 0.18060303 1.5593185q-0.13710022 0.6898117 -0.74224854 1.4426804l-1.247406 -1.064003q0.48524475 -0.58231354 0.43424988 -1.2712936q-0.028930664 -0.68777466 -0.6755066 -1.409172q-0.7717285 -0.86102295 -1.3857574 -0.9608536q-0.602417 -0.11026764 -0.97457886 0.22364044q-0.24423218 0.21913147 -0.30636597 0.5477829q-0.06213379 0.32865143 0.10192871 0.7692261q0.097091675 0.24877167 0.6546631 1.3859024q0.8295288 1.6278458 1.0778503 2.349701q0.24832153 0.72185516 0.07872009 1.3988266q-0.15916443 0.68860626 -0.79881287 1.2625122q-0.61639404 0.55303955 -1.4979248 0.6932068q-0.86990356 0.12973022 -1.7875671 -0.28546143q-0.90605164 -0.42562103 -1.6777649 -1.286644q-1.2827301 -1.4311676 -1.3674622 -2.719635q-0.074295044 -1.2768402 0.9009857 -2.529747zm8.044693 11.129379l-0.9484253 1.1658249q-0.57395935 -0.4296875 -0.94940186 -0.84856415q-0.6048584 -0.67485046 -0.7292328 -1.2350082q-0.11274719 -0.5705948 0.08895874 -1.0244675q0.21331787 -0.46429443 1.3414307 -1.4764633l4.210083 -3.777359l-0.8238678 -0.9191971l0.9769287 -0.87651825l0.8238678 0.9192047l1.8142853 -1.6278152l1.849762 0.5655365l-2.558609 2.2956314l1.1262817 1.25663l-0.97691345 0.87651825l-1.126297 -1.25663l-4.2798615 3.8399658q-0.53497314 0.47999573 -0.63401794 0.6738205q-0.08862305 0.20546722 -0.0460968 0.44020844q0.042541504 0.23473358 0.29283142 0.5139847q0.17727661 0.19780731 0.54829407 0.49469757zm-0.10771179 2.127243l7.338562 -6.584297l1.0011444 1.1170044l-1.1164856 1.0017319q1.1650848 -0.2686081 1.7325897 -0.12704468q0.5791626 0.13114166 0.9754486 0.57328796q0.56314087 0.62831116 0.74009705 1.6451111l-1.5372314 0.6025238q-0.13922119 -0.693779 -0.5563812 -1.159195q-0.36499023 -0.40724182 -0.90122986 -0.5139084q-0.5258026 -0.09503174 -1.081253 0.15142822q-0.8506317 0.38533783 -1.6414795 1.094902l-3.837906 3.4434433l-1.1158752 -1.2449875zm8.46402 9.443459l1.0815887 -0.97042084q-2.0057068 0.26712036 -3.3301392 -1.2105789q-0.5735779 -0.6399536 -0.8403473 -1.4292145q-0.24472046 -0.7880707 -0.12284851 -1.4012299q0.13230896 -0.60152435 0.57463074 -1.2083054q0.30958557 -0.40372467 1.1004333 -1.1132889l4.547348 -4.0799637l1.11586 1.2449951l-4.070511 3.6521454q-0.9769287 0.8765106 -1.2516174 1.2489319q-0.3841858 0.5546112 -0.31915283 1.1890106q0.0650177 0.63440704 0.56559753 1.1929092q0.50057983 0.5585022 1.2176971 0.7967529q0.72875977 0.22782135 1.3945007 -0.012634277q0.6878052 -0.23925018 1.6298523 -1.0844574l3.930954 -3.5269318l1.11586 1.2449951l-7.338562 6.5842896l-1.0011444 -1.1170044zm9.601212 5.304428l0.93218994 1.3678055q-1.4333344 0.9291458 -2.8948212 0.74998474q-1.4498749 -0.18960571 -2.5344543 -1.3996887q-1.3452911 -1.5009766 -1.1922302 -3.296692q0.17510986 -1.7945099 2.0126648 -3.4431915q1.186264 -1.0643387 2.4142914 -1.4734116q1.2500916 -0.4078598 2.4116058 -0.0015335083q1.1835785 0.4075241 2.0282898 1.3499985q1.0741577 1.1984482 1.1472626 2.4973602q0.0730896 1.2989044 -0.84524536 2.5217133l-1.2706604 -1.0431366q0.5878906 -0.8423462 0.5637665 -1.6184082q-0.024124146 -0.7760544 -0.57684326 -1.3927307q-0.84472656 -0.94247437 -2.0511322 -0.9306717q-1.1959686 0.0234375 -2.6497192 1.327774q-1.4770203 1.3252106 -1.640564 2.500557q-0.15190125 1.164917 0.66152954 2.0724792q0.65701294 0.7330322 1.5369568 0.82520294q0.89157104 0.08174133 1.947113 -0.61341095zm2.7995605 6.2839355l-0.9484253 1.1658325q-0.57395935 -0.4296875 -0.94940186 -0.84856415q-0.6048584 -0.67485046 -0.7292328 -1.2350159q-0.11274719 -0.57058716 0.08895874 -1.0244598q0.21331787 -0.46430206 1.3414307 -1.4764633l4.210083 -3.777359l-0.8238678 -0.9192047l0.9769287 -0.8765106l0.8238678 0.9191971l1.8142853 -1.6278076l1.849762 0.5655365l-2.558609 2.2956314l1.1262817 1.25663l-0.97691345 0.8765106l-1.126297 -1.2566223l-4.2798615 3.8399658q-0.53497314 0.47999573 -0.63401794 0.6738205q-0.08862305 0.20546722 -0.0460968 0.4402008q0.042541504 0.23474121 0.29283142 0.5139923q0.17727661 0.19779968 0.54829407 0.49468994zm8.612427 -5.6546326l1.4188538 -1.2730331l1.1158752 1.2449951l-1.418869 1.2730331l-1.11586 -1.2449951zm-8.69928 7.805153l7.338562 -6.584297l1.11586 1.2449951l-7.338562 6.5842896l-1.11586 -1.2449875zm6.002289 -0.67746735q2.0352478 -1.8260651 4.045822 -1.5727463q1.6588135 0.21204376 2.8789673 1.5733948q1.3557281 1.5126114 1.2106934 3.3640976q-0.12297058 1.8526917 -1.8674774 3.4179q-1.418869 1.2730255 -2.6188354 1.5729446q-1.1779022 0.30111694 -2.3614807 -0.106407166q-1.1615143 -0.40633392 -2.0270996 -1.3720703q-1.3765717 -1.535881 -1.2431793 -3.3769379q0.1334076 -1.8410568 1.9825897 -3.5001755zm1.1471405 1.2798996q-1.4072266 1.2626038 -1.5523071 2.5053635q-0.14508057 1.2427597 0.689209 2.1735916q0.83428955 0.93083954 2.0743866 0.90979767q1.262146 -0.019836426 2.7042694 -1.313736q1.3607178 -1.2208557 1.5057983 -2.463623q0.14508057 -1.2427597 -0.678772 -2.1619568q-0.8343048 -0.93083954 -2.0848236 -0.9214325q-1.2505188 0.009399414 -2.6577606 1.2719955zm2.5316467 10.198921l7.338562 -6.5842896l1.0011444 1.1170044l-1.0467072 0.93912506q1.9395294 -0.27072906 3.3056946 1.2535172q0.5944214 0.66321564 0.85076904 1.4408493q0.26797485 0.76719666 0.1124115 1.3895874q-0.13349915 0.6235962 -0.5525665 1.2095108q-0.28633118 0.38285828 -1.1469574 1.1550217l-4.512451 4.0486603l-1.11586 -1.2449875l4.465927 -4.0069275q0.7559509 -0.6782532 0.99253845 -1.1634216q0.25865173 -0.48397064 0.14590454 -1.0545654q-0.11274719 -0.5705948 -0.5611725 -1.0709152q-0.7091522 -0.791214 -1.7306824 -0.9242935q-1.0110931 -0.1214447 -2.4299622 1.1515884l-4.0007324 3.589531l-1.11586 -1.2449951zm30.063034 13.174721l1.199295 1.3380814l-5.8382874 5.2382126q-1.5351562 1.3773804 -2.7435303 1.8317871q-1.1979523 0.46604538 -2.581253 0.06977844q-1.3612518 -0.3950615 -2.6752625 -1.8611298q-1.2722931 -1.4195251 -1.5972748 -2.7653465q-0.32496643 -1.3458252 0.2612915 -2.5645714q0.58625793 -1.2187424 2.202835 -2.6691666l5.838272 -5.2382126l1.199295 1.3380737l-5.838272 5.23822q-1.3141937 1.1791153 -1.7232208 1.9869347q-0.40901184 0.80781937 -0.21443176 1.7038307q0.20501709 0.90765 0.9767456 1.768673q1.3244324 1.4777031 2.5505066 1.5112419q1.2376862 0.023101807 3.1450043 -1.6881866l5.8382874 -5.23822zm-7.226593 12.304329l7.3385468 -6.5842896l1.0011597 1.1170044l-1.0467072 0.93912125q1.9395294 -0.27072525 3.3056793 1.2535172q0.59443665 0.66321945 0.8507843 1.4408531q0.26797485 0.76719284 0.1124115 1.3895874q-0.13349915 0.6235962 -0.5525665 1.2095146q-0.28633118 0.38285065 -1.1469574 1.1550179l-4.512451 4.0486603l-1.1158752 -1.2449913l4.4659424 -4.0069237q0.7559509 -0.6782532 0.99253845 -1.1634254q0.25865173 -0.48397064 0.14590454 -1.0545616q-0.11274719 -0.5705948 -0.56118774 -1.070919q-0.70913696 -0.7912102 -1.7306671 -0.9242935q-1.0110931 -0.1214447 -2.4299622 1.1515884l-4.0007324 3.5895348l-1.11586 -1.2449951zm11.190414 12.485374l0.93040466 -0.834774q-1.7189331 0.28273392 -2.9286652 -1.0669785q-0.78215027 -0.8726578 -0.9727478 -2.0451508q-0.16854858 -1.1712914 0.32707214 -2.3506966q0.51768494 -1.1782074 1.6457977 -2.1903763q1.093216 -0.98085785 2.312027 -1.4236298q1.2292328 -0.43113708 2.3526306 -0.1375618q1.1338501 0.3052101 1.9472809 1.2127762q0.59443665 0.66321945 0.7741699 1.4256134q0.19017029 0.77402496 0.02859497 1.5067711l3.6285706 -3.2556229l1.1054382 1.2333565l-10.118134 9.078182l-1.0324402 -1.1519089zm0.13858032 -7.2197113q-1.4072266 1.2626 -1.5731659 2.48209q-0.15551758 1.2311249 0.5640564 2.0339699q0.730011 0.81448364 1.9039307 0.7898407q1.1739044 -0.02463913 2.5462494 -1.2559319q1.5002747 -1.346077 1.676651 -2.5539322q0.18800354 -1.2182884 -0.57328796 -2.0676765q-0.74043274 -0.82611465 -1.9155579 -0.7794075q-1.1751099 0.046710968 -2.6288757 1.3510475zm9.387299 13.095558l0.9843292 1.4259872q-1.3876343 0.6992073 -2.7560883 0.4365654q-1.346405 -0.2614441 -2.4935608 -1.5413437q-1.439148 -1.6056938 -1.2953186 -3.435112q0.14382935 -1.829422 1.9348602 -3.4363632q1.8491821 -1.6591187 3.7173462 -1.6348991q1.8785858 0.03585434 3.244751 1.5601006q1.3244324 1.4776993 1.1585388 3.3059196q-0.16589355 1.8282204 -1.991806 3.4664688q-0.10467529 0.09391022 -0.33607483 0.28053284l-4.9014587 -5.4686623q-1.1469574 1.1550217 -1.2338867 2.3456078q-0.08692932 1.1905899 0.7369232 2.1097908q0.60487366 0.6748543 1.3813477 0.8388672q0.7985382 0.16521454 1.8500977 -0.25345993zm-1.648468 -5.889244l3.6708832 4.09568q0.8457794 -0.90579224 0.9668274 -1.7071495q0.18920898 -1.2403564 -0.66593933 -2.1944656q-0.7612915 -0.8493881 -1.8746643 -0.92105865q-1.0913086 -0.07047272 -2.097107 0.72699356zm1.6970673 10.69581l7.3385468 -6.5842915l1.0011597 1.1170044l-1.1164856 1.0017319q1.1650696 -0.26861572 1.7325897 -0.12704468q0.57914734 0.13113785 0.97543335 0.57328415q0.5631561 0.628315 0.74009705 1.6451149l-1.5372314 0.6025219q-0.13922119 -0.6937809 -0.55636597 -1.1591969q-0.3650055 -0.40724182 -0.9012451 -0.5139084q-0.5258026 -0.09502792 -1.081253 0.15143204q-0.8506317 0.38533783 -1.6414795 1.0948982l-3.837906 3.443449l-1.11586 -1.2449951zm17.785843 12.7038l0.86203 1.6406822q-2.0269012 1.06285 -3.8794403 0.7517195q-1.8409271 -0.32156467 -3.2592163 -1.9039869q-1.4704437 -1.6405983 -1.7252502 -3.2592945q-0.24317932 -1.6291332 0.5331421 -3.2913113q0.78796387 -1.6726112 2.2417145 -2.9769478q1.5816803 -1.4191189 3.2881775 -1.8796139q1.7169342 -0.44886017 3.3228455 0.12553787q1.6175385 0.56396484 2.8168335 1.9020424q1.3661499 1.5242443 1.515091 3.2589226q0.16056824 1.7242451 -0.8700409 3.3836498l-1.4924469 -1.0330696q0.7919922 -1.3403587 0.68722534 -2.4639072q-0.09313965 -1.1339817 -1.0004272 -2.146267q-1.0428619 -1.1635456 -2.310257 -1.4538898q-1.256958 -0.27871132 -2.5026245 0.2511406q-1.2236176 0.53105354 -2.2238007 1.4284382q-1.2909241 1.1582508 -1.9225006 2.3966637q-0.6095276 1.2396145 -0.37721252 2.4586487q0.24275208 1.230669 1.0666199 2.149868q1.0115814 1.1286392 2.349945 1.3343067q1.3500061 0.19523239 2.879593 -0.6733322zm2.0692596 2.074607q2.035263 -1.8260717 4.045822 -1.5727453q1.6588135 0.21204185 2.8789673 1.57339q1.3557434 1.5126085 1.2106934 3.3640995q-0.12295532 1.8526917 -1.8674622 3.4178953q-1.418869 1.2730327 -2.6188354 1.5729494q-1.1779022 0.30111742 -2.3614807 -0.10641098q-1.1615295 -0.40632772 -2.0270996 -1.3720703q-1.3765869 -1.5358801 -1.2431793 -3.376936q0.1334076 -1.8410559 1.9825745 -3.5001717zm1.1471558 1.2798996q-1.4072266 1.262598 -1.5523224 2.5053587q-0.14508057 1.2427597 0.689209 2.1735964q0.83428955 0.9308357 2.0743866 0.90979767q1.2621613 -0.01983738 2.7042694 -1.3137388q1.3607178 -1.2208595 1.5057983 -2.4636202q0.14508057 -1.2427597 -0.678772 -2.1619606q-0.83428955 -0.9308367 -2.0848083 -0.92143345q-1.2505188 0.009402275 -2.6577606 1.2720003zm2.5316467 10.198932l7.3385468 -6.5842905l1.0011597 1.1170025l-1.0466919 0.93912315q1.9395142 -0.27072716 3.305664 1.2535176q0.5944519 0.6632204 0.85079956 1.4408507q0.26797485 0.7671957 0.11239624 1.3895907q-0.13348389 0.6235955 -0.55255127 1.2095113q-0.28634644 0.3828535 -1.1469727 1.1550207l-4.512451 4.048661l-1.1158752 -1.2449934l4.4659424 -4.006922q0.7559509 -0.6782551 0.9925537 -1.1634262q0.25863647 -0.48397017 0.14590454 -1.054564q-0.11276245 -0.57059336 -0.56118774 -1.0709181q-0.70913696 -0.79121065 -1.7306824 -0.9242916q-1.0110779 -0.12144518 -2.4299622 1.1515875l-4.000717 3.5895343l-1.1158752 -1.2449934zm8.663101 5.264416l1.3031616 1.0559682q-0.65045166 0.7725394 -0.62875366 1.5927372q0.043792725 0.82139826 0.8050842 1.6707864q0.7717285 0.8610234 1.4856262 0.9552231q0.7243347 0.10583544 1.1895447 -0.31155205q0.41867065 -0.37564898 0.33963013 -0.9554763q-0.06661987 -0.40206575 -0.7180481 -1.6439135q-0.88168335 -1.686024 -1.1171875 -2.4403834q-0.21340942 -0.7531586 -0.021759033 -1.4289278q0.2137146 -0.6745684 0.74868774 -1.1545644q0.48846436 -0.4382571 1.1052856 -0.59283245q0.6272583 -0.14293993 1.2505188 -0.009402633q0.47006226 0.103061914 1.0697021 0.4677353q0.5996094 0.36467344 1.1106262 0.9348105q0.782135 0.87265885 1.1102905 1.7538074q0.3397522 0.87071395 0.18060303 1.5593193q-0.13711548 0.6898062 -0.74224854 1.4426768l-1.247406 -1.0640011q0.4852295 -0.58231354 0.43423462 -1.271291q-0.028930664 -0.6877767 -0.6755066 -1.4091747q-0.7717285 -0.8610234 -1.3857422 -0.9608551q-0.602417 -0.11026637 -0.97457886 0.2236438q-0.24423218 0.21912855 -0.30636597 0.5477792q-0.06213379 0.32865065 0.10192871 0.7692249q0.097076416 0.24877536 0.6546631 1.3859038q0.8295288 1.627847 1.0778503 2.3497016q0.24832153 0.7218542 0.078704834 1.3988242q-0.15914917 0.6886053 -0.7987976 1.2625136q-0.61639404 0.5530386 -1.4979248 0.6932049q-0.86990356 0.12973118 -1.7875671 -0.28545856q-0.9060669 -0.4256239 -1.6777649 -1.2866473q-1.2827454 -1.4311604 -1.3674622 -2.7196345q-0.0743103 -1.2768381 0.90097046 -2.5297456zm8.044708 11.129376l-0.9484253 1.1658278q-0.5739746 -0.4296837 -0.94940186 -0.8485594q-0.6048584 -0.6748562 -0.72924805 -1.2350149q-0.11273193 -0.57059383 0.08895874 -1.0244608q0.21331787 -0.46430206 1.3414307 -1.4764671l4.210083 -3.777359l-0.82385254 -0.9192004l0.9769287 -0.87651443l0.82385254 0.9192009l1.8143005 -1.6278121l1.849762 0.56553745l-2.5586243 2.2956326l1.1262817 1.2566285l-0.9768982 0.87651443l-1.1263123 -1.256629l-4.279846 3.8399673q-0.53497314 0.47999573 -0.6340332 0.6738243q-0.08862305 0.20546341 -0.046081543 0.44020176q0.042541504 0.23473835 0.29281616 0.51398945q0.17727661 0.19780254 0.5483093 0.4946928zm-0.10769653 2.1272554l7.3385315 -6.5842905l1.0011597 1.1170034l-1.1164856 1.00173q1.1650696 -0.26861286 1.732605 -0.12704182q0.5791321 0.13113594 0.97543335 0.57328224q0.56314087 0.628315 0.7401123 1.645114l-1.5372314 0.60252285q-0.13925171 -0.69377995 -0.5563965 -1.1591978q-0.36499023 -0.40724087 -0.9012146 -0.5139055q-0.5258179 -0.09502792 -1.0812683 0.15143013q-0.850647 0.38533878 -1.6414795 1.0948982l-3.8379211 3.443449l-1.1158447 -1.2449942zm8.46402 9.443465l1.0815735 -0.97042656q-2.0057068 0.26712418 -3.3301392 -1.2105789q-0.5735779 -0.6399498 -0.84036255 -1.4292145q-0.24468994 -0.78806496 -0.12283325 -1.401226q0.1322937 -0.60152626 0.574646 -1.2083111q0.3095703 -0.40372276 1.1004333 -1.1132812l4.547333 -4.0799656l1.1158752 1.2449932l-4.070526 3.6521435q-0.9769287 0.8765125 -1.2516174 1.2489319q-0.3841858 0.5546112 -0.31915283 1.1890144q0.06503296 0.6344032 0.5656128 1.1929035q0.5005493 0.5585022 1.2176819 0.79675865q0.72875977 0.22782135 1.3945007 -0.01263237q0.6878052 -0.239254 1.6298523 -1.084465l3.9309387 -3.526926l1.1158752 1.2449932l-7.338562 6.5842915l-1.0011292 -1.1170025zm9.601196 5.304413l0.93218994 1.3678074q-1.4333496 0.9291458 -2.8948364 0.749979q-1.4498596 -0.1896019 -2.5344543 -1.3996887q-1.3452759 -1.5009727 -1.1922302 -3.296688q0.17510986 -1.7945137 2.0126648 -3.4431953q1.1862793 -1.0643387 2.4143066 -1.4734058q1.2500916 -0.40786552 2.4115906 -0.001537323q1.1835938 0.40752792 2.0282898 1.3500004q1.0741577 1.198452 1.1472778 2.4973602q0.0730896 1.2989082 -0.84524536 2.5217113l-1.2706604 -1.0431309q0.5878906 -0.8423519 0.5637512 -1.6184101q-0.024108887 -0.7760563 -0.57684326 -1.3927364q-0.84472656 -0.94247055 -2.051117 -0.9306679q-1.1959839 0.023441315 -2.6497192 1.3277779q-1.4770203 1.3252048 -1.640564 2.500555q-0.1519165 1.1649132 0.66152954 2.0724792q0.65701294 0.73303413 1.5369568 0.82520485q0.89157104 0.08173561 1.947113 -0.61341476zm2.7995605 6.2839375l-0.9484253 1.1658287q-0.5739746 -0.4296837 -0.94940186 -0.84856033q-0.6048584 -0.6748543 -0.72924805 -1.2350159q-0.11273193 -0.570591 0.08895874 -1.0244598q0.21331787 -0.46430206 1.3414307 -1.4764671l4.210083 -3.777359l-0.82385254 -0.919199l0.9769287 -0.87651443l0.82385254 0.9192009l1.8143005 -1.6278133l1.849762 0.5655384l-2.5586243 2.2956314l1.1262817 1.25663l-0.9768982 0.87651443l-1.1263123 -1.25663l-4.279846 3.8399677q-0.53497314 0.47999573 -0.6340332 0.6738243q-0.08862305 0.20546341 -0.046081543 0.4402008q0.042541504 0.2347374 0.29281616 0.5139885q0.17727661 0.1978035 0.5483093 0.49469376zm8.612396 -5.654646l1.4188843 -1.2730331l1.1158447 1.2449951l-1.4188538 1.2730312l-1.1158752 -1.2449932zm-8.69928 7.805151l7.338562 -6.5842915l1.1158752 1.2449932l-7.338562 6.5842896l-1.1158752 -1.2449913zm6.0023193 -0.6774521q2.0352478 -1.8260689 4.045807 -1.5727463q1.6588135 0.21204376 2.8789673 1.573391q1.3557434 1.5126114 1.2106934 3.3641014q-0.12295532 1.8526917 -1.8674622 3.4178963q-1.4188843 1.2730293 -2.6188354 1.5729485q-1.1779175 0.30111694 -2.3614807 -0.10641098q-1.1615295 -0.4063301 -2.0270996 -1.3720703q-1.3765869 -1.535881 -1.2431946 -3.3769379q0.13342285 -1.841053 1.982605 -3.5001717zm1.1471252 1.2798996q-1.4072266 1.2626 -1.5523071 2.5053596q-0.14508057 1.2427597 0.689209 2.1735954q0.83428955 0.9308357 2.0744019 0.90979767q1.262146 -0.019836426 2.7042542 -1.3137398q1.3607178 -1.2208557 1.5057983 -2.4636192q0.14508057 -1.2427597 -0.678772 -2.1619606q-0.83428955 -0.9308357 -2.0848083 -0.9214325q-1.2505188 0.009403229 -2.6577759 1.2719994zm2.5316772 10.198933l7.3385315 -6.5842896l1.0011597 1.1170006l-1.0466919 0.93912506q1.9395142 -0.27072906 3.305664 1.2535172q0.5944519 0.66321945 0.85079956 1.4408493q0.26797485 0.76719666 0.11239624 1.3895912q-0.13348389 0.6235962 -0.55255127 1.2095108q-0.28634644 0.38285446 -1.1469727 1.1550217l-4.512451 4.0486603l-1.1158752 -1.2449913l4.4659424 -4.0069237q0.7559509 -0.6782532 0.9925537 -1.1634254q0.25863647 -0.48397064 0.14590454 -1.0545654q-0.11276245 -0.570591 -0.56118774 -1.0709152q-0.70913696 -0.791214 -1.7306824 -0.9242935q-1.0110779 -0.1214447 -2.4299622 1.1515884l-4.0007324 3.5895348l-1.1158447 -1.2449951z" fill-rule="nonzero"></path><path fill="#ffe600" d="m342.1486 54.762367l2.2505493 2.5083504l-28.552979 25.618282l-2.2505493 -2.5083542z" fill-rule="nonzero"></path></g></svg>

