<?xml version="1.0" standalone="yes"?>

<svg version="1.1" viewBox="0.0 0.0 172.0 178.0" fill="none" stroke="none" stroke-linecap="square" stroke-miterlimit="10" xmlns="http://www.w3.org/2000/svg" xmlns:xlink="http://www.w3.org/1999/xlink"><clipPath id="p.0"><path d="m0 0l172.0 0l0 178.0l-172.0 0l0 -178.0z" clip-rule="nonzero"></path></clipPath><g clip-path="url(#p.0)"><path fill="#000000" fill-opacity="0.0" d="m0 0l172.0315 0l0 178.68242l-172.0315 0z" fill-rule="nonzero"></path><path fill="#cc0000" d="m2.015748 89.3399l0 0c0 -46.391922 37.60808 -84.0 84.0 -84.0l0 0c22.278183 0 43.64392 8.849975 59.396973 24.60303c15.753052 15.753056 24.603027 37.118782 24.603027 59.396973l0 0c0 46.391914 -37.608078 83.99999 -84.0 83.99999l0 0c-46.39192 0 -84.0 -37.608078 -84.0 -83.99999z" fill-rule="nonzero"></path><path stroke="#cc0000" stroke-width="2.0" stroke-linejoin="round" stroke-linecap="butt" d="m2.015748 89.3399l0 0c0 -46.391922 37.60808 -84.0 84.0 -84.0l0 0c22.278183 0 43.64392 8.849975 59.396973 24.60303c15.753052 15.753056 24.603027 37.118782 24.603027 59.396973l0 0c0 46.391914 -37.608078 83.99999 -84.0 83.99999l0 0c-46.39192 0 -84.0 -37.608078 -84.0 -83.99999z" fill-rule="nonzero"></path><path fill="#ffffff" d="m25.370079 75.147125l0 0c0 -3.9197083 3.1775494 -7.0972595 7.0972557 -7.0972595l107.09683 0c1.882309 0 3.6875153 0.7477493 5.018509 2.078743c1.3309937 1.3309937 2.0787506 3.1362076 2.0787506 5.0185165l0 28.388168c0 3.9197006 -3.1775513 7.097252 -7.0972595 7.097252l-107.09683 0l0 0c-3.9197063 0 -7.0972557 -3.1775513 -7.0972557 -7.097252z" fill-rule="nonzero"></path><path stroke="#000000" stroke-width="1.0" stroke-linejoin="round" stroke-linecap="butt" d="m25.370079 75.147125l0 0c0 -3.9197083 3.1775494 -7.0972595 7.0972557 -7.0972595l107.09683 0c1.882309 0 3.6875153 0.7477493 5.018509 2.078743c1.3309937 1.3309937 2.0787506 3.1362076 2.0787506 5.0185165l0 28.388168c0 3.9197006 -3.1775513 7.097252 -7.0972595 7.097252l-107.09683 0l0 0c-3.9197063 0 -7.0972557 -3.1775513 -7.0972557 -7.097252z" fill-rule="nonzero"></path><path fill="#000000" fill-opacity="0.0" d="m25.370079 35.406826l121.29134 0l0 27.842518l-121.29134 0z" fill-rule="nonzero"></path><path fill="#000000" d="m41.21106 57.868084l0 -17.1875l5.90625 0q2.015625 0 3.0625 0.25q1.484375 0.34375 2.515625 1.234375q1.359375 1.140625 2.03125 2.9375q0.6875 1.78125 0.6875 4.078125q0 1.953125 -0.46875 3.46875q-0.453125 1.515625 -1.171875 2.515625q-0.703125 0.984375 -1.5625 1.546875q-0.84375 0.5625 -2.046875 0.859375q-1.203125 0.296875 -2.765625 0.296875l-6.1875 0zm2.265625 -2.03125l3.671875 0q1.703125 0 2.65625 -0.3125q0.96875 -0.3125 1.546875 -0.890625q0.8125 -0.8125 1.265625 -2.171875q0.453125 -1.375 0.453125 -3.3125q0 -2.703125 -0.890625 -4.140625q-0.890625 -1.453125 -2.15625 -1.9375q-0.90625 -0.359375 -2.9375 -0.359375l-3.609375 0l0 13.125zm14.363281 -6.34375q0 -4.265625 2.296875 -6.6875q2.296875 -2.421875 5.9375 -2.421875q2.375 0 4.28125 1.140625q1.921875 1.125 2.921875 3.171875q1.0 2.03125 1.0 4.609375q0 2.609375 -1.0625 4.671875q-1.046875 2.0625 -2.984375 3.125q-1.9375 1.0625 -4.171875 1.0625q-2.421875 0 -4.34375 -1.171875q-1.90625 -1.171875 -2.890625 -3.203125q-0.984375 -2.03125 -0.984375 -4.296875zm2.34375 0.046875q0 3.09375 1.671875 4.890625q1.671875 1.78125 4.1875 1.78125q2.578125 0 4.234375 -1.796875q1.65625 -1.8125 1.65625 -5.125q0 -2.09375 -0.71875 -3.65625q-0.703125 -1.578125 -2.078125 -2.4375q-1.359375 -0.859375 -3.046875 -0.859375q-2.421875 0 -4.171875 1.65625q-1.734375 1.65625 -1.734375 5.546875zm23.664062 8.328125l0 -17.1875l2.328125 0l9.03125 13.5l0 -13.5l2.171875 0l0 17.1875l-2.328125 0l-9.015625 -13.5l0 13.5l-2.1875 0zm16.660156 -8.375q0 -4.265625 2.296875 -6.6875q2.296875 -2.421875 5.9375 -2.421875q2.375 0 4.28125 1.140625q1.921875 1.125 2.921875 3.171875q1.0 2.03125 1.0 4.609375q0 2.609375 -1.0625 4.671875q-1.046875 2.0625 -2.984375 3.125q-1.9375 1.0625 -4.171875 1.0625q-2.421875 0 -4.34375 -1.171875q-1.90625 -1.171875 -2.890625 -3.203125q-0.984375 -2.03125 -0.984375 -4.296875zm2.34375 0.046875q0 3.09375 1.671875 4.890625q1.671875 1.78125 4.1875 1.78125q2.578125 0 4.234375 -1.796875q1.65625 -1.8125 1.65625 -5.125q0 -2.09375 -0.71875 -3.65625q-0.703125 -1.578125 -2.078125 -2.4375q-1.359375 -0.859375 -3.046875 -0.859375q-2.421875 0 -4.171875 1.65625q-1.734375 1.65625 -1.734375 5.546875zm21.386719 8.328125l0 -15.15625l-5.65625 0l0 -2.03125l13.625 0l0 2.03125l-5.6875 0l0 15.15625l-2.28125 0z" fill-rule="nonzero"></path><path fill="#000000" fill-opacity="0.0" d="m25.370079 119.58268l121.29134 0l0 27.842522l-121.29134 0z" fill-rule="nonzero"></path><path fill="#000000" d="m47.252075 142.04393l0 -17.187492l12.421875 0l0 2.03125l-10.15625 0l0 5.2656174l9.5 0l0 2.015625l-9.5 0l0 5.84375l10.546875 0l0 2.03125l-12.8125 0zm15.9296875 0l0 -17.187492l2.328125 0l9.03125 13.499992l0 -13.499992l2.171875 0l0 17.187492l-2.328125 0l-9.015625 -13.5l0 13.5l-2.1875 0zm21.722656 0l0 -15.156242l-5.65625 0l0 -2.03125l13.625 0l0 2.03125l-5.6875 0l0 15.156242l-2.28125 0zm10.347656 0l0 -17.187492l12.421875 0l0 2.03125l-10.15625 0l0 5.2656174l9.5 0l0 2.015625l-9.5 0l0 5.84375l10.546875 0l0 2.03125l-12.8125 0zm15.9921875 0l0 -17.187492l7.609375 0q2.296875 0 3.484375 0.46875q1.203125 0.46875 1.921875 1.640625q0.71875 1.1718674 0.71875 2.5781174q0 1.828125 -1.1875 3.09375q-1.1875 1.25 -3.65625 1.59375q0.90625 0.421875 1.375 0.84375q1.0 0.921875 1.890625 2.296875l2.984375 4.671875l-2.859375 0l-2.28125 -3.578125q-0.984375 -1.546875 -1.640625 -2.359375q-0.640625 -0.828125 -1.15625 -1.15625q-0.5 -0.328125 -1.03125 -0.453125q-0.390625 -0.078125 -1.265625 -0.078125l-2.640625 0l0 7.625l-2.265625 0zm2.265625 -9.59375l4.890625 0q1.5625 0 2.4375 -0.328125q0.875 -0.328125 1.328125 -1.03125q0.46875 -0.703125 0.46875 -1.546875q0 -1.21875 -0.890625 -1.9999924q-0.875 -0.78125 -2.796875 -0.78125l-5.4375 0l0 5.6874924z" fill-rule="nonzero"></path></g></svg>

