<?xml version="1.0" standalone="yes"?>

<svg version="1.1" viewBox="0.0 0.0 381.0 285.0" fill="none" stroke="none" stroke-linecap="square" stroke-miterlimit="10" xmlns="http://www.w3.org/2000/svg" xmlns:xlink="http://www.w3.org/1999/xlink"><clipPath id="p.0"><path d="m0 0l381.0 0l0 285.0l-381.0 0l0 -285.0z" clip-rule="nonzero"></path></clipPath><g clip-path="url(#p.0)"><path fill="#000000" fill-opacity="0.0" d="m0 0l381.48557 0l0 285.2546l-381.48557 0z" fill-rule="nonzero"></path><path fill="#ffffff" d="m380.4752 68.7826l-145.49725 -55.26975l-36.9075 97.151276l145.49725 55.269745z" fill-rule="nonzero"></path><path stroke="#000000" stroke-width="2.0" stroke-linejoin="round" stroke-linecap="butt" d="m380.4752 68.7826l-145.49725 -55.26975l-36.9075 97.151276l145.49725 55.269745z" fill-rule="nonzero"></path><path fill="#000000" d="m380.4752 68.7826l-16.166351 -6.141083l-7.1214905 18.745842l16.166351 6.141083z" fill-rule="nonzero"></path><path stroke="#000000" stroke-width="2.0" stroke-linejoin="round" stroke-linecap="butt" d="m380.4752 68.7826l-16.166351 -6.141083l-7.1214905 18.745842l16.166351 6.141083z" fill-rule="nonzero"></path><path fill="#000000" d="m357.18735 81.38736l-16.166351 -6.141083l-7.121521 18.745842l16.166382 6.141083z" fill-rule="nonzero"></path><path stroke="#000000" stroke-width="2.0" stroke-linejoin="round" stroke-linecap="butt" d="m357.18735 81.38736l-16.166351 -6.141083l-7.121521 18.745842l16.166382 6.141083z" fill-rule="nonzero"></path><path fill="#000000" d="m348.1425 56.500435l-16.166382 -6.141083l-7.1214905 18.745842l16.166382 6.141083z" fill-rule="nonzero"></path><path stroke="#000000" stroke-width="2.0" stroke-linejoin="round" stroke-linecap="butt" d="m348.1425 56.500435l-16.166382 -6.141083l-7.1214905 18.745842l16.166382 6.141083z" fill-rule="nonzero"></path><path fill="#000000" d="m324.8546 69.105194l-16.166351 -6.141083l-7.1214905 18.745842l16.166351 6.141083z" fill-rule="nonzero"></path><path stroke="#000000" stroke-width="2.0" stroke-linejoin="round" stroke-linecap="butt" d="m324.8546 69.105194l-16.166351 -6.141083l-7.1214905 18.745842l16.166351 6.141083z" fill-rule="nonzero"></path><path fill="#000000" d="m300.91675 83.42098l-16.166351 -6.141083l-7.121521 18.745842l16.166382 6.141083z" fill-rule="nonzero"></path><path stroke="#000000" stroke-width="2.0" stroke-linejoin="round" stroke-linecap="butt" d="m300.91675 83.42098l-16.166351 -6.141083l-7.121521 18.745842l16.166382 6.141083z" fill-rule="nonzero"></path><path fill="#000000" d="m277.62888 96.02574l-16.166351 -6.141083l-7.1214905 18.745842l16.166351 6.141083z" fill-rule="nonzero"></path><path stroke="#000000" stroke-width="2.0" stroke-linejoin="round" stroke-linecap="butt" d="m277.62888 96.02574l-16.166351 -6.141083l-7.1214905 18.745842l16.166351 6.141083z" fill-rule="nonzero"></path><path fill="#000000" d="m253.69101 110.34153l-16.166351 -6.141083l-7.1215057 18.745842l16.166367 6.141083z" fill-rule="nonzero"></path><path stroke="#000000" stroke-width="2.0" stroke-linejoin="round" stroke-linecap="butt" d="m253.69101 110.34153l-16.166351 -6.141083l-7.1215057 18.745842l16.166367 6.141083z" fill-rule="nonzero"></path><path fill="#000000" d="m245.29616 83.743576l-16.166351 -6.141083l-7.1215057 18.745842l16.166367 6.141083z" fill-rule="nonzero"></path><path stroke="#000000" stroke-width="2.0" stroke-linejoin="round" stroke-linecap="butt" d="m245.29616 83.743576l-16.166351 -6.141083l-7.1215057 18.745842l16.166367 6.141083z" fill-rule="nonzero"></path><path fill="#000000" d="m236.2513 58.856647l-16.166367 -6.141083l-7.1214905 18.745846l16.166367 6.141083z" fill-rule="nonzero"></path><path stroke="#000000" stroke-width="2.0" stroke-linejoin="round" stroke-linecap="butt" d="m236.2513 58.856647l-16.166367 -6.141083l-7.1214905 18.745846l16.166367 6.141083z" fill-rule="nonzero"></path><path fill="#000000" d="m268.584 71.13882l-16.166351 -6.141083l-7.1215057 18.745842l16.166367 6.141083z" fill-rule="nonzero"></path><path stroke="#000000" stroke-width="2.0" stroke-linejoin="round" stroke-linecap="butt" d="m268.584 71.13882l-16.166351 -6.141083l-7.1215057 18.745842l16.166367 6.141083z" fill-rule="nonzero"></path><path fill="#000000" d="m259.53915 46.251892l-16.166367 -6.1410866l-7.1214905 18.745842l16.166367 6.1410866z" fill-rule="nonzero"></path><path stroke="#000000" stroke-width="2.0" stroke-linejoin="round" stroke-linecap="butt" d="m259.53915 46.251892l-16.166367 -6.1410866l-7.1214905 18.745842l16.166367 6.1410866z" fill-rule="nonzero"></path><path fill="#000000" d="m315.80975 44.21827l-16.166351 -6.141083l-7.121521 18.745842l16.166382 6.141083z" fill-rule="nonzero"></path><path stroke="#000000" stroke-width="2.0" stroke-linejoin="round" stroke-linecap="butt" d="m315.80975 44.21827l-16.166351 -6.141083l-7.121521 18.745842l16.166382 6.141083z" fill-rule="nonzero"></path><path fill="#000000" d="m291.8719 58.534058l-16.166382 -6.141083l-7.1214905 18.745842l16.166382 6.141083z" fill-rule="nonzero"></path><path stroke="#000000" stroke-width="2.0" stroke-linejoin="round" stroke-linecap="butt" d="m291.8719 58.534058l-16.166382 -6.141083l-7.1214905 18.745842l16.166382 6.141083z" fill-rule="nonzero"></path><path fill="#000000" d="m283.47702 31.936102l-16.166351 -6.1410847l-7.1214905 18.745842l16.166351 6.141083z" fill-rule="nonzero"></path><path stroke="#000000" stroke-width="2.0" stroke-linejoin="round" stroke-linecap="butt" d="m283.47702 31.936102l-16.166351 -6.1410847l-7.1214905 18.745842l16.166351 6.141083z" fill-rule="nonzero"></path><path fill="#000000" d="m251.1443 19.653934l-16.166367 -6.1410837l-7.1214905 18.745842l16.166367 6.141083z" fill-rule="nonzero"></path><path stroke="#000000" stroke-width="2.0" stroke-linejoin="round" stroke-linecap="butt" d="m251.1443 19.653934l-16.166367 -6.1410837l-7.1214905 18.745842l16.166367 6.141083z" fill-rule="nonzero"></path><path fill="#000000" d="m365.58218 107.98531l-16.166351 -6.141083l-7.1214905 18.745842l16.166351 6.1410904z" fill-rule="nonzero"></path><path stroke="#000000" stroke-width="2.0" stroke-linejoin="round" stroke-linecap="butt" d="m365.58218 107.98531l-16.166351 -6.141083l-7.1214905 18.745842l16.166351 6.1410904z" fill-rule="nonzero"></path><path fill="#000000" d="m333.24948 95.70315l-16.166382 -6.141083l-7.1214905 18.745842l16.166351 6.141083z" fill-rule="nonzero"></path><path stroke="#000000" stroke-width="2.0" stroke-linejoin="round" stroke-linecap="butt" d="m333.24948 95.70315l-16.166382 -6.141083l-7.1214905 18.745842l16.166351 6.141083z" fill-rule="nonzero"></path><path fill="#000000" d="m309.9616 108.30791l-16.166351 -6.141083l-7.1214905 18.745842l16.166351 6.141083z" fill-rule="nonzero"></path><path stroke="#000000" stroke-width="2.0" stroke-linejoin="round" stroke-linecap="butt" d="m309.9616 108.30791l-16.166351 -6.141083l-7.1214905 18.745842l16.166351 6.141083z" fill-rule="nonzero"></path><path fill="#000000" d="m342.29434 120.59007l-16.166382 -6.141083l-7.1214905 18.74585l16.166382 6.141083z" fill-rule="nonzero"></path><path stroke="#000000" stroke-width="2.0" stroke-linejoin="round" stroke-linecap="butt" d="m342.29434 120.59007l-16.166382 -6.141083l-7.1214905 18.74585l16.166382 6.141083z" fill-rule="nonzero"></path><path fill="#000000" d="m318.35648 134.90587l-16.166382 -6.141083l-7.1214905 18.745834l16.166351 6.141083z" fill-rule="nonzero"></path><path stroke="#000000" stroke-width="2.0" stroke-linejoin="round" stroke-linecap="butt" d="m318.35648 134.90587l-16.166382 -6.141083l-7.1214905 18.745834l16.166351 6.141083z" fill-rule="nonzero"></path><path fill="#000000" d="m350.68918 147.18803l-16.166351 -6.141083l-7.1214905 18.745834l16.166351 6.141083z" fill-rule="nonzero"></path><path stroke="#000000" stroke-width="2.0" stroke-linejoin="round" stroke-linecap="butt" d="m350.68918 147.18803l-16.166351 -6.141083l-7.1214905 18.745834l16.166351 6.141083z" fill-rule="nonzero"></path><path fill="#000000" d="m286.02374 122.623695l-16.166382 -6.141083l-7.1214905 18.745842l16.166382 6.141083z" fill-rule="nonzero"></path><path stroke="#000000" stroke-width="2.0" stroke-linejoin="round" stroke-linecap="butt" d="m286.02374 122.623695l-16.166382 -6.141083l-7.1214905 18.745842l16.166382 6.141083z" fill-rule="nonzero"></path><path fill="#000000" d="m221.35829 98.059364l-16.166367 -6.141083l-7.1214905 18.745842l16.166351 6.141083z" fill-rule="nonzero"></path><path stroke="#000000" stroke-width="2.0" stroke-linejoin="round" stroke-linecap="butt" d="m221.35829 98.059364l-16.166367 -6.141083l-7.1214905 18.745842l16.166351 6.141083z" fill-rule="nonzero"></path><path fill="#ffffff" d="m233.8778 13.620375l0 0c-0.21424866 0.5639515 -2.216629 0.32645607 -4.472458 -0.53046036c-2.2558289 -0.8569164 -3.9108582 -2.0087566 -3.6966095 -2.5727081l-78.067245 205.4956c-0.21424866 0.5639496 1.4407806 1.715805 3.6966095 2.5727081c2.2558289 0.85691833 4.258209 1.0944214 4.472458 0.5304718z" fill-rule="nonzero"></path><path fill="#ffffff" d="m233.8778 13.620375l0 0c0.2142334 -0.5639515 -1.4407959 -1.7157917 -3.6966095 -2.5727081c-2.2558289 -0.8569164 -4.2582245 -1.0944118 -4.472458 -0.53046036l0 0c-0.21424866 0.5639515 1.4407806 1.7157917 3.6966095 2.5727081c2.2558289 0.8569164 4.258209 1.0944118 4.472458 0.53046036z" fill-rule="nonzero"></path><path fill="#000000" fill-opacity="0.0" d="m225.70874 10.517206l0 0c-0.21424866 0.5639515 1.4407806 1.7157917 3.6966095 2.5727081c2.2558289 0.8569164 4.258209 1.0944118 4.472458 0.53046036l0 0c0.2142334 -0.5639515 -1.4407959 -1.7157917 -3.6966095 -2.5727081c-2.2558289 -0.8569164 -4.2582245 -1.0944118 -4.472458 -0.53046036l-78.067245 205.4956c-0.21424866 0.5639496 1.4407806 1.715805 3.6966095 2.5727081c2.2558289 0.85691833 4.258209 1.0944214 4.472458 0.5304718l78.067245 -205.49562" fill-rule="nonzero"></path><path stroke="#000000" stroke-width="2.0" stroke-linejoin="round" stroke-linecap="butt" d="m225.70874 10.517206l0 0c-0.21424866 0.5639515 1.4407806 1.7157917 3.6966095 2.5727081c2.2558289 0.8569164 4.258209 1.0944118 4.472458 0.53046036l0 0c0.2142334 -0.5639515 -1.4407959 -1.7157917 -3.6966095 -2.5727081c-2.2558289 -0.8569164 -4.2582245 -1.0944118 -4.472458 -0.53046036l-78.067245 205.4956c-0.21424866 0.5639496 1.4407806 1.715805 3.6966095 2.5727081c2.2558289 0.85691833 4.258209 1.0944214 4.472458 0.5304718l78.067245 -205.49562" fill-rule="nonzero"></path><path fill="#ffffff" d="m1.0103621 68.7826l145.49727 -55.26975l36.9075 97.151276l-145.49725 55.269745z" fill-rule="nonzero"></path><path stroke="#000000" stroke-width="2.0" stroke-linejoin="round" stroke-linecap="butt" d="m1.0103621 68.7826l145.49727 -55.26975l36.9075 97.151276l-145.49725 55.269745z" fill-rule="nonzero"></path><path fill="#000000" d="m1.0103621 68.7826l16.16636 -6.141083l7.121496 18.745842l-16.166363 6.141083z" fill-rule="nonzero"></path><path stroke="#000000" stroke-width="2.0" stroke-linejoin="round" stroke-linecap="butt" d="m1.0103621 68.7826l16.16636 -6.141083l7.121496 18.745842l-16.166363 6.141083z" fill-rule="nonzero"></path><path fill="#000000" d="m24.29822 81.38736l16.166365 -6.141083l7.1214943 18.745842l-16.166363 6.141083z" fill-rule="nonzero"></path><path stroke="#000000" stroke-width="2.0" stroke-linejoin="round" stroke-linecap="butt" d="m24.29822 81.38736l16.166365 -6.141083l7.1214943 18.745842l-16.166363 6.141083z" fill-rule="nonzero"></path><path fill="#000000" d="m33.343086 56.500435l16.166363 -6.141083l7.1214943 18.745842l-16.166359 6.141083z" fill-rule="nonzero"></path><path stroke="#000000" stroke-width="2.0" stroke-linejoin="round" stroke-linecap="butt" d="m33.343086 56.500435l16.166363 -6.141083l7.1214943 18.745842l-16.166359 6.141083z" fill-rule="nonzero"></path><path fill="#000000" d="m56.630943 69.105194l16.166367 -6.141083l7.1214905 18.745842l-16.166359 6.141083z" fill-rule="nonzero"></path><path stroke="#000000" stroke-width="2.0" stroke-linejoin="round" stroke-linecap="butt" d="m56.630943 69.105194l16.166367 -6.141083l7.1214905 18.745842l-16.166359 6.141083z" fill-rule="nonzero"></path><path fill="#000000" d="m80.56882 83.42098l16.166367 -6.141083l7.1214905 18.745842l-16.166359 6.141083z" fill-rule="nonzero"></path><path stroke="#000000" stroke-width="2.0" stroke-linejoin="round" stroke-linecap="butt" d="m80.56882 83.42098l16.166367 -6.141083l7.1214905 18.745842l-16.166359 6.141083z" fill-rule="nonzero"></path><path fill="#000000" d="m103.856674 96.02574l16.166367 -6.141083l7.121498 18.745842l-16.166367 6.141083z" fill-rule="nonzero"></path><path stroke="#000000" stroke-width="2.0" stroke-linejoin="round" stroke-linecap="butt" d="m103.856674 96.02574l16.166367 -6.141083l7.121498 18.745842l-16.166367 6.141083z" fill-rule="nonzero"></path><path fill="#000000" d="m127.79455 110.34153l16.166359 -6.141083l7.1215057 18.745842l-16.166367 6.141083z" fill-rule="nonzero"></path><path stroke="#000000" stroke-width="2.0" stroke-linejoin="round" stroke-linecap="butt" d="m127.79455 110.34153l16.166359 -6.141083l7.1215057 18.745842l-16.166367 6.141083z" fill-rule="nonzero"></path><path fill="#000000" d="m136.1894 83.743576l16.166351 -6.141083l7.1215057 18.745842l-16.166367 6.141083z" fill-rule="nonzero"></path><path stroke="#000000" stroke-width="2.0" stroke-linejoin="round" stroke-linecap="butt" d="m136.1894 83.743576l16.166351 -6.141083l7.1215057 18.745842l-16.166367 6.141083z" fill-rule="nonzero"></path><path fill="#000000" d="m145.23427 58.856647l16.166367 -6.141083l7.1214905 18.745846l-16.166367 6.141083z" fill-rule="nonzero"></path><path stroke="#000000" stroke-width="2.0" stroke-linejoin="round" stroke-linecap="butt" d="m145.23427 58.856647l16.166367 -6.141083l7.1214905 18.745846l-16.166367 6.141083z" fill-rule="nonzero"></path><path fill="#000000" d="m112.90154 71.13882l16.166359 -6.141083l7.1215057 18.745842l-16.166367 6.141083z" fill-rule="nonzero"></path><path stroke="#000000" stroke-width="2.0" stroke-linejoin="round" stroke-linecap="butt" d="m112.90154 71.13882l16.166359 -6.141083l7.1215057 18.745842l-16.166367 6.141083z" fill-rule="nonzero"></path><path fill="#000000" d="m121.94641 46.251892l16.166367 -6.1410866l7.1214905 18.745842l-16.166367 6.1410866z" fill-rule="nonzero"></path><path stroke="#000000" stroke-width="2.0" stroke-linejoin="round" stroke-linecap="butt" d="m121.94641 46.251892l16.166367 -6.1410866l7.1214905 18.745842l-16.166367 6.1410866z" fill-rule="nonzero"></path><path fill="#000000" d="m65.67581 44.21827l16.166359 -6.141083l7.121498 18.745842l-16.166359 6.141083z" fill-rule="nonzero"></path><path stroke="#000000" stroke-width="2.0" stroke-linejoin="round" stroke-linecap="butt" d="m65.67581 44.21827l16.166359 -6.141083l7.121498 18.745842l-16.166359 6.141083z" fill-rule="nonzero"></path><path fill="#000000" d="m89.613686 58.534058l16.166359 -6.141083l7.121498 18.745842l-16.166359 6.141083z" fill-rule="nonzero"></path><path stroke="#000000" stroke-width="2.0" stroke-linejoin="round" stroke-linecap="butt" d="m89.613686 58.534058l16.166359 -6.141083l7.121498 18.745842l-16.166359 6.141083z" fill-rule="nonzero"></path><path fill="#000000" d="m98.00854 31.936102l16.166359 -6.1410847l7.121498 18.745842l-16.166367 6.141083z" fill-rule="nonzero"></path><path stroke="#000000" stroke-width="2.0" stroke-linejoin="round" stroke-linecap="butt" d="m98.00854 31.936102l16.166359 -6.1410847l7.121498 18.745842l-16.166367 6.141083z" fill-rule="nonzero"></path><path fill="#000000" d="m130.34126 19.653934l16.166367 -6.1410837l7.1214905 18.745842l-16.166367 6.141083z" fill-rule="nonzero"></path><path stroke="#000000" stroke-width="2.0" stroke-linejoin="round" stroke-linecap="butt" d="m130.34126 19.653934l16.166367 -6.1410837l7.1214905 18.745842l-16.166367 6.141083z" fill-rule="nonzero"></path><path fill="#000000" d="m15.90337 107.98531l16.166363 -6.141083l7.1214943 18.745842l-16.16636 6.1410904z" fill-rule="nonzero"></path><path stroke="#000000" stroke-width="2.0" stroke-linejoin="round" stroke-linecap="butt" d="m15.90337 107.98531l16.166363 -6.141083l7.1214943 18.745842l-16.16636 6.1410904z" fill-rule="nonzero"></path><path fill="#000000" d="m48.236095 95.70315l16.166363 -6.141083l7.121498 18.745842l-16.166367 6.141083z" fill-rule="nonzero"></path><path stroke="#000000" stroke-width="2.0" stroke-linejoin="round" stroke-linecap="butt" d="m48.236095 95.70315l16.166363 -6.141083l7.121498 18.745842l-16.166367 6.141083z" fill-rule="nonzero"></path><path fill="#000000" d="m71.52396 108.30791l16.166359 -6.141083l7.121498 18.745842l-16.166367 6.141083z" fill-rule="nonzero"></path><path stroke="#000000" stroke-width="2.0" stroke-linejoin="round" stroke-linecap="butt" d="m71.52396 108.30791l16.166359 -6.141083l7.121498 18.745842l-16.166367 6.141083z" fill-rule="nonzero"></path><path fill="#000000" d="m39.191227 120.59007l16.166363 -6.141083l7.121498 18.74585l-16.166363 6.141083z" fill-rule="nonzero"></path><path stroke="#000000" stroke-width="2.0" stroke-linejoin="round" stroke-linecap="butt" d="m39.191227 120.59007l16.166363 -6.141083l7.121498 18.74585l-16.166363 6.141083z" fill-rule="nonzero"></path><path fill="#000000" d="m63.1291 134.90587l16.166363 -6.141083l7.121498 18.745834l-16.166367 6.141083z" fill-rule="nonzero"></path><path stroke="#000000" stroke-width="2.0" stroke-linejoin="round" stroke-linecap="butt" d="m63.1291 134.90587l16.166363 -6.141083l7.121498 18.745834l-16.166367 6.141083z" fill-rule="nonzero"></path><path fill="#000000" d="m30.796377 147.18803l16.166365 -6.141083l7.1214943 18.745834l-16.166363 6.141083z" fill-rule="nonzero"></path><path stroke="#000000" stroke-width="2.0" stroke-linejoin="round" stroke-linecap="butt" d="m30.796377 147.18803l16.166365 -6.141083l7.1214943 18.745834l-16.166363 6.141083z" fill-rule="nonzero"></path><path fill="#000000" d="m95.46183 122.623695l16.166359 -6.141083l7.121498 18.745842l-16.166367 6.141083z" fill-rule="nonzero"></path><path stroke="#000000" stroke-width="2.0" stroke-linejoin="round" stroke-linecap="butt" d="m95.46183 122.623695l16.166359 -6.141083l7.121498 18.745842l-16.166367 6.141083z" fill-rule="nonzero"></path><path fill="#000000" d="m160.12727 98.059364l16.166367 -6.141083l7.1214905 18.745842l-16.166367 6.141083z" fill-rule="nonzero"></path><path stroke="#000000" stroke-width="2.0" stroke-linejoin="round" stroke-linecap="butt" d="m160.12727 98.059364l16.166367 -6.141083l7.1214905 18.745842l-16.166367 6.141083z" fill-rule="nonzero"></path><path fill="#ffffff" d="m147.60776 13.620375l0 0c0.21424866 0.5639515 2.216629 0.32645607 4.472458 -0.53046036c2.2558289 -0.8569164 3.9108582 -2.0087566 3.6966095 -2.5727081l78.067245 205.4956c0.21424866 0.5639496 -1.4407806 1.715805 -3.6966095 2.5727081c-2.2558289 0.85691833 -4.258209 1.0944214 -4.472458 0.5304718z" fill-rule="nonzero"></path><path fill="#ffffff" d="m147.60776 13.620375l0 0c-0.21424866 -0.5639515 1.4407959 -1.7157917 3.6966095 -2.5727081c2.2558289 -0.8569164 4.2582245 -1.0944118 4.472458 -0.53046036l0 0c0.21424866 0.5639515 -1.4407806 1.7157917 -3.6966095 2.5727081c-2.2558289 0.8569164 -4.258209 1.0944118 -4.472458 0.53046036z" fill-rule="nonzero"></path><path fill="#000000" fill-opacity="0.0" d="m155.77682 10.517206l0 0c0.21424866 0.5639515 -1.4407806 1.7157917 -3.6966095 2.5727081c-2.2558289 0.8569164 -4.258209 1.0944118 -4.472458 0.53046036l0 0c-0.21424866 -0.5639515 1.4407959 -1.7157917 3.6966095 -2.5727081c2.2558289 -0.8569164 4.2582245 -1.0944118 4.472458 -0.53046036l78.067245 205.4956c0.21424866 0.5639496 -1.4407806 1.715805 -3.6966095 2.5727081c-2.2558289 0.85691833 -4.258209 1.0944214 -4.472458 0.5304718l-78.067245 -205.49562" fill-rule="nonzero"></path><path stroke="#000000" stroke-width="2.0" stroke-linejoin="round" stroke-linecap="butt" d="m155.77682 10.517206l0 0c0.21424866 0.5639515 -1.4407806 1.7157917 -3.6966095 2.5727081c-2.2558289 0.8569164 -4.258209 1.0944118 -4.472458 0.53046036l0 0c-0.21424866 -0.5639515 1.4407959 -1.7157917 3.6966095 -2.5727081c2.2558289 -0.8569164 4.2582245 -1.0944118 4.472458 -0.53046036l78.067245 205.4956c0.21424866 0.5639496 -1.4407806 1.715805 -3.6966095 2.5727081c-2.2558289 0.85691833 -4.258209 1.0944214 -4.472458 0.5304718l-78.067245 -205.49562" fill-rule="nonzero"></path></g></svg>

