<?xml version="1.0" standalone="yes"?>

<svg version="1.1" viewBox="0.0 0.0 239.0 253.0" fill="none" stroke="none" stroke-linecap="square" stroke-miterlimit="10" xmlns="http://www.w3.org/2000/svg" xmlns:xlink="http://www.w3.org/1999/xlink"><clipPath id="p.0"><path d="m0 0l239.0 0l0 253.0l-239.0 0l0 -253.0z" clip-rule="nonzero"></path></clipPath><g clip-path="url(#p.0)"><path fill="#000000" fill-opacity="0.0" d="m0 0l239.61942 0l0 253.31233l-239.61942 0z" fill-rule="nonzero"></path><path fill="#000000" fill-opacity="0.0" d="m106.51706 6.4041996l44.755905 0l0 214.80315l-44.755905 0z" fill-rule="nonzero"></path><path stroke="#000000" stroke-width="2.0" stroke-linejoin="round" stroke-linecap="butt" d="m106.51706 6.4041996l44.755905 0l0 214.80315l-44.755905 0z" fill-rule="nonzero"></path><path fill="#000000" fill-opacity="0.0" d="m150.58005 221.20735l-21.685028 25.70079l-21.685043 -25.70079z" fill-rule="nonzero"></path><path stroke="#000000" stroke-width="2.0" stroke-linejoin="round" stroke-linecap="butt" d="m150.58005 221.20735l-21.685028 25.70079l-21.685043 -25.70079z" fill-rule="nonzero"></path><path fill="#000000" d="m137.13124 236.07349l-8.330719 10.834656l-8.330704 -10.834656z" fill-rule="nonzero"></path><path stroke="#000000" stroke-width="2.0" stroke-linejoin="round" stroke-linecap="butt" d="m137.13124 236.07349l-8.330719 10.834656l-8.330704 -10.834656z" fill-rule="nonzero"></path><path fill="#000000" fill-opacity="0.0" d="m107.36483 6.4041996l43.37008 0l0 15.118111l-43.37008 0z" fill-rule="nonzero"></path><path stroke="#000000" stroke-width="2.0" stroke-linejoin="round" stroke-linecap="butt" d="m107.36483 6.4041996l43.37008 0l0 15.118111l-43.37008 0z" fill-rule="nonzero"></path><path fill="#000000" fill-opacity="0.0" d="m106.38058 21.52231l44.755913 0l0 7.0236206l-44.755913 0z" fill-rule="nonzero"></path><path stroke="#000000" stroke-width="1.0" stroke-linejoin="round" stroke-linecap="butt" d="m106.38058 21.52231l44.755913 0l0 7.0236206l-44.755913 0z" fill-rule="nonzero"></path><path fill="#000000" fill-opacity="0.0" d="m106.38058 28.54593l44.755913 0l0 7.0236225l-44.755913 0z" fill-rule="nonzero"></path><path stroke="#000000" stroke-width="1.0" stroke-linejoin="round" stroke-linecap="butt" d="m106.38058 28.54593l44.755913 0l0 7.0236225l-44.755913 0z" fill-rule="nonzero"></path><path fill="#000000" fill-opacity="0.0" d="m120.14567 35.569553l0.12598419 185.6378" fill-rule="nonzero"></path><path stroke="#000000" stroke-width="2.0" stroke-linejoin="round" stroke-linecap="butt" d="m120.14567 35.569553l0.12598419 185.6378" fill-rule="nonzero"></path><path fill="#000000" fill-opacity="0.0" d="m137.12993 35.979004l0.12597656 185.63779" fill-rule="nonzero"></path><path stroke="#000000" stroke-width="2.0" stroke-linejoin="round" stroke-linecap="butt" d="m137.12993 35.979004l0.12597656 185.63779" fill-rule="nonzero"></path></g></svg>

