<?xml version="1.0" standalone="yes"?>

<svg version="1.1" viewBox="0.0 0.0 239.0 253.0" fill="none" stroke="none" stroke-linecap="square" stroke-miterlimit="10" xmlns="http://www.w3.org/2000/svg" xmlns:xlink="http://www.w3.org/1999/xlink"><clipPath id="p.0"><path d="m0 0l239.0 0l0 253.0l-239.0 0l0 -253.0z" clip-rule="nonzero"></path></clipPath><g clip-path="url(#p.0)"><path fill="#000000" fill-opacity="0.0" d="m0 0l239.61942 0l0 253.31233l-239.61942 0z" fill-rule="nonzero"></path><path fill="#000000" fill-opacity="0.0" d="m198.26167 25.966938l31.5932 31.700607l-152.14508 151.62955l-31.593193 -31.700607z" fill-rule="nonzero"></path><path stroke="#000000" stroke-width="2.0" stroke-linejoin="round" stroke-linecap="butt" d="m198.26167 25.966938l31.5932 31.700607l-152.14508 151.62955l-31.593193 -31.700607z" fill-rule="nonzero"></path><path fill="#000000" fill-opacity="0.0" d="m77.22067 208.8063l-33.511333 2.782669l2.8963966 -33.50171z" fill-rule="nonzero"></path><path stroke="#000000" stroke-width="2.0" stroke-linejoin="round" stroke-linecap="butt" d="m77.22067 208.8063l-33.511333 2.782669l2.8963966 -33.50171z" fill-rule="nonzero"></path><path fill="#000000" d="m57.197464 209.7745l-13.554825 1.7475433l1.7935295 -13.548828z" fill-rule="nonzero"></path><path stroke="#000000" stroke-width="2.0" stroke-linejoin="round" stroke-linecap="butt" d="m57.197464 209.7745l-13.554825 1.7475433l1.7935295 -13.548828z" fill-rule="nonzero"></path><path fill="#000000" fill-opacity="0.0" d="m198.86012 26.567413l30.61493 30.719025l-10.708145 10.671875l-30.614944 -30.719025z" fill-rule="nonzero"></path><path stroke="#000000" stroke-width="2.0" stroke-linejoin="round" stroke-linecap="butt" d="m198.86012 26.567413l30.61493 30.719025l-10.708145 10.671875l-30.614944 -30.719025z" fill-rule="nonzero"></path><path fill="#000000" fill-opacity="0.0" d="m187.45718 36.54214l31.593185 31.700611l-4.974823 4.9579697l-31.5932 -31.700607z" fill-rule="nonzero"></path><path stroke="#000000" stroke-width="1.0" stroke-linejoin="round" stroke-linecap="butt" d="m187.45718 36.54214l31.593185 31.700611l-4.974823 4.9579697l-31.5932 -31.700607z" fill-rule="nonzero"></path><path fill="#000000" fill-opacity="0.0" d="m182.48235 41.500114l31.5932 31.700607l-4.9748383 4.9579773l-31.593185 -31.700607z" fill-rule="nonzero"></path><path stroke="#000000" stroke-width="1.0" stroke-linejoin="round" stroke-linecap="butt" d="m182.48235 41.500114l31.5932 31.700607l-4.9748383 4.9579773l-31.593185 -31.700607z" fill-rule="nonzero"></path><path fill="#000000" fill-opacity="0.0" d="m187.22429 56.207905l-131.39832 131.13097" fill-rule="nonzero"></path><path stroke="#000000" stroke-width="2.0" stroke-linejoin="round" stroke-linecap="butt" d="m187.22429 56.207905l-131.39832 131.13097" fill-rule="nonzero"></path><path fill="#000000" fill-opacity="0.0" d="m198.92346 68.52688l-131.39832 131.13095" fill-rule="nonzero"></path><path stroke="#000000" stroke-width="2.0" stroke-linejoin="round" stroke-linecap="butt" d="m198.92346 68.52688l-131.39832 131.13095" fill-rule="nonzero"></path></g></svg>

