<?xml version="1.0" standalone="yes"?>

<svg version="1.1" viewBox="0.0 0.0 206.0 174.0" fill="none" stroke="none" stroke-linecap="square" stroke-miterlimit="10" xmlns="http://www.w3.org/2000/svg" xmlns:xlink="http://www.w3.org/1999/xlink"><clipPath id="p.0"><path d="m0 0l206.0 0l0 174.0l-206.0 0l0 -174.0z" clip-rule="nonzero"></path></clipPath><g clip-path="url(#p.0)"><path fill="#000000" fill-opacity="0.0" d="m0 0l206.19685 0l0 174.11285l-206.19685 0z" fill-rule="nonzero"></path><path fill="#000000" fill-opacity="0.0" d="m40.877953 109.05643l31.110237 0l0 -106.22047l62.220474 0l0 106.22047l31.11023 0l-62.220467 62.220474z" fill-rule="nonzero"></path><path stroke="#000000" stroke-width="2.0" stroke-linejoin="round" stroke-linecap="butt" d="m40.877953 109.05643l31.110237 0l0 -106.22047l62.220474 0l0 106.22047l31.11023 0l-62.220467 62.220474z" fill-rule="nonzero"></path><path fill="#cfe2f3" d="m2.7362204 30.437008l200.72441 0l0 53.606297l-200.72441 0z" fill-rule="nonzero"></path><path stroke="#000000" stroke-width="2.0" stroke-linejoin="round" stroke-linecap="butt" d="m2.7362204 30.437008l200.72441 0l0 53.606297l-200.72441 0z" fill-rule="nonzero"></path><path fill="#000000" d="m29.186104 64.67078l5.09375 -0.4375q0.359375 3.046875 1.671875 5.015625q1.328125 1.96875 4.109375 3.1875q2.78125 1.203125 6.265625 1.203125q3.09375 0 5.453125 -0.921875q2.375 -0.921875 3.53125 -2.515625q1.15625 -1.609375 1.15625 -3.5q0 -1.921875 -1.125 -3.3437462q-1.109375 -1.4375 -3.671875 -2.421875q-1.640625 -0.640625 -7.265625 -1.984375q-5.625 -1.34375 -7.875 -2.546875q-2.921875 -1.53125 -4.359375 -3.796875q-1.421875 -2.265625 -1.421875 -5.078125q0 -3.09375 1.75 -5.78125q1.75 -2.6875 5.109375 -4.078125q3.375 -1.390625 7.5 -1.390625q4.53125 0 8.0 1.46875q3.46875 1.453125 5.328125 4.296875q1.859375 2.84375 2.0 6.421875l-5.171875 0.390625q-0.421875 -3.859375 -2.828125 -5.828125q-2.40625 -1.984375 -7.109375 -1.984375q-4.890625 0 -7.140625 1.796875q-2.234375 1.796875 -2.234375 4.328125q0 2.1875 1.578125 3.609375q1.5625 1.421875 8.140625 2.921875q6.59375 1.484375 9.03125 2.59375q3.5625 1.640625 5.265625 4.15625q1.703125 2.515625 1.703125 5.812496q0 3.25 -1.875 6.140625q-1.859375 2.875 -5.359375 4.484375q-3.484375 1.59375 -7.859375 1.59375q-5.53125 0 -9.28125 -1.609375q-3.734375 -1.625 -5.875 -4.859375q-2.125 -3.25 -2.234375 -7.34375zm35.596786 13.109375l15.671875 -40.79687l5.8125 0l16.703125 40.79687l-6.15625 0l-4.765625 -12.359375l-17.0625 0l-4.46875 12.359375l-5.734375 0zm11.765625 -16.749996l13.828125 0l-4.25 -11.3125q-1.953125 -5.140625 -2.890625 -8.453125q-0.78125 3.921875 -2.203125 7.796875l-4.484375 11.96875zm42.61241 16.749996l-15.8125 -40.79687l5.84375 0l10.609375 29.640621q1.28125 3.5625 2.140625 6.671875q0.9375 -3.34375 2.203125 -6.671875l11.015633 -29.640621l5.515625 0l-15.984383 40.79687l-5.53125 0zm26.690529 0l0 -40.79687l29.5 0l0 4.8125l-24.109375 0l0 12.5l22.578125 0l0 4.78125l-22.578125 0l0 13.890621l25.046875 0l0 4.8125l-30.4375 0z" fill-rule="nonzero"></path></g></svg>

