<?xml version="1.0" standalone="no"?>
<!DOCTYPE svg PUBLIC "-//W3C//DTD SVG 20010904//EN"
 "http://www.w3.org/TR/2001/REC-SVG-20010904/DTD/svg10.dtd">
<svg version="1.0" xmlns="http://www.w3.org/2000/svg"
 width="32.000000pt" height="32.000000pt" viewBox="0 0 32.000000 32.000000"
 preserveAspectRatio="xMidYMid meet">
<metadata>
Created by potrace 1.10, written by Peter Selinger 2001-2011
</metadata>
<g transform="translate(0.000000,32.000000) scale(0.100000,-0.100000)"
fill="#000000" stroke="none">
<path d="M92 294 c-69 -35 -99 -120 -67 -188 62 -131 253 -101 272 43 15 108
-108 194 -205 145z m105 -4 c24 0 73 -52 83 -88 27 -100 -61 -189 -160 -162
-123 33 -126 212 -4 250 16 5 38 7 49 5 11 -3 25 -5 32 -5z"/>
<path d="M90 225 c-11 -12 -20 -34 -20 -50 0 -23 -3 -26 -12 -17 -20 20 -32
13 -13 -8 10 -11 23 -20 30 -20 7 0 20 9 30 20 19 21 8 29 -12 9 -9 -9 -11 -5
-9 15 4 38 30 60 71 60 47 0 79 -32 79 -79 0 -47 -32 -79 -79 -79 -19 0 -35
-4 -35 -8 0 -4 15 -8 34 -8 25 0 43 8 65 31 41 41 42 85 2 128 -25 27 -36 32
-71 29 -26 -1 -47 -9 -60 -23z"/>
</g>
</svg>
