<?xml version="1.0" encoding="UTF-8" standalone="no"?>
<svg
   xmlns:dc="http://purl.org/dc/elements/1.1/"
   xmlns:cc="http://creativecommons.org/ns#"
   xmlns:rdf="http://www.w3.org/1999/02/22-rdf-syntax-ns#"
   xmlns:svg="http://www.w3.org/2000/svg"
   xmlns="http://www.w3.org/2000/svg"
   xmlns:sodipodi="http://sodipodi.sourceforge.net/DTD/sodipodi-0.dtd"
   xmlns:inkscape="http://www.inkscape.org/namespaces/inkscape"
   version="1.0"
   width="96.000000pt"
   height="96.000000pt"
   viewBox="0 0 96.000000 96.000000"
   preserveAspectRatio="xMidYMid meet"
   id="svg2"
   inkscape:version="0.91 r13725"
   sodipodi:docname="slowdown_icon.svg">
  <defs
     id="defs14" />
  <sodipodi:namedview
     pagecolor="#ffffff"
     bordercolor="#666666"
     borderopacity="1"
     objecttolerance="10"
     gridtolerance="10"
     guidetolerance="10"
     inkscape:pageopacity="0"
     inkscape:pageshadow="2"
     inkscape:window-width="640"
     inkscape:window-height="480"
     id="namedview12"
     showgrid="false"
     inkscape:zoom="1.9666667"
     inkscape:cx="60"
     inkscape:cy="60"
     inkscape:window-x="119"
     inkscape:window-y="28"
     inkscape:window-maximized="0"
     inkscape:current-layer="svg2" />
  <metadata
     id="metadata4">
Created by potrace 1.10, written by Peter Selinger 2001-2011
<rdf:RDF>
  <cc:Work
     rdf:about="">
    <dc:format>image/svg+xml</dc:format>
    <dc:type
       rdf:resource="http://purl.org/dc/dcmitype/StillImage" />
  </cc:Work>
</rdf:RDF>
</metadata>
  <g
     transform="matrix(0.10398478,0,0,-0.10173374,-9.9619509e-4,97.664394)"
     id="g6"
     style="fill:#000000;stroke:none">
    <path
       d="m 377,940 c -4,-16 -14,-20 -49,-20 -24,0 -49,-5 -55,-11 -13,-13 -47,-33 -80,-48 -13,-6 -23,-15 -23,-21 0,-5 -4,-10 -10,-10 -13,0 -50,-37 -50,-50 0,-5 -4,-10 -9,-10 -9,0 -28,-29 -50,-77 -6,-13 -15,-23 -21,-23 -5,0 -10,-22 -10,-49 0,-28 -4,-53 -10,-56 -13,-8 -13,-152 0,-160 6,-3 10,-26 10,-49 0,-27 6,-48 15,-56 8,-7 15,-19 15,-27 0,-7 7,-16 15,-19 8,-4 15,-15 15,-25 0,-11 7,-22 15,-25 8,-4 15,-10 15,-15 0,-12 33,-44 53,-52 9,-3 17,-11 17,-17 0,-5 9,-10 19,-10 10,0 21,-7 25,-15 3,-8 12,-15 19,-15 8,0 20,-7 27,-15 7,-8 29,-15 49,-15 20,-1 47,-7 61,-15 32,-18 118,-18 150,0 14,8 41,14 61,15 20,0 42,7 49,15 7,8 19,15 27,15 7,0 16,7 19,15 4,8 15,15 25,15 10,0 19,5 19,10 0,6 8,14 17,17 21,8 53,40 53,53 0,6 7,13 15,16 8,4 15,14 15,24 0,10 7,20 15,24 8,3 15,12 15,19 0,8 7,20 15,27 8,7 15,29 15,49 1,20 7,47 15,61 8,14 14,48 14,75 0,28 -6,61 -14,75 -8,14 -14,41 -15,61 0,20 -7,42 -15,49 -8,7 -15,19 -15,27 0,7 -7,16 -15,19 -8,4 -15,14 -15,24 0,10 -7,20 -15,24 -8,3 -15,10 -15,16 0,13 -37,50 -50,50 -5,0 -10,5 -10,10 0,6 -10,15 -22,21 -34,15 -68,35 -81,48 -6,6 -31,11 -55,11 -35,0 -45,4 -49,20 -5,18 -14,20 -78,20 -64,0 -73,-2 -78,-20 z m 159,-35 c 16,-8 46,-15 66,-15 20,0 41,-6 45,-12 8,-13 35,-32 62,-45 8,-3 31,-23 51,-43 20,-20 40,-43 43,-51 13,-27 32,-54 45,-62 6,-4 12,-24 12,-43 0,-19 7,-51 15,-71 8,-19 15,-55 15,-78 0,-23 -7,-59 -15,-78 -8,-20 -15,-52 -15,-71 0,-19 -6,-39 -13,-43 -8,-4 -17,-15 -20,-23 C 809,231 738,150 709,137 682,124 655,105 647,93 643,86 623,80 604,80 585,80 553,73 533,65 488,46 422,46 377,65 c -20,8 -52,15 -72,15 -21,0 -38,6 -41,14 -3,8 -13,17 -22,20 -48,16 -134,101 -159,156 -3,8 -12,19 -20,23 -7,4 -13,25 -13,45 0,20 -7,50 -15,66 -8,15 -15,52 -15,81 0,29 7,66 15,81 8,16 15,46 15,66 0,20 6,41 13,45 8,4 17,15 20,23 25,55 111,140 159,156 9,3 19,12 22,20 3,9 20,14 43,14 21,0 49,7 63,14 34,19 131,20 166,1 z"
       id="path8"
       inkscape:connector-curvature="0" />
    <path
       d="m 480,755 c -7,-8 -22,-15 -34,-15 -12,0 -35,-13 -51,-30 -16,-16 -36,-30 -45,-30 -9,0 -29,-13 -45,-30 -16,-16 -36,-30 -46,-30 -9,0 -22,-7 -29,-15 -7,-8 -20,-15 -29,-15 -20,0 -91,-72 -91,-92 0,-19 72,-88 91,-88 8,0 35,-20 59,-45 24,-25 51,-45 60,-45 9,0 29,-14 45,-30 16,-17 36,-30 45,-30 9,0 29,-14 45,-30 42,-44 69,-37 73,18 3,42 24,58 36,27 3,-8 14,-15 24,-15 10,0 31,-14 47,-30 18,-19 38,-30 50,-28 20,3 20,9 20,283 0,276 0,280 -21,283 -11,2 -27,-4 -34,-13 -7,-8 -20,-15 -30,-15 -10,0 -30,-13 -43,-30 -35,-41 -47,-38 -47,15 0,37 -3,45 -19,45 -10,0 -24,-7 -31,-15 z"
       id="path10"
       inkscape:connector-curvature="0" />
  </g>
</svg>
