<?xml version="1.0" standalone="no"?>
<!DOCTYPE svg PUBLIC "-//W3C//DTD SVG 20010904//EN"
 "http://www.w3.org/TR/2001/REC-SVG-20010904/DTD/svg10.dtd">
<svg version="1.0" xmlns="http://www.w3.org/2000/svg"
 width="52.000000pt" height="52.000000pt" viewBox="0 0 52.000000 52.000000"
 preserveAspectRatio="xMidYMid meet">
<metadata>
Created by potrace 1.11, written by Peter Selinger 2001-2013
</metadata>
<g transform="translate(0.000000,52.000000) scale(0.100000,-0.100000)"
fill="#000000" stroke="none">
<path d="M205 510 c-3 -5 -15 -10 -26 -10 -39 0 -108 -54 -147 -115 -22 -34
-26 -52 -26 -120 -1 -106 28 -159 115 -213 102 -62 207 -49 298 38 25 24 47
55 55 75 31 88 31 100 10 164 -26 80 -119 171 -173 171 -11 0 -23 5 -26 10 -3
6 -21 10 -40 10 -19 0 -37 -4 -40 -10z m115 -26 c49 -10 135 -98 150 -155 25
-93 -15 -210 -88 -256 -15 -10 -30 -22 -34 -27 -3 -5 -46 -9 -95 -10 -89 0
-89 0 -140 39 -59 46 -76 71 -92 139 -20 80 1 147 65 213 33 34 61 53 76 53
12 0 30 5 38 10 15 10 48 9 120 -6z"/>
<path d="M185 365 c-48 -29 -97 -63 -109 -75 l-21 -21 31 -27 c46 -40 64 -53
128 -95 46 -31 60 -36 67 -25 5 7 9 18 9 25 0 13 60 -16 60 -29 0 -5 7 -8 15
-8 13 0 15 23 15 151 l0 151 -27 -7 c-16 -3 -36 -14 -45 -22 -17 -15 -18 -14
-18 5 0 11 -4 23 -8 26 -5 3 -48 -19 -97 -49z"/>
</g>
</svg>
