<?xml version="1.0" standalone="no"?>
<!DOCTYPE svg PUBLIC "-//W3C//DTD SVG 20010904//EN"
 "http://www.w3.org/TR/2001/REC-SVG-20010904/DTD/svg10.dtd">
<svg version="1.0" xmlns="http://www.w3.org/2000/svg"
 width="52.000000pt" height="52.000000pt" viewBox="0 0 52.000000 52.000000"
 preserveAspectRatio="xMidYMid meet">
<metadata>
Created by potrace 1.11, written by Peter Selinger 2001-2013
</metadata>
<g transform="translate(0.000000,52.000000) scale(0.100000,-0.100000)"
fill="#000000" stroke="none">
<path d="M205 510 c-3 -5 -15 -10 -26 -10 -40 0 -120 -65 -149 -120 -76 -149
2 -316 168 -360 51 -13 135 0 172 28 50 38 92 85 104 117 31 88 31 100 10 164
-26 80 -119 171 -173 171 -11 0 -23 5 -26 10 -3 6 -21 10 -40 10 -19 0 -37 -4
-40 -10z m115 -26 c49 -10 135 -98 150 -155 25 -93 -15 -210 -88 -256 -15 -10
-30 -22 -34 -27 -3 -5 -47 -9 -96 -10 l-90 0 -48 39 c-65 52 -71 60 -90 125
-13 47 -14 63 -3 113 10 50 20 68 65 113 33 35 61 54 76 54 12 0 30 5 38 10
15 10 48 9 120 -6z"/>
<path d="M130 265 c0 -85 3 -155 6 -155 4 0 23 14 43 32 l36 32 5 -29 c7 -39
18 -39 65 -5 22 17 53 38 69 48 62 37 82 59 70 79 -18 30 -175 145 -190 139
-8 -3 -14 -17 -14 -32 l0 -26 -40 36 c-22 20 -42 36 -45 36 -3 0 -5 -70 -5
-155z"/>
</g>
</svg>
