<?xml version="1.0" standalone="no"?>
<!DOCTYPE svg PUBLIC "-//W3C//DTD SVG 20010904//EN"
 "http://www.w3.org/TR/2001/REC-SVG-20010904/DTD/svg10.dtd">
<svg version="1.0" xmlns="http://www.w3.org/2000/svg"
 width="96.000000pt" height="96.000000pt" viewBox="0 0 96.000000 96.000000"
 preserveAspectRatio="xMidYMid meet">
<metadata>
Created by potrace 1.10, written by Peter Selinger 2001-2011
</metadata>
<g transform="translate(0.000000,96.000000) scale(0.100000,-0.100000)"
fill="#000000" stroke="none">
<path d="M377 940 c-4 -16 -14 -20 -49 -20 -24 0 -49 -5 -55 -11 -13 -13 -47
-33 -80 -48 -13 -6 -23 -15 -23 -21 0 -5 -4 -10 -10 -10 -13 0 -50 -37 -50
-50 0 -5 -5 -10 -10 -10 -6 0 -15 -10 -21 -22 -15 -34 -35 -68 -48 -81 -6 -6
-11 -30 -11 -53 0 -24 -4 -46 -10 -49 -13 -8 -13 -152 0 -160 6 -3 10 -26 10
-50 0 -24 5 -47 11 -50 5 -4 14 -17 20 -28 14 -33 33 -61 46 -70 7 -4 13 -12
13 -17 0 -13 32 -45 53 -53 9 -3 17 -11 17 -17 0 -5 9 -10 19 -10 10 0 21 -7
25 -15 3 -8 12 -15 19 -15 8 0 20 -7 27 -15 7 -8 29 -15 49 -15 20 -1 47 -7
61 -15 32 -18 118 -18 150 0 14 8 41 14 61 15 20 0 42 7 49 15 7 8 19 15 27
15 7 0 16 7 19 15 4 8 15 15 25 15 10 0 19 5 19 10 0 6 8 14 17 17 21 8 53 40
53 53 0 6 7 13 15 16 8 4 15 14 15 24 0 10 7 20 15 24 8 3 15 12 15 19 0 8 7
20 15 27 8 7 15 29 15 49 1 20 7 47 15 61 8 14 14 48 14 75 0 28 -6 61 -14 75
-8 14 -14 41 -15 61 0 20 -7 42 -15 49 -8 7 -15 19 -15 27 0 7 -7 16 -15 19
-8 4 -15 14 -15 24 0 10 -7 20 -15 24 -8 3 -15 10 -15 16 0 13 -32 45 -53 53
-9 3 -17 11 -17 17 0 5 -9 10 -19 10 -10 0 -21 7 -25 15 -3 8 -12 15 -19 15
-8 0 -20 7 -27 15 -8 9 -30 15 -57 15 -36 0 -46 4 -50 20 -5 18 -14 20 -78 20
-64 0 -73 -2 -78 -20z m159 -35 c16 -8 46 -15 66 -15 20 0 41 -6 45 -12 8 -13
35 -32 62 -45 8 -3 31 -23 51 -43 20 -20 40 -43 43 -51 13 -27 32 -54 45 -62
6 -4 12 -24 12 -43 0 -19 7 -51 15 -71 8 -19 15 -55 15 -78 0 -23 -7 -59 -15
-78 -8 -20 -15 -52 -15 -71 0 -19 -6 -39 -13 -43 -8 -4 -17 -15 -20 -23 -18
-39 -89 -120 -118 -133 -27 -13 -54 -32 -62 -44 -4 -7 -24 -13 -43 -13 -19 0
-51 -7 -71 -15 -45 -19 -111 -19 -156 0 -20 8 -52 15 -72 15 -21 0 -38 6 -41
14 -3 8 -13 17 -22 20 -48 16 -134 101 -159 156 -3 8 -12 19 -20 23 -7 4 -13
25 -13 45 0 20 -7 50 -15 66 -8 15 -15 52 -15 81 0 29 7 66 15 81 8 16 15 46
15 66 0 20 6 41 13 45 8 4 17 15 20 23 25 55 111 140 159 156 9 3 19 12 22 20
3 9 20 14 43 14 21 0 49 7 63 14 34 19 131 20 166 1z"/>
<path d="M235 757 c-3 -7 -4 -134 -3 -282 3 -318 2 -315 100 -216 33 34 64 61
68 61 5 0 10 -26 12 -57 3 -49 6 -58 23 -61 12 -2 32 9 50 28 16 16 36 30 45
30 9 0 36 20 60 45 24 25 52 45 61 45 9 0 22 7 29 15 7 8 20 15 29 15 21 0 91
70 91 90 0 19 -104 120 -122 120 -8 0 -34 20 -58 45 -24 25 -51 45 -60 45 -9
0 -36 20 -60 45 -62 64 -84 59 -88 -17 -2 -32 -7 -58 -12 -58 -5 0 -34 27 -66
60 -55 58 -89 74 -99 47z"/>
</g>
</svg>
