<?xml version="1.0" standalone="no"?>
<!DOCTYPE svg PUBLIC "-//W3C//DTD SVG 20010904//EN"
 "http://www.w3.org/TR/2001/REC-SVG-20010904/DTD/svg10.dtd">
<svg version="1.0" xmlns="http://www.w3.org/2000/svg"
 width="32.000000pt" height="32.000000pt" viewBox="0 0 32.000000 32.000000"
 preserveAspectRatio="xMidYMid meet">
<metadata>
Created by potrace 1.10, written by Peter Selinger 2001-2011
</metadata>
<g transform="translate(0.000000,32.000000) scale(0.100000,-0.100000)"
fill="#000000" stroke="none">
<path d="M92 294 c-69 -35 -99 -120 -67 -188 62 -131 253 -101 272 43 15 108
-108 194 -205 145z m99 -4 c42 -12 76 -45 88 -87 7 -24 5 -32 -10 -41 -16 -11
-19 -9 -19 9 0 11 -13 34 -29 50 -42 42 -99 41 -135 -2 -37 -44 -35 -92 5
-130 35 -33 93 -40 103 -14 4 13 2 14 -14 5 -46 -24 -104 18 -104 76 0 96 131
108 159 14 7 -22 6 -23 -9 -11 -24 20 -27 10 -5 -18 l20 -24 26 24 c21 19 25
21 20 6 -4 -10 -7 -22 -7 -27 0 -5 -12 -22 -26 -39 -47 -57 -143 -61 -192 -8
-67 71 -37 189 54 217 39 11 34 11 75 0z"/>
</g>
</svg>
